<svg width="105" height="64" viewBox="0 0 105 64" fill="none" xmlns="http://www.w3.org/2000/svg">
<path d="M93.5454 43.1735L99.8479 10.1663L99.779 9.92608L82.8074 14.7926L81.0654 8.71782L105.725 1.64683L107.491 7.80743L101.216 40.974L93.5454 43.1735Z" fill="#E5E7EB"/>
<path d="M78.1525 7.77075L78.8922 53.0958L72.5943 54.9017L71.8547 9.57663L78.1525 7.77075Z" fill="#E5E7EB"/>
<path d="M38.2724 52.338L36.5945 46.4863L44.6384 19.164L49.6836 17.7173L52.0062 25.817L49.0202 26.6732L43.9681 43.9633L44.0469 44.2379L64.8967 38.2593L66.6042 44.214L38.2724 52.338ZM56.9125 53.6787L54.6293 45.7163L54.0236 43.0857L46.9722 18.4948L53.9394 16.497L64.0169 51.6416L56.9125 53.6787Z" fill="#E5E7EB"/>
<path d="M10.8935 66.8754L9.35825 61.5213L18.5467 46.3508C19.3154 45.0161 19.942 43.8336 20.4266 42.8032C20.9226 41.7696 21.2461 40.8039 21.3973 39.9063C21.5452 38.9972 21.4863 38.0793 21.2206 37.1527C20.9254 36.1231 20.4366 35.3037 19.7543 34.6946C19.0688 34.074 18.2624 33.68 17.3354 33.5125C16.405 33.3335 15.425 33.3917 14.3954 33.6869C13.32 33.9953 12.4442 34.4816 11.7681 35.146C11.0919 35.8104 10.6529 36.611 10.4511 37.5479C10.2493 38.4848 10.3091 39.5139 10.6306 40.635L3.57769 42.6574C2.91832 40.3579 2.86641 38.2123 3.42197 36.2206C3.97752 34.229 5.06054 32.5008 6.67103 31.0361C8.28151 29.5715 10.3109 28.4881 12.7591 27.7861C15.2759 27.0644 17.5947 26.8824 19.7153 27.24C21.8441 27.5829 23.6538 28.3888 25.1442 29.6576C26.6347 30.9264 27.6703 32.5733 28.2509 34.5982C28.6315 35.9253 28.744 37.3106 28.5884 38.7543C28.4443 40.1947 27.935 41.8945 27.0607 43.8538C26.183 45.8016 24.8522 48.2199 23.0681 51.1086L19.3789 57.6079L19.4478 57.8482L34.2057 53.6164L35.9477 59.6912L10.8935 66.8754Z" fill="#E5E7EB"/>
</svg>
