<svg width="28" height="34" viewBox="0 0 28 34" fill="none" xmlns="http://www.w3.org/2000/svg">
<g filter="url(#filter0_d_2387_2050)">
<path fill-rule="evenodd" clip-rule="evenodd" d="M4.66418 0.000244728C4.95485 0.234653 5.25366 0.459686 5.53495 0.704952C11.4536 5.8728 17.3704 11.0426 23.2873 16.2119C23.3315 16.2504 23.3762 16.288 23.4189 16.3277C23.6387 16.5325 23.7075 16.7504 23.6135 16.9739C23.5101 17.2199 23.3061 17.3119 23.0532 17.3171C22.1442 17.3361 21.2351 17.3539 20.3261 17.3734C17.9243 17.4242 15.5222 17.4731 13.1207 17.5348C13.0158 17.5375 12.8821 17.6354 12.8152 17.7277C10.9962 20.2401 9.18457 22.7579 7.36951 25.2727C7.29696 25.3726 7.21677 25.4773 7.11684 25.5449C6.78423 25.7699 6.36056 25.5535 6.31195 25.1274C6.23768 24.4733 6.18044 23.8169 6.11826 23.1611C5.95541 21.443 5.79329 19.7246 5.63241 18.0063C5.47474 16.3213 5.32003 14.6362 5.16162 12.9512C4.98594 11.0836 4.80631 9.21621 4.63063 7.34859C4.47222 5.66356 4.31701 3.97828 4.15983 2.29325C4.11197 1.77854 4.07249 1.2626 4.00907 0.749861C3.96737 0.414287 4.06903 0.1668 4.3634 0C4.46383 0.000246746 4.564 0.000244728 4.66418 0.000244728ZM21.6576 16.3079C21.6623 16.2783 21.6667 16.2487 21.6712 16.2191C16.1973 11.4369 10.7235 6.65449 5.24971 1.87231C5.23121 1.88045 5.2127 1.88835 5.19419 1.89674C5.87275 9.11554 6.55154 16.3343 7.237 23.6269C7.33373 23.4961 7.38653 23.4258 7.43785 23.3543C9.00741 21.1765 10.5789 18.9999 12.1431 16.818C12.3143 16.5791 12.5142 16.4708 12.8112 16.4651C15.3382 16.419 17.8646 16.3607 20.3913 16.3094C20.8137 16.3005 21.2356 16.3079 21.6576 16.3079Z" fill="#1B1B1B"/>
<path fill-rule="evenodd" clip-rule="evenodd" d="M21.6578 16.307C21.2359 16.307 20.814 16.2996 20.392 16.3082C17.8654 16.3595 15.3389 16.4178 12.812 16.4639C12.5149 16.4693 12.315 16.5779 12.1438 16.8167C10.5797 18.999 9.00816 21.1753 7.43861 23.3531C7.38728 23.4246 7.33423 23.4949 7.23776 23.6257C6.5523 16.3331 5.8735 9.11433 5.19495 1.89553C5.21345 1.88738 5.23196 1.87924 5.25046 1.87109C10.7243 6.65328 16.1981 11.4357 21.6719 16.2179C21.667 16.2478 21.6625 16.2774 21.6578 16.307Z" fill="white"/>
</g>
<defs>
<filter id="filter0_d_2387_2050" x="0.00012207" y="0" width="27.6544" height="33.6348" filterUnits="userSpaceOnUse" color-interpolation-filters="sRGB">
<feFlood flood-opacity="0" result="BackgroundImageFix"/>
<feColorMatrix in="SourceAlpha" type="matrix" values="0 0 0 0 0 0 0 0 0 0 0 0 0 0 0 0 0 0 127 0" result="hardAlpha"/>
<feOffset dy="4"/>
<feGaussianBlur stdDeviation="2"/>
<feComposite in2="hardAlpha" operator="out"/>
<feColorMatrix type="matrix" values="0 0 0 0 0 0 0 0 0 0 0 0 0 0 0 0 0 0 0.25 0"/>
<feBlend mode="normal" in2="BackgroundImageFix" result="effect1_dropShadow_2387_2050"/>
<feBlend mode="normal" in="SourceGraphic" in2="effect1_dropShadow_2387_2050" result="shape"/>
</filter>
</defs>
</svg>
