<svg width="65" height="68" viewBox="0 0 65 68" fill="none" xmlns="http://www.w3.org/2000/svg">
<path d="M49.4551 49.0856L51.1369 47.3152L47.1213 43.5012L45.4395 45.2716L49.4551 49.0856ZM56.6704 46.5698L63.7243 50.6301L66.4871 45.8302L59.4332 41.7699L56.6704 46.5698ZM65.0856 59.0479L59.8405 64.5699L63.8561 68.3839L69.1012 62.8619L65.0856 59.0479ZM56.6848 66.3392C51.3865 66.8624 37.5618 66.416 22.5562 50.6179L18.5407 54.4319C34.8946 71.6497 50.4948 72.5155 57.2286 71.8509L56.6848 66.3392ZM22.5562 50.6179C8.24489 35.5504 5.8443 22.841 5.54509 17.2665L0.0147875 17.5633C0.381237 24.391 3.28027 38.3657 18.5407 54.4319L22.5562 50.6179ZM27.6343 26.1124L28.6932 24.9974L24.6777 21.1834L23.6187 22.2983L27.6343 26.1124ZM29.5252 11.1167L24.8694 4.53172L20.3472 7.72904L25.003 14.314L29.5252 11.1167ZM9.11119 3.11207L3.31593 9.21338L7.33148 13.0275L13.1267 6.92622L9.11119 3.11207ZM25.6265 24.2053C23.6187 22.2983 23.6162 22.301 23.6136 22.3037C23.6127 22.3046 23.6101 22.3074 23.6084 22.3092C23.6049 22.313 23.6013 22.3168 23.5977 22.3207C23.5904 22.3285 23.5829 22.3367 23.5751 22.3452C23.5596 22.3622 23.5432 22.3806 23.5259 22.4005C23.4914 22.4402 23.4534 22.4856 23.4129 22.5369C23.3317 22.6395 23.2399 22.7656 23.1436 22.916C22.9504 23.2179 22.7409 23.6155 22.5635 24.114C22.2028 25.1277 22.0062 26.4702 22.2519 28.1468C22.7345 31.4406 24.8928 35.8702 30.532 41.8072L34.5475 37.9932C29.2764 32.4434 27.9781 29.0256 27.7316 27.3438C27.6127 26.5326 27.7335 26.1051 27.7813 25.9707C27.8081 25.8953 27.8257 25.8743 27.8085 25.9013C27.8002 25.9142 27.7836 25.9385 27.7557 25.974C27.7417 25.9913 27.7249 26.012 27.7048 26.0349C27.6948 26.0467 27.6839 26.0589 27.6722 26.0718C27.6663 26.0781 27.6602 26.0848 27.6539 26.0914C27.6508 26.0951 27.6475 26.0984 27.6443 26.1017C27.6426 26.1036 27.6401 26.1062 27.6393 26.1073C27.6368 26.1099 27.6343 26.1124 25.6265 24.2053ZM30.532 41.8072C36.1547 47.7269 40.4011 50.0541 43.641 50.5802C45.3036 50.8501 46.6494 50.6345 47.6685 50.2328C48.1665 50.0364 48.5605 49.8056 48.8562 49.5959C49.0039 49.491 49.1269 49.3917 49.2258 49.3049C49.2757 49.2614 49.3192 49.2207 49.3573 49.1838C49.3765 49.1657 49.3942 49.148 49.4104 49.1318C49.4185 49.1236 49.4263 49.1155 49.4337 49.1078C49.4374 49.1041 49.4411 49.1004 49.4448 49.0967C49.4466 49.0948 49.4492 49.0919 49.4499 49.0912C49.4525 49.0882 49.4551 49.0856 47.4473 47.1786C45.4395 45.2716 45.4421 45.269 45.4446 45.2664C45.4454 45.2653 45.448 45.2627 45.4494 45.2609C45.4528 45.2576 45.4561 45.2542 45.4594 45.2509C45.4661 45.2443 45.4723 45.2376 45.4782 45.2313C45.4908 45.2192 45.5026 45.2073 45.5137 45.1966C45.5358 45.1752 45.5562 45.1568 45.5739 45.1413C45.609 45.1102 45.6352 45.0903 45.6521 45.0785C45.6869 45.0537 45.6832 45.0622 45.6363 45.0807C45.565 45.1088 45.2294 45.2273 44.529 45.1136C43.0425 44.8721 39.8355 43.5603 34.5475 37.9932L30.532 41.8072ZM24.8694 4.53172C21.127 -0.761326 13.6385 -1.65432 9.11119 3.11207L13.1267 6.92622C15.0572 4.89385 18.4556 5.0535 20.3472 7.72904L24.8694 4.53172ZM5.54509 17.2665C5.46597 15.7922 6.10793 14.3157 7.33148 13.0275L3.31593 9.21338C1.33748 11.2963 -0.166277 14.1899 0.0147875 17.5633L5.54509 17.2665ZM59.8405 64.5699C58.8104 65.6547 57.7326 66.2358 56.6848 66.3392L57.2286 71.8509C59.9871 71.5784 62.2194 70.1075 63.8561 68.3839L59.8405 64.5699ZM28.6932 24.9974C32.2657 21.2364 32.5187 15.3504 29.5252 11.1167L25.003 14.314C26.5617 16.5185 26.3227 19.4515 24.6777 21.1834L28.6932 24.9974ZM63.7243 50.6301C66.7548 52.3746 67.3482 56.666 65.0856 59.0479L69.1012 62.8619C73.9191 57.7892 72.5161 49.3005 66.4871 45.8302L63.7243 50.6301ZM51.1369 47.3152C52.5599 45.8169 54.7774 45.4802 56.6704 46.5698L59.4332 41.7699C55.3774 39.4353 50.3471 40.1047 47.1213 43.5012L51.1369 47.3152Z" fill="#E5E7EB"/>
</svg>
