<svg width="84" height="81" viewBox="0 0 84 81" fill="none" xmlns="http://www.w3.org/2000/svg">
<path d="M62.8428 23.5065C67.032 24.5372 70.8844 26.6311 74.0278 29.5858C77.1712 32.5405 79.4993 36.2561 80.7871 40.3735C82.1989 45.2134 82.0014 50.3809 80.2242 55.0989L89.0561 69.211L71.7686 66.9693C68.0713 70.0632 63.7583 72.3353 59.1158 73.6351C53.4307 75.4947 47.3182 75.6053 41.5695 73.9524C35.8208 72.2995 30.7006 68.9592 26.8714 64.3639" stroke="#E5E7EB" stroke-width="5" stroke-linecap="round" stroke-linejoin="round"/>
<path d="M64.8421 28.3C68.8002 42.1036 59.0893 56.997 43.1709 61.5616C38.5451 62.9195 33.6834 63.2781 28.9084 62.6136L26.7179 64.4069L15.4357 73.6756L15.4474 57.0277C11.44 53.9684 8.53416 49.6908 7.16671 44.8382C3.20861 31.0346 12.9195 16.1411 28.8379 11.5766C42.7954 7.57438 56.9155 12.8465 62.8431 23.5054C63.6968 25.0189 64.3678 26.6283 64.8421 28.3Z" stroke="#E5E7EB" stroke-width="5" stroke-linecap="round" stroke-linejoin="round"/>
</svg>
