<svg width="20" height="20" viewBox="0 0 20 20" fill="none" xmlns="http://www.w3.org/2000/svg">
<path fill-rule="evenodd" clip-rule="evenodd" d="M10 18.75C5.1675 18.75 1.25 14.8313 1.25 10C1.25 5.16875 5.1675 1.25 10 1.25C14.8325 1.25 18.75 5.16875 18.75 10C18.75 14.8313 14.8325 18.75 10 18.75ZM10 0C4.47688 0 0 4.475 0 10C0 15.525 4.47688 20 10 20C15.5231 20 20 15.525 20 10C20 4.475 15.5231 0 10 0ZM13.5731 6.42502C13.3269 6.18127 12.9287 6.18127 12.6825 6.42502L9.99626 9.11247L7.34875 6.46248C7.10437 6.21873 6.70812 6.21873 6.465 6.46248C6.22062 6.70623 6.22062 7.10626 6.465 7.35001L9.11251 9.99374L6.44627 12.6625C6.20064 12.9063 6.20064 13.3062 6.44627 13.5562C6.69252 13.8 7.09124 13.8 7.33749 13.5562L10.0037 10.8875L12.6513 13.5375C12.8956 13.7813 13.2919 13.7813 13.5356 13.5375C13.78 13.2938 13.78 12.8937 13.5356 12.65L10.8875 10.0063L13.5731 7.31873C13.8187 7.06873 13.8187 6.67502 13.5731 6.42502Z" fill="black"/>
</svg>
