<svg width="20" height="19" viewBox="0 0 20 19" fill="none" xmlns="http://www.w3.org/2000/svg">
<path d="M12.0395 13.2814L11.2741 13.5575L11.3175 15.4554L12.0495 15.7003L12.3313 16.3339L12.0208 17.0467L12.5701 17.6312C12.4322 17.6647 12.2908 17.6882 12.1504 17.7113C8.85602 18.2531 3.81642 18.0361 0.90825 16.2504C-0.0937557 15.6351 -0.147248 15.2354 0.178056 14.1164C0.80257 11.9663 2.89878 10.6033 4.8767 9.83003C5.21244 9.69869 6.0731 9.36165 6.39145 9.34382C6.48147 9.33903 6.55106 9.34904 6.62195 9.40905L8.72859 11.0669L11.0266 9.34469C11.8129 9.53691 12.5883 9.79394 13.3237 10.1292C13.5855 10.2484 14.144 10.5002 14.3492 10.6663C14.4036 10.7103 14.4023 10.7081 14.3492 10.7516C13.8978 11.123 13.6312 10.729 13.1772 10.6207L11.9595 11.8793C11.8533 12.058 12.2034 12.4747 12.2669 12.6647L12.0395 13.2814ZM8.7934 16.5901L9.79062 14.917L8.79165 11.2321L8.70772 11.1212L7.72789 14.9636L8.67075 16.5183L8.7934 16.5901Z" fill="#444444"/>
<path d="M8.26398 0.021763C12.0206 -0.342247 14.286 3.93759 12.3881 7.05407C10.5802 10.0227 6.35651 9.80306 4.81306 6.70267C3.43704 3.93889 5.10357 0.327931 8.26398 0.021763Z" fill="#444444"/>
<path d="M16.429 10.2568L16.6612 10.9366C16.917 10.9657 17.371 11.2701 17.5902 11.2819C17.7967 11.2932 18.0903 10.9914 18.2682 11.0401C18.326 11.0557 19.1228 11.8055 19.1475 11.8603C19.2119 12.0034 18.911 12.3809 18.9144 12.5648L19.3198 13.4646L19.9878 13.686C19.9656 13.8939 20.0504 14.9216 19.9491 15.0059C19.863 15.0773 19.5603 15.1255 19.4407 15.1921C19.2015 15.3247 19.1175 15.9336 18.9666 16.178L19.2471 16.8225L18.4213 17.7106C18.2886 17.7893 17.8415 17.4409 17.6798 17.4653C17.6328 17.4722 16.8595 17.8397 16.8248 17.8723C16.6908 17.9972 16.6517 18.4982 16.5347 18.5373L15.2896 18.5447L15.013 17.8893C14.9534 17.8415 14.1432 17.5423 14.0658 17.5431C13.8792 17.5449 13.5548 17.8336 13.4243 17.7997C13.2525 17.6253 12.6302 17.1669 12.5458 16.9791C12.4753 16.8221 12.7228 16.5281 12.758 16.3628C12.8037 16.1493 12.4144 15.6461 12.3849 15.3856L11.7069 15.1521L11.6538 13.8839L12.3475 13.569L12.7019 12.6623L12.4075 12.0103L13.2651 11.0971C13.3573 11.0514 13.7335 11.2949 13.8701 11.3206C14.1636 11.3767 14.602 11.0105 14.9021 10.9361L15.0912 10.3008L16.4281 10.2573L16.429 10.2568ZM15.7749 12.824C13.9627 12.8884 13.7031 15.5487 15.46 15.9349C17.8515 16.4611 18.0673 12.7423 15.7749 12.824Z" fill="#444444"/>
<path d="M15.5541 13.2139C17.5042 12.883 17.5064 15.7733 15.7181 15.6337C14.309 15.5237 14.2707 13.4318 15.5541 13.2139Z" fill="#444444"/>
</svg>
