<svg width="20" height="20" viewBox="0 0 20 20" fill="none" xmlns="http://www.w3.org/2000/svg">
<path d="M4.13192 10H0.868051C0.38864 10 0 10.3886 0 10.8681V19.1319C0 19.6113 0.38864 19.9999 0.868051 19.9999H4.13192C4.61133 19.9999 4.99997 19.6113 4.99997 19.1319V10.8681C4.99997 10.3886 4.61133 10 4.13192 10Z" fill="#444444"/>
<path d="M11.6319 0H8.36805C7.88864 0 7.5 0.38864 7.5 0.868051V19.1318C7.5 19.6113 7.88864 19.9999 8.36805 19.9999H11.6319C12.1113 19.9999 12.5 19.6113 12.5 19.1318V0.868051C12.5 0.38864 12.1113 0 11.6319 0Z" fill="#444444"/>
<path d="M19.1319 6.66699H15.8681C15.3886 6.66699 15 7.05563 15 7.53504V19.1322C15 19.6116 15.3886 20.0003 15.8681 20.0003H19.1319C19.6113 20.0003 20 19.6116 20 19.1322V7.53504C20 7.05563 19.6113 6.66699 19.1319 6.66699Z" fill="#444444"/>
</svg>
