<svg width="9" height="16" viewBox="0 0 9 16" fill="none" xmlns="http://www.w3.org/2000/svg">
<path d="M0.28785 8.5216H2.04171V15.7419C2.04171 15.8845 2.15722 16 2.29977 16H5.2735C5.41606 16 5.53157 15.8845 5.53157 15.7419V8.55561H7.54778C7.67887 8.55561 7.78917 8.45724 7.80414 8.32702L8.11036 5.66885C8.11877 5.59572 8.09559 5.52248 8.04667 5.46761C7.99768 5.4127 7.9276 5.38126 7.85405 5.38126H5.53167V3.71499C5.53167 3.2127 5.80212 2.95799 6.33559 2.95799C6.41162 2.95799 7.85405 2.95799 7.85405 2.95799C7.9966 2.95799 8.11211 2.84243 8.11211 2.69992V0.259974C8.11211 0.117419 7.9966 0.00190968 7.85405 0.00190968H5.7614C5.74664 0.0011871 5.71386 0 5.66556 0C5.30246 0 4.04037 0.0712774 3.04341 0.988439C1.93879 2.0048 2.09234 3.22173 2.12904 3.43272V5.38121H0.28785C0.145295 5.38121 0.0297852 5.49672 0.0297852 5.63928V8.26348C0.0297852 8.40604 0.145295 8.5216 0.28785 8.5216Z" fill="#444444"/>
</svg>
