<svg width="15" height="14" viewBox="0 0 15 14" fill="none" xmlns="http://www.w3.org/2000/svg">
<path d="M9.98429 0.000976607H4.06716C3.53647 0.00093736 3.01096 0.105431 2.52065 0.308492C2.03034 0.511553 1.58483 0.809204 1.20956 1.18445C0.83429 1.55969 0.536606 2.00518 0.333509 2.49547C0.130412 2.98577 0.025879 3.51127 0.025879 4.04196V9.9591C0.0257612 10.4899 0.130208 11.0155 0.333252 11.5059C0.536297 11.9963 0.833961 12.4418 1.20924 12.8172C1.58453 13.1925 2.03008 13.4903 2.52044 13.6934C3.01081 13.8965 3.53639 14.001 4.06716 14.001H9.98429C10.515 14.0011 11.0405 13.8966 11.5308 13.6935C12.0212 13.4905 12.4667 13.1928 12.842 12.8176C13.2173 12.4423 13.5149 11.9968 13.718 11.5065C13.9211 11.0162 14.0256 10.4907 14.0256 9.95999V4.04286C14.0257 3.51208 13.9213 2.98646 13.7183 2.49605C13.5153 2.00563 13.2176 1.56002 12.8423 1.18468C12.467 0.80933 12.0214 0.511602 11.5311 0.308499C11.0407 0.105396 10.5151 0.000898071 9.98429 0.000976607ZM12.7358 10.064C12.7356 10.7752 12.453 11.4573 11.9501 11.9602C11.4472 12.4631 10.7651 12.7457 10.0539 12.7458H3.99753C3.2861 12.7458 2.60382 12.4632 2.10076 11.9602C1.59771 11.4571 1.3151 10.7748 1.3151 10.0634V4.00729C1.3151 3.29587 1.59771 2.61358 2.10076 2.11053C2.60382 1.60747 3.2861 1.32486 3.99753 1.32486H10.0539C10.7654 1.32486 11.4476 1.60747 11.9507 2.11053C12.4537 2.61358 12.7364 3.29587 12.7364 4.00729L12.7358 10.064Z" fill="#444444"/>
<path d="M7.02662 3.40234C6.30811 3.40228 5.60573 3.61529 5.00828 4.01443C4.41084 4.41357 3.94517 4.98091 3.67017 5.6447C3.39517 6.3085 3.32319 7.03893 3.46332 7.74364C3.60346 8.44835 3.94942 9.09567 4.45746 9.60375C4.9655 10.1118 5.6128 10.4578 6.31749 10.598C7.02219 10.7382 7.75263 10.6663 8.41645 10.3914C9.08027 10.1164 9.64764 9.6508 10.0468 9.05339C10.446 8.45598 10.6591 7.75361 10.6591 7.03511C10.6591 6.07169 10.2764 5.14773 9.59518 4.46646C8.91397 3.78519 7.99003 3.40242 7.02662 3.40234ZM7.02662 9.38971C6.56084 9.38977 6.1055 9.2517 5.71819 8.99296C5.33089 8.73422 5.02901 8.36644 4.85073 7.93613C4.67246 7.50581 4.6258 7.0323 4.71665 6.57546C4.80751 6.11863 5.0318 5.699 5.36115 5.36964C5.69051 5.04028 6.11014 4.816 6.56697 4.72514C7.02381 4.63429 7.49732 4.68095 7.92764 4.85922C8.35795 5.03749 8.72573 5.33937 8.98447 5.72668C9.24321 6.11399 9.38128 6.56933 9.38122 7.03511C9.38122 7.65959 9.13315 8.25849 8.69157 8.70006C8.25 9.14163 7.6511 9.38971 7.02662 9.38971Z" fill="#444444"/>
<path d="M10.7792 4.11063C11.2466 4.11063 11.6255 3.73171 11.6255 3.2643C11.6255 2.79688 11.2466 2.41797 10.7792 2.41797C10.3118 2.41797 9.93286 2.79688 9.93286 3.2643C9.93286 3.73171 10.3118 4.11063 10.7792 4.11063Z" fill="#444444"/>
</svg>
