<svg width="86" height="107" viewBox="0 0 86 107" fill="none" xmlns="http://www.w3.org/2000/svg">
<path d="M75.9929 11.1238C71.5873 6.23677 66.1393 1.8213 60.0447 1.00007C57.8358 0.698009 55.7334 0.412939 53.5477 1.38652C46.1102 4.6695 43.9808 19.2504 48.1883 29.4598C50.6081 35.327 55.3207 40.2039 59.2093 42.3758C63.1441 44.5762 64.4512 44.9497 64.4512 44.9497C67.1122 45.6916 69.6279 45.6328 70.8872 47.5158C71.1727 47.9501 71.2517 48.3642 71.3428 48.4886C71.473 48.6615 74.0546 54.8039 76.9943 61.781C80.0868 69.1543 83.112 76.5592 85.2223 81.4853C85.4611 82.0418 85.5955 82.352 85.6254 82.416C88.3916 89.7583 84.9393 101.2 76.8599 104.934C68.1417 108.95 57.0869 102.934 54.1052 97.5133C50.5364 91.0146 46.9541 84.5223 43.3853 78.0236C40.8431 73.3666 38.8495 69.7056 38.7975 69.6297C38.6686 69.3894 38.5094 68.9794 38.9633 68.2322C39.4173 67.4849 43.008 60.1224 41.1841 54.1264C39.3737 48.1242 22.1229 17.4583 21.8273 17.2125C21.5317 16.9666 19.418 16.2023 19.2413 18.5573L34.9856 50.9814C34.9856 50.9814 34.6533 53.8103 32.0292 52.5164L15.9702 20.1562C15.9702 20.1562 13.6984 18.5637 13.0316 21.449L28.9364 54.2156C28.9364 54.2156 28.1895 57.1051 25.6812 55.6734L9.51317 23.0803C9.51317 23.0803 7.30118 21.8607 6.35038 24.595L22.075 57.3625C22.075 57.3625 21.6838 60.1354 18.959 58.872L3.18139 26.4469C3.18139 26.4469 0.767976 24.9374 0.231206 27.6449C0.231206 27.6449 14.0275 60.8142 17.5015 65.2187C20.9755 69.6231 25.2729 71.687 29.9588 72.5833C29.9588 72.5833 31.0446 72.6595 31.5323 73.7009C35.2674 81.6755 37.4867 87.5698 42.9673 99.2714C44.238 101.984 45.0595 103.738 46.6401 105.922C47.9673 107.74 52.1136 113.299 59.6286 116.312C70.7452 120.78 80.7002 116.251 81.8843 115.696C82.5975 115.362 93.6767 109.905 96.8875 97.458C99.2867 88.1474 95.9752 79.9911 93.7864 74.6172C90.6597 66.9257 80.6275 48.484 78.9389 45.6493C77.7288 43.6263 77.9468 42.6554 78.2199 41.5919C78.4929 40.5284 88.5939 25.1711 75.9923 11.1575L75.9929 11.1238ZM18.1871 62.7589C19.7749 64.1873 21.9584 65.8713 24.7653 67.3802C27.2023 68.6949 29.4615 69.5247 31.3058 70.0644C29.8592 70.0235 27.1696 69.7461 24.23 68.199C20.9005 66.4503 19.0249 63.9872 18.1807 62.7452L18.1871 62.7589ZM76.5386 36.1807C76.5386 36.1807 83.7168 25.9684 72.5268 11.3605C72.5268 11.3605 86.065 24.501 76.5386 36.1807Z" fill="#008B7C" fill-opacity="0.2"/>
</svg>
