<svg width="19" height="20" viewBox="0 0 19 20" fill="none" xmlns="http://www.w3.org/2000/svg">
<path d="M11.9622 3.36002L14.2149 3.95783C14.2736 3.96982 14.3213 4.01783 14.3349 4.07693L14.9287 6.32956C14.9447 6.39569 15.0029 6.44218 15.0706 6.44218C15.1389 6.44218 15.1964 6.39569 15.2118 6.32956L15.8065 4.07693C15.8192 4.01787 15.8672 3.96982 15.9259 3.95783L18.1789 3.36002C18.2447 3.34767 18.2915 3.28892 18.2915 3.22123C18.2915 3.1529 18.2447 3.09537 18.1789 3.08216L15.9259 2.48462C15.8672 2.47204 15.8192 2.42462 15.8065 2.36556L15.2118 0.11293C15.1964 0.047383 15.1388 0 15.0706 0C15.0029 0 14.9447 0.047383 14.9287 0.11293L14.3349 2.36556C14.3213 2.42462 14.2736 2.47204 14.2149 2.48462L11.9622 3.08216C11.8957 3.0954 11.8496 3.15294 11.8496 3.22123C11.8496 3.28892 11.8958 3.34771 11.9622 3.36002Z" fill="#444444"/>
<path d="M14.2662 12.7552L13.2437 12.4841C13.2169 12.478 13.1951 12.457 13.1892 12.43L12.9197 11.4075C12.9126 11.3777 12.8865 11.3564 12.8554 11.3564C12.8249 11.3564 12.7985 11.3777 12.7911 11.4075L12.5216 12.43C12.5154 12.4571 12.4939 12.478 12.4671 12.4841L11.445 12.7552C11.4148 12.7611 11.3936 12.7875 11.3936 12.8183C11.3936 12.8491 11.4148 12.8756 11.445 12.8817L12.4671 13.1525C12.4939 13.158 12.5154 13.1802 12.5216 13.2072L12.7911 14.2291C12.7985 14.2589 12.8249 14.2802 12.8554 14.2802C12.8865 14.2802 12.9126 14.2589 12.9197 14.2291L13.1892 13.2072C13.1951 13.1802 13.2169 13.158 13.2437 13.1525L14.2662 12.8817C14.2957 12.8756 14.3173 12.8491 14.3173 12.8183C14.3172 12.7875 14.2957 12.7611 14.2662 12.7552Z" fill="#444444"/>
<path d="M0.69544 5.47216L2.30498 5.89861C2.3474 5.90755 2.38099 5.94173 2.39111 5.98415L2.8151 7.59369C2.82678 7.64139 2.86834 7.67432 2.91666 7.67432C2.96526 7.67432 3.00651 7.64139 3.01791 7.59369L3.44221 5.98415C3.45116 5.94173 3.48592 5.90755 3.52807 5.89861L5.13792 5.47216C5.18499 5.46232 5.21851 5.41985 5.21851 5.37185C5.21851 5.32384 5.18499 5.28263 5.13792 5.27278L3.52807 4.84567C3.48592 4.83645 3.45116 4.80325 3.44221 4.76075L3.01791 3.15031C3.00651 3.10352 2.96529 3.07031 2.91666 3.07031C2.86838 3.07031 2.82682 3.10352 2.8151 3.15031L2.39111 4.76079C2.38096 4.80325 2.3474 4.83645 2.30498 4.84571L0.69544 5.27282C0.647432 5.28267 0.614502 5.32388 0.614502 5.37189C0.614502 5.41985 0.647432 5.46235 0.69544 5.47216Z" fill="#444444"/>
<path d="M14.7093 10.8159C14.4016 10.4559 13.9619 10.1366 13.4198 9.86887H13.4204C12.3391 9.33348 10.8564 9.00582 9.21791 9.00488L9.2133 9.00516V9.00488C8.13728 9.00516 7.12743 9.14641 6.2545 9.39504C5.38156 9.64368 4.64683 9.99813 4.11757 10.4289L4.11847 10.4283C3.76496 10.7157 3.50495 11.0363 3.36066 11.3849C3.27816 11.5828 3.2348 11.7914 3.23511 12.0027C3.23511 12.1766 3.37605 12.3178 3.55019 12.3178C3.72437 12.3178 3.86527 12.1766 3.86527 12.0027C3.86558 11.8757 3.8896 11.7548 3.94281 11.6255C4.0348 11.4015 4.22281 11.1548 4.51543 10.9178L4.51633 10.9172C4.95203 10.5603 5.61727 10.2304 6.42712 10.0012C7.23696 9.77012 8.19267 9.63504 9.2133 9.63535H9.2299C10.7779 9.63567 12.1764 9.95352 13.1401 10.4335L13.141 10.4338C13.6247 10.672 13.9979 10.952 14.2302 11.2252C14.3472 11.3622 14.4302 11.4966 14.4835 11.6255C14.55 11.7865 14.734 11.8628 14.8949 11.7963C15.0558 11.7299 15.1321 11.5458 15.0657 11.3849C14.9834 11.1861 14.8635 10.9956 14.7093 10.8159Z" fill="#444444"/>
<path d="M18.1983 10.6239C18.0654 10.3033 17.8835 10.0052 17.6641 9.72978C17.4447 9.4547 17.1881 9.20177 16.9025 8.96915L16.885 8.95501L16.902 8.96915C16.0441 8.27192 14.9151 7.73899 13.6075 7.36485H13.6072C12.2983 6.99285 10.805 6.78516 9.21731 6.78516C8.00746 6.78516 6.85296 6.90578 5.79268 7.12762C4.73237 7.34949 3.76623 7.67254 2.93298 8.08422L2.93236 8.08454C2.10005 8.49747 1.39235 9.00024 0.867114 9.61345L0.876645 9.60173L0.866802 9.61345C0.604652 9.92056 0.388049 10.2575 0.23633 10.6239C0.084337 10.9907 -0.000272778 11.3861 6.60705e-07 11.7931V14.9913C-0.000272778 15.3988 0.084337 15.7944 0.23633 16.1612C0.36926 16.4818 0.551136 16.7796 0.770512 17.055C0.990201 17.3304 1.24649 17.583 1.532 17.8156L1.53262 17.8159C2.39048 18.5126 3.51908 19.0467 4.82678 19.4202L4.83381 19.4218C6.14132 19.7926 7.63207 20 9.21731 20.0003H9.21762C10.4272 20 11.5816 19.8794 12.6419 19.6575C13.7023 19.4356 14.6684 19.1123 15.5016 18.7009L15.5022 18.7003C16.3345 18.2873 17.0419 17.7843 17.5675 17.1716L17.5678 17.1711C17.8299 16.8646 18.0462 16.528 18.1979 16.1612L18.1884 16.1837L18.1982 16.1612C18.3499 15.7944 18.4346 15.3988 18.4346 14.9914V11.7932C18.4346 11.3861 18.35 10.9907 18.1983 10.6239ZM2.06251 16.6569C1.9656 16.5655 1.87513 16.4726 1.79454 16.3787C1.60345 16.1547 1.46005 15.9255 1.36434 15.6947C1.26864 15.4634 1.22067 15.2304 1.22067 14.9914V13.5415C1.40743 13.772 1.62805 13.9895 1.87759 14.1932C1.93763 14.2415 1.99915 14.2893 2.06251 14.3366V16.6569ZM3.8299 17.7711C3.70838 17.7181 3.58869 17.664 3.47388 17.6068C3.2065 17.4745 2.96033 17.3332 2.73576 17.1859V14.7766C3.07084 14.9689 3.43697 15.1452 3.8299 15.304V17.7711ZM6.01851 18.4575C5.46405 18.3402 4.94373 18.1935 4.46405 18.0221H4.50373V15.5498C4.65787 15.6009 4.81604 15.6492 4.97725 15.6954C5.31081 15.7902 5.65913 15.8732 6.01851 15.9455V18.4575ZM8.88039 18.776C8.11793 18.7606 7.385 18.691 6.69206 18.579V16.0634C7.38898 16.171 8.12191 16.2341 8.88039 16.2489V18.776ZM11.8269 18.564C11.1093 18.6836 10.3481 18.7587 9.55422 18.7741V16.2504C10.3431 16.235 11.1053 16.1664 11.8269 16.0519V18.564ZM14.0155 18.0067C13.778 18.0929 13.5306 18.1729 13.273 18.2461C13.0244 18.3169 12.7653 18.3799 12.5001 18.4378V15.9289C13.0333 15.8187 13.5404 15.6815 14.0155 15.5212V18.0067ZM15.7832 17.1286C15.4644 17.347 15.0976 17.5501 14.6887 17.7347V15.2689C14.8856 15.1873 15.0767 15.1018 15.2592 15.0116C15.4416 14.9209 15.6161 14.8258 15.7832 14.7273V17.1286ZM17.2139 14.9913C17.2139 15.2304 17.166 15.4634 17.07 15.6947C16.9469 15.9938 16.7404 16.2913 16.4564 16.5766V14.3015H16.4164C16.6958 14.0882 16.9435 13.8609 17.1518 13.6175C17.173 13.5926 17.1933 13.5673 17.2139 13.5421V14.9913H17.2139ZM17.07 12.496C16.9038 12.8996 16.5869 13.3003 16.1315 13.671C15.45 14.2273 14.4614 14.7098 13.273 15.0473C12.0851 15.3858 10.6979 15.5812 9.21735 15.5812C6.96164 15.5822 4.92131 15.1258 3.47392 14.408C2.75025 14.0502 2.17669 13.628 1.79454 13.1797C1.60345 12.956 1.46005 12.7267 1.36434 12.496C1.26864 12.2646 1.22067 12.032 1.22067 11.7932C1.22067 11.5545 1.26864 11.3219 1.36434 11.0904C1.53114 10.6865 1.84743 10.2858 2.30314 9.91568C2.98501 9.35904 3.9733 8.8763 5.16163 8.53876C6.34964 8.20063 7.73703 8.00551 9.21735 8.00551C11.4731 8.00426 13.513 8.46091 14.9605 9.17845C15.6844 9.53599 16.2583 9.95877 16.6398 10.4064C16.8312 10.6301 16.9746 10.8594 17.07 11.0904C17.166 11.3218 17.214 11.5544 17.214 11.7932C17.214 12.032 17.166 12.2646 17.07 12.496Z" fill="#444444"/>
</svg>
