<svg width="18" height="20" viewBox="0 0 18 20" fill="none" xmlns="http://www.w3.org/2000/svg">
<path d="M5.35181 18.2422C6.1929 19.3114 7.51422 20.0004 9.00002 20.0004C10.4858 20.0004 11.8071 19.3114 12.6482 18.2422C10.2264 18.5704 7.77362 18.5704 5.35181 18.2422Z" fill="#444444"/>
<path d="M15.7491 7V7.7041C15.7491 8.5491 15.9903 9.3752 16.4422 10.0782L17.5496 11.8012C18.5612 13.3749 17.789 15.5139 16.0296 16.0116C11.4273 17.3134 6.57274 17.3134 1.97036 16.0116C0.21105 15.5139 -0.56118 13.3749 0.450361 11.8012L1.5578 10.0782C2.00972 9.3752 2.25087 8.5491 2.25087 7.7041V7C2.25087 3.13401 5.27256 0 9 0C12.7274 0 15.7491 3.13401 15.7491 7Z" fill="#444444"/>
</svg>
