<svg width="19" height="20" viewBox="0 0 19 20" fill="none" xmlns="http://www.w3.org/2000/svg">
<path d="M5.71435 8.69531H3.72681V10.6831H5.71435V8.69531Z" fill="#444444"/>
<path d="M14.4099 8.69531H12.4224V10.6831H14.4099V8.69531Z" fill="#444444"/>
<path d="M11.5115 8.69531H9.52393V10.6831H11.5115V8.69531Z" fill="#444444"/>
<path d="M5.71435 11.8018H3.72681V13.7895H5.71435V11.8018Z" fill="#444444"/>
<path d="M11.5115 11.8018H9.52393V13.7895H11.5115V11.8018Z" fill="#444444"/>
<path d="M8.61303 11.8018H6.62549V13.7895H8.61303V11.8018Z" fill="#444444"/>
<path d="M14.4099 14.9072H12.4224V16.895H14.4099V14.9072Z" fill="#444444"/>
<path d="M11.5115 14.9072H9.52393V16.895H11.5115V14.9072Z" fill="#444444"/>
<path d="M8.61303 14.9072H6.62549V16.895H8.61303V14.9072Z" fill="#444444"/>
<path d="M16.2275 2.14941H14.6112V3.69907C14.6112 4.27729 14.1349 4.74754 13.5494 4.74754H11.4391C10.8536 4.74754 10.3773 4.27729 10.3773 3.69907V2.14941H7.75641V3.6845C7.75641 4.27076 7.2748 4.74754 6.68281 4.74754H4.59594C4.00395 4.74754 3.52234 4.27076 3.52234 3.6845V2.14941H1.90609C0.855078 2.14941 0 2.99678 0 4.0383V18.1108C0 19.1523 0.855078 19.9997 1.90609 19.9997H16.2275C17.2801 19.9997 18.1365 19.1523 18.1365 18.1108V4.0383C18.1365 2.99682 17.2801 2.14941 16.2275 2.14941ZM16.7701 18.0741C16.7701 18.4085 16.5454 18.6331 16.2111 18.6331H1.92543C1.59105 18.6331 1.36641 18.4085 1.36641 18.0741V6.95592H16.7701V18.0741Z" fill="#444444"/>
<path d="M4.59651 4.0043H6.68214C6.85874 4.0043 7.00241 3.8616 7.00241 3.68616V0.800531C7.00241 0.359112 6.6403 0 6.19515 0H5.08347C4.63835 0 4.27612 0.359073 4.27612 0.800531V3.68616C4.27616 3.8616 4.41983 4.0043 4.59651 4.0043Z" fill="#444444"/>
<path d="M11.4387 4.0043H13.5491C13.7189 4.0043 13.8571 3.86706 13.8571 3.69858V0.788226C13.8571 0.353643 13.5005 0 13.0621 0H11.9257C11.4874 0 11.1309 0.353643 11.1309 0.788226V3.69858C11.1308 3.86706 11.269 4.0043 11.4387 4.0043Z" fill="#444444"/>
</svg>
