<svg width="24" height="13" viewBox="0 0 24 13" fill="none" xmlns="http://www.w3.org/2000/svg">
<path d="M1.20329 6.71476H1.17742L0.763601 0H0V6.71476V7.13427V7.97345V11.7506H0.763601L0.983695 9.23264H4.70929L5.02074 11.7506H5.45663V9.02266V7.97395V6.71476H4.39833H1.20329ZM4.65715 8.81307H1.02002L1.09372 7.974H4.55379L4.65715 8.81307Z" fill="#444444"/>
<path d="M22.6392 6.71476H22.6134H19.4193H18.0466V7.97395V11.7511H18.7968L19.1083 9.23314H22.8339L23.054 11.7511H23.9219V7.97395V7.13477V6.71516V0H23.0536L22.6392 6.71476ZM22.7966 8.81308H19.1596L19.2634 7.974H22.7234L22.7966 8.81308Z" fill="#444444"/>
<path d="M20.5645 3.82619V2.46754C20.5645 2.26321 20.3989 2.09766 20.1947 2.09766H3.72726C3.52298 2.09766 3.35742 2.26321 3.35742 2.46754V3.82619C3.35742 4.03052 3.52298 4.19607 3.72726 4.19607H8.39397V5.03515H10.0728V11.2834C10.0728 11.2997 10.0767 11.3145 10.0776 11.3303H8.39447V12.1695H10.9125H13.011H15.529V11.3303H13.8458C13.8467 11.3145 13.8506 11.2993 13.8506 11.2834V5.03515H15.5295V4.19607H20.1961C20.3994 4.19607 20.5645 4.03052 20.5645 3.82619Z" fill="#444444"/>
</svg>
