<svg width="21" height="21" viewBox="0 0 21 21" fill="none" xmlns="http://www.w3.org/2000/svg">
<path d="M3.91301 0.756836C3.67388 0.756836 3.47823 0.952486 3.47823 1.19161V2.7091L0.617352 4.75222C0.50431 4.83048 0.434779 4.9655 0.434779 5.10463V6.84374C0.434779 7.08287 0.63043 7.27852 0.869558 7.27852H10.4347C10.6738 7.27852 10.8695 7.08287 10.8695 6.84374V5.10463C10.8695 4.9655 10.7999 4.83048 10.6869 4.75222L7.82602 2.7091V1.19161C7.82602 0.952486 7.63037 0.756836 7.39124 0.756836H3.91301ZM2.60358 9.45242C2.36489 9.45242 2.16965 9.64807 2.16965 9.88719V10.322H0.43393C0.195236 10.322 0 10.5176 0 10.7568V20.3219C0 20.561 0.195236 20.7567 0.43393 20.7567H10.7863C11.0597 20.7567 11.2805 20.5347 11.2805 20.2607V10.7924C11.2805 10.5324 11.0704 10.322 10.8109 10.322H9.11083V9.94579C9.11083 9.67318 8.89048 9.45242 8.61831 9.45242H2.60358ZM12.646 10.322C12.6168 10.3211 12.4309 10.3198 12.2935 10.468C12.187 10.5828 12.176 10.7176 12.1738 10.7568V13.8002H20.8694V10.7568C20.8694 10.5176 20.6742 10.322 20.4355 10.322H19.5243H15.6198H12.646ZM2.16965 12.0611H9.11168C9.35037 12.0611 9.54561 12.2567 9.54561 12.4959V18.5828C9.54561 18.8219 9.35037 19.0176 9.11168 19.0176H2.16965C1.93096 19.0176 1.73572 18.8219 1.73572 18.5828V12.4959C1.73572 12.2567 1.93096 12.0611 2.16965 12.0611ZM13.8841 12.0611H19.0904C19.3291 12.0611 19.5243 12.2567 19.5243 12.4959C19.5243 12.735 19.3291 12.9306 19.0904 12.9306H13.8841C13.6454 12.9306 13.4501 12.735 13.4501 12.4959C13.4501 12.2567 13.6454 12.0611 13.8841 12.0611ZM2.60358 12.9306V18.148H8.67775V12.9306H2.60358ZM12.1738 14.6698V20.3219C12.1747 20.358 12.1819 20.497 12.2901 20.6149C12.4241 20.7601 12.6054 20.7575 12.6332 20.7567H20.4355C20.6742 20.7567 20.8694 20.561 20.8694 20.3219V14.6698H12.1738ZM13.8841 15.9741C14.1228 15.9741 14.318 16.1698 14.318 16.4089V18.5828C14.318 18.8219 14.1228 19.0176 13.8841 19.0176C13.6454 19.0176 13.4501 18.8219 13.4501 18.5828V16.4089C13.4501 16.1698 13.6454 15.9741 13.8841 15.9741Z" fill="#008B7C"/>
</svg>
