<svg width="20" height="20" viewBox="0 0 20 20" fill="none" xmlns="http://www.w3.org/2000/svg">
<mask id="mask0_1992_91" style="mask-type:luminance" maskUnits="userSpaceOnUse" x="0" y="0" width="20" height="20">
<path d="M20 0H0V20H20V0Z" fill="white"/>
</mask>
<g mask="url(#mask0_1992_91)">
<path fill-rule="evenodd" clip-rule="evenodd" d="M0.833333 0C1.29357 0 1.66667 0.373096 1.66667 0.833333V6.66667H4.16667C3.70643 6.66667 3.33333 6.29357 3.33333 5.83333V4.16667C3.33333 3.70643 3.70643 3.33333 4.16667 3.33333H7.5C7.96023 3.33333 8.33333 3.70643 8.33333 4.16667V5.83333C8.33333 6.29357 7.96023 6.66667 7.5 6.66667H10.8333C10.3731 6.66667 10 6.29357 10 5.83333V2.5C10 2.03977 10.3731 1.66667 10.8333 1.66667H15.8333C16.2936 1.66667 16.6667 2.03977 16.6667 2.5V5.83333C16.6667 6.29357 16.2936 6.66667 15.8333 6.66667H18.3333V0.833333C18.3333 0.373096 18.7064 0 19.1667 0C19.6269 0 20 0.373096 20 0.833333V19.1667C20 19.6269 19.6269 20 19.1667 20C18.7064 20 18.3333 19.6269 18.3333 19.1667V18.3333H1.66667V19.1667C1.66667 19.6269 1.29357 20 0.833333 20C0.373096 20 0 19.6269 0 19.1667V0.833333C0 0.373096 0.373096 0 0.833333 0ZM18.3333 16.6667H15.8333C16.2936 16.6667 16.6667 16.2936 16.6667 15.8333V12.5C16.6667 12.0398 16.2936 11.6667 15.8333 11.6667H11.6667C11.2064 11.6667 10.8333 12.0398 10.8333 12.5V15.8333C10.8333 16.2936 11.2064 16.6667 11.6667 16.6667H8.33333C8.79358 16.6667 9.16667 16.2936 9.16667 15.8333V10.8333C9.16667 10.3731 8.79358 10 8.33333 10H4.16667C3.70643 10 3.33333 10.3731 3.33333 10.8333V15.8333C3.33333 16.2936 3.70643 16.6667 4.16667 16.6667H1.66667V8.33333H18.3333V16.6667Z" fill="#444444"/>
</g>
</svg>
