<svg width="122" height="156" viewBox="0 0 122 156" fill="none" xmlns="http://www.w3.org/2000/svg">
<path d="M43.994 148.701C83.0439 148.701 114.7 117.045 114.7 77.995C114.7 38.9452 83.0439 7.28906 43.994 7.28906C4.94423 7.28906 -26.7119 38.9452 -26.7119 77.995C-26.7119 117.045 4.94423 148.701 43.994 148.701Z" fill="#008B7C"/>
<path d="M78.4964 46.5185C76.7389 40.8511 73.9325 35.1701 69.1915 32.173C67.475 31.0831 65.8402 30.0477 63.6468 30.0068C56.1947 29.8433 48.7563 40.9192 48.2795 50.8508C48.007 56.559 50.0233 62.3354 52.4074 65.5914C54.8187 68.8883 55.7588 69.6921 55.7588 69.6921C57.6797 71.3133 59.7913 72.226 60.1047 74.2423C60.1728 74.7055 60.0774 75.0733 60.1047 75.2096C60.1455 75.4003 59.9003 81.3946 59.6278 88.2064C59.3281 95.3996 58.9603 102.593 58.7968 107.416C58.7786 107.96 58.7696 108.265 58.7696 108.328C58.211 115.372 50.8952 123.382 42.7347 123.341C33.9339 123.287 27.0949 114.159 26.7271 108.601C26.2911 101.939 25.8416 95.277 25.4056 88.6151C25.1059 83.8469 24.8743 80.1004 24.8607 80.0187C24.8471 79.7734 24.8743 79.3784 25.5419 78.9424C26.2094 78.5065 32.0539 73.8745 32.8713 68.2888C33.7023 62.7032 31.3046 31.1103 31.1547 30.797C31.0049 30.4836 29.5472 29.0532 28.4845 30.906L28.9477 63.3571C28.9477 63.3571 27.5718 65.5369 25.8961 63.4797L25.1468 30.9605C25.1468 30.9605 23.8798 28.7943 22.2041 30.8923L22.6673 63.6841C22.6673 63.6841 20.9235 65.7549 19.3977 63.6296L18.6484 30.8787C18.6484 30.8787 17.286 29.0395 15.4332 30.906L15.7466 63.6296C15.7466 63.6296 14.3433 65.7412 12.5723 63.6705L12.0818 31.2057C12.0818 31.2057 10.665 29.0532 9.16641 31.0558C9.16641 31.0558 7.72232 63.3708 8.89394 68.2888C10.0656 73.2069 12.8311 76.5311 16.3732 79.0514C16.3732 79.0514 17.2451 79.5282 17.2451 80.5636C17.2451 88.4925 16.7956 94.1462 16.7956 105.781C16.7956 108.478 16.7956 110.222 17.2588 112.606C17.6538 114.595 18.9345 120.712 24.0024 126.039C31.4953 133.927 41.5222 134.036 42.7211 134.036C43.4431 134.036 54.7642 133.818 62.2708 124.894C67.8837 118.219 68.306 110.304 68.5785 105.086C68.9736 97.6202 67.8156 78.7517 67.5158 75.7954C67.2979 73.6837 67.8564 72.9753 68.4967 72.2124C69.137 71.4495 83.4962 62.7849 78.4828 46.5457L78.4964 46.5185ZM10.4198 66.545C11.1827 68.3161 12.3407 70.5231 14.0845 72.8255C15.5967 74.8281 17.1498 76.3676 18.4713 77.5119C17.286 76.9261 15.1607 75.6728 13.3216 73.2887C11.2372 70.5912 10.6377 67.8665 10.4198 66.5314V66.545ZM69.2052 67.1581C69.2052 67.1581 79.1367 61.5725 75.5265 45.3877C75.5265 45.3877 81.657 61.2727 69.2052 67.1581Z" fill="white"/>
<path d="M44 155C86.5259 155 121 120.526 121 78C121 35.4741 86.5259 1 44 1C1.47408 1 -33 35.4741 -33 78C-33 120.526 1.47408 155 44 155Z" stroke="#008B7C" stroke-miterlimit="10"/>
</svg>
