<svg width="12" height="22" viewBox="0 0 12 22" fill="none" xmlns="http://www.w3.org/2000/svg">
<path d="M10.8037 0C9.34725 0 8.16626 1.18031 8.16626 2.63739V11.531C8.16626 12.5313 8.72451 13.4026 9.54609 13.8493V22H11.2632V0.0436656C11.1147 0.0181381 10.9595 0 10.8037 0Z" fill="#008B7C"/>
<path d="M5.48037 5.36008C5.48037 5.23311 5.475 5.10615 5.46425 4.98321L5.05178 0.0429688H4.35582V5.41382H3.74517V0.0436407H3.05391V5.41382H2.44326V0.0436407H1.752V5.41382H1.14202V0.0429688H0.44539L0.0214964 4.91805C0.00738904 5.06315 0 5.21094 0 5.36008C0 6.84202 0.749706 8.15131 1.88837 8.9299V22H3.62156L3.61619 8.90907C4.74142 8.12981 5.48037 6.8306 5.48037 5.36008Z" fill="#008B7C"/>
</svg>
