<svg width="20" height="18" viewBox="0 0 20 18" fill="none" xmlns="http://www.w3.org/2000/svg">
<path d="M17.3757 13.931L12.8181 15.004C12.7865 15.2317 12.6915 15.4755 12.5491 15.6706C12.2801 16.0934 11.8687 16.4023 11.3939 16.5323C10.9192 16.6462 10.4128 16.5649 10.0013 16.2722L6.07675 13.7033C5.88685 13.5895 5.8552 13.3619 5.96597 13.1831C6.07675 13.0042 6.2983 12.9554 6.45655 13.0693L10.3969 15.6381C10.9192 15.9633 11.5996 15.817 11.932 15.2967C12.2643 14.7764 12.106 14.061 11.5996 13.7196L6.69392 10.5329C5.88685 10.0126 4.95318 9.60616 4.06699 10.0614L0 12.4352L0.0158246 17.0526L2.91178 14.9878C3.3707 14.874 3.87709 14.9715 4.30436 15.2479L7.72254 17.4591C8.56125 17.9956 9.58987 18.1257 10.4761 17.8818L17.8821 16.1421C18.4676 16.0121 18.8632 15.4105 18.7208 14.7602C18.5626 14.1748 17.9771 13.8009 17.3757 13.931ZM14.1949 12.7116C17.6131 12.5002 20.2084 9.47609 19.9868 5.96422C19.7811 2.45235 16.8377 -0.214067 13.4195 0.0135544C10.0013 0.224917 7.40604 3.24903 7.62759 6.7609C7.83331 10.2565 10.7767 12.9229 14.1949 12.7116ZM12.4225 5.05374C12.2484 4.71231 12.739 4.5172 12.9922 4.25706C13.3087 3.91563 13.9892 3.34658 13.9101 3.13522C13.8309 2.90759 13.1346 2.27351 12.7548 2.41983C12.6757 2.41983 12.2326 2.92385 12.1377 3.00515C12.1377 2.8263 12.106 2.72875 12.106 2.56616C12.106 2.45235 11.8845 2.3548 11.9003 2.27351C11.9161 2.0784 12.3909 1.70445 12.5016 1.55813C12.4067 1.49309 12.0902 1.26547 12.0111 1.29799C11.8054 1.4118 11.5522 1.49309 11.3306 1.59064C11.3306 1.50935 11.3148 1.42806 11.299 1.37928C11.7262 1.15166 12.1851 0.989073 12.6599 0.875262L13.0872 1.03785L13.4037 1.37928L13.7202 1.6882C13.7202 1.6882 13.9101 1.76949 13.9892 1.76949C14.0841 1.75323 14.3848 1.34676 14.3848 1.34676L14.2582 1.03785L14.2424 0.761452C15.0969 0.842746 15.8882 1.10288 16.6003 1.55813C16.4895 1.57439 16.3313 1.59064 16.1888 1.63942C16.1255 1.6069 15.7932 1.67194 15.809 1.81826C15.8249 1.93208 16.4104 2.41983 16.6636 2.84256C16.9168 3.28154 17.6289 3.55794 17.7555 4.0457C17.8821 4.61475 17.6764 5.34639 17.7713 6.02926C17.8663 6.69586 18.5784 7.39498 18.5784 7.39498C18.5784 7.39498 18.8949 7.49254 19.1481 7.4275C18.9582 8.41928 18.5309 9.32976 17.8663 10.1102C17.1225 10.9719 16.1888 11.5735 15.1286 11.8336C15.2552 11.4434 15.5084 11.0694 15.7457 10.8581C15.9515 10.663 16.2047 10.3215 16.2996 10.0614C16.3946 9.78501 16.5212 9.55738 16.6794 9.29725C16.8693 8.95581 16.0939 8.46805 15.8407 8.38676C15.271 8.1754 14.8437 7.88274 14.3532 7.55757C13.9892 7.32995 12.8973 7.85023 12.4858 7.68764C11.9319 7.47628 11.7421 7.29743 11.2515 6.97226C10.7451 6.63083 10.8875 5.89919 10.8559 5.36265C11.2357 5.36265 11.7579 5.20006 12.0269 5.49272C12.106 5.59027 12.4067 5.99674 12.5808 5.83415C12.7707 5.65531 12.4858 5.16755 12.4225 5.05374ZM9.38415 3.05392C9.4158 3.33032 9.55822 3.54168 9.55822 3.73679C9.55822 4.50094 9.49492 4.95619 9.96967 5.55776C10.1596 5.78538 10.2229 6.14307 10.302 6.43572C10.3969 6.71212 10.7134 6.84219 10.9508 7.00478C11.4097 7.31369 11.8528 7.7039 12.3434 7.9803C12.6599 8.15914 12.8498 8.25669 12.8023 8.6469C12.739 8.95581 12.739 9.15092 12.5966 9.44357C12.5649 9.54113 12.8181 10.0614 12.8973 10.1264C13.1505 10.3378 13.3878 10.5492 13.6569 10.7443C14.0683 11.0532 13.6569 11.5084 13.4986 11.9799C12.2959 11.8986 11.1407 11.4109 10.207 10.5817C9.11512 9.5899 8.4663 8.20792 8.37136 6.72838C8.27641 5.36265 8.5929 4.11073 9.38415 3.05392Z" fill="#008B7C"/>
</svg>
