<svg width="21" height="20" viewBox="0 0 21 20" fill="none" xmlns="http://www.w3.org/2000/svg">
<path d="M3.91301 0C3.67388 0 3.47823 0.195651 3.47823 0.434779V1.95226L0.617352 3.99538C0.50431 4.07364 0.434779 4.20866 0.434779 4.34779V6.08691C0.434779 6.32603 0.63043 6.52168 0.869558 6.52168H10.4347C10.6738 6.52168 10.8695 6.32603 10.8695 6.08691V4.34779C10.8695 4.20866 10.7999 4.07364 10.6869 3.99538L7.82602 1.95226V0.434779C7.82602 0.195651 7.63037 0 7.39124 0H3.91301ZM2.60358 8.69558C2.36489 8.69558 2.16965 8.89123 2.16965 9.13036V9.56514H0.43393C0.195236 9.56514 0 9.76079 0 9.99992V19.5651C0 19.8042 0.195236 19.9998 0.43393 19.9998H10.7863C11.0597 19.9998 11.2805 19.7778 11.2805 19.5039V10.0356C11.2805 9.77558 11.0704 9.56514 10.8109 9.56514H9.11083V9.18895C9.11083 8.91635 8.89048 8.69558 8.61831 8.69558H2.60358ZM12.646 9.56514C12.6168 9.56427 12.4309 9.56294 12.2935 9.7112C12.187 9.82598 12.176 9.96079 12.1738 9.99992V13.0434H20.8694V9.99992C20.8694 9.76079 20.6742 9.56514 20.4355 9.56514H19.5243H15.6198H12.646ZM2.16965 11.3043H9.11168C9.35037 11.3043 9.54561 11.4999 9.54561 11.739V17.8259C9.54561 18.0651 9.35037 18.2607 9.11168 18.2607H2.16965C1.93096 18.2607 1.73572 18.0651 1.73572 17.8259V11.739C1.73572 11.4999 1.93096 11.3043 2.16965 11.3043ZM13.8841 11.3043H19.0904C19.3291 11.3043 19.5243 11.4999 19.5243 11.739C19.5243 11.9782 19.3291 12.1738 19.0904 12.1738H13.8841C13.6454 12.1738 13.4501 11.9782 13.4501 11.739C13.4501 11.4999 13.6454 11.3043 13.8841 11.3043ZM2.60358 12.1738V17.3912H8.67775V12.1738H2.60358ZM12.1738 13.9129V19.5651C12.1747 19.6011 12.1819 19.7402 12.2901 19.858C12.4241 20.0032 12.6054 20.0007 12.6332 19.9998H20.4355C20.6742 19.9998 20.8694 19.8042 20.8694 19.5651V13.9129H12.1738ZM13.8841 15.2173C14.1228 15.2173 14.318 15.4129 14.318 15.652V17.8259C14.318 18.0651 14.1228 18.2607 13.8841 18.2607C13.6454 18.2607 13.4501 18.0651 13.4501 17.8259V15.652C13.4501 15.4129 13.6454 15.2173 13.8841 15.2173Z" fill="#444444"/>
</svg>
