<svg width="22" height="18" viewBox="0 0 22 18" fill="none" xmlns="http://www.w3.org/2000/svg">
<path d="M21.9877 12.726V13.6485C21.9819 13.8222 21.8582 13.9695 21.6881 14.0048L20.9309 14.1356C20.9068 14.1401 20.8822 14.141 20.8576 14.1396C20.7688 14.4834 20.6322 14.8129 20.4513 15.1183C20.4701 15.134 20.487 15.1523 20.5013 15.1724L20.9438 15.8001C21.0398 15.9452 21.0233 16.1377 20.9041 16.2645L20.2509 16.9177C20.124 17.0365 19.9321 17.0525 19.7869 16.957L19.1592 16.515C19.1391 16.5007 19.1208 16.4842 19.1047 16.465C18.7962 16.6471 18.4631 16.7846 18.1157 16.8731C18.1224 16.9101 18.1224 16.9481 18.1157 16.9851L17.9992 17.6598C17.9594 17.8536 17.7916 17.9947 17.5938 18.0005H16.7548C16.557 17.9947 16.3891 17.8536 16.3494 17.6598L16.2328 16.9851C16.2261 16.9481 16.2261 16.9101 16.2328 16.8731C15.8855 16.7846 15.5524 16.6471 15.2439 16.465C15.2278 16.4837 15.2095 16.5002 15.1894 16.5141L14.5616 16.9565C14.4165 17.0525 14.2241 17.036 14.0973 16.9168L13.444 16.2636C13.3257 16.1368 13.3092 15.9452 13.4047 15.8006L13.8472 15.1728C13.8615 15.1527 13.878 15.1344 13.8963 15.1183C13.716 14.8129 13.5793 14.4834 13.4909 14.1396C13.4664 14.1414 13.4418 14.1396 13.4177 14.1356L12.6604 14.0048C12.4899 13.9699 12.3662 13.8226 12.3608 13.6485V12.726C12.3662 12.5523 12.4903 12.405 12.6604 12.3697L13.4177 12.2389C13.4418 12.2344 13.4664 12.2335 13.4909 12.2358C13.5798 11.892 13.716 11.5624 13.8963 11.257C13.8776 11.241 13.8611 11.2227 13.8472 11.2026L13.4047 10.5748C13.3092 10.4297 13.3253 10.2381 13.444 10.1109L14.0973 9.45767C14.2241 9.33845 14.4165 9.32193 14.5616 9.41793L15.1894 9.86041C15.2095 9.87469 15.2278 9.89121 15.2439 9.91041C15.5493 9.72958 15.8788 9.59296 16.2226 9.5041C16.2203 9.47955 16.2217 9.45499 16.2257 9.43088L16.3565 8.67362C16.3913 8.50306 16.5387 8.37938 16.7128 8.37402H17.6366C17.8103 8.37938 17.9577 8.50351 17.9929 8.67362L18.1238 9.43088C18.1278 9.45499 18.1291 9.47955 18.1269 9.5041C18.4707 9.59296 18.8002 9.72958 19.1056 9.91041C19.1217 9.89166 19.14 9.87469 19.1601 9.86041L19.7878 9.41793C19.9329 9.32193 20.1249 9.33845 20.2517 9.45767L20.905 10.1109C21.0242 10.2377 21.0403 10.4297 20.9447 10.5748L20.5022 11.2026C20.4879 11.2227 20.471 11.241 20.4522 11.257C20.6331 11.5624 20.7697 11.892 20.8585 12.2358C20.8831 12.2335 20.9076 12.2349 20.9318 12.2389L21.689 12.3697C21.8591 12.405 21.9833 12.5523 21.9886 12.726H21.9877ZM18.8136 13.1872C18.8136 12.2817 18.0791 11.5482 17.1736 11.5486C16.2681 11.5486 15.5345 12.2831 15.535 13.1886C15.535 14.0936 16.2686 14.8268 17.1736 14.8272C18.0791 14.8272 18.8131 14.0941 18.8136 13.1886V13.1872Z" fill="#444444"/>
<path d="M12.6961 15.3319L12.7032 15.3212L12.9042 15.0359C12.8841 14.9899 12.8649 14.9434 12.8466 14.897L12.5028 14.8376L12.4898 14.835C11.9317 14.7206 11.5298 14.2433 11.5124 13.6741V13.6611V12.7123V12.6994C11.5303 12.1301 11.9321 11.6528 12.4902 11.5385L12.5032 11.5358L12.8474 11.4764C12.8658 11.43 12.885 11.384 12.9046 11.338L12.7032 11.0527L12.6961 11.042C12.3831 10.5678 12.4358 9.94672 12.8233 9.53193L12.8332 9.52121L13.5065 8.8479L13.5163 8.83852C13.744 8.62465 14.0418 8.50678 14.3544 8.50678C14.5946 8.50678 14.8277 8.57688 15.0286 8.70904L15.0397 8.71618L15.3255 8.91755C15.371 8.89791 15.417 8.87871 15.4635 8.8604L15.5228 8.51616L15.5255 8.50321C15.6398 7.94509 16.1171 7.54324 16.6864 7.52583H16.6994H17.6491H17.662C18.2313 7.54369 18.7086 7.94553 18.8229 8.50365L18.8256 8.5166L18.8849 8.86085C18.9314 8.87916 18.9774 8.89835 19.0229 8.918L19.3087 8.71663L19.3194 8.70949C19.3337 8.70011 19.3484 8.69163 19.3631 8.6827V6.08008H0V14.6247C0 15.6252 0.811281 16.437 1.81232 16.437H12.5724C12.4371 16.0789 12.4746 15.669 12.6965 15.3323L12.6961 15.3319Z" fill="#444444"/>
<path d="M17.5513 0H1.81232C0.811281 0 0 0.811281 0 1.81232V5.06638H19.3636V1.81232C19.3636 0.811728 18.5523 0 17.5513 0ZM2.47358 3.92157C1.70695 3.92157 1.08498 3.30004 1.08498 2.53297C1.08498 1.76589 1.7065 1.14437 2.47358 1.14437C3.24066 1.14437 3.86218 1.76589 3.86218 2.53297C3.86218 3.30004 3.24066 3.92157 2.47358 3.92157ZM5.83033 3.92157C5.0637 3.92157 4.44173 3.30004 4.44173 2.53297C4.44173 1.76589 5.06325 1.14437 5.83033 1.14437C6.59741 1.14437 7.21893 1.76589 7.21893 2.53297C7.21893 3.30004 6.59741 3.92157 5.83033 3.92157ZM9.09778 3.92157C8.33115 3.92157 7.70918 3.30004 7.70918 2.53297C7.70918 1.76589 8.3307 1.14437 9.09778 1.14437C9.86486 1.14437 10.4864 1.76589 10.4864 2.53297C10.4864 3.30004 9.86486 3.92157 9.09778 3.92157Z" fill="#444444"/>
</svg>
