<svg width="40" height="45" viewBox="0 0 40 45" fill="none" xmlns="http://www.w3.org/2000/svg">
<path d="M26.1647 4.70586C33.4343 7.30475 37.2212 15.3063 34.6226 22.5761C32.681 28.0061 15.7681 40.591 13.616 39.8107C11.4232 39.0405 6.32672 18.67 8.29414 13.1647C10.8929 5.89472 18.8947 2.10714 26.1647 4.70586ZM19.3041 9.84488C18.3204 9.49352 17.2379 10.0058 16.8861 10.9894L12.4281 23.4607L13.2594 23.7578L15.578 23.0798L16.8825 25.053L19.1414 24.3535L20.4459 26.3267L22.7047 25.6273L24.0681 27.6215L24.8994 27.9187L29.3574 15.4474C29.7089 14.4636 29.1966 13.3812 28.2129 13.0294L19.3041 9.84488ZM24.011 20.5687C24.2571 20.6569 24.3847 20.9276 24.2967 21.1738C24.2086 21.4198 23.9386 21.5475 23.6925 21.4598L17.4569 19.2308C17.2107 19.1428 17.0822 18.8725 17.17 18.6263C17.258 18.38 17.5291 18.2517 17.7754 18.3397L24.011 20.5687ZM24.9699 17.8863C25.216 17.9745 25.3436 18.2452 25.2556 18.4914C25.1678 18.7366 24.8975 18.8651 24.6514 18.7774L18.4157 16.5484C18.1695 16.4603 18.0412 16.1892 18.1288 15.9439C18.2169 15.6976 18.4879 15.5692 18.7343 15.6573L24.9699 17.8863ZM25.9215 15.2241C26.1675 15.3123 26.2951 15.5826 26.2075 15.8283C26.1195 16.0745 25.8492 16.203 25.603 16.1152L19.3674 13.8862C19.121 13.7981 18.9927 13.5271 19.0808 13.2808C19.1688 13.0351 19.4397 12.9071 19.6859 12.9951L25.9215 15.2241Z" fill="#008B7C"/>
</svg>
