<svg width="86" height="86" viewBox="0 0 86 86" fill="none" xmlns="http://www.w3.org/2000/svg">
<g filter="url(#filter0_d_1947_473)">
<rect x="7.01367" y="22.5254" width="58.7569" height="58.7569" rx="6" transform="rotate(-15.3215 7.01367 22.5254)" fill="white"/>
<path d="M47.62 59.6043C56.738 57.1062 62.1045 47.6895 59.6064 38.5716C57.1083 29.4536 47.6917 24.0872 38.5737 26.5852C29.4558 29.0833 24.0893 38.5 26.5874 47.6179C29.0854 56.7359 38.5021 62.1023 47.62 59.6043Z" fill="#008B7C"/>
<path d="M49.1382 33.5402C48.3653 32.3293 47.3466 31.1824 46.0478 30.7858C45.5773 30.6412 45.1293 30.504 44.6146 30.6348C42.8641 31.0733 41.8358 34.1353 42.3598 36.4848C42.6613 37.8351 43.5017 39.0548 44.2666 39.6626C45.0406 40.2781 45.3115 40.4057 45.3115 40.4057C45.8637 40.6613 46.4152 40.7394 46.6173 41.1901C46.6629 41.2939 46.6641 41.3859 46.6792 41.416C46.7009 41.4579 47.0271 42.8732 47.3993 44.4812C47.7895 46.1799 48.1637 47.8831 48.4341 49.0196C48.4647 49.148 48.482 49.2196 48.4861 49.2345C48.8063 50.9148 47.6105 53.2532 45.7024 53.7657C43.644 54.316 41.4632 52.6222 41.0218 51.3479C40.4938 49.8203 39.9627 48.2935 39.4347 46.7659C39.0597 45.6717 38.7659 44.8117 38.7575 44.7935C38.7387 44.7371 38.7197 44.6431 38.8477 44.4986C38.9757 44.3541 40.0441 42.8987 39.8776 41.5422C39.7143 40.1848 37.1334 32.9614 37.0784 32.8978C37.0233 32.8342 36.5915 32.5935 36.4619 33.0941L38.646 40.6417C38.646 40.6417 38.4641 41.2386 37.9413 40.8655L35.686 33.3203C35.686 33.3203 35.2516 32.8956 34.9945 33.4927L37.2004 41.1198C37.2004 41.1198 36.9257 41.7148 36.4335 41.3162L34.1634 33.717C34.1634 33.717 33.7277 33.3747 33.4145 33.929L35.581 41.5498C35.581 41.5498 35.3884 42.1326 34.8424 41.7624L32.6511 34.2134C32.6511 34.2134 32.1826 33.8014 31.9608 34.3649C31.9608 34.3649 33.6908 42.0027 34.279 43.0761C34.8672 44.1495 35.7256 44.7487 36.7139 45.1106C36.7139 45.1106 36.948 45.1662 37.0142 45.4079C37.5214 47.2593 37.7781 48.6082 38.5224 51.3248C38.695 51.9546 38.8065 52.3618 39.0672 52.8888C39.2867 53.328 39.977 54.6743 41.5011 55.5939C43.7553 56.9564 46.1035 56.3404 46.3834 56.2637C46.552 56.2175 49.1815 55.4424 50.3634 52.8786C51.2469 50.9608 50.8392 49.0857 50.569 47.8499C50.1837 46.0814 48.7062 41.7498 48.4471 41.0787C48.2612 40.5996 48.3463 40.3984 48.447 40.1793C48.5477 39.9602 51.3462 37.0185 49.1367 33.5474L49.1382 33.5402ZM34.5237 42.5713C34.8151 42.936 35.2267 43.3772 35.7812 43.8033C36.2624 44.1742 36.7235 44.4343 37.1053 44.6169C36.791 44.556 36.2146 44.3993 35.6327 43.9602C34.9734 43.4637 34.6591 42.8659 34.5228 42.5681L34.5237 42.5713ZM48.2891 38.9538C48.2891 38.9538 50.2507 37.0143 48.3724 33.4662C48.3724 33.4662 50.82 36.7831 48.2891 38.9538Z" fill="white"/>
<path d="M48.0226 61.0745C57.9523 58.354 63.7964 48.0992 61.076 38.1695C58.3555 28.2399 48.1007 22.3957 38.171 25.1162C28.2414 27.8366 22.3973 38.0915 25.1177 48.0211C27.8381 57.9508 38.093 63.7949 48.0226 61.0745Z" stroke="#008B7C" stroke-miterlimit="10"/>
</g>
<defs>
<filter id="filter0_d_1947_473" x="0.384277" y="0.370117" width="85.4531" height="85.4531" filterUnits="userSpaceOnUse" color-interpolation-filters="sRGB">
<feFlood flood-opacity="0" result="BackgroundImageFix"/>
<feColorMatrix in="SourceAlpha" type="matrix" values="0 0 0 0 0 0 0 0 0 0 0 0 0 0 0 0 0 0 127 0" result="hardAlpha"/>
<feOffset/>
<feGaussianBlur stdDeviation="4"/>
<feComposite in2="hardAlpha" operator="out"/>
<feColorMatrix type="matrix" values="0 0 0 0 0 0 0 0 0 0.545098 0 0 0 0 0.486275 0 0 0 0.6 0"/>
<feBlend mode="normal" in2="BackgroundImageFix" result="effect1_dropShadow_1947_473"/>
<feBlend mode="normal" in="SourceGraphic" in2="effect1_dropShadow_1947_473" result="shape"/>
</filter>
</defs>
</svg>
