<svg width="15" height="14" viewBox="0 0 15 14" fill="none" xmlns="http://www.w3.org/2000/svg">
<path d="M0.230745 4.64959H3.14003V14.001H0.230745V4.64959ZM1.68615 0.000976562C2.61588 0.000976562 3.37069 0.756092 3.37069 1.68634C3.37069 2.61686 2.61588 3.37193 1.68615 3.37193C0.75272 3.37193 0 2.61686 0 1.68634C4.35451e-05 0.756092 0.75272 0.000976562 1.68615 0.000976562Z" fill="#444444"/>
<path d="M4.96415 4.64807H7.75012V5.92646H7.78997C8.17747 5.19129 9.1258 4.41602 10.5398 4.41602C13.4825 4.41602 14.0264 6.35229 14.0264 8.87085V13.9995H11.1203V9.45187C11.1203 8.36747 11.1016 6.97233 9.61006 6.97233C8.09774 6.97233 7.867 8.15427 7.867 9.37423V13.9995H4.96411L4.96415 4.64807Z" fill="#444444"/>
</svg>
