<svg width="17" height="16" viewBox="0 0 17 16" fill="none" xmlns="http://www.w3.org/2000/svg">
<path d="M11.4112 5.05539e-08H4.64876C4.04225 -4.48029e-05 3.44167 0.119377 2.88132 0.351446C2.32097 0.583516 1.81181 0.923689 1.38293 1.35254C0.95405 1.78139 0.61384 2.29052 0.381729 2.85085C0.149618 3.41119 0.0301515 4.01176 0.0301515 4.61827V11.3807C0.0300169 11.9873 0.149384 12.588 0.381435 13.1484C0.613486 13.7089 0.953674 14.2181 1.38257 14.6471C1.81146 15.0761 2.32066 15.4163 2.88108 15.6485C3.4415 15.8806 4.04217 16 4.64876 16H11.4112C12.0177 16.0001 12.6183 15.8807 13.1787 15.6486C13.7391 15.4166 14.2482 15.0764 14.6771 14.6476C15.106 14.2187 15.4462 13.7096 15.6783 13.1492C15.9104 12.5888 16.0298 11.9883 16.0298 11.3817V4.61929C16.03 4.01269 15.9106 3.41199 15.6786 2.85151C15.4466 2.29104 15.1064 1.78177 14.6775 1.3528C14.2486 0.923833 13.7394 0.583571 13.1789 0.351454C12.6185 0.119336 12.0178 -8.97041e-05 11.4112 5.05539e-08ZM14.5557 11.5006C14.5555 12.3134 14.2326 13.0929 13.6578 13.6676C13.0831 14.2424 12.3036 14.5654 11.4908 14.5655H4.56918C3.75612 14.5655 2.97637 14.2426 2.40145 13.6676C1.82653 13.0927 1.50354 12.313 1.50354 11.4999V4.57865C1.50354 3.76559 1.82653 2.98583 2.40145 2.41092C2.97637 1.836 3.75612 1.51301 4.56918 1.51301H11.4908C12.3038 1.51301 13.0836 1.836 13.6585 2.41092C14.2334 2.98583 14.5564 3.76559 14.5564 4.57865L14.5557 11.5006Z" fill="#444444"/>
<path d="M8.03098 3.88867C7.20983 3.8886 6.4071 4.13204 5.72431 4.5882C5.04152 5.04435 4.50932 5.69274 4.19504 6.45137C3.88075 7.20999 3.79848 8.04477 3.95864 8.85015C4.1188 9.65553 4.51418 10.3953 5.0948 10.976C5.67542 11.5567 6.41518 11.9521 7.22055 12.1123C8.02592 12.2726 8.86071 12.1904 9.61936 11.8761C10.378 11.5619 11.0264 11.0298 11.4826 10.347C11.9389 9.66426 12.1824 8.86155 12.1824 8.0404C12.1824 6.93935 11.745 5.8834 10.9665 5.10481C10.1879 4.32622 9.13203 3.88876 8.03098 3.88867ZM8.03098 10.7314C7.49866 10.7314 6.97827 10.5736 6.53564 10.2779C6.093 9.98225 5.74799 9.56193 5.54425 9.07014C5.34051 8.57835 5.28718 8.03719 5.39102 7.51509C5.49485 6.993 5.75118 6.51342 6.12759 6.13701C6.504 5.7606 6.98357 5.50427 7.50567 5.40044C8.02777 5.29661 8.56893 5.34993 9.06072 5.55367C9.5525 5.75742 9.97283 6.10242 10.2685 6.54506C10.5642 6.98769 10.722 7.50808 10.722 8.0404C10.722 8.75409 10.4384 9.43855 9.93378 9.94321C9.42913 10.4479 8.74467 10.7314 8.03098 10.7314Z" fill="#444444"/>
<path d="M12.3195 4.69619C12.8537 4.69619 13.2868 4.26314 13.2868 3.72895C13.2868 3.19476 12.8537 2.76172 12.3195 2.76172C11.7853 2.76172 11.3523 3.19476 11.3523 3.72895C11.3523 4.26314 11.7853 4.69619 12.3195 4.69619Z" fill="#444444"/>
</svg>
