<svg width="8" height="14" viewBox="0 0 8 14" fill="none" xmlns="http://www.w3.org/2000/svg">
<path d="M0.251197 7.4564H1.78582V13.7742C1.78582 13.8989 1.88689 14 2.01163 14H4.61364C4.73838 14 4.83945 13.8989 4.83945 13.7742V7.48616H6.60363C6.71834 7.48616 6.81485 7.40008 6.82795 7.28614L7.09589 4.96025C7.10325 4.89625 7.08297 4.83217 7.04016 4.78416C6.9973 4.73611 6.93597 4.70861 6.87162 4.70861H4.83954V3.25062C4.83954 2.81111 5.07619 2.58824 5.54297 2.58824C5.6095 2.58824 6.87162 2.58824 6.87162 2.58824C6.99636 2.58824 7.09743 2.48712 7.09743 2.36243V0.227477C7.09743 0.102742 6.99636 0.00167097 6.87162 0.00167097H5.04055C5.02764 0.00103871 4.99896 0 4.95669 0C4.63898 0 3.53465 0.0623677 2.66231 0.864884C1.69577 1.7542 1.83013 2.81901 1.86224 3.00363V4.70856H0.251197C0.126462 4.70856 0.0253906 4.80963 0.0253906 4.93437V7.23055C0.0253906 7.35528 0.126462 7.4564 0.251197 7.4564Z" fill="#444444"/>
</svg>
