<svg width="17" height="16" viewBox="0 0 17 16" fill="none" xmlns="http://www.w3.org/2000/svg">
<path d="M0.263709 5.3127H3.58861V16H0.263709V5.3127ZM1.92703 0C2.98958 0 3.85222 0.862989 3.85222 1.92614C3.85222 2.98958 2.98958 3.85252 1.92703 3.85252C0.860251 3.85252 0 2.98958 0 1.92614C4.97658e-05 0.862989 0.860251 0 1.92703 0Z" fill="#444444"/>
<path d="M5.67339 5.31012H8.85736V6.77115H8.90289C9.34576 5.93095 10.4296 5.04492 12.0455 5.04492C15.4087 5.04492 16.0302 7.25781 16.0302 10.1362V15.9974H12.7089V10.8002C12.7089 9.56087 12.6876 7.96642 10.983 7.96642C9.25463 7.96642 8.99093 9.31721 8.99093 10.7115V15.9974H5.67334L5.67339 5.31012Z" fill="#444444"/>
</svg>
