<svg width="87" height="71" viewBox="0 0 87 71" fill="none" xmlns="http://www.w3.org/2000/svg">
<path d="M1 33.5154C1 34.6433 1.91398 35.5573 3.04185 35.5573H6.30036C6.54147 36.4168 7.3223 37.0503 8.25849 37.0503H78.3384C79.2746 37.0503 80.0554 36.4168 80.2966 35.5573H83.5551C84.6829 35.5573 85.5969 34.6433 85.5969 33.5154H1ZM75.3079 29.9633H43.2989H11.29C12.8345 16.1142 25.8392 5.53366 42.1509 5.05648V4.62975C42.1509 4.44412 42.2246 4.27565 42.3436 4.15056C41.4901 3.99722 40.8495 3.35863 40.8495 2.59293C40.8495 1.71324 41.6949 1 42.738 1C43.7812 1 44.6266 1.71324 44.6266 2.59293C44.6266 3.30314 44.0717 3.89734 43.311 4.10314C43.4583 4.23227 43.5542 4.4189 43.5542 4.62975V5.03832C61.4104 5.14021 73.7352 15.859 75.3079 29.9633ZM61.3912 40.785C48.7739 58.5927 35.8871 63.1133 33.8352 63.7408C33.6829 63.7872 33.5204 63.7327 33.4256 63.6046L27.7681 55.9012C27.6551 55.7478 27.6723 55.5289 27.8176 55.4049C29.9916 53.5516 29.4165 50.2155 28.8395 48.8485C28.215 47.3706 25.7061 42.8601 24.5136 40.7396C24.1616 40.1131 24.5308 39.3333 25.2349 39.191C31.1073 38.0006 30.9318 47.3665 39.7055 48.4541C45.9562 49.2288 53.7231 43.1295 55.7609 41.0503C57.3498 39.4291 59.1909 38.7179 60.7919 39.1487C61.5092 39.3403 61.82 40.1797 61.3912 40.785ZM32.6125 65.602L25.3338 55.6914C25.0867 55.3544 24.6125 55.2818 24.2756 55.5299L19.9306 58.7209C19.5936 58.968 19.521 59.4422 19.7682 59.7791L27.0468 69.6898C27.294 70.0267 27.7681 70.0994 28.1051 69.8522L32.4501 66.6603C32.787 66.4131 32.8597 65.939 32.6125 65.602ZM28.6932 67.5349C27.9931 67.5349 27.4241 66.967 27.4241 66.2658C27.4241 65.5657 27.9921 64.9978 28.6932 64.9978C29.3943 64.9978 29.9623 65.5657 29.9623 66.2658C29.9623 66.968 29.3943 67.5349 28.6932 67.5349Z" stroke="#9F9F9F" stroke-miterlimit="10" stroke-linecap="round"/>
</svg>
