<svg width="60" height="69" viewBox="0 0 60 69" fill="none" xmlns="http://www.w3.org/2000/svg">
<path d="M10.5554 20.3025C10.3084 19.9505 10.742 19.5864 11.0442 19.8886C11.619 20.4634 17.3745 26.5408 18.2803 27.516C19.186 28.4912 19.6295 28.6801 20.1318 28.1777C20.6342 27.6754 19.9543 26.815 19.6242 26.4131C19.2941 26.0112 12.7 17.9766 12.3752 17.5868C11.9454 17.0709 11.854 16.8865 12.0587 16.6811C12.2634 16.4764 12.4477 16.5678 12.9637 16.9976C13.3542 17.3224 21.3888 23.9172 21.7899 24.2466C22.1918 24.5767 23.0522 25.2565 23.5546 24.7534C24.0569 24.2511 23.8681 23.8077 22.8928 22.9019C21.9176 21.9962 15.8403 16.2407 15.2654 15.665C14.9633 15.3629 15.3274 14.9293 15.6794 15.1763C16.1961 15.5381 25.8548 21.9078 27.0265 23.2063C29.338 25.7695 27.0136 29.0714 28.9467 31.6323C28.3318 32.1663 27.6301 32.7782 26.8535 33.4551C24.3161 31.7274 21.0957 33.9121 18.5847 31.6481C17.2862 30.478 10.9173 20.8185 10.5554 20.3025ZM45.6376 46.1392C44.2953 44.9857 37.8863 39.4651 33.5827 35.7576C32.9399 36.4979 32.1641 37.3885 31.2931 38.3872C34.9976 42.6877 40.38 48.9358 41.5176 50.26C43.2883 52.3208 45.6958 55.523 48.2982 52.9198C50.8999 50.3167 47.6977 47.9099 45.6376 46.1392ZM47.644 24.6794C49.2236 21.6139 49.843 18.207 48.3073 16.6713C46.7715 15.1355 43.3646 15.7557 40.2991 17.3345C37.2465 18.9073 35.1313 21.2128 34.7566 23.6528C34.1606 27.5334 34.7015 29.156 32.5984 30.8398C31.42 31.7833 15.0373 46.1725 12.9954 47.9545C10.9732 49.7199 10.5841 51.4158 12.0323 52.904L12.03 52.9055C12.0368 52.9123 12.0443 52.9183 12.0519 52.9251C12.0587 52.9319 12.0647 52.9395 12.0715 52.9463L12.073 52.944C13.5612 54.3929 15.2571 54.0031 17.0225 51.9809C18.8045 49.9397 33.1945 33.5563 34.1372 32.3786C35.821 30.2755 37.4437 30.8164 41.3242 30.2204C43.7657 29.8464 46.0713 27.732 47.644 24.6794ZM10.6302 47.9485L8.6072 46.7806V22.219L9.4442 21.7356C9.28858 21.5021 9.18207 21.3443 9.14506 21.2906C9.08085 21.1992 9.04307 21.098 8.99473 21.0005L7.74602 21.7212V47.2769L10.1369 48.657C10.2782 48.4198 10.4459 48.1842 10.6302 47.9485ZM29.8774 0L0 17.2499V51.7489L29.8774 68.9989L59.7548 51.7489V17.2499L29.8774 0ZM58.8929 51.2519L29.8774 68.004L0.861173 51.2519V17.747L29.8774 0.994883L58.8929 17.747V51.2519ZM19.7095 15.8093L29.8782 9.93824L39.796 15.6643C40.1163 15.5057 40.4359 15.3591 40.7546 15.2231L29.8782 8.94336L18.9148 15.273C19.1853 15.4558 19.4512 15.6348 19.7095 15.8093ZM50.5509 21.8745L51.1476 22.219V46.7806L49.6874 47.6236C49.8687 47.851 50.0379 48.0852 50.1905 48.3277L52.0088 47.2784V21.7227L50.7405 20.9907C50.6891 21.2838 50.6256 21.5792 50.5509 21.8745ZM41.1935 52.5278L29.8782 59.0606L18.7441 52.6328C18.5658 52.836 18.4231 52.9992 18.3218 53.1147C18.2674 53.1767 18.2131 53.2296 18.1587 53.2892L29.8774 60.0547L41.7865 53.179C41.5826 52.9644 41.3847 52.7461 41.1935 52.5278Z" fill="#9F9F9F"/>
</svg>
