<svg width="75" height="69" viewBox="0 0 75 69" fill="none" xmlns="http://www.w3.org/2000/svg">
<path d="M16.8452 48.3315C16.7773 47.8651 13.0689 48.1051 9.87666 48.173C5.45735 48.2681 1.01086 48.3315 1.01086 48.3315L2.91262 53.7154L1.16935 59.2579L17.4792 59.4163L16.8452 48.3315Z" fill="#9F9F9F"/>
<path d="M9.08434 54.9852C9.08434 54.9852 8.63154 52.1325 13.3588 51.3446C16.2069 50.8692 16.8408 48.6504 16.8408 48.6504C16.8408 48.6504 17.1577 48.8089 17.6332 52.4495C18.1086 56.0901 17.9501 59.4183 17.9501 59.4183" fill="white"/>
<path d="M18.4256 59.4402L17.4747 59.3949C17.4747 59.3632 17.6242 56.0667 17.1623 52.5121C16.9948 51.2262 16.8499 50.3975 16.7367 49.8677C16.2024 50.6149 15.2017 51.5205 13.4358 51.8148C9.22022 52.5167 9.54624 54.8894 9.55077 54.912L8.61348 55.0615C8.60895 55.0298 8.14709 51.7333 13.2818 50.8775C15.7813 50.4609 16.3654 48.5998 16.388 48.5229L16.551 47.9795L17.0582 48.2285C17.2619 48.3282 17.6015 48.5002 18.1087 52.3944C18.5841 56.035 18.4302 59.413 18.4302 59.4447L18.4256 59.4402Z" fill="#9F9F9F"/>
<path d="M71.1584 68.9963H17.4791C9.40121 68.9963 8.9303 65.4327 8.9303 65.4327V54.126C8.9303 54.126 11.6245 57.83 17.9546 57.9251C28.4052 58.079 71.1584 57.9251 71.1584 57.9251L68.3103 63.3724L71.1584 68.9918V68.9963Z" fill="#9F9F9F"/>
<path d="M36.6875 33.8785C36.6875 33.484 36.4519 33.2867 35.9808 33.2867C35.5205 33.2867 35.0658 33.6483 34.6165 34.3716C34.1673 35.0838 33.8878 35.8125 33.7783 36.5577C33.8002 36.8097 33.8221 37.0618 33.844 37.3138C33.8659 37.5658 33.8769 37.8124 33.8769 38.0535C33.8769 38.6342 33.6851 39.0287 33.3016 39.2369C33.1263 39.3356 32.9564 39.4287 32.7921 39.5164C32.6386 39.604 32.4578 39.6479 32.2497 39.6479C32.0415 39.6479 31.8552 39.5109 31.6908 39.2369C31.5374 38.952 31.4607 38.5137 31.4607 37.922C31.4607 36.2673 31.5812 34.8318 31.8223 33.6155C32.1949 31.7307 32.9345 29.7144 34.0412 27.5666C34.1946 27.2708 34.4193 27.1283 34.7151 27.1393C35.011 27.1393 35.2521 27.342 35.4383 27.7474C35.6246 28.1529 35.7123 28.4926 35.7013 28.7665C35.7013 29.0405 35.6575 29.309 35.5698 29.5719C35.4931 29.824 35.389 30.076 35.2575 30.328C35.137 30.5691 34.9946 30.8212 34.8302 31.0842C34.6768 31.3362 34.5234 31.6101 34.37 31.906L34.1234 33.0895C34.5508 32.3772 35.1261 31.9005 35.8493 31.6595C36.1123 31.5718 36.4026 31.528 36.7204 31.528C37.4655 31.528 38.0299 31.6978 38.4134 32.0375C38.7969 32.3662 38.9887 32.8374 38.9887 33.4511C38.9887 34.0538 38.9065 34.6674 38.7421 35.292C38.5887 35.9166 38.4736 36.3659 38.3969 36.6399C38.3312 36.9029 38.2983 37.122 38.2983 37.2974C38.2983 37.4727 38.3586 37.5604 38.4791 37.5604C38.6435 37.5604 38.8462 37.4563 39.0873 37.2481C39.3283 37.0398 39.5694 36.8152 39.8105 36.5741C40.0516 36.3221 40.2707 36.092 40.468 35.8838C40.6761 35.6756 40.8186 35.5715 40.8953 35.5715C41.0487 35.5715 41.1254 35.7578 41.1254 36.1303C41.1254 36.8974 40.7474 37.6371 39.9913 38.3493C38.7202 39.0945 37.9093 39.4671 37.5587 39.4671C37.5258 39.4671 37.5039 39.4616 37.4929 39.4506C36.6163 39.4506 36.178 38.7493 36.178 37.3467C36.178 36.744 36.2328 36.1906 36.3424 35.6865C36.4629 35.1825 36.5506 34.8154 36.6053 34.5852C36.6601 34.3551 36.6875 34.1195 36.6875 33.8785Z" fill="#9F9F9F"/>
<path d="M28.3645 31.4479C29.0987 31.4369 29.6466 31.5739 30.0082 31.8588C30.3698 32.1328 30.5506 32.5327 30.5506 33.0587C30.5506 33.5737 30.3917 34.0175 30.0739 34.3901C29.7671 34.7517 29.3891 35.0092 28.9398 35.1626C29.2576 35.4914 29.5425 35.8256 29.7945 36.1653C30.0575 36.505 30.189 36.8611 30.189 37.2337C30.189 37.9679 29.8986 38.5377 29.3179 38.9432C28.7371 39.3377 27.9262 39.5349 26.8852 39.5349C25.8552 39.5349 25.0827 39.3322 24.5677 38.9267C24.0527 38.5103 23.7952 38.0446 23.7952 37.5296C23.7952 37.0036 23.9212 36.5269 24.1732 36.0996C24.4362 35.6722 24.7156 35.4585 25.0115 35.4585C25.1868 35.4585 25.3128 35.5243 25.3895 35.6558C25.4662 35.7763 25.6087 36.1379 25.8169 36.7406C25.8936 36.9598 26.0196 37.168 26.1949 37.3652C26.6003 37.8145 27.2414 38.0391 28.118 38.0391C27.9865 37.6227 27.7728 37.2666 27.477 36.9707C27.1921 36.6639 26.9072 36.368 26.6223 36.0831C26.3374 35.7982 26.0853 35.4969 25.8662 35.1791C25.647 34.8503 25.5374 34.4668 25.5374 34.0285C25.5374 33.2395 25.8333 32.5985 26.425 32.1054C26.9839 31.667 27.6304 31.4479 28.3645 31.4479ZM28.2988 34.4887C28.7371 34.0175 28.9563 33.6395 28.9563 33.3546C28.9563 33.2231 28.9069 33.108 28.8083 33.0094C28.7207 32.8998 28.5892 32.845 28.4139 32.845C28.2385 32.845 28.0687 32.8669 27.9043 32.9108C27.7509 32.9546 27.6249 32.9875 27.5263 33.0094C27.5263 33.4258 27.7838 33.9189 28.2988 34.4887Z" fill="#9F9F9F"/>
<path d="M21.5772 37.6108C22.4319 37.6108 23.2592 37.2711 24.0591 36.5917C24.355 36.3397 24.5961 36.1096 24.7824 35.9014C24.9686 35.6822 25.1111 35.5726 25.2097 35.5726C25.3631 35.5726 25.4398 35.7261 25.4398 36.0329C25.4398 36.3397 25.3576 36.6849 25.1933 37.0684C25.0289 37.441 24.755 37.8081 24.3714 38.1697C23.4291 39.0573 22.1361 39.5011 20.4924 39.5011C19.1884 39.5011 18.3009 39.0299 17.8297 38.0875C17.6653 37.7588 17.5831 37.2876 17.5831 36.6739C17.5831 36.0603 17.7037 35.4247 17.9447 34.7672C18.1858 34.0988 18.5036 33.5235 18.8981 33.0413C19.3035 32.5592 19.7692 32.1866 20.2952 31.9236C20.8211 31.6497 21.38 31.5127 21.9717 31.5127C22.5744 31.5127 23.0346 31.6606 23.3524 31.9565C23.6811 32.2524 23.8455 32.6359 23.8455 33.1071C23.8455 33.5783 23.7249 33.9673 23.4839 34.2741C23.2538 34.57 22.9524 34.822 22.5799 35.0302C22.2073 35.2275 21.7909 35.4083 21.3307 35.5726C20.8814 35.7261 20.4376 35.9014 19.9993 36.0986V36.5096C20.0103 36.9041 20.1746 37.1835 20.4924 37.3479C20.8102 37.5122 21.1718 37.5999 21.5772 37.6108ZM21.2978 32.9756C20.728 32.9756 20.3335 33.6386 20.1144 34.9645C20.3445 34.8111 20.5582 34.6741 20.7554 34.5536C20.9636 34.433 21.1444 34.318 21.2978 34.2084C21.6265 33.9673 21.7964 33.6933 21.8073 33.3865C21.8073 33.1126 21.6375 32.9756 21.2978 32.9756Z" fill="#9F9F9F"/>
<path d="M12.635 36.6355L12.7336 38.6408C12.7336 38.9038 12.5967 39.1394 12.3227 39.3476C12.0488 39.5558 11.6762 39.6599 11.205 39.6599C10.9311 39.6599 10.7393 39.5174 10.6297 39.2325C10.5311 38.9476 10.4818 38.5312 10.4818 37.9833C10.4818 36.8327 10.5366 35.9341 10.6462 35.2876C10.7667 34.6301 10.9968 33.9672 11.3365 33.2987C10.8325 32.8166 10.5804 32.4002 10.5804 32.0495C10.5804 31.3153 10.9749 30.9482 11.7639 30.9482C12.1693 30.9482 12.5254 31.1619 12.8322 31.5893C13.0514 31.8852 13.2103 32.2303 13.3089 32.6248C13.4623 32.6796 13.6541 32.707 13.8842 32.707C14.202 32.707 14.569 32.6029 14.9854 32.3947L15.4128 32.181C15.5443 32.1153 15.6593 32.0824 15.758 32.0824C16.0757 32.0824 16.3935 32.5481 16.7113 33.4795C16.6127 33.9069 16.5031 34.3178 16.3825 34.7123C16.273 35.1068 16.1415 35.5835 15.9881 36.1424C15.8347 36.7012 15.7525 37.0793 15.7415 37.2765C15.7415 37.4628 15.8018 37.5559 15.9223 37.5559C16.0867 37.5559 16.2894 37.4518 16.5305 37.2436C16.7716 37.0354 17.0126 36.8108 17.2537 36.5697C17.4948 36.3177 17.7139 36.0876 17.9112 35.8794C18.1194 35.6712 18.2618 35.5671 18.3385 35.5671C18.4919 35.5671 18.5686 35.7533 18.5686 36.1259C18.5686 36.882 18.2344 37.6272 17.566 38.3614C16.9085 39.0955 16.1524 39.4572 15.2977 39.4462C14.7937 39.4462 14.4156 39.2435 14.1636 38.838C13.9116 38.4326 13.7801 37.9395 13.7691 37.3587C13.7691 36.2081 14.0266 35.1178 14.5417 34.0877C14.3006 34.1863 14.0266 34.2357 13.7198 34.2357C13.424 34.2357 13.2103 34.2247 13.0788 34.2028C12.9802 34.6192 12.8816 35.0411 12.7829 35.4684C12.6843 35.8848 12.635 36.2738 12.635 36.6355Z" fill="#9F9F9F"/>
<path d="M3.08911 33.9918C2.45356 34.0795 1.92759 34.1233 1.51119 34.1233C1.36874 34.1233 1.29752 34.0685 1.29752 33.9589C1.29752 33.7069 1.46736 33.4439 1.80705 33.1699C2.1577 32.885 2.72202 32.6385 3.50002 32.4303C3.85067 31.1811 4.25063 30.0359 4.69989 28.9949C3.60412 29.0497 2.70559 29.4113 2.00429 30.0798C1.82897 30.2551 1.68652 30.3921 1.57694 30.4907C1.46736 30.5893 1.36874 30.6386 1.28108 30.6386C1.20438 30.6386 1.12767 30.5729 1.05097 30.4414C0.974265 30.3099 0.935913 30.1346 0.935913 29.9154C0.946871 29.0716 1.51667 28.3868 2.64532 27.8608C3.77397 27.3348 5.1656 27.0773 6.82021 27.0882L11.7512 27.1704C12.0471 27.1704 12.195 27.2855 12.195 27.5156C12.195 27.5813 12.1512 27.7019 12.0635 27.8772C11.9758 28.0416 11.8991 28.2224 11.8334 28.4196C11.6909 28.8141 11.3841 29.0114 10.9129 29.0114H10.387L8.20089 28.9949H6.93527C6.84761 29.6195 6.58462 30.6386 6.14631 32.0522L9.15421 32.1015C9.32954 32.1015 9.4172 32.2056 9.4172 32.4138C9.4172 32.4796 9.3898 32.5946 9.33501 32.759C9.28022 32.9234 9.23092 33.0932 9.18708 33.2686C9.09942 33.6302 8.91314 33.811 8.62824 33.811L6.12988 33.6959H5.9162C5.85046 33.6959 5.77375 33.7014 5.68609 33.7124C5.11629 35.8053 4.83139 37.46 4.83139 38.6764C4.83139 39.3229 4.20132 39.6461 2.94118 39.6461C2.66723 39.6461 2.50287 39.5092 2.44808 39.2352C2.40425 38.9503 2.38233 38.5777 2.38233 38.1175C2.38233 37.1313 2.61793 35.756 3.08911 33.9918Z" fill="#9F9F9F"/>
<path d="M59.408 53.7024C58.8602 54.4585 58.126 54.8365 57.2055 54.8365C56.4604 54.8365 55.8632 54.6831 55.4139 54.3763C54.9756 54.0585 54.7565 53.5599 54.7565 52.8805C54.7565 52.5956 54.7948 52.3326 54.8715 52.0916C54.9592 51.8505 55.0962 51.5546 55.2825 51.204L55.7591 47.3084C56.0988 47.0454 56.559 46.9139 57.1398 46.9139C57.6329 46.9139 57.9123 47.2426 57.9781 47.9001C58 48.0973 58.0109 48.3329 58.0109 48.6069C58.0109 48.8699 57.9671 49.1493 57.8794 49.4452C57.4411 50.9574 57.2275 51.971 57.2384 52.486C57.2384 52.8805 57.4685 53.0778 57.9287 53.0778C58.389 53.0778 58.7287 52.9298 58.9478 52.634C59.167 52.3381 59.3533 51.971 59.5067 51.5327C59.7916 50.3163 60.0545 49.3137 60.2956 48.5247C60.5476 47.7357 60.7065 47.2645 60.7723 47.1111C60.8819 46.8481 61.0901 46.7112 61.3969 46.7002C61.7037 46.7112 61.9941 46.9303 62.268 47.3577C62.542 47.7741 62.6789 48.0973 62.6789 48.3275C62.657 49.0945 62.1803 51.0286 61.2489 54.1297C61.9612 53.5709 62.668 52.886 63.3693 52.0751C63.6103 51.7902 63.813 51.5546 63.9774 51.3683C64.1418 51.1711 64.2733 51.0725 64.3719 51.0725C64.5253 51.0725 64.602 51.2478 64.602 51.5984C64.602 52.2888 64.213 53.0942 63.435 54.0147C62.668 54.9352 61.7256 55.6529 60.6079 56.1679C60.4764 56.6063 60.334 57.0227 60.1806 57.4172C60.0272 57.8116 59.8299 58.1568 59.5888 58.4527C59.0629 59.0883 58.263 59.406 57.1891 59.406C56.4659 59.406 55.8468 59.1978 55.3318 58.7814C54.8277 58.365 54.5757 57.8445 54.5757 57.2199C54.5757 56.8693 54.6907 56.5898 54.9209 56.3816C55.1619 56.1734 55.4852 55.9981 55.8906 55.8556C56.307 55.7241 56.7891 55.6036 57.337 55.494C57.8849 55.3954 58.4712 55.2694 59.0957 55.116C59.2492 54.4585 59.3533 53.9873 59.408 53.7024ZM57.1727 58.1404C57.6877 58.1404 58.1534 57.6911 58.5698 56.7926C58.1753 56.8693 57.8246 56.924 57.5178 56.9569C57.211 57.0008 56.948 57.0391 56.7289 57.072C56.2906 57.1377 56.0769 57.2528 56.0879 57.4172C56.0879 57.6254 56.2084 57.8007 56.4495 57.9431C56.7015 58.0856 56.9426 58.1513 57.1727 58.1404Z" fill="#9F9F9F"/>
<path d="M52.4079 54.9523C50.8409 54.9633 49.7725 54.377 49.2027 53.1936C49.0055 52.7772 48.9069 52.2567 48.9069 51.632C48.9069 50.9965 48.9616 50.3226 49.0712 49.6103C49.2904 48.1857 49.7123 46.8708 50.3368 45.6654C50.6546 45.0517 51.0107 44.5258 51.4052 44.0874C52.2709 43.1231 53.2352 42.6465 54.2981 42.6574C54.7692 42.6574 55.1363 42.7889 55.3993 43.0519C55.6733 43.3039 55.8102 43.671 55.8102 44.1532C55.8102 44.6353 55.6678 45.123 55.3829 45.6161C55.098 46.0982 54.7309 46.6023 54.2816 47.1283C53.8433 47.6433 53.3557 48.1857 52.8188 48.7556C52.2818 49.3254 51.7559 49.9445 51.2409 50.6129V51.2704C51.2409 51.8841 51.3724 52.3334 51.6353 52.6183C51.8983 52.9032 52.2051 53.0456 52.5558 53.0456C53.4982 53.0456 54.3309 52.5799 55.0541 51.6485C55.35 51.265 55.5746 51.0732 55.728 51.0732C55.8815 51.0732 55.9582 51.2595 55.9582 51.632C55.9582 52.0046 55.8541 52.3882 55.6459 52.7826C55.4486 53.1662 55.1856 53.5223 54.8569 53.8511C54.5282 54.1688 54.1501 54.4318 53.7228 54.64C53.2954 54.8482 52.8571 54.9523 52.4079 54.9523ZM53.2954 46.1256C53.5255 45.8407 53.7063 45.5832 53.8378 45.3531C53.9693 45.123 54.0351 44.8874 54.0351 44.6463C54.0351 44.3943 53.9474 44.2682 53.7721 44.2682C53.3886 44.2682 52.9612 44.6627 52.49 45.4517C52.0298 46.2407 51.6846 47.2762 51.4545 48.5583C51.8271 47.9885 52.1668 47.5118 52.4736 47.1283C52.7914 46.7448 53.0653 46.4105 53.2954 46.1256Z" fill="#9F9F9F"/>
<path d="M45.9316 54.9548C44.8359 54.9548 44.288 53.9302 44.288 51.8811C44.288 50.7634 44.4249 49.7497 44.6989 48.8402C45.1262 47.4376 45.6084 46.7363 46.1453 46.7363C46.4631 46.7363 46.7151 46.95 46.9014 47.3773C47.0548 47.7061 47.126 48.0293 47.1151 48.3471C47.1151 48.7854 46.9836 49.558 46.7206 50.6647C46.4686 51.6291 46.3425 52.2263 46.3425 52.4564C46.3425 52.6865 46.3973 52.8454 46.5069 52.9331C46.6274 53.0207 46.7644 53.0646 46.9178 53.0646C47.0822 53.0646 47.2849 52.9605 47.526 52.7523C47.767 52.544 48.0081 52.3194 48.2492 52.0783C48.4903 51.8263 48.7094 51.5962 48.9066 51.388C49.1148 51.1798 49.2573 51.0757 49.334 51.0757C49.4874 51.0757 49.5641 51.262 49.5641 51.6345C49.5641 52.4016 49.1751 53.1522 48.3971 53.8864C47.6301 54.6096 46.8082 54.9658 45.9316 54.9548ZM46.6055 45.4049C46.3097 44.9666 46.1617 44.4954 46.1617 43.9913C46.1617 43.4872 46.2384 43.0708 46.3918 42.7421C46.5562 42.4024 46.7096 42.1558 46.8521 42.0024C46.9945 41.838 47.1589 41.7559 47.3452 41.7559C47.652 41.7559 47.9314 41.986 48.1834 42.4462C48.4355 42.8955 48.5615 43.2735 48.5615 43.5804C48.5615 44.1502 48.3588 44.5995 47.9533 44.9282C47.5588 45.246 47.1096 45.4049 46.6055 45.4049Z" fill="#9F9F9F"/>
<path d="M44.4848 51.0235C44.682 51.0235 44.7807 51.2755 44.7807 51.7796C44.7807 52.0535 44.6656 52.3878 44.4355 52.7822C44.2054 53.1658 43.904 53.5219 43.5315 53.8507C43.1699 54.1684 42.7644 54.4314 42.3152 54.6396C41.8659 54.8478 41.4276 54.9519 41.0002 54.9519C40.4195 54.9519 40.0305 54.4424 39.8333 53.4233C39.5483 53.8945 39.1758 54.2835 38.7156 54.5903C38.2553 54.8862 37.6362 55.0341 36.8582 55.0341C36.0912 55.0341 35.4721 54.793 35.0009 54.3109C34.5297 53.8287 34.2996 53.2425 34.3106 52.5521C34.3106 50.6893 34.9297 49.2209 36.1679 48.147C36.6939 47.6977 37.1815 47.4018 37.6307 47.2594C38.091 47.1169 38.5731 47.0457 39.0772 47.0457C39.5812 47.0457 39.9921 47.1334 40.3099 47.3087C40.4633 46.9909 40.6386 46.832 40.8359 46.832C41.2194 46.832 41.581 47.0019 41.9207 47.3416C42.2713 47.6703 42.4467 47.9826 42.4467 48.2785C42.2933 48.6401 42.0686 49.073 41.7728 49.577C41.6851 50.0811 41.6413 50.7879 41.6413 51.6974C41.6413 52.6069 41.7563 53.0617 41.9864 53.0617C42.2713 53.0617 42.9617 52.4919 44.0575 51.3522C44.2547 51.1331 44.3971 51.0235 44.4848 51.0235ZM36.7267 52.0097C36.7267 52.8535 37.039 53.2754 37.6636 53.2754C38.332 53.2644 38.8854 52.9083 39.3237 52.2069C39.4771 51.9659 39.6031 51.67 39.7018 51.3193C39.7018 50.092 39.8113 49.0401 40.0305 48.1634C39.1429 48.3388 38.3704 48.7661 37.7129 49.4455C37.0555 50.1249 36.7267 50.9797 36.7267 52.0097Z" fill="#9F9F9F"/>
<path d="M21.4977 52.0589C21.4977 51.9274 21.5853 51.8616 21.7607 51.8616C21.936 51.8616 22.4784 51.9822 23.3879 52.2233C23.5961 50.4261 24.1823 48.4756 25.1466 46.3717C25.4863 45.6046 25.8917 45.2211 26.3629 45.2211C26.4506 45.2211 26.5328 45.3142 26.6095 45.5005C26.6971 45.6868 26.741 45.9169 26.741 46.1909C26.741 46.5196 26.5656 47.4236 26.215 48.903C25.8753 50.3823 25.6507 51.6699 25.5411 52.7657C26.2643 52.93 26.8998 53.0122 27.4477 53.0122C28.0066 53.0122 28.5161 52.8698 28.9763 52.5849C29.4366 52.289 29.831 51.911 30.1598 51.4507C30.8391 50.4754 31.1788 49.3029 31.1788 47.9332C31.1679 45.4019 30.1598 44.1362 28.1545 44.1362C27.4423 44.1472 26.1821 44.465 24.3741 45.0896C24.0234 45.2101 23.7166 45.2704 23.4536 45.2704C23.1907 45.2704 23.0592 45.1937 23.0592 45.0403C23.0592 44.8321 23.2126 44.5855 23.5194 44.3006C23.8262 44.0157 24.2207 43.7417 24.7028 43.4787C25.8863 42.8432 27.0368 42.5254 28.1545 42.5254C29.6886 42.5254 30.9487 42.9363 31.9349 43.7582C33.0964 44.7334 33.6717 46.2128 33.6608 48.1962C33.6608 49.0399 33.5293 49.8728 33.2663 50.6946C33.0033 51.5165 32.6033 52.2507 32.0664 52.8972C31.5295 53.5327 30.8501 54.0478 30.0283 54.4423C29.2064 54.8367 28.2367 55.034 27.119 55.034C26.6697 55.034 26.0999 54.9354 25.4096 54.7381C25.3329 54.9463 25.1411 55.0504 24.8343 55.0504C24.2645 55.0504 23.8755 54.9573 23.6673 54.771C23.4701 54.5738 23.355 54.256 23.3221 53.8176C22.7962 53.5218 22.3579 53.215 22.0072 52.8972C21.6675 52.5794 21.4977 52.3 21.4977 52.0589Z" fill="#9F9F9F"/>
<path d="M46.7499 65.3023C46.4547 65.3023 46.1827 65.2561 45.9338 65.1636C45.6884 65.0676 45.4733 64.9325 45.2883 64.7583C45.107 64.584 44.9648 64.3795 44.8616 64.1448C44.7621 63.9101 44.7123 63.6523 44.7123 63.3714C44.7123 63.0905 44.7621 62.8326 44.8616 62.5979C44.9648 62.3632 45.1088 62.1588 45.2937 61.9845C45.4786 61.8103 45.6955 61.6769 45.9444 61.5845C46.1933 61.4884 46.4672 61.4404 46.7659 61.4404C47.0966 61.4404 47.3935 61.4955 47.6566 61.6058C47.9233 61.716 48.1474 61.876 48.3287 62.0859L47.774 62.5979C47.6389 62.4557 47.4913 62.3508 47.3313 62.2832C47.1712 62.2121 46.997 62.1765 46.8085 62.1765C46.6272 62.1765 46.4618 62.205 46.3125 62.2619C46.1631 62.3188 46.0333 62.4006 45.9231 62.5073C45.8164 62.6139 45.7328 62.7402 45.6724 62.886C45.6155 63.0318 45.5871 63.1936 45.5871 63.3714C45.5871 63.5456 45.6155 63.7057 45.6724 63.8515C45.7328 63.9973 45.8164 64.1253 45.9231 64.2355C46.0333 64.3422 46.1613 64.424 46.3071 64.4809C46.4565 64.5378 46.6201 64.5662 46.7979 64.5662C46.9685 64.5662 47.1339 64.5396 47.2939 64.4862C47.4575 64.4293 47.6157 64.3351 47.7686 64.2035L48.2594 64.8276C48.0567 64.9805 47.8202 65.0979 47.55 65.1796C47.2833 65.2614 47.0166 65.3023 46.7499 65.3023ZM48.2594 64.8276L47.4699 64.7156V63.3127H48.2594V64.8276Z" fill="white"/>
<path d="M40.6395 65.2388V61.5049H41.3543L43.5572 64.1933H43.2105V61.5049H44.0639V65.2388H43.3545L41.1463 62.5504H41.493V65.2388H40.6395Z" fill="white"/>
<path d="M38.889 65.2388V61.5049H39.7531V65.2388H38.889Z" fill="white"/>
<path d="M34.9661 65.2388V61.5049H36.5609C37.0801 61.5049 37.4837 61.6258 37.7717 61.8676C38.0598 62.1059 38.2038 62.4366 38.2038 62.8597C38.2038 63.1371 38.138 63.3772 38.0064 63.5799C37.8749 63.779 37.6882 63.9319 37.4464 64.0386C37.2046 64.1453 36.9165 64.1986 36.5823 64.1986H35.4461L35.8302 63.8199V65.2388H34.9661ZM37.3397 65.2388L36.4062 63.8839H37.329L38.2731 65.2388H37.3397ZM35.8302 63.9159L35.4461 63.5105H36.5343C36.8009 63.5105 37.0001 63.4536 37.1317 63.3398C37.2632 63.2225 37.329 63.0624 37.329 62.8597C37.329 62.6535 37.2632 62.4935 37.1317 62.3797C37.0001 62.2659 36.8009 62.209 36.5343 62.209H35.4461L35.8302 61.7983V63.9159Z" fill="white"/>
<path d="M31.3885 65.2388V61.5049H34.2102V62.1983H32.2473V64.5453H34.2796V65.2388H31.3885ZM32.1833 63.6812V63.0091H33.9809V63.6812H32.1833Z" fill="white"/>
<path d="M28.8641 65.2388V62.209H27.6693V61.5049H30.923V62.209H29.7282V65.2388H28.8641Z" fill="white"/>
<path d="M23.704 65.2388L25.3682 61.5049H26.2216L27.8911 65.2388H26.9844L25.6189 61.9423H25.9602L24.5894 65.2388H23.704ZM24.5361 64.4386L24.7654 63.7826H26.6857L26.9204 64.4386H24.5361Z" fill="white"/>
<path d="M22.1943 65.3023C21.9063 65.3023 21.6378 65.2561 21.3889 65.1636C21.1435 65.0676 20.9302 64.9325 20.7488 64.7583C20.5674 64.584 20.4252 64.3795 20.3221 64.1448C20.2225 63.9101 20.1727 63.6523 20.1727 63.3714C20.1727 63.0905 20.2225 62.8326 20.3221 62.5979C20.4252 62.3632 20.5674 62.1588 20.7488 61.9845C20.9337 61.8103 21.1488 61.6769 21.3942 61.5845C21.6396 61.4884 21.908 61.4404 22.1996 61.4404C22.5232 61.4404 22.8148 61.4973 23.0744 61.6111C23.3376 61.7214 23.558 61.8849 23.7358 62.1019L23.1811 62.6139C23.0531 62.4681 22.9108 62.3597 22.7544 62.2886C22.5979 62.2139 22.4272 62.1765 22.2423 62.1765C22.0681 62.1765 21.908 62.205 21.7623 62.2619C21.6165 62.3188 21.4902 62.4006 21.3835 62.5073C21.2769 62.6139 21.1933 62.7402 21.1328 62.886C21.0759 63.0318 21.0475 63.1936 21.0475 63.3714C21.0475 63.5492 21.0759 63.711 21.1328 63.8568C21.1933 64.0026 21.2769 64.1288 21.3835 64.2355C21.4902 64.3422 21.6165 64.424 21.7623 64.4809C21.908 64.5378 22.0681 64.5662 22.2423 64.5662C22.4272 64.5662 22.5979 64.5307 22.7544 64.4595C22.9108 64.3849 23.0531 64.2728 23.1811 64.1235L23.7358 64.6356C23.558 64.8525 23.3376 65.0178 23.0744 65.1316C22.8148 65.2454 22.5215 65.3023 22.1943 65.3023Z" fill="white"/>
<path d="M43.1749 21.4219C43.1251 19.0447 41.5494 16.998 39.2854 16.2735C35.3098 14.9965 30.1841 11.8359 34.4133 4.28753C40.1955 -6.03657 52.5795 5.52823 61.6627 5.52823C70.7458 5.52823 77.9408 10.3869 71.9865 18.3292C71.1624 19.4295 70.0576 19.9367 68.9573 20.1178C66.3763 20.548 64.5515 22.8981 64.5515 25.5153V36.9081H43.4919L43.1704 21.4219H43.1749Z" fill="#9F9F9F"/>
<path d="M56.2977 19.568C56.1347 19.0156 56.1845 18.4541 56.3067 17.9243C56.438 17.3945 56.6599 16.8874 56.9723 16.4391C57.2802 15.9908 57.656 15.5833 58.0998 15.2663C58.539 14.9448 59.0461 14.7093 59.6031 14.6143C59.3495 15.1305 59.0597 15.5335 58.7971 15.9455L58.0002 17.1274L57.1987 18.3092C56.9225 18.7122 56.6418 19.1152 56.2977 19.568Z" fill="white"/>
<path d="M61.2513 19.9806C61.2695 19.392 61.4596 18.8622 61.7087 18.3641C61.9668 17.8705 62.3018 17.4222 62.7003 17.0283C63.0988 16.6344 63.5833 16.3129 64.104 16.0865C64.6292 15.8646 65.2179 15.7604 65.7884 15.851C65.3628 16.2585 64.9824 16.571 64.6202 16.9151L63.5606 17.9203C63.212 18.26 62.8588 18.6041 62.483 18.9482C62.1071 19.2924 61.7177 19.641 61.2468 19.9806H61.2513Z" fill="white"/>
<path d="M30.6331 8.75062L30.2754 8.94533C29.7909 9.18985 29.3652 9.52493 28.9034 9.8102C27.9797 10.3717 27.1556 11.0781 26.3043 11.7437C24.6923 13.1746 23.1438 14.7006 21.9031 16.4665L21.4186 17.1095C21.2647 17.3314 21.1288 17.5623 20.9839 17.7887L20.1236 19.1562L19.381 20.5916L19.0143 21.3116L18.7109 22.0588L18.1041 23.553L17.6287 25.0926L17.3932 25.8624L17.2257 26.6503L16.8906 28.226L17.2529 26.6548L17.434 25.8714L17.683 25.1062L18.1811 23.5757L18.8105 22.095L19.1275 21.3569L19.5078 20.646L20.2685 19.2332L21.1469 17.8884C21.2964 17.6665 21.4322 17.4355 21.5907 17.2182L22.0842 16.5843C23.343 14.85 24.9052 13.3648 26.5217 11.9792C27.3729 11.3362 28.197 10.6524 29.1207 10.1136C29.578 9.83737 30.0037 9.51587 30.4836 9.28041L30.6874 9.17626C30.6693 9.03136 30.6557 8.88647 30.6421 8.74609L30.6331 8.75062Z" fill="#9F9F9F"/>
<path d="M17.1669 28.2892L16.6145 28.167L17.1216 25.8033L17.8416 23.4668L18.7608 21.2027L19.8792 19.0292L20.7486 17.6391C20.8029 17.5576 20.8482 17.4806 20.898 17.3991C20.9931 17.2451 21.0882 17.0912 21.1923 16.9463L21.6858 16.2942C23.0488 14.3562 24.7739 12.7261 26.1233 11.5307C26.327 11.3722 26.5172 11.2182 26.7074 11.0688C27.3594 10.5526 28.0296 10.0137 28.7631 9.56999C28.9216 9.47037 29.0755 9.36622 29.2295 9.26207C29.5193 9.06284 29.8227 8.85907 30.1487 8.69606L30.8686 8.30664L30.9229 8.85907C30.932 8.95869 30.9411 9.05378 30.9546 9.1534L30.9818 9.34811L30.6015 9.54734C30.3026 9.69224 30.0264 9.87337 29.7411 10.059C29.5781 10.1632 29.4197 10.2718 29.2521 10.3669C28.5503 10.7745 27.8983 11.2816 27.2598 11.7706C27.0651 11.9201 26.8704 12.0695 26.6757 12.2144C25.3535 13.351 23.651 14.9041 22.2971 16.7606L21.799 17.3991C21.7085 17.5259 21.6179 17.6663 21.5274 17.8066C21.473 17.8881 21.4232 17.9696 21.3689 18.0511L20.495 19.3915L19.3675 21.4925L18.4348 23.6886L17.6967 25.9572L17.1579 28.2847L17.1669 28.2892Z" fill="#9F9F9F"/>
<path d="M72.0596 30.2194C71.9827 29.6761 71.8876 29.1327 71.8061 28.5893C71.4936 26.4113 70.7963 24.3148 69.9949 22.2771C69.9224 22.096 69.8319 21.9194 69.7458 21.7383C69.3474 21.8651 68.9761 21.9919 68.6455 22.1096C68.7406 22.3134 68.8357 22.5126 68.9172 22.7209C69.6507 24.6861 70.2847 26.7011 70.5473 28.7886C70.6197 29.3093 70.7012 29.8255 70.7646 30.3462L70.828 31.9175C70.8914 32.9635 70.8733 34.014 70.7737 35.0555C70.5971 37.1384 70.1986 39.2077 69.5375 41.1911C68.881 43.1744 68.0026 45.0807 66.9068 46.8557C65.8065 48.6262 63.5425 51.4654 62.0799 52.9461L62.0709 52.9551C62.0709 52.9551 62.0709 52.9551 62.0664 52.9596C61.7404 53.2992 61.7539 53.8336 62.089 54.1596C62.4286 54.4856 62.9629 54.472 63.2889 54.1369C64.8194 52.5385 67.1332 49.5771 68.2697 47.6798C69.3972 45.778 70.2937 43.7449 70.9503 41.6393C71.6159 39.5338 72.0008 37.3512 72.1502 35.1551C72.2317 34.0593 72.2362 32.9544 72.1502 31.8586L72.0551 30.2149L72.0596 30.2194Z" fill="#9F9F9F"/>
<path d="M14.5582 26.2597C14.7484 24.8333 15.0925 23.4296 15.5363 22.0621C15.9755 20.6901 16.5324 19.3543 17.1799 18.0593C17.8546 16.7778 18.6334 15.5507 19.5436 14.4232C20.4718 13.3093 21.5585 12.3267 22.763 11.5479C21.6853 12.5033 20.7435 13.5629 19.8922 14.6949C19.0726 15.8541 18.3346 17.0586 17.6826 18.3174C17.0396 19.5807 16.4691 20.8848 15.9483 22.207C15.4412 23.5383 14.9567 24.8831 14.5537 26.2597H14.5582Z" fill="#9F9F9F"/>
<path d="M64.0719 57.393C65.8016 55.4776 67.5811 53.7117 69.2429 51.8325C70.0624 50.8906 70.9001 49.9624 71.6427 48.9617C72.3853 47.961 73.0871 46.9376 73.6939 45.792C73.5354 47.0825 73.0192 48.3142 72.3808 49.4462C71.7468 50.5873 70.9409 51.6197 70.0896 52.5887C69.2338 53.5577 68.2829 54.4362 67.2822 55.2467C66.2816 56.0527 65.2265 56.8044 64.0719 57.393Z" fill="#9F9F9F"/>
<path d="M8.21471 63.2985C8.1649 62.5514 8.17849 61.8133 8.21471 61.0752C8.24641 60.3371 8.3098 59.6035 8.38225 58.87C8.46828 58.1364 8.55884 57.4074 8.68563 56.6784C8.80788 55.9494 8.9573 55.2249 9.16106 54.5049C9.21087 55.252 9.19728 55.9901 9.16106 56.7282C9.12936 57.4663 9.06598 58.1998 8.989 58.9334C8.90297 59.6669 8.81241 60.396 8.68563 61.125C8.56337 61.854 8.41395 62.5785 8.21019 63.2985H8.21471Z" fill="white"/>
</svg>
