<svg width="146" height="69" viewBox="0 0 146 69" fill="none" xmlns="http://www.w3.org/2000/svg">
<path d="M97.6785 7.97644C98.0268 8.35454 95.6465 9.36282 95.4032 9.4591C92.7832 10.4971 91.502 10.5199 88.7612 9.98775C84.8337 9.22453 80.8905 7.89941 76.9105 7.15196C58.0747 3.61422 36.8867 6.04915 22.4107 19.5104C8.3845 32.5533 7.68792 50.8704 27.4828 58.1612C37.214 61.7444 47.0659 61.4031 57.2049 60.2548C82.4709 57.391 110.581 50.3943 134.912 61.0495C136.957 61.944 141.605 64.2879 143.051 65.8493C143.259 66.0734 143.387 66.2029 143.301 66.5425C140.875 67.416 138.483 68.6571 135.898 68.9967C125.302 62.2241 112.662 58.3502 100.048 57.8023C74.0997 56.6768 36.5734 71.1025 13.4724 57.8391C-0.539824 49.7956 2.81358 34.0412 11.9269 23.5348C26.4117 6.83512 57.8752 1.71494 78.8847 3.95556C85.28 4.63825 91.5073 6.28896 97.6785 7.97644Z" fill="#9F9F9F"/>
<path d="M67.5773 28.0467C67.6491 28.0029 67.7051 27.6913 67.8679 27.56C69.5358 26.2104 70.5439 25.5715 72.8665 26.0616C76.8569 26.9053 75.0105 32.6819 75.5198 35.4722C75.7281 36.61 77.543 37.4923 75.714 38.5478C74.3034 39.3618 69.9856 39.4948 68.9932 37.9649C68.6379 37.4153 69.2873 36.9479 69.443 36.4735C69.8316 35.3024 69.8858 31.3673 69.3363 30.2908C69.1123 29.8514 68.5609 29.5451 68.0709 29.5258C67.5126 29.7079 67.0138 30.2085 66.921 30.8037C66.781 31.6912 66.8195 34.2189 66.9297 35.1449C67.0855 36.4507 68.6152 37.8301 67.145 38.7211C66.0529 39.3846 61.9189 39.5141 60.79 39.0117C59.01 38.2205 60.391 37.5921 60.7743 36.7203C61.3081 35.5037 61.4568 31.026 60.2527 30.282C57.8356 28.7906 58.2277 34.1506 58.345 35.3357C58.5252 37.1597 60.2072 38.343 57.6081 39.1483C56.3112 39.5509 53.4846 39.6471 52.2297 39.178C50.105 38.3815 52.298 37.4293 52.5378 36.3492C52.8003 35.1571 52.7758 32.0413 52.5343 30.8299C52.3697 30.0019 51.2444 29.3315 51.2006 28.8361C51.0973 27.6458 56.81 26.1736 57.8794 26.1439C58.3327 26.2437 58.0719 27.9276 58.1962 28.3145C58.5287 29.349 60.0304 27.462 60.3595 27.2099C61.5478 26.2962 63.4766 25.6082 64.9082 26.3242C65.6696 26.704 66.767 28.528 67.5773 28.0432V28.0467Z" fill="#9F9F9F"/>
<path d="M32.758 22.5672C33.7451 23.4828 34.9475 25.6271 34.1949 26.9417C33.0065 29.016 30.9517 26.2398 29.7301 25.5098C28.6362 24.8569 27.6806 24.4263 26.5395 25.228C23.6691 27.2481 29.8421 28.3964 30.943 28.841C37.0005 31.2847 35.9153 37.891 30.1589 39.6905C27.7681 40.438 21.6214 40.5903 19.9814 38.4057C19.2428 37.4219 17.9757 33.6688 19.6576 33.1962C20.5905 32.9354 21.7421 35.2775 22.3477 35.8622C23.6814 37.1471 25.9986 37.6249 27.6351 36.6412C28.3457 36.214 28.4489 35.8272 27.9256 35.1778C27.1013 34.1555 23.5466 33.4763 22.0642 32.475C15.8614 28.2843 20.4645 21.4294 26.781 21.6272C27.8486 21.6605 29.1718 22.3099 30.1169 22.3344C31.3175 22.3659 31.6186 21.51 32.7562 22.5655L32.758 22.5672Z" fill="#9F9F9F"/>
<path d="M145.348 43.7187C146.899 45.2994 144.851 46.4845 143.571 47.33C140.871 45.1366 137.444 44.4662 134.084 43.8815C126.855 42.6229 119.436 42.2448 112.108 41.9052C86.3781 40.7114 60.6937 42.8978 35.0006 43.9988C34.5981 44.0163 30.5481 44.4277 30.5481 44.0933L49.6954 42.4339C74.3366 41.0598 99.1056 38.9819 123.813 39.8169C128.434 39.9727 142.133 40.4418 145.348 43.7187Z" fill="#9F9F9F"/>
<path d="M4.14785 49.7772C0.376152 45.52 -0.808741 39.5141 0.53367 34.0071C4.25987 18.7183 21.2142 8.90858 35.1353 4.61813C55.7511 -1.73439 71.2177 -1.08671 91.9454 3.84617C92.586 3.99846 94.8105 4.03172 94.1104 5.026C93.9162 5.24306 93.6746 5.19754 93.4226 5.18004C91.8597 5.06276 89.0803 3.94595 87.3354 3.56084C65.61 -1.2425 38.858 1.75259 19.793 13.5789C9.9743 19.6706 -0.945258 31.6859 1.96359 44.1827C2.4239 46.1625 3.35151 47.9304 4.14785 49.7772Z" fill="#9F9F9F"/>
<path d="M93.8362 27.4066C95.0106 27.5641 95.4937 26.2915 96.2953 25.7576C97.4119 25.0119 99.3074 25.1729 100.485 25.7384C103.772 27.3155 102.34 31.9543 102.964 34.8006C103.228 36.0137 105.599 36.903 103.223 37.9305C102.185 38.3786 98.413 38.5082 97.2876 38.2053C95.0719 37.6067 96.6698 36.7489 97.0566 35.7862C97.5467 34.5678 97.4644 30.7745 96.7136 29.6875C95.8227 28.3973 94.1827 28.891 94.006 30.4629C93.894 31.4572 93.8922 34.0199 94.0252 34.9967C94.2002 36.2693 95.9085 37.2356 94.1337 38.1091C93.5544 38.3944 91.673 38.5799 90.9571 38.6044C89.991 38.6359 86.5501 38.6377 87.0471 36.973C87.1399 36.6631 87.6072 36.4443 87.7892 36.1345C88.2565 35.3363 88.3651 31.6427 88.2443 30.6362C88.0728 29.1938 86.9246 29.2148 86.5728 28.4516C86.2 27.6411 88.0098 26.8762 88.5908 26.6223C89.2857 26.3195 92.8578 25.1117 93.3111 25.3883L93.8345 27.4083L93.8362 27.4066Z" fill="#9F9F9F"/>
<path d="M111.625 25.0016C120.586 23.8656 123.638 35.0494 114.681 37.8485C103.478 41.3494 101.39 26.2987 111.625 25.0016ZM111.795 27.7814C111.357 27.8497 110.755 28.4939 110.657 28.928C110.401 30.0605 111.458 34.2477 112.377 35.0004C113.018 35.5256 113.988 35.0967 114.215 34.4105C114.653 33.0924 113.59 27.4996 111.795 27.7814Z" fill="#9F9F9F"/>
<path d="M132.823 59.2067C126.678 56.721 120.253 54.876 113.654 53.9885C94.8135 51.4503 75.3791 56.2029 56.6834 58.1582C45.9826 59.2767 32.9925 59.9769 23.1424 54.9881C22.8536 54.8428 22.297 54.5994 22.157 54.3141C29.4536 57.0606 37.1895 57.8326 44.978 57.6418C72.4563 56.9714 100.916 45.7245 127.92 56.679C129.574 57.3495 131.407 58.1284 132.821 59.2067H132.823Z" fill="#9F9F9F"/>
<path d="M37.0603 31.1931C36.0925 30.3003 37.0306 28.9227 37.8077 28.2698C40.0532 26.3827 44.8208 25.7648 47.2431 27.5661C49.3118 29.103 48.596 30.8675 48.722 33.0801C48.7482 33.5422 48.848 34.9916 48.939 35.3102C49.2313 36.3325 51.4506 35.8651 49.9524 37.9675C48.9985 39.3066 47.0068 40.2256 45.4263 39.5237C44.8138 39.2523 44.518 38.6432 43.9212 38.3998C42.3075 39.7057 40.356 40.3429 38.317 39.6392C37.6361 39.4046 36.404 38.2353 36.2237 37.5369C35.3486 34.1759 37.8479 32.8876 40.6483 32.3344C41.2941 32.2066 43.053 32.3729 43.2753 31.6395C43.4976 30.906 43.0005 28.5113 42.0012 28.5026C40.7848 28.4921 38.9278 32.9121 37.0621 31.1931H37.0603ZM41.6231 34.4455C40.706 35.403 41.3658 37.5071 42.6155 37.1132C44.1539 36.6301 43.5991 32.3782 41.6231 34.4455Z" fill="#9F9F9F"/>
<path d="M134.972 28.384C135.35 28.8286 137.766 29.8351 138.508 30.3533C142.276 32.9825 140.629 36.6918 136.677 37.6231C135.342 37.5128 131.845 37.8279 130.77 37.3937C129.877 37.0331 128.035 33.2118 129.802 32.8337C130.931 32.6622 132.646 36.1824 134.145 35.2634C136.007 34.1221 132.081 32.6097 131.367 32.0758C129.256 30.4986 128.787 28.1232 130.459 25.9823C132.636 23.1903 135.482 25.2384 138.308 24.2773C139.306 25.0493 141.172 27.2462 140.067 28.426C138.774 29.8089 137.101 26.9486 135.87 26.8628C135.07 26.8068 134.418 27.7293 134.972 28.3857V28.384Z" fill="#9F9F9F"/>
<path d="M85.9138 37.8232C84.8549 39.1431 78.6591 39.2726 77.5723 38.0946C76.6972 37.1441 78.0011 36.7292 78.4561 35.8697C78.9514 34.9332 78.9724 31.1136 78.5804 30.1404C78.2513 29.3229 76.6534 28.9798 77.1382 27.9137C77.6388 26.8162 82.4151 25.6749 83.6192 25.6293C84.9967 25.5768 84.3438 27 84.3841 27.821C84.4873 29.8778 84.3018 32.9936 84.5819 34.8037C84.7831 36.1025 86.8484 36.6592 85.9138 37.8232Z" fill="#9F9F9F"/>
<path d="M126.754 50.2481C126.808 50.3076 127.207 50.4932 127.226 50.4739C127.41 49.5952 127.478 48.6779 127.389 47.7782C127.277 46.6368 126.313 46.0942 128.359 45.9209C129.92 45.7896 131.241 45.8124 132.036 47.323C133.128 45.9559 133.942 45.6653 135.668 46.1415C137.537 46.6561 136.121 48.0355 136.131 48.4538C136.133 48.5326 136.912 48.7217 136.767 49.7825C136.544 51.3964 134.187 51.7465 132.939 51.3176C132.62 51.2074 132.473 50.5282 132.213 50.5054C131.894 50.4774 131.439 51.2564 130.982 51.3439C129.762 51.5767 128.112 51.1566 126.958 51.1671C126.509 51.1706 126.206 51.5102 125.74 51.5347C123.53 51.6537 124.169 49.7405 123.115 48.5519L121.634 50.5509C122.798 51.652 122.625 49.5969 122.943 49.6039C123.922 50.8398 123.203 51.4682 121.734 51.3334C118.988 51.0831 115.992 51.3036 113.163 51.3527C112.104 51.3719 110.456 51.4857 109.474 51.3562C108.772 51.2651 108.616 50.5527 108.096 50.635C107.939 50.6595 107.937 51.1881 107.528 51.3141C107.118 51.4402 105.335 51.3737 105.214 50.8958C106.187 49.5462 105.181 47.6416 105.368 46.5441C105.448 46.0697 106.616 45.9051 107.046 45.9174C107.619 45.9331 107.738 46.4548 108.053 46.4268C108.368 46.3988 108.741 45.9296 109.304 45.9226C109.868 45.9156 110.443 46.3095 111.053 46.285C112.068 46.2447 112.838 46.0977 114.037 46.1099C114.402 46.1134 114.774 45.9034 115.071 45.9296C115.446 45.9629 115.727 46.4583 116.128 46.446C116.443 46.4355 116.734 45.9857 117.191 45.9279C117.675 45.8666 118.102 46.1029 118.575 46.1169C119.396 46.1432 120.311 45.6146 120.803 46.8451C120.994 47.3213 120.861 49.9173 121.545 49.772C122.588 49.0105 122.371 47.4648 122.884 46.5616C124.464 43.7713 126.29 49.7422 126.755 50.2446L126.754 50.2481ZM109.745 46.2797C108.198 46.1362 108.753 48.2525 107.3 48.0267C107.048 47.7904 108.702 45.7353 105.905 46.6386C105.923 47.2565 106.201 47.8534 106.246 48.4679C106.285 49.0018 105.977 50.5702 106.241 50.7487C106.443 50.8853 107.113 50.887 107.311 50.7487C107.755 50.4389 107.139 49.14 107.738 49.2486C108.77 49.8315 109.187 51.0586 110.62 50.824C110.906 50.5422 109.444 49.3063 109.224 48.9895C108.256 47.5996 109.81 47.5716 109.747 46.2797H109.745ZM131.113 48.235C131.222 48.0495 131.926 48.151 131.432 47.4053C131.259 47.1462 129.81 45.8124 129.675 46.5441C129.876 47.0517 130.499 47.6101 130.109 48.2053C129.997 48.3768 129.451 48.3261 129.67 48.9895C131.073 49.1855 129.463 50.2201 130.314 50.8047C131.295 51.1303 132.295 49.7019 131.791 49.147C131.541 48.8705 130.676 48.9842 131.113 48.235ZM134.57 46.2797C133.492 46.1992 132.44 47.3598 132.297 48.3786L131.775 48.2018L132.036 48.8985C132.669 48.095 133.403 49.0613 134.045 49.3448C134.619 49.5987 135.228 49.2433 134.479 50.4757L132.648 49.6022C132.409 51.2896 135.881 51.2231 136.142 49.8577C136.473 48.1195 134.322 48.4223 134.07 47.5558C133.875 46.8907 134.549 46.8504 134.57 46.2815V46.2797ZM113.417 46.453C113.032 46.495 111.987 46.2727 111.856 46.7384C111.821 46.8644 112.038 48.839 112.027 49.3483C112.017 49.821 111.639 50.6402 112.132 50.7995C112.468 50.908 113.268 50.9185 113.393 50.5404L113.417 46.4548V46.453ZM115.339 46.4548C114.579 46.3533 114.192 46.7541 114.292 47.5016C114.837 47.4613 115.446 47.0552 115.339 46.4548ZM118.137 46.453L117.114 46.4793C116.723 47.085 117.129 47.6434 117.094 48.2805C117.014 49.7667 115.682 51.5767 118.501 50.5387L118.139 46.453H118.137ZM120.738 50.4529L120.199 47.1007C119.966 46.6141 119.555 46.3655 119.013 46.453C118.951 46.9624 119.172 47.4298 119.195 47.9305C119.226 48.6131 119.312 49.007 119.345 49.5024C119.366 49.8052 119.072 50.2674 119.186 50.649L120.738 50.4529ZM123.232 47.8272C124.515 48.0932 124.062 48.6989 124.295 49.4726C124.566 50.3741 125.114 51.2319 126.183 50.9185L126.321 50.4231C125.49 49.1295 125.14 47.5121 123.964 46.4688C123.315 46.292 123.091 47.3808 123.232 47.8254V47.8272ZM129.151 46.453H127.926C127.877 47.4631 127.996 48.5064 127.926 49.5146C127.898 49.9278 127.697 50.1833 127.646 50.4634C127.54 51.0498 129.467 50.9115 129.495 50.5649C128.906 49.9155 129.32 49.2153 129.29 48.6394C129.253 47.9445 129.029 47.197 129.15 46.453H129.151ZM135.92 46.8521C135.738 46.6648 134.831 46.2552 134.745 46.7191C134.88 47.5541 135.396 47.5768 136.144 47.5016C136.229 47.4246 136.03 46.9659 135.92 46.8521ZM111.494 50.038V47.4158C111.494 47.078 110.916 46.7419 110.568 46.8294C110.351 46.8854 109.399 47.8657 109.42 48.0845L110.963 50.2183L111.494 50.038ZM116.387 47.1515C115.32 46.9344 115.659 47.8639 115.059 48.3646L114.115 48.0267C113.93 49.3518 114.546 48.8897 115.293 49.2066C115.638 49.3536 115.785 49.8192 116.21 49.7737L116.385 47.1515H116.387ZM114.639 49.2521C114.381 49.0228 114.315 49.2713 114.287 49.5164C114.161 50.5859 114.928 50.8958 115.864 50.8258C115.764 50.0275 114.577 50.1868 114.639 49.2538V49.2521Z" fill="#9F9F9F"/>
<path d="M123.86 19.3879C125.892 19.0623 127.511 21.1769 127.401 23.1007C127.29 25.0245 124.873 29.8716 122.785 29.6615C120.629 29.4445 123.022 27.6152 123.363 26.7592C124.056 25.0227 122.439 24.8967 121.772 23.6643C120.864 21.9839 122.022 19.682 123.86 19.3862V19.3879Z" fill="#9F9F9F"/>
<path d="M81.3907 20.8125C84.4361 20.6304 85.3147 23.0496 82.5214 24.2189C81.3207 24.7213 78.1546 25.3445 77.3933 24.0054C76.1944 21.896 79.9696 20.8965 81.3907 20.8125Z" fill="#9F9F9F"/>
<path d="M88.9405 49.0674L89.4638 50.9877C89.0805 51.1348 87.4965 51.3973 87.374 50.8897C87.9883 49.4245 87.6821 47.7966 87.542 46.2684C88.6587 46.5135 90.3109 45.8115 91.1352 46.7813C92.0523 47.8596 90.9707 48.1449 91.06 48.7629C91.1317 49.267 92.9992 50.9457 91.8231 51.1645C89.7473 51.5496 90.7869 48.7471 88.9405 49.0657V49.0674ZM90.1411 47.1664C90.0326 46.9931 88.6307 46.5695 88.8372 47.6741C89.119 49.1865 90.6364 47.9524 90.1411 47.1664Z" fill="#9F9F9F"/>
<path d="M60.4443 51.0078C61.0342 50.0433 61.0902 48.6989 60.9746 47.5926C60.9466 47.3265 60.4321 46.2972 60.7104 46.2832C61.6502 46.7558 64.0953 45.9786 64.5521 46.9904C64.8829 47.7239 64.258 48.13 64.3176 48.4468C64.3701 48.7216 64.9599 48.9982 65.0806 49.2643C65.3782 49.9155 64.7218 51.0078 64.0288 51.0078H60.4443ZM63.4074 48.2C64.013 46.6648 61.771 46.418 62.2681 48.0477L63.4074 48.2ZM63.5685 50.2848C63.6175 49.6529 63.803 48.8844 62.9786 48.8932C61.7255 48.9072 62.1 51.0445 63.5685 50.2848Z" fill="#9F9F9F"/>
<path d="M73.7281 51.0047L71.4563 51.1797C71.8886 49.6218 72.2351 48.2582 71.6978 46.6442L71.8956 46.2871C72.797 46.7265 75.2298 45.8145 75.6148 47.1081C75.8983 48.0621 75.1247 48.2687 75.1527 48.61C75.1982 49.1457 76.3201 50.3062 76.5197 50.9172C76.2519 51.2865 75.501 51.2742 75.1247 51.0904C74.4282 50.7544 74.5419 49.0721 73.6406 49.0634C72.3122 49.0494 73.8838 50.8594 73.7263 51.0029L73.7281 51.0047ZM74.4054 47.1816C74.2759 46.9768 73.0087 46.667 73.014 47.5965C73.0227 49.0774 75.025 48.1706 74.4054 47.1816Z" fill="#9F9F9F"/>
<path d="M36.0575 46.2842L36.3043 46.7025L34.4018 50.046C35.2839 50.9317 35.8055 49.3755 36.6666 49.4333V50.8214C36.5021 50.7917 36.2921 51.0052 36.2308 51.0052H31.948C32.2403 50.151 33.952 48.152 34.0203 47.3905C34.0413 47.1612 33.9275 47.1122 33.7718 46.9879C32.8949 46.9161 32.8581 48.0242 31.948 47.8579C31.6838 47.1962 32.4976 46.2842 33.0839 46.2842H36.0558H36.0575Z" fill="#9F9F9F"/>
<path d="M41.212 46.2842C41.4483 46.4977 39.586 49.0972 39.425 49.4806C39.0225 50.4398 39.4285 50.4924 40.2704 50.158C40.6117 50.0232 40.8724 49.3703 41.3853 49.4316C41.4728 49.7834 41.373 51.0052 40.9495 51.0052H37.1025L36.9257 50.6551C37.3108 50.2018 39.1205 47.3572 38.7634 46.9844C37.8726 46.8461 37.6031 47.8911 36.8417 48.0312C36.7507 47.3852 37.0185 46.2842 37.8026 46.2842H41.212Z" fill="#9F9F9F"/>
<path d="M47.1573 51.174L45.169 51.153L44.6685 49.9906C43.2771 49.3622 43.6254 50.8886 43.3243 51.1005L41.9119 51.174C41.7334 50.5333 42.2777 50.3285 42.472 49.8996C42.7117 49.3727 43.6691 46.4652 43.8231 46.3549C44.2467 46.0503 44.672 46.3461 44.9625 46.6385C45.1918 46.8695 46.8842 49.9591 47.0225 50.3477C47.1223 50.6278 47.2028 50.8711 47.1573 51.174ZM44.4917 48.2489C44.4199 48.1561 44.0402 47.9496 43.9246 48.1999L43.6604 49.2502C44.476 49.4515 45.0238 48.9474 44.4917 48.2489Z" fill="#9F9F9F"/>
<path d="M51.6648 46.8309C51.8066 47.076 51.7279 47.7079 51.4391 47.8427C51.1293 47.988 51.0278 47.1565 50.5307 47.006C50.1702 46.8975 49.6749 46.8922 49.4333 47.2353C49.2093 47.9565 50.4029 47.967 50.781 48.1561C53.317 49.4357 50.977 51.8969 48.6632 50.9743C48.0524 50.731 47.123 49.595 47.9491 49.4182C48.1539 49.3744 49.8149 51.2684 50.1299 50.1989C50.4257 49.1959 46.4387 48.7775 48.2677 46.8554C48.9713 46.1167 51.166 45.9715 51.6648 46.8309Z" fill="#9F9F9F"/>
<path d="M81.4228 47.8633C80.0961 48.0734 80.2396 46.3264 78.8115 47.2629C77.8366 47.9018 78.1936 50.0987 79.4538 50.2825C80.7314 50.468 79.284 48.6895 79.9456 48.5723C80.7209 48.9854 82.3084 48.0506 81.6398 49.5683C80.4094 52.3603 76.5432 51.184 76.8915 48.3184C77.1715 46.0218 81.3615 45.2218 81.421 47.8651L81.4228 47.8633Z" fill="#9F9F9F"/>
<path d="M67.6535 50.0797C69.9865 51.1353 69.8273 47.8758 69.1902 46.535C69.2129 46.2496 70.6271 45.9223 70.5466 46.8326C70.3891 48.6093 70.7496 51.0985 68.2171 51.1773C65.4902 51.263 66.0415 48.2855 65.7703 46.4474L67.3682 46.2829L67.7865 46.5402C67.356 47.1371 67.2369 49.6648 67.6517 50.078L67.6535 50.0797Z" fill="#9F9F9F"/>
<path d="M26.5277 50.995H24.4292C24.6637 49.9832 25.0348 48.2712 24.7827 47.2717C24.732 47.0686 24.3294 47.0844 24.2629 46.8796C23.9987 46.0674 24.9193 46.484 25.2133 46.4665C26.4664 46.3947 28.0276 45.7803 28.5439 47.4905C29.188 49.6279 26.5137 49.0502 26.2512 49.409C25.9519 50.0007 26.6782 50.3771 26.526 50.995H26.5277ZM27.2278 47.1474L26.0762 47.3172L26.4419 48.7211C27.1945 48.5128 27.317 47.8389 27.226 47.1474H27.2278Z" fill="#9F9F9F"/>
<path d="M96.9831 47.6721C96.276 47.8629 96.0257 47.1382 95.4604 47.0087C95.1208 46.9299 94.1162 46.9002 94.4435 47.5023C95.2696 48.4056 97.2438 48.2148 96.906 49.7727C96.5683 51.3307 92.7283 51.833 92.9646 49.5959C93.6349 49.3999 93.6787 50.1351 93.9587 50.3049C94.6255 50.7092 95.6021 50.4694 95.1296 49.5784C94.2492 49.1513 92.772 48.8625 92.9996 47.6284C93.3339 45.8114 96.9025 45.7168 96.9848 47.6704L96.9831 47.6721Z" fill="#9F9F9F"/>
<path d="M85.6206 48.0323L85.6031 49.0669L84.0454 49.0844C83.9159 49.7356 84.4899 50.6458 85.1813 50.6458C85.8953 50.6458 86.1701 49.6691 86.8405 49.6095C86.9087 52.0025 83.9631 50.7263 82.4719 51.0064C83.0967 49.403 83.0092 47.9098 82.4719 46.2871L86.3241 46.3659C86.6654 46.8735 86.7984 47.3251 86.2244 47.6822L85.1918 46.8193C83.347 47.2761 83.7181 48.5435 85.6206 48.0341V48.0323Z" fill="#9F9F9F"/>
<path d="M29.3259 50.9892C29.7162 49.4365 30.236 47.84 29.1509 46.4449C29.5919 46.3399 31.5014 46.0178 31.5994 46.5342C30.9763 47.6125 30.9606 49.7638 31.7692 50.7266C31.7657 51.166 29.7407 50.9366 29.3259 50.9874V50.9892Z" fill="#9F9F9F"/>
<path d="M55.2236 49.2369L55.4424 48.022C56.594 47.4409 57.2136 48.2636 56.5258 49.2789C56.1442 49.5852 55.6192 49.4137 55.2236 49.2369Z" fill="#9F9F9F"/>
<path d="M100.772 47.8871C102.121 47.4407 102.345 49.6411 100.928 49.4415C100.058 49.319 100.207 48.0726 100.772 47.8871Z" fill="#9F9F9F"/>
</svg>
