<svg width="58" height="69" viewBox="0 0 58 69" fill="none" xmlns="http://www.w3.org/2000/svg">
<path d="M54.4403 42.489C54.4403 28.6914 43.2555 17.5068 29.4576 17.5068C15.6598 17.5068 4.479 28.6914 4.479 42.489H54.4403Z" fill="#9F9F9F"/>
<path d="M32.9955 15.1345C33.4561 13.183 32.2475 11.2277 30.296 10.7671C28.3445 10.3065 26.3891 11.5151 25.9285 13.4666C25.4679 15.418 26.6765 17.3734 28.628 17.834C30.5795 18.2945 32.5349 17.086 32.9955 15.1345Z" fill="#9F9F9F"/>
<path d="M8.7478 37.5733C8.87805 35.3877 9.56998 33.255 10.5346 31.2688C11.5114 29.2826 12.8343 27.451 14.4257 25.8841C16.0131 24.313 17.8894 23.0391 19.9001 22.1111C21.9229 21.2075 24.0761 20.6296 26.2536 20.4912C24.2389 21.3256 22.3177 22.2129 20.5269 23.2996C18.7441 24.3903 17.0957 25.6521 15.6223 27.1051C14.1489 28.554 12.8343 30.1698 11.6987 31.9322C11.1289 32.8113 10.5834 33.7149 10.1032 34.6591C9.60254 35.5993 9.15482 36.568 8.7478 37.5733Z" fill="white"/>
<path d="M55.7067 54.2867C56.3557 54.277 56.8401 54.3981 57.1598 54.6499C57.4794 54.8921 57.6393 55.2457 57.6393 55.7106C57.6393 56.1659 57.4988 56.5582 57.2179 56.8876C56.9467 57.2072 56.6124 57.4349 56.2153 57.5705C56.4962 57.8611 56.7481 58.1565 56.9709 58.4568C57.2034 58.7571 57.3196 59.0719 57.3196 59.4013C57.3196 60.0503 57.0629 60.554 56.5495 60.9124C56.0361 61.2612 55.3192 61.4355 54.399 61.4355C53.4884 61.4355 52.8055 61.2563 52.3502 60.8979C51.8949 60.5298 51.6672 60.1181 51.6672 59.6628C51.6672 59.1979 51.7786 58.7765 52.0014 58.3987C52.2339 58.0209 52.4809 57.832 52.7425 57.832C52.8975 57.832 53.0089 57.8902 53.0767 58.0064C53.1445 58.1129 53.2704 58.4326 53.4545 58.9654C53.5223 59.1591 53.6337 59.3432 53.7887 59.5175C54.1471 59.9147 54.7138 60.1133 55.4888 60.1133C55.3725 59.7452 55.1836 59.4303 54.9221 59.1688C54.6702 58.8976 54.4183 58.636 54.1665 58.3842C53.9146 58.1323 53.6918 57.8659 53.4981 57.585C53.3043 57.2944 53.2075 56.9554 53.2075 56.5679C53.2075 55.8705 53.469 55.3038 53.9921 54.8679C54.4862 54.4804 55.0577 54.2867 55.7067 54.2867ZM55.6486 56.9748C56.0361 56.5582 56.2298 56.224 56.2298 55.9722C56.2298 55.8559 56.1862 55.7542 56.099 55.667C56.0215 55.5702 55.9053 55.5217 55.7503 55.5217C55.5953 55.5217 55.4452 55.5411 55.2999 55.5799C55.1642 55.6186 55.0528 55.6477 54.9657 55.667C54.9657 56.0351 55.1933 56.471 55.6486 56.9748Z" fill="#9F9F9F"/>
<path d="M49.1658 55.1893C49.1658 54.5403 49.6695 54.2158 50.6769 54.2158C50.9288 54.2158 51.0838 54.2982 51.1419 54.4628C51.2097 54.6275 51.2436 54.8794 51.2436 55.2184C51.2436 55.6931 51.1371 56.4292 50.9239 57.427C50.7108 58.4247 50.6091 59.098 50.6188 59.4467C50.6188 59.6114 50.6721 59.6937 50.7786 59.6937C50.9239 59.6937 51.1032 59.6017 51.3163 59.4176C51.5294 59.2336 51.7425 59.035 51.9556 58.8219C52.1687 58.5991 52.3625 58.3957 52.5368 58.2116C52.7209 58.0276 52.8468 57.9355 52.9146 57.9355C53.0502 57.9355 53.1181 58.1002 53.1181 58.4296C53.1181 59.1076 52.7839 59.7615 52.1155 60.3911C50.9918 61.0498 50.2798 61.3792 49.9795 61.3792C49.9504 61.3792 49.9262 61.3744 49.9068 61.3647C49.5387 61.3647 49.2772 61.2436 49.1222 61.0014C48.9769 60.7592 48.8848 60.4541 48.8461 60.086C48.6523 60.4444 48.386 60.7544 48.0469 61.0159C47.7079 61.2678 47.3204 61.3937 46.8845 61.3937C46.1192 61.3937 45.5283 61.2484 45.1117 60.9578C44.7049 60.6672 44.5015 60.2362 44.5015 59.6646C44.5015 59.4128 44.5354 59.1803 44.6032 58.9672C44.6807 58.7541 44.8018 58.4925 44.9664 58.1826L45.3878 54.6081C45.6881 54.3757 46.1192 54.2594 46.681 54.2594C47.1266 54.2594 47.3785 54.55 47.4366 55.1312C47.4851 55.6059 47.4608 56.0321 47.364 56.4099C47.2768 56.778 47.1557 57.2478 47.0007 57.8193C46.8457 58.3811 46.7682 58.88 46.7682 59.3159C46.7682 59.6646 46.9862 59.839 47.4221 59.839C47.8968 59.839 48.3085 59.4225 48.6572 58.5894C48.9284 57.9501 49.1125 57.2381 49.2093 56.4535C49.1997 56.376 49.19 56.2791 49.1803 56.1629C49.1803 56.0369 49.1754 55.9158 49.1658 55.7996C49.1658 55.6834 49.1658 55.5671 49.1658 55.4509V55.1893Z" fill="#9F9F9F"/>
<path d="M42.6278 60.0773C41.8625 60.9782 40.9423 61.4286 39.867 61.4286C38.8014 61.4286 38.0023 61.1574 37.4695 60.6149C36.9367 60.0628 36.6751 59.3799 36.6848 58.5662C36.6751 57.4134 37.0384 56.4205 37.7746 55.5875C38.5108 54.7544 39.4747 54.3379 40.6662 54.3379C41.2087 54.3379 41.6446 54.4057 41.9739 54.5413C42.5455 54.7738 42.8312 54.9917 42.8312 55.1952C42.8312 55.3502 42.4292 55.4325 41.6252 55.4422C40.8309 55.4422 40.1625 55.7183 39.62 56.2704C39.0872 56.8129 38.8208 57.5006 38.8208 58.3337C38.8208 58.7696 38.9467 59.1377 39.1986 59.438C39.4602 59.7286 39.8234 59.8739 40.2884 59.8739C40.7631 59.8739 41.1554 59.777 41.4654 59.5833C40.7776 59.1183 40.4337 58.4451 40.4337 57.5636C40.424 57.0986 40.5887 56.6772 40.9277 56.2995C41.2765 55.912 41.7172 55.7183 42.25 55.7183C42.7925 55.7086 43.18 55.8539 43.4125 56.1542C43.6449 56.4545 43.7612 56.8419 43.7612 57.3166C43.7612 57.7815 43.6498 58.2756 43.427 58.7987H43.5142C43.9404 58.789 44.3085 58.6388 44.6185 58.3482C44.7347 58.232 44.8316 58.1303 44.9091 58.0431C44.9963 57.9559 45.0835 57.9123 45.1706 57.9123C45.3063 57.9123 45.3741 58.0721 45.3741 58.3918C45.3741 58.9827 45.1997 59.4283 44.851 59.7286C44.5022 60.0192 44.1148 60.1645 43.6885 60.1645C43.272 60.1645 42.9184 60.1354 42.6278 60.0773ZM42.497 58.3918C42.6617 58.0431 42.744 57.704 42.744 57.3747C42.744 57.0453 42.6375 56.8807 42.4244 56.8807C42.3372 56.8807 42.2645 56.9436 42.2064 57.0696C42.1483 57.1955 42.1192 57.3166 42.1192 57.4328C42.1192 57.8203 42.2452 58.14 42.497 58.3918Z" fill="#9F9F9F"/>
<path d="M34.2717 61.3562C33.303 61.3562 32.8186 60.4505 32.8186 58.6391C32.8186 57.651 32.9397 56.755 33.1819 55.951C33.5597 54.7111 33.9859 54.0911 34.4605 54.0911C34.7415 54.0911 34.9643 54.28 35.129 54.6578C35.2646 54.9484 35.3275 55.2342 35.3178 55.5151C35.3178 55.9025 35.2016 56.5855 34.9691 57.5638C34.7463 58.4163 34.6349 58.9442 34.6349 59.1476C34.6349 59.351 34.6833 59.4915 34.7802 59.569C34.8868 59.6465 35.0079 59.6852 35.1435 59.6852C35.2888 59.6852 35.468 59.5932 35.6811 59.4092C35.8942 59.2251 36.1073 59.0265 36.3205 58.8134C36.5336 58.5906 36.7273 58.3872 36.9017 58.2032C37.0857 58.0191 37.2117 57.9271 37.2795 57.9271C37.4151 57.9271 37.4829 58.0918 37.4829 58.4211C37.4829 59.0992 37.139 59.7627 36.4512 60.4117C35.7731 61.0511 35.0466 61.3659 34.2717 61.3562ZM34.8674 52.9142C34.6059 52.5267 34.4751 52.1102 34.4751 51.6646C34.4751 51.219 34.5429 50.8509 34.6785 50.5603C34.8238 50.26 34.9594 50.042 35.0854 49.9064C35.2113 49.7611 35.3566 49.6885 35.5213 49.6885C35.7925 49.6885 36.0395 49.8919 36.2623 50.2987C36.4851 50.6959 36.5965 51.0301 36.5965 51.3013C36.5965 51.805 36.4173 52.2022 36.0589 52.4928C35.7102 52.7737 35.313 52.9142 34.8674 52.9142Z" fill="#9F9F9F"/>
<path d="M32.9896 57.8833C33.164 57.8833 33.2511 58.0334 33.2511 58.3337C33.2511 58.6243 33.1737 58.9391 33.0187 59.2781C32.8734 59.6172 32.6457 59.9465 32.3357 60.2662C32.0354 60.5762 31.648 60.8426 31.1733 61.0654C30.6986 61.2882 30.1368 61.3996 29.4877 61.3996C28.8484 61.3996 28.2866 61.2107 27.8022 60.8329C27.3179 60.4454 27.0757 59.8933 27.0757 59.1764C27.0757 58.4499 27.1871 57.7961 27.4099 57.2149C27.6424 56.624 27.9427 56.1154 28.3108 55.6892C28.6886 55.263 29.1148 54.9336 29.5895 54.7011C30.0641 54.459 30.5146 54.3379 30.9408 54.3379C31.6867 54.3379 32.0596 54.6333 32.0596 55.2242C32.0596 55.5633 31.987 55.8345 31.8417 56.0379C31.7061 56.2413 31.5656 56.3431 31.4203 56.3431C31.2266 56.3431 31.057 56.2752 30.9117 56.1396C30.7664 56.004 30.6066 55.9362 30.4322 55.9362C30.2579 55.9265 30.0883 56.0089 29.9237 56.1832C29.7687 56.3576 29.6379 56.5804 29.5313 56.8516C29.3182 57.3941 29.2117 58.0286 29.2117 58.7551C29.2214 59.1038 29.3812 59.3653 29.6912 59.5397C29.9043 59.6559 30.1562 59.7189 30.4468 59.7286C30.7374 59.7286 31.0135 59.6317 31.275 59.438C31.5462 59.2442 31.7933 59.036 32.0161 58.8132C32.2389 58.5807 32.4326 58.3676 32.5973 58.1739C32.7716 57.9801 32.9024 57.8833 32.9896 57.8833Z" fill="#9F9F9F"/>
<path d="M24.7365 61.3562C23.7678 61.3562 23.2834 60.4505 23.2834 58.6391C23.2834 57.651 23.4045 56.755 23.6467 55.951C24.0245 54.7111 24.4507 54.0911 24.9254 54.0911C25.2063 54.0911 25.4291 54.28 25.5938 54.6578C25.7294 54.9484 25.7924 55.2342 25.7827 55.5151C25.7827 55.9025 25.6664 56.5855 25.434 57.5638C25.2112 58.4163 25.0998 58.9442 25.0998 59.1476C25.0998 59.351 25.1482 59.4915 25.2451 59.569C25.3516 59.6465 25.4727 59.6852 25.6083 59.6852C25.7536 59.6852 25.9328 59.5932 26.146 59.4092C26.3591 59.2251 26.5722 59.0265 26.7853 58.8134C26.9984 58.5906 27.1922 58.3872 27.3665 58.2032C27.5506 58.0191 27.6765 57.9271 27.7443 57.9271C27.8799 57.9271 27.9477 58.0918 27.9477 58.4211C27.9477 59.0992 27.6039 59.7627 26.9161 60.4117C26.238 61.0511 25.5115 61.3659 24.7365 61.3562ZM25.3322 52.9142C25.0707 52.5267 24.9399 52.1102 24.9399 51.6646C24.9399 51.219 25.0077 50.8509 25.1434 50.5603C25.2887 50.26 25.4243 50.042 25.5502 49.9064C25.6761 49.7611 25.8214 49.6885 25.9861 49.6885C26.2574 49.6885 26.5044 49.8919 26.7272 50.2987C26.95 50.6959 27.0614 51.0301 27.0614 51.3013C27.0614 51.805 26.8822 52.2022 26.5237 52.4928C26.175 52.7737 25.7778 52.9142 25.3322 52.9142Z" fill="#9F9F9F"/>
<path d="M20.7134 61.357C19.3282 61.3667 18.3837 60.8485 17.88 59.8023C17.7056 59.4342 17.6184 58.9741 17.6184 58.4219C17.6184 57.8601 17.6668 57.2643 17.7637 56.6347C17.9575 55.3754 18.3304 54.213 18.8826 53.1475C19.1635 52.605 19.4783 52.14 19.827 51.7526C20.5923 50.9001 21.4448 50.4788 22.3844 50.4884C22.801 50.4884 23.1255 50.6047 23.358 50.8372C23.6001 51.06 23.7212 51.3845 23.7212 51.8107C23.7212 52.2369 23.5953 52.668 23.3434 53.1039C23.0916 53.5301 22.767 53.9757 22.3699 54.4407C21.9824 54.8959 21.5513 55.3754 21.0767 55.8791C20.602 56.3828 20.137 56.9302 19.6817 57.521V58.1023C19.6817 58.6447 19.798 59.0419 20.0305 59.2937C20.263 59.5456 20.5342 59.6715 20.8442 59.6715C21.6773 59.6715 22.4135 59.2598 23.0528 58.4364C23.3144 58.0974 23.5129 57.9279 23.6486 57.9279C23.7842 57.9279 23.852 58.0926 23.852 58.4219C23.852 58.7513 23.76 59.0903 23.5759 59.439C23.4015 59.7781 23.1691 60.0929 22.8785 60.3835C22.5878 60.6644 22.2536 60.8969 21.8758 61.0809C21.4981 61.265 21.1106 61.357 20.7134 61.357ZM21.4981 53.5543C21.7015 53.3025 21.8613 53.0748 21.9776 52.8714C22.0938 52.668 22.1519 52.4597 22.1519 52.2466C22.1519 52.0238 22.0744 51.9124 21.9194 51.9124C21.5804 51.9124 21.2026 52.2611 20.7861 52.9586C20.3792 53.656 20.0741 54.5714 19.8706 55.7048C20.2 55.2011 20.5003 54.7797 20.7715 54.4407C21.0524 54.1016 21.2946 53.8062 21.4981 53.5543Z" fill="#9F9F9F"/>
<path d="M14.7853 59.7286C15.5409 59.7286 16.2723 59.4283 16.9794 58.8277C17.241 58.6049 17.4541 58.4015 17.6188 58.2174C17.7834 58.0237 17.9094 57.9268 17.9965 57.9268C18.1322 57.9268 18.2 58.0625 18.2 58.3337C18.2 58.6049 18.1273 58.91 17.982 59.2491C17.8367 59.5784 17.5945 59.9029 17.2555 60.2226C16.4224 61.0072 15.2793 61.3996 13.8263 61.3996C12.6735 61.3996 11.8889 60.983 11.4724 60.15C11.327 59.8594 11.2544 59.4428 11.2544 58.9004C11.2544 58.3579 11.361 57.7961 11.5741 57.2149C11.7872 56.624 12.0681 56.1154 12.4168 55.6892C12.7753 55.263 13.187 54.9336 13.6519 54.7011C14.1169 54.459 14.6109 54.3379 15.134 54.3379C15.6668 54.3379 16.0737 54.4687 16.3546 54.7302C16.6452 54.9917 16.7905 55.3308 16.7905 55.7473C16.7905 56.1638 16.684 56.5077 16.4708 56.779C16.2674 57.0405 16.001 57.2633 15.6717 57.4473C15.3423 57.6217 14.9742 57.7815 14.5673 57.9268C14.1702 58.0625 13.7779 58.2174 13.3904 58.3918V58.7551C13.4001 59.1038 13.5454 59.3508 13.8263 59.4961C14.1072 59.6414 14.4269 59.7189 14.7853 59.7286ZM14.5383 55.6311C14.0346 55.6311 13.6858 56.2171 13.4921 57.3892C13.6955 57.2536 13.8844 57.1325 14.0588 57.026C14.2428 56.9194 14.4027 56.8177 14.5383 56.7208C14.8289 56.5077 14.979 56.2656 14.9887 55.9943C14.9887 55.7522 14.8386 55.6311 14.5383 55.6311Z" fill="#9F9F9F"/>
<path d="M0 58.8074C0 58.6911 0.077496 58.633 0.232488 58.633C0.38748 58.633 0.866987 58.7396 1.67101 58.9527C1.85506 57.3641 2.37332 55.6398 3.22577 53.7799C3.52607 53.1019 3.88449 52.7628 4.30103 52.7628C4.37852 52.7628 4.45118 52.8452 4.51899 53.0098C4.59648 53.1745 4.63523 53.3779 4.63523 53.6201C4.63523 53.9107 4.48024 54.7099 4.17025 56.0176C3.86996 57.3253 3.67137 58.4635 3.5745 59.4322C4.21385 59.5775 4.77569 59.6501 5.26004 59.6501C5.75408 59.6501 6.20452 59.5242 6.61138 59.2723C7.01823 59.0108 7.36696 58.6766 7.65758 58.2698C8.25817 57.4076 8.55847 56.3712 8.55847 55.1603C8.54878 52.9227 7.65758 51.8038 5.88485 51.8038C5.2552 51.8135 4.14119 52.0944 2.54284 52.6466C2.23285 52.7531 1.96162 52.8064 1.72913 52.8064C1.49664 52.8064 1.3804 52.7386 1.3804 52.603C1.3804 52.4189 1.51602 52.201 1.78725 51.9491C2.05849 51.6973 2.40722 51.4551 2.83345 51.2226C3.87964 50.6608 4.89678 50.3799 5.88485 50.3799C7.24103 50.3799 8.35504 50.7431 9.22687 51.4696C10.2537 52.3318 10.7623 53.6395 10.7526 55.3928C10.7526 56.1387 10.6363 56.8749 10.4038 57.6014C10.1714 58.3279 9.81778 58.9769 9.34311 59.5484C8.86845 60.1103 8.26786 60.5655 7.54133 60.9143C6.81481 61.263 5.95751 61.4373 4.96943 61.4373C4.57226 61.4373 4.06854 61.3502 3.45826 61.1758C3.39045 61.3598 3.22093 61.4519 2.94969 61.4519C2.44597 61.4519 2.10208 61.3695 1.91803 61.2049C1.74366 61.0305 1.64195 60.7496 1.61289 60.3621C1.14791 60.1006 0.76043 59.8293 0.450446 59.5484C0.150148 59.2675 0 59.0205 0 58.8074Z" fill="#9F9F9F"/>
<path d="M35.7972 68.9991C35.4474 68.9991 35.1251 68.9443 34.8301 68.8348C34.5393 68.721 34.2844 68.5609 34.0652 68.3544C33.8503 68.1479 33.6818 67.9056 33.5596 67.6275C33.4416 67.3494 33.3826 67.0439 33.3826 66.711C33.3826 66.3781 33.4416 66.0726 33.5596 65.7945C33.6818 65.5164 33.8524 65.2741 34.0716 65.0676C34.2907 64.8611 34.5477 64.7031 34.8427 64.5935C35.1377 64.4797 35.4622 64.4229 35.8161 64.4229C36.208 64.4229 36.5599 64.4882 36.8717 64.6188C37.1878 64.7494 37.4533 64.9391 37.6682 65.1877L37.0108 65.7945C36.8507 65.6259 36.6758 65.5016 36.4862 65.4215C36.2965 65.3373 36.0901 65.2951 35.8667 65.2951C35.6518 65.2951 35.4558 65.3288 35.2789 65.3963C35.1019 65.4637 34.9481 65.5606 34.8174 65.687C34.691 65.8134 34.592 65.963 34.5203 66.1358C34.4529 66.3086 34.4192 66.5003 34.4192 66.711C34.4192 66.9175 34.4529 67.1071 34.5203 67.2799C34.592 67.4526 34.691 67.6043 34.8174 67.735C34.9481 67.8614 35.0998 67.9583 35.2725 68.0257C35.4495 68.0931 35.6434 68.1269 35.8541 68.1269C36.0563 68.1269 36.2523 68.0953 36.4419 68.032C36.6358 67.9646 36.8233 67.853 37.0045 67.697L37.586 68.4366C37.3458 68.6178 37.0656 68.7568 36.7453 68.8537C36.4293 68.9507 36.1132 68.9991 35.7972 68.9991ZM37.586 68.4366L36.6505 68.3038V66.6415H37.586V68.4366Z" fill="#9F9F9F"/>
<path d="M28.5552 68.9216V64.4971H29.4022L32.0127 67.6828H31.6019V64.4971H32.6132V68.9216H31.7726L29.1557 65.736H29.5665V68.9216H28.5552Z" fill="#9F9F9F"/>
<path d="M26.4814 68.9216V64.4971H27.5054V68.9216H26.4814Z" fill="#9F9F9F"/>
<path d="M21.833 68.9216V64.4971H23.723C24.3382 64.4971 24.8165 64.6403 25.1578 64.9269C25.4992 65.2092 25.6698 65.6011 25.6698 66.1026C25.6698 66.4312 25.5919 66.7157 25.436 66.9559C25.28 67.1918 25.0588 67.373 24.7723 67.4995C24.4857 67.6259 24.1444 67.6891 23.7483 67.6891H22.4019L22.857 67.2403V68.9216H21.833ZM24.6458 68.9216L23.5397 67.3162H24.6332L25.752 68.9216H24.6458ZM22.857 67.3541L22.4019 66.8737H23.6914C24.0074 66.8737 24.2434 66.8063 24.3993 66.6714C24.5552 66.5324 24.6332 66.3428 24.6332 66.1026C24.6332 65.8582 24.5552 65.6685 24.3993 65.5337C24.2434 65.3988 24.0074 65.3314 23.6914 65.3314H22.4019L22.857 64.8447V67.3541Z" fill="#9F9F9F"/>
<path d="M17.5918 68.9216V64.4971H20.9356V65.3188H18.6095V68.0999H21.0178V68.9216H17.5918ZM18.5336 67.076V66.2795H20.6638V67.076H18.5336Z" fill="#9F9F9F"/>
<path d="M14.6022 68.9216V65.3314H13.1863V64.4971H17.0421V65.3314H15.6262V68.9216H14.6022Z" fill="#9F9F9F"/>
<path d="M8.48657 68.9216L10.4587 64.4971H11.4701L13.4485 68.9216H12.374L10.7558 65.0154H11.1603L9.53585 68.9216H8.48657ZM9.47264 67.9735L9.74445 67.1961H12.02L12.2981 67.9735H9.47264Z" fill="#9F9F9F"/>
<path d="M6.69692 68.9991C6.35559 68.9991 6.03743 68.9443 5.74245 68.8348C5.45169 68.721 5.19885 68.5609 4.98393 68.3544C4.76902 68.1479 4.60046 67.9056 4.47826 67.6275C4.36027 67.3494 4.30127 67.0439 4.30127 66.711C4.30127 66.3781 4.36027 66.0726 4.47826 65.7945C4.60046 65.5164 4.76902 65.2741 4.98393 65.0676C5.20306 64.8611 5.45801 64.7031 5.74877 64.5935C6.03954 64.4797 6.35769 64.4229 6.70324 64.4229C7.08671 64.4229 7.43226 64.4903 7.73988 64.6251C8.05171 64.7557 8.31298 64.9496 8.52368 65.2066L7.8663 65.8134C7.71459 65.6407 7.54603 65.5121 7.36062 65.4279C7.1752 65.3394 6.97293 65.2951 6.75381 65.2951C6.54732 65.2951 6.35769 65.3288 6.18492 65.3963C6.01215 65.4637 5.86255 65.5606 5.73613 65.687C5.60971 65.8134 5.51068 65.963 5.43904 66.1358C5.37162 66.3086 5.33791 66.5003 5.33791 66.711C5.33791 66.9217 5.37162 67.1134 5.43904 67.2862C5.51068 67.459 5.60971 67.6085 5.73613 67.735C5.86255 67.8614 6.01215 67.9583 6.18492 68.0257C6.35769 68.0931 6.54732 68.1269 6.75381 68.1269C6.97293 68.1269 7.1752 68.0847 7.36062 68.0004C7.54603 67.9119 7.71459 67.7792 7.8663 67.6022L8.52368 68.209C8.31298 68.4661 8.05171 68.662 7.73988 68.7969C7.43226 68.9317 7.0846 68.9991 6.69692 68.9991Z" fill="#9F9F9F"/>
<path d="M2.76921 32.8749C3.16808 30.6323 4.05945 28.4833 5.1991 26.489C5.76485 25.4877 6.43236 24.5435 7.14464 23.6318C7.86913 22.7323 8.66688 21.8898 9.50941 21.0961C10.3764 20.3228 11.2962 19.6146 12.2608 18.9756C13.2418 18.357 14.2593 17.7994 15.3216 17.3476C17.4503 16.4481 19.7133 15.9108 21.9845 15.7969C19.8029 16.4399 17.7108 17.2255 15.753 18.2511C13.8075 19.2971 11.9922 20.5548 10.3723 22.0444C9.55825 22.7811 8.79713 23.5748 8.07264 24.4092C7.34001 25.2354 6.68064 26.1227 6.03755 27.0262C4.78394 28.8537 3.67278 30.7992 2.76514 32.879L2.76921 32.8749Z" fill="#9F9F9F"/>
<path d="M56.1495 32.4542C55.2459 30.3744 54.1348 28.4289 52.8771 26.6014C52.234 25.6978 51.5746 24.8106 50.842 23.9843C50.1216 23.15 49.3605 22.3563 48.5424 21.6196C46.9224 20.1341 45.1071 18.8764 43.1616 17.8263C41.2039 16.8007 39.1118 16.0151 36.9302 15.3721C39.2013 15.4901 41.4643 16.0274 43.593 16.9228C44.6554 17.3745 45.6729 17.9321 46.6538 18.5508C47.6184 19.1898 48.5383 19.9021 49.4052 20.6713C50.2478 21.465 51.0455 22.3075 51.77 23.207C52.4823 24.1146 53.1498 25.0588 53.7156 26.0642C54.8552 28.0585 55.7466 30.2075 56.1454 32.4501L56.1495 32.4542Z" fill="#9F9F9F"/>
<path d="M10.8853 4.69467C11.6667 4.43011 12.4523 4.29173 13.2337 4.19405C14.0152 4.10043 14.8008 4.05566 15.5822 4.05566C16.3637 4.05566 17.1492 4.10043 17.9307 4.19405C18.7122 4.29173 19.4977 4.43011 20.2792 4.69874C19.4977 4.96736 18.7122 5.10167 17.9307 5.20342C17.1492 5.29704 16.3637 5.34181 15.5822 5.34181C14.8008 5.34181 14.0152 5.29704 13.2337 5.20342C12.4523 5.10574 11.6667 4.96736 10.8853 4.70281V4.69467Z" fill="#9F9F9F"/>
<path d="M15.5821 9.39373C15.3176 8.61228 15.1792 7.82675 15.0815 7.0453C14.9879 6.26384 14.9431 5.47832 14.9431 4.69687C14.9431 3.91541 14.9879 3.12989 15.0815 2.34843C15.1792 1.56698 15.3176 0.781454 15.5862 0C15.8548 0.781454 15.9891 1.56698 16.0909 2.34843C16.1845 3.12989 16.2293 3.91541 16.2293 4.69687C16.2293 5.47832 16.1845 6.26384 16.0909 7.0453C15.9932 7.82675 15.8548 8.61228 15.5903 9.39373H15.5821Z" fill="#9F9F9F"/>
<path d="M18.7854 9.49768C19.3389 9.31045 19.8884 9.21277 20.442 9.14765C20.9955 9.07439 21.545 9.04997 22.0985 9.0459C22.6521 9.0459 23.2015 9.07439 23.7551 9.14358C24.3086 9.2087 24.8581 9.30638 25.4116 9.49768C24.8622 9.6849 24.3086 9.78258 23.7551 9.85177C23.2056 9.92503 22.6521 9.94946 22.0985 9.94946C21.549 9.94946 20.9955 9.92096 20.442 9.8477C19.8925 9.78258 19.3389 9.6849 18.7854 9.49768Z" fill="#9F9F9F"/>
<path d="M22.0953 12.8116C21.9081 12.2581 21.8104 11.7086 21.7453 11.1551C21.672 10.6016 21.6476 10.0521 21.6436 9.49859C21.6436 8.94506 21.672 8.3956 21.7412 7.84207C21.8064 7.28854 21.904 6.73908 22.0953 6.18555C22.2826 6.73908 22.3803 7.28854 22.4494 7.84207C22.5227 8.3956 22.5471 8.94506 22.5471 9.49859C22.5471 10.0521 22.5186 10.6016 22.4454 11.1551C22.3803 11.7086 22.2826 12.2581 22.0953 12.8116Z" fill="#9F9F9F"/>
<path d="M27.5409 15.5885C27.2153 15.2629 27.0484 14.864 26.9629 14.4529C26.8856 14.0378 26.8937 13.5982 27.0443 13.1627C27.1909 12.7313 27.488 12.308 27.9072 12.0557C28.3305 11.8033 28.8352 11.7789 29.2463 11.958C28.9329 12.308 28.7131 12.5482 28.5788 12.8046C28.4445 13.061 28.3549 13.297 28.2572 13.5738C28.1595 13.8465 28.07 14.1558 27.9642 14.4855C27.8543 14.8193 27.7322 15.1733 27.5368 15.5844L27.5409 15.5885Z" fill="white"/>
<path d="M54.1927 43.5508H4.72382C3.88086 43.5508 3.19751 44.2341 3.19751 45.0771V45.2276C3.19751 46.0706 3.88086 46.7539 4.72382 46.7539H54.1927C55.0356 46.7539 55.719 46.0706 55.719 45.2276V45.0771C55.719 44.2341 55.0356 43.5508 54.1927 43.5508Z" fill="#9F9F9F"/>
</svg>
