<svg width="99" height="69" viewBox="0 0 99 69" fill="none" xmlns="http://www.w3.org/2000/svg">
<path d="M63.7564 66.3875C63.4924 66.525 62.9074 66.7085 62.1619 66.7085C60.4872 66.7085 59.3975 65.5728 59.3975 63.8757C59.3975 62.1667 60.5678 60.9277 62.38 60.9277C62.9767 60.9277 63.5041 61.0769 63.7797 61.2144L63.55 61.9942C63.3093 61.8567 62.9307 61.7308 62.38 61.7308C61.1068 61.7308 60.4186 62.6707 60.4186 63.8298C60.4186 65.1139 61.2443 65.906 62.3451 65.906C62.9191 65.906 63.2973 65.7562 63.584 65.6304L63.7564 66.3875Z" fill="#808285"/>
<path d="M68.0126 66.5991L67.932 65.8992H67.897C67.5877 66.335 66.9911 66.7249 66.1997 66.7249C65.0756 66.7249 64.502 65.9335 64.502 65.1308C64.502 63.7886 65.6949 63.0545 67.8401 63.0654V62.9506C67.8401 62.4921 67.7136 61.6664 66.5779 61.6664C66.0615 61.6664 65.5231 61.8272 65.1329 62.0796L64.9038 61.414C65.3623 61.1157 66.0279 60.9209 66.7271 60.9209C68.4248 60.9209 68.838 62.0796 68.838 63.192V65.2683C68.838 65.75 68.8606 66.2198 68.9295 66.5987H68.0126V66.5991ZM67.8627 63.7656C66.762 63.743 65.5115 63.9381 65.5115 65.0162C65.5115 65.6695 65.9473 65.9794 66.4637 65.9794C67.1855 65.9794 67.6447 65.521 67.8051 65.0505C67.8401 64.9476 67.8627 64.8328 67.8627 64.7292V63.7656Z" fill="#808285"/>
<path d="M71.6376 59.4463V61.0408H73.0826V61.8093H71.6376V64.8028C71.6376 65.491 71.8328 65.8809 72.3944 65.8809C72.6585 65.8809 72.8536 65.846 72.9798 65.8123L73.0257 66.5691C72.8303 66.6497 72.521 66.7067 72.1311 66.7067C71.6606 66.7067 71.2817 66.5575 71.0413 66.2825C70.754 65.9841 70.6514 65.491 70.6514 64.8371V61.8093H69.7908V61.0408H70.6514V59.7103L71.6376 59.4463Z" fill="#808285"/>
<path d="M74.726 64.007C74.7493 65.3711 75.6206 65.9335 76.6305 65.9335C77.3523 65.9335 77.7888 65.807 78.167 65.6468L78.3395 66.3693C77.9839 66.5301 77.3756 66.7133 76.4926 66.7133C74.7836 66.7133 73.7625 65.5892 73.7625 63.9151C73.7625 62.2401 74.7493 60.9209 76.3661 60.9209C78.179 60.9209 78.6611 62.5154 78.6611 63.5362C78.6611 63.7427 78.6378 63.9032 78.6262 64.0067H74.726V64.007ZM77.6853 63.2839C77.6969 62.6416 77.4212 61.6434 76.2862 61.6434C75.2651 61.6434 74.8182 62.584 74.7373 63.2839H77.6853Z" fill="#808285"/>
<path d="M79.9095 62.7788C79.9095 62.1249 79.8978 61.5632 79.8635 61.0468H80.7472L80.7815 62.1365H80.8274C81.0791 61.3907 81.6881 60.9209 82.364 60.9209C82.4788 60.9209 82.5594 60.9326 82.6513 60.9552V61.9074C82.5474 61.8841 82.4449 61.8725 82.3074 61.8725C81.5959 61.8725 81.0918 62.4115 80.9543 63.1687C80.931 63.3068 80.908 63.467 80.908 63.6388V66.5987H79.9098V62.7788H79.9095Z" fill="#808285"/>
<path d="M84.8199 59.5037C84.8316 59.8476 84.5792 60.123 84.178 60.123C83.8217 60.123 83.5693 59.8479 83.5693 59.5037C83.5693 59.1481 83.834 58.873 84.2006 58.873C84.5792 58.873 84.8199 59.1481 84.8199 59.5037ZM83.6959 61.0639H84.7054V66.6155H83.6959V61.0639Z" fill="#808285"/>
<path d="M86.3792 62.5497C86.3792 61.9764 86.3675 61.5059 86.3333 61.0474H87.2279L87.2855 61.9647H87.3088C87.5838 61.4373 88.2261 60.9209 89.1437 60.9209C89.9121 60.9209 91.1054 61.38 91.1054 63.2839V66.5991H90.0959V63.3987C90.0959 62.5041 89.7633 61.7583 88.8111 61.7583C88.1455 61.7583 87.6298 62.2287 87.4573 62.7911C87.4113 62.9169 87.3887 63.0887 87.3887 63.2606V66.5987H86.3792V62.5497Z" fill="#808285"/>
<path d="M97.5304 61.0478C97.5077 61.4486 97.4844 61.8961 97.4844 62.5733V65.7963C97.4844 67.0699 97.2321 67.85 96.693 68.3314C96.1533 68.8362 95.3735 68.9963 94.6743 68.9963C94.0094 68.9963 93.2753 68.8362 92.8275 68.5379L93.0799 67.7691C93.4471 67.9981 94.0204 68.2049 94.7086 68.2049C95.7408 68.2049 96.4982 67.6659 96.4982 66.2661V65.6468H96.4749C96.1656 66.1632 95.569 66.5758 94.7086 66.5758C93.3322 66.5758 92.3457 65.4058 92.3457 63.8692C92.3457 61.9873 93.5736 60.9209 94.8461 60.9209C95.8094 60.9209 96.3374 61.4257 96.5781 61.8848H96.6015L96.6474 61.0474L97.5304 61.0478ZM96.4866 63.2383C96.4866 63.0658 96.4749 62.9169 96.429 62.7791C96.2452 62.1941 95.7524 61.7127 95.0183 61.7127C94.0551 61.7127 93.3669 62.5267 93.3669 63.8116C93.3669 64.9013 93.9169 65.8073 95.0066 65.8073C95.6259 65.8073 96.1879 65.4174 96.4057 64.7755C96.4633 64.6037 96.4863 64.4082 96.4863 64.2364V63.2383H96.4866Z" fill="#808285"/>
<path d="M54.5674 61.3994H0V66.5951H54.5674V61.3994Z" fill="#BCBEC0"/>
<path d="M3.6477 10.8486V24.3069H0.000244141V0.691543L3.6477 0V7.79841C5.43997 7.26369 6.82371 6.98035 8.01833 6.98035C12.7975 6.98035 14.3071 9.71622 14.3071 13.144V24.3065H10.6909V13.4266C10.6909 11.6344 9.90482 10.1883 7.42102 10.1883C6.6033 10.1883 5.75427 10.2822 3.6477 10.8486Z" fill="#808285"/>
<path d="M24.6385 24.5043C19.5128 24.5043 16.3684 21.2963 16.3684 15.731C16.3684 10.0712 19.6703 6.92676 24.7328 6.92676C29.8262 6.92676 32.9709 10.0712 32.9709 15.731C32.9709 21.328 29.701 24.5043 24.6385 24.5043ZM24.6385 9.72489C21.62 9.72489 20.1104 11.926 20.1104 15.731C20.1104 19.5986 21.7452 21.7052 24.7328 21.7052C27.7197 21.7052 29.2918 19.5986 29.2918 15.731C29.2918 11.8951 27.5945 9.72489 24.6385 9.72489Z" fill="#808285"/>
<path d="M45.8146 23.9076C44.1169 24.3164 42.8906 24.5052 41.7899 24.5052C38.0479 24.5052 36.2869 22.4296 36.2869 18.4678V10.2289H33.7715V7.30421H36.2869V3.43697L39.8721 2.74609V7.30455H45.3115V10.2292H39.8721V18.5936C39.8721 20.4176 40.5007 21.5176 42.3246 21.5176C43.0791 21.5176 44.0223 21.3288 45.3431 21.0145L45.8146 23.9076Z" fill="#808285"/>
<path d="M12.4868 53.1728C4.7481 53.1728 0.000244141 48.3303 0.000244141 39.9263C0.000244141 31.3804 4.98516 26.6328 12.6293 26.6328C20.3205 26.6328 25.0683 31.3807 25.0683 39.9263C25.0683 48.3773 20.1307 53.1728 12.4868 53.1728ZM12.4868 30.858C7.9291 30.858 5.65006 34.1818 5.65006 39.9263C5.65006 45.7663 8.11888 48.9476 12.6293 48.9476C17.1398 48.9476 19.5137 45.7663 19.5137 39.9263C19.5137 34.1342 16.9497 30.858 12.4868 30.858Z" fill="#808285"/>
<path d="M40.386 50.7603C39.3532 52.736 38.2494 53.4186 36.2551 53.4186C34.261 53.4186 32.7897 52.5166 32.2197 50.7603L24.1011 26.9265H30.1308L36.4452 47.1994L59.5828 0H65.47L40.386 50.7603Z" fill="#BCBEC0"/>
<path d="M62.2775 26.5479C69.3987 26.5479 74.0989 30.6781 74.0989 39.3196C74.0989 40.981 73.2915 41.8354 71.5825 41.8354H55.6305C55.9625 46.4884 59.0483 48.5773 63.3213 48.5773C65.3157 48.5773 67.4522 48.246 70.3962 47.3434L72.9602 46.536L73.7673 50.8571L71.2509 51.6641C67.8794 52.7565 65.6004 53.1837 62.9421 53.1837C55.3452 53.1837 50.1702 48.8157 50.1702 39.9845C50.1698 30.6781 55.8197 26.5479 62.2775 26.5479ZM62.135 30.7257C58.2415 30.7257 55.8676 33.4796 55.6309 37.8476H68.6389C68.6389 33.9547 66.7404 30.7257 62.135 30.7257Z" fill="#808285"/>
<path d="M82.272 52.8959H76.717V31.768C76.717 29.5842 77.8084 28.4442 79.8504 27.8745C83.6963 26.8779 86.1651 26.6875 88.2068 26.6875C95.6129 26.6875 98.462 30.6283 98.462 36.0408V52.8959H93.0022V36.5159C93.0022 33.6675 91.8153 31.483 87.8745 31.483C86.5926 31.483 85.2162 31.5779 82.2723 32.3374L82.272 52.8959Z" fill="#808285"/>
</svg>
