<svg width="100" height="39" viewBox="0 0 100 39" fill="none" xmlns="http://www.w3.org/2000/svg">
<path d="M51.8608 29.0012V14.8917H62.2323V17.3582H54.7307V20.3762H61.6348V22.8631H54.7307V26.499H62.5693V29.0063H51.8608V29.0012Z" fill="url(#paint0_linear_2042_424)"/>
<path d="M63.167 29.0012V14.8917H69.3919C72.1546 14.8917 73.9164 16.9088 73.9164 19.4621C73.9164 22.0154 72.1546 23.8793 69.3919 23.8793H66.1186V29.0012H63.167ZM68.9221 21.4843C70.6226 21.4843 71.3222 20.6111 71.3222 19.3804C71.3222 18.211 70.6226 17.3429 68.9221 17.3429H66.1186V21.4843H68.9221Z" fill="url(#paint1_linear_2042_424)"/>
<path d="M74.3398 22.0766C74.3398 17.2968 76.7859 14.4269 81.1163 14.4269C85.4467 14.4269 87.8519 17.2968 87.8519 22.1379C87.8519 26.9789 85.4518 29.4914 81.1163 29.4914C76.7808 29.4914 74.3398 26.836 74.3398 22.0766ZM84.9462 22.1379C84.9462 18.8033 83.5879 17.0364 81.1214 17.0364C78.6549 17.0364 77.2557 18.7982 77.2557 22.1379C77.2557 25.4776 78.6804 26.9636 81.1214 26.9636C83.2457 26.9636 84.9462 25.4776 84.9462 22.1379Z" fill="url(#paint2_linear_2042_424)"/>
<path d="M96.5898 19.0587C96.4417 17.6135 95.5684 16.9139 93.7862 16.9139C92.1266 16.9139 91.2585 17.5114 91.2585 18.5736C91.2585 19.4672 91.8764 19.9779 93.4492 20.3609C95.0425 20.7439 96.5949 21.1269 97.6366 21.5916C98.8673 22.1431 99.8478 23.0163 99.8478 25.013C99.8478 28.1178 97.509 29.4966 94.2152 29.4966C90.7325 29.4966 88.3069 27.9442 88.2456 24.7781H91.0951C91.1359 26.2232 92.3513 27.1169 94.2407 27.1169C95.9821 27.1169 96.983 26.3713 96.983 25.1202C96.983 24.2929 96.5591 23.7159 94.7922 23.3329C93.0509 22.9499 91.9223 22.6946 90.9266 22.2503C89.4201 21.5711 88.5673 20.5498 88.5673 18.7676C88.5673 16.2398 90.2882 14.4321 93.7301 14.4321C97.1719 14.4321 99.2963 16.3675 99.4035 19.0638H96.6L96.5898 19.0587Z" fill="url(#paint3_linear_2042_424)"/>
<path d="M20.2867 30.4158C19.9139 30.0583 19.7096 29.5732 19.7096 29.0319V23.3585C19.7096 21.7856 20.2764 20.4222 21.3897 19.3038C21.6654 19.0281 21.9514 18.7881 22.2578 18.5838C22.2118 17.9097 22.1761 17.4093 22.1506 17.1744C22.0689 16.3829 22.2782 16.1173 22.5182 15.8313C22.7582 15.5454 28.1406 12.2976 26.2614 6.21051C25.6026 4.08616 24.5507 1.95671 22.7736 0.833253C22.1301 0.424725 21.5173 0.0366234 20.6952 0.0213036C17.9019 -0.0399757 15.1137 4.11169 14.935 7.83441C14.8328 9.97407 15.5886 12.1393 16.4823 13.3598C17.3861 14.5955 17.7385 14.8968 17.7385 14.8968C18.4585 15.5045 19.25 15.8467 19.3675 16.6024C19.393 16.7761 19.3573 16.9139 19.3675 16.965C19.3828 17.0365 19.2909 19.2834 19.1887 21.8367C19.0764 24.533 18.9385 27.2293 18.8772 29.037C18.8704 29.2413 18.867 29.3553 18.867 29.3792C18.6577 32.0193 15.9154 35.022 12.8566 35.0066C9.55772 34.9862 6.99422 31.5648 6.85634 29.4813C6.69293 26.9842 6.52441 24.487 6.361 21.9899C6.24866 20.2026 6.16184 18.7983 6.15674 18.7676C6.15163 18.6757 6.16184 18.5276 6.41207 18.3642C6.65718 18.2008 8.85301 16.4646 9.15941 14.3709C9.47091 12.2772 8.57215 0.434938 8.51598 0.317487C8.45981 0.200035 7.9134 -0.336159 7.51509 0.358339L7.68871 12.5223C7.68871 12.5223 7.17295 13.3393 6.54484 12.5682L6.26398 0.368553C6.26398 0.368553 5.78906 -0.443397 5.16095 0.34302L5.33458 12.6346C5.33458 12.6346 4.68093 13.4108 4.109 12.6142L3.83324 0.337913C3.83324 0.337913 3.32258 -0.351478 2.62809 0.348126L2.74554 12.6142C2.74554 12.6142 2.21956 13.4057 1.55571 12.6295L1.36676 0.455365C1.36676 0.455365 0.835677 -0.351478 0.273953 0.399192C0.273953 0.399192 -0.267345 12.5121 0.171821 14.3555C0.610987 16.199 1.64762 17.445 2.97534 18.3898C2.97534 18.3898 3.30216 18.5685 3.30216 18.9566C3.30216 21.9286 3.13364 24.0479 3.13364 28.4089C3.13364 29.42 3.13364 30.0737 3.30726 30.9673C3.45535 31.7129 3.93537 34.0057 5.83502 36.0024C8.64364 38.9591 12.4021 39 12.8515 39C13.1221 39 17.3657 38.9183 20.1794 35.5735C21.4356 34.0772 21.9974 32.4176 22.268 30.9009C22.0893 30.9571 21.9003 30.9929 21.7012 30.9929C21.1395 30.9929 20.6645 30.7937 20.2815 30.4107L20.2867 30.4158ZM25.1379 5.78666C25.1379 5.78666 27.4359 11.741 22.7685 13.947C22.7685 13.947 26.4912 11.8533 25.1379 5.78666ZM1.82635 16.2501C1.04505 15.239 0.820357 14.2177 0.738652 13.7172C1.02462 14.3811 1.45868 15.2083 2.11232 16.0714C2.67915 16.822 3.2613 17.3991 3.75664 17.828C3.31237 17.6084 2.51574 17.1386 1.82635 16.245V16.2501Z" fill="#008B7C"/>
<path d="M22.6461 29.032C22.6461 29.2924 22.5542 29.5171 22.3653 29.6959C22.1763 29.8848 21.9568 29.9767 21.7014 29.9767H21.6708C21.4155 29.9767 21.1959 29.8848 21.0069 29.6959C20.818 29.5171 20.7261 29.2924 20.7261 29.032V23.3586C20.7261 22.0564 21.1857 20.9482 22.1049 20.0291C23.024 19.1099 24.1373 18.6503 25.4343 18.6503C26.7314 18.6503 27.8344 19.1099 28.7536 20.0291C29.6728 20.9482 30.1324 22.0615 30.1324 23.3586V29.032C30.1324 29.2924 30.0405 29.5171 29.8515 29.6959C29.6728 29.8848 29.4481 29.9767 29.1877 29.9767H29.1673C28.9017 29.9767 28.677 29.8848 28.4932 29.6959C28.3042 29.5171 28.2123 29.2924 28.2123 29.032V23.3586C28.2123 22.5926 27.9417 21.9338 27.4055 21.3874C26.8591 20.841 26.2003 20.5652 25.4343 20.5652C24.6684 20.5652 23.9994 20.841 23.453 21.3874C22.9117 21.9338 22.6461 22.5926 22.6461 23.3586V29.032Z" fill="#1B1B1B"/>
<path d="M32.65 16.6737C32.3334 16.6737 32.0627 16.5614 31.8432 16.3418C31.6236 16.1222 31.5112 15.8516 31.5112 15.535C31.5112 15.2184 31.6236 14.9579 31.8432 14.7383C32.0627 14.5187 32.3334 14.4064 32.65 14.4064C32.9666 14.4064 33.227 14.5187 33.4466 14.7383C33.6764 14.9579 33.7888 15.2286 33.7888 15.535C33.7888 15.8414 33.6764 16.1222 33.4466 16.3418C33.227 16.5614 32.9564 16.6737 32.65 16.6737ZM32.6602 18.6449C32.9206 18.6449 33.1453 18.7368 33.3241 18.9257C33.513 19.1147 33.6049 19.3394 33.6049 19.5998V29.0317C33.6049 29.2921 33.513 29.5168 33.3241 29.6956C33.1453 29.8845 32.9206 29.9764 32.6602 29.9764H32.6398C32.3793 29.9764 32.1496 29.8845 31.9657 29.6956C31.7768 29.5168 31.6849 29.2921 31.6849 29.0317V19.5998C31.6849 19.3394 31.7768 19.1096 31.9657 18.9257C32.1547 18.7368 32.3793 18.6449 32.6398 18.6449H32.6602Z" fill="#1B1B1B"/>
<path d="M42.0562 18.9261C41.8673 18.7372 41.6477 18.6452 41.3924 18.6452H37.0773V15.3362C37.0773 15.0757 36.9854 14.8459 36.7964 14.6621C36.6075 14.4834 36.3879 14.3914 36.1326 14.3914H36.1019C35.8466 14.3914 35.627 14.4834 35.4381 14.6621C35.2491 14.851 35.1572 15.0757 35.1572 15.3362V27.0303C35.1572 27.8371 35.4432 28.5367 36.0202 29.1138C36.6024 29.6857 37.302 29.9768 38.1139 29.9768H38.9463C39.2016 29.9768 39.4212 29.8849 39.6102 29.6959C39.7991 29.5172 39.891 29.2925 39.891 29.0321V29.0117C39.891 28.7512 39.7991 28.5214 39.6102 28.3376C39.4212 28.1486 39.2016 28.0567 38.9463 28.0567H38.1139C37.8229 28.0567 37.5778 27.9546 37.3786 27.7554C37.1794 27.5563 37.0773 27.3112 37.0773 27.0303V20.5653H41.3924C41.6477 20.5653 41.8673 20.4734 42.0562 20.2845C42.2452 20.1057 42.3371 19.881 42.3371 19.6206V19.6002C42.3371 19.3397 42.2452 19.1099 42.0562 18.9261Z" fill="#1B1B1B"/>
<path d="M49.5476 18.9311C49.3689 18.7422 49.1442 18.6503 48.8837 18.6503H48.8633C48.5978 18.6503 48.3731 18.7422 48.1893 18.9311C48.0003 19.1201 47.9084 19.3448 47.9084 19.6052V25.0437C47.9084 25.6259 47.7552 26.1314 47.459 26.5757C47.459 26.5757 47.459 26.5808 47.459 26.5859C47.4182 26.6472 47.3671 26.6983 47.3211 26.7544C47.2496 26.8413 47.1884 26.9332 47.1067 27.0149C47.0454 27.0762 46.9739 27.1272 46.9075 27.1834C46.4019 27.6072 45.8096 27.837 45.1253 27.837C44.3593 27.837 43.7006 27.5613 43.1542 27.0149C42.6129 26.4685 42.3473 25.8097 42.3473 25.0437V22.7713C42.3473 22.5109 42.2554 22.2862 42.0665 22.1074C41.8775 21.9185 41.6528 21.8266 41.3924 21.8266H41.372C41.1115 21.8266 40.8868 21.9185 40.7081 22.1074C40.5192 22.2862 40.4272 22.5109 40.4272 22.7713V25.0437C40.4272 26.0599 40.7132 26.9587 41.2749 27.7451C41.4332 27.9647 41.6069 28.1741 41.806 28.3732C42.7252 29.2924 43.8384 29.752 45.1355 29.752C45.3908 29.752 45.636 29.7316 45.876 29.6958C45.8811 29.6958 45.8862 29.6958 45.8964 29.6958C46.6266 29.5835 47.3007 29.2975 47.9186 28.843V29.5375C47.9186 30.2984 47.6377 30.9572 47.076 31.5087C46.5245 32.0551 45.876 32.3309 45.1355 32.3309C44.5534 32.3309 44.0172 32.1879 43.5167 31.8968C43.0265 31.6108 42.6537 31.238 42.4086 30.7682C42.2963 30.5589 42.1328 30.4108 41.9184 30.324C41.7039 30.2423 41.4843 30.2371 41.2647 30.3137L41.2239 30.3342C40.9532 30.4261 40.7694 30.6048 40.6621 30.8755C40.5498 31.1359 40.56 31.3963 40.6928 31.6517C41.0962 32.4381 41.6835 33.0662 42.4546 33.5309C43.2563 34.016 44.1499 34.256 45.1304 34.256C46.356 34.256 47.4386 33.7964 48.3782 32.8773C49.3484 31.9376 49.8285 30.8244 49.8285 29.5478V19.6205C49.8285 19.3601 49.7365 19.1303 49.5476 18.9465V18.9311Z" fill="#1B1B1B"/>
<defs>
<linearGradient id="paint0_linear_2042_424" x1="39.2118" y1="21.949" x2="97.9631" y2="21.949" gradientUnits="userSpaceOnUse">
<stop stop-color="#00C9B3"/>
<stop offset="1" stop-color="#008B7C"/>
</linearGradient>
<linearGradient id="paint1_linear_2042_424" x1="39.212" y1="-0.00426782" x2="97.9633" y2="-0.00426782" gradientUnits="userSpaceOnUse">
<stop stop-color="#00C9B3"/>
<stop offset="1" stop-color="#008B7C"/>
</linearGradient>
<linearGradient id="paint2_linear_2042_424" x1="39.2117" y1="21.9591" x2="97.9629" y2="21.9591" gradientUnits="userSpaceOnUse">
<stop stop-color="#00C9B3"/>
<stop offset="1" stop-color="#008B7C"/>
</linearGradient>
<linearGradient id="paint3_linear_2042_424" x1="39.2122" y1="21.9592" x2="97.9634" y2="21.9592" gradientUnits="userSpaceOnUse">
<stop stop-color="#00C9B3"/>
<stop offset="1" stop-color="#008B7C"/>
</linearGradient>
</defs>
</svg>
