<svg width="12" height="9" viewBox="0 0 12 9" fill="none" xmlns="http://www.w3.org/2000/svg">
<path d="M0 0V1.21348L5.15345 4.66433C5.15345 4.66433 5.16581 4.66433 5.17817 4.66433C5.21524 4.67697 5.28939 4.70225 5.3759 4.74017C5.54892 4.79073 5.78373 4.84129 6.04325 4.84129C6.36457 4.84129 6.69825 4.76545 7.03193 4.53792C7.8105 3.98174 10.3811 2.17416 12 1.03652V0H0ZM6.04325 6.01686C5.23996 6.01686 4.67147 5.71348 4.62204 5.70084H4.59732L0.0123584 2.61657V9H12V2.46489C10.4181 3.57725 8.37899 5.01826 7.69928 5.4986C7.14315 5.89045 6.54995 6.01686 6.05561 6.01686H6.04325Z" fill="#008B7C"/>
</svg>
