<svg width="131" height="183" viewBox="0 0 131 183" fill="none" xmlns="http://www.w3.org/2000/svg">
<path style="mix-blend-mode:multiply" d="M65.22 182.5C101.24 182.5 130.44 177.499 130.44 171.33C130.44 165.161 101.24 160.16 65.22 160.16C29.2 160.16 0 165.161 0 171.33C0 177.499 29.2 182.5 65.22 182.5Z" fill="url(#paint0_radial_2283_2833)"/>
<path d="M48.56 159.381C48.56 159.381 45.27 164.471 45.44 166.711L53.91 170.691H64.33C64.33 170.691 66.22 167.571 60.26 167.461C54.3 167.351 53.68 161.731 53.68 161.731L48.56 159.381Z" fill="#3C3C3D"/>
<path d="M78.8501 37.9616C82.6901 43.5816 88.1701 53.3716 88.1701 53.3716C88.1701 53.3716 99.47 42.3216 100 39.0116C100.22 37.6516 100.25 35.4316 102.05 33.4716C102.89 32.5516 107.56 31.9216 106.65 33.1116C105.36 34.7916 104.55 36.6216 104.16 38.8616C105.21 38.4916 106.94 37.2916 107.32 37.4716C108.35 37.9716 106.3 40.8816 103.9 41.8316C103.06 42.1616 91.4501 61.2716 88.1701 63.5216C84.4901 66.0416 69.6201 41.5616 69.6201 41.5616C68.4401 38.8116 77.67 35.1916 78.84 37.9516L78.8501 37.9616Z" fill="url(#paint1_linear_2283_2833)"/>
<g style="mix-blend-mode:multiply">
<path d="M78.8501 37.9617C80.0601 39.7217 81.4201 41.9017 82.7301 44.0517C83.0001 45.9417 84.1701 47.8817 84.9301 49.6817C86.4801 53.3417 84.9301 56.2317 88.1701 63.5317C84.4901 66.0517 69.6201 41.5717 69.6201 41.5717C68.4401 38.8217 77.67 35.2017 78.84 37.9617H78.8501Z" fill="url(#paint2_linear_2283_2833)"/>
</g>
<path d="M67.16 39.1315C64.97 43.8115 67.72 47.5015 75.21 57.3615L87.06 50.0415C87.06 50.0415 80.1301 37.2415 75.9901 35.4515C71.4401 33.4815 68.44 36.3715 67.15 39.1315H67.16Z" fill="#6FB2E2"/>
<path d="M67.16 39.1315C64.97 43.8115 67.72 47.5015 75.21 57.3615L87.06 50.0415C87.06 50.0415 80.1301 37.2415 75.9901 35.4515C71.4401 33.4815 68.44 36.3715 67.15 39.1315H67.16Z" fill="#004C44"/>
<path d="M65.6199 34.5616L75.6998 35.4516L77.0798 22.2416L66.9998 21.3516L65.6199 34.5616Z" fill="url(#paint3_linear_2283_2833)"/>
<path style="mix-blend-mode:multiply" d="M68.4299 25.3111C67.9399 24.3211 67.4799 23.3411 67.1699 21.3711L77.0799 22.2511L75.9399 33.1311C74.9399 32.3411 70.4399 29.3911 68.4199 25.3211L68.4299 25.3111Z" fill="url(#paint4_linear_2283_2833)"/>
<path d="M66.51 16.7217L65.47 11.3017L77.08 7.26172C80.61 10.3617 88.2701 20.9617 82.6801 26.2517C77.3301 31.3117 68.56 27.4717 67.64 22.6517L67.54 22.1417C67.16 22.2617 66.75 22.3117 66.33 22.2817C64.66 22.1617 63.41 20.8117 63.54 19.2817C63.66 17.8417 64.96 16.7517 66.5 16.7217H66.51Z" fill="url(#paint5_linear_2283_2833)"/>
<path d="M81.8599 78.4719L87.9299 114.032L88.7598 161.202L80.0098 160.572L73.0698 122.052L61.0598 76.1719L81.8599 78.4719Z" fill="#363638"/>
<g style="mix-blend-mode:multiply" opacity="0.53">
<path d="M73.2798 77.8519L81.2198 113.542L82.4398 160.752L80.0098 160.572L73.0698 122.052L61.0598 76.1719L73.2798 77.8519Z" fill="#414141"/>
</g>
<path d="M75.5099 80.9609L74.7599 119.361L55.7099 163.541L46.6499 159.871L58.8999 115.351L55.3499 82.3009L75.5099 80.9609Z" fill="#363638"/>
<path d="M68.9499 13.7213C69.5299 14.3213 71.1899 15.9913 70.2599 18.8113L68.8499 19.0813C68.8499 19.0813 66.2499 15.8513 63.7299 18.5613C58.4699 19.0813 55.8199 9.93127 60.5599 8.39127C61.3599 1.91127 67.9299 -0.578726 74.2499 0.111274C80.7099 0.811274 81.6699 8.97127 78.5799 9.18127C68.5499 9.88127 67.5799 10.5613 68.9599 13.7213H68.9499Z" fill="url(#paint6_linear_2283_2833)"/>
<path d="M54.2499 90.0221C58.1399 92.1421 88.17 87.2021 88.17 87.2021C88.17 87.2021 86.3999 44.9221 75.9399 33.1221C72.3699 35.4521 69.6399 33.0621 66.0999 30.6621C59.0599 33.5121 55.3499 39.6021 54.6399 43.8021C52.4099 57.0021 53.78 76.5221 54.24 90.0221H54.2499Z" fill="url(#paint7_linear_2283_2833)"/>
<g style="mix-blend-mode:multiply" opacity="0.5">
<path d="M54.65 43.8034C55.1 41.1534 56.3199 40.2634 59.2499 37.3934C59.7099 38.0134 60.71 36.0634 61.37 36.5134C71.17 43.2634 64.31 56.2034 62.68 65.1934C61.33 72.6934 62.55 83.4134 64.17 90.2734C59.97 90.8434 55.4299 90.6634 54.2499 90.0134C53.7899 76.5134 52.42 56.9934 54.65 43.7934V43.8034Z" fill="#6FB2E2"/>
</g>
<path d="M80.6799 160.621C80.6799 160.621 80.0199 165.081 80.0099 167.571L90.5999 168.341L99.4599 167.231C99.4599 167.231 99.7599 163.381 94.6699 163.631C87.9699 163.971 87.0699 161.081 87.0699 161.081L80.6799 160.621Z" fill="#3C3C3D"/>
<path d="M48.1099 90.8313C48.1899 90.3313 48.1099 89.6713 47.9899 89.0213C47.7599 87.8113 47.7099 86.6113 47.7099 86.6113C46.9799 80.3313 45.1099 63.7613 45.3299 61.0813C45.4899 59.0613 49.1799 51.9513 52.3599 46.1113C54.9999 48.9913 57.8899 51.6614 59.9199 55.0414C60.0399 55.2314 60.1699 55.4113 60.3099 55.5813L53.6599 63.2013L52.3599 88.5213C52.4899 88.8513 52.6299 89.1214 52.7799 89.2614C54.1099 90.4914 54.9299 92.8013 54.9599 94.0813C54.9699 94.6213 53.7799 94.0313 53.4399 93.6513C53.3899 94.2413 54.3599 97.0713 54.3399 97.3613C54.2799 98.0013 53.8699 98.4513 53.2899 98.4613C51.3199 98.5113 48.9499 97.0013 48.5699 95.9213C48.2699 95.0713 47.7599 93.1313 48.1199 90.8413L48.1099 90.8313Z" fill="url(#paint8_linear_2283_2833)"/>
<path style="mix-blend-mode:multiply" d="M52.53 84.9913C52.22 83.5213 51.63 70.6913 51.04 66.1813C50.4 61.2913 50.8 58.4613 50.97 53.8913C51.01 52.7113 50.34 51.7714 49.74 51.0114C50.6 49.3714 51.49 47.6913 52.36 46.1113C55 48.9913 57.89 51.6614 59.92 55.0414C60.04 55.2314 60.1699 55.4113 60.3099 55.5813L53.66 63.2013L52.54 84.9913H52.53Z" fill="url(#paint9_linear_2283_2833)"/>
<path d="M62.4799 36.0704C56.9299 35.6904 54.2998 39.8804 47.3098 51.2304L59.2498 60.2904C59.2498 60.2904 69.4099 48.3704 69.5999 43.5204C69.8099 38.1904 65.7399 36.3004 62.4799 36.0804V36.0704Z" fill="#008B7C"/>
<defs>
<radialGradient id="paint0_radial_2283_2833" cx="0" cy="0" r="1" gradientUnits="userSpaceOnUse" gradientTransform="translate(59.5517 169.551) rotate(180) scale(60.2364 9.3324)">
<stop stop-color="#BABABA"/>
<stop offset="0.293269" stop-color="#E6E6E6"/>
<stop offset="1" stop-color="white"/>
</radialGradient>
<linearGradient id="paint1_linear_2283_2833" x1="107.6" y1="48.0916" x2="69.5201" y2="48.0916" gradientUnits="userSpaceOnUse">
<stop stop-color="#F3D0CD"/>
<stop offset="0.4" stop-color="#F4D2D0"/>
<stop offset="0.72" stop-color="#F8DCDA"/>
<stop offset="1" stop-color="#FFEBEA"/>
</linearGradient>
<linearGradient id="paint2_linear_2283_2833" x1="102.19" y1="50.3417" x2="69.5201" y2="50.3417" gradientUnits="userSpaceOnUse">
<stop stop-color="#F3D0CD"/>
<stop offset="0.4" stop-color="#F4D2D0"/>
<stop offset="0.72" stop-color="#F8DCDA"/>
<stop offset="1" stop-color="#FFEBEA"/>
</linearGradient>
<linearGradient id="paint3_linear_2283_2833" x1="77.0798" y1="28.4016" x2="65.6199" y2="28.4016" gradientUnits="userSpaceOnUse">
<stop stop-color="#F3D0CD"/>
<stop offset="0.4" stop-color="#F4D2D0"/>
<stop offset="0.72" stop-color="#F8DCDA"/>
<stop offset="1" stop-color="#FFEBEA"/>
</linearGradient>
<linearGradient id="paint4_linear_2283_2833" x1="77.0799" y1="27.2411" x2="67.1699" y2="27.2411" gradientUnits="userSpaceOnUse">
<stop stop-color="#F3D0CD"/>
<stop offset="0.4" stop-color="#F4D2D0"/>
<stop offset="0.72" stop-color="#F8DCDA"/>
<stop offset="1" stop-color="#FFEBEA"/>
</linearGradient>
<linearGradient id="paint5_linear_2283_2833" x1="84.6601" y1="17.9417" x2="63.53" y2="17.9417" gradientUnits="userSpaceOnUse">
<stop stop-color="#F3D0CD"/>
<stop offset="0.4" stop-color="#F4D2D0"/>
<stop offset="0.72" stop-color="#F8DCDA"/>
<stop offset="1" stop-color="#FFEBEA"/>
</linearGradient>
<linearGradient id="paint6_linear_2283_2833" x1="80.2599" y1="9.53127" x2="58.0699" y2="9.53127" gradientUnits="userSpaceOnUse">
<stop offset="0.79" stop-color="#101010"/>
<stop offset="1" stop-color="#3D3D3D"/>
</linearGradient>
<linearGradient id="paint7_linear_2283_2833" x1="71.0799" y1="86.2921" x2="69.22" y2="28.4921" gradientUnits="userSpaceOnUse">
<stop stop-color="#008C7D"/>
<stop offset="1" stop-color="#006A5E"/>
</linearGradient>
<linearGradient id="paint8_linear_2283_2833" x1="60.2999" y1="72.2913" x2="45.3099" y2="72.2913" gradientUnits="userSpaceOnUse">
<stop stop-color="#F3D0CD"/>
<stop offset="0.4" stop-color="#F4D2D0"/>
<stop offset="0.72" stop-color="#F8DCDA"/>
<stop offset="1" stop-color="#FFEBEA"/>
</linearGradient>
<linearGradient id="paint9_linear_2283_2833" x1="60.2999" y1="65.5613" x2="49.74" y2="65.5613" gradientUnits="userSpaceOnUse">
<stop stop-color="#F3D0CD"/>
<stop offset="0.4" stop-color="#F4D2D0"/>
<stop offset="0.72" stop-color="#F8DCDA"/>
<stop offset="1" stop-color="#FFEBEA"/>
</linearGradient>
</defs>
</svg>
