<svg width="27" height="17" viewBox="0 0 27 17" fill="none" xmlns="http://www.w3.org/2000/svg">
<path d="M20.4753 0.1201L17.9853 2.3729C17.8662 2.48017 17.7961 2.63148 17.7904 2.7914C17.7843 2.94448 17.8379 3.09403 17.9395 3.20849C17.8057 3.26285 17.6712 3.30509 17.5378 3.33191C16.2196 3.59986 14.8021 2.9832 13.7129 3.14808C13.6421 3.15916 13.5738 3.17205 13.5066 3.18349C13.3195 3.13555 13.1249 3.09548 12.9182 3.06401C12.769 3.04149 12.6187 3.03217 12.4692 3.03217C12.04 3.03326 11.6119 3.10408 11.1865 3.16915C10.7619 3.23495 10.342 3.29645 9.94605 3.29645C9.73784 3.29645 9.53683 3.27999 9.34368 3.23997C9.13697 3.19918 8.91555 3.1076 8.69088 2.98061C8.70874 2.92015 8.71733 2.85575 8.71521 2.7914C8.70879 2.63154 8.63797 2.48022 8.51953 2.3729L6.02962 0.1201C4.55878 -1.00089 -0.694354 6.07289 0.0768384 6.91345C0.846633 7.75406 2.23558 9.01421 2.23558 9.01421C2.34967 9.12473 2.50312 9.18623 2.66267 9.18271C2.82185 9.1795 2.97312 9.11262 3.08261 8.99702L4.02013 8.00731C4.03302 8.02196 4.04623 8.03594 4.05772 8.05095C4.13817 8.14393 4.19972 8.23696 4.22405 8.28883C4.32919 8.51242 4.59709 9.05754 4.95414 9.66742C5.13295 9.97218 5.33401 10.293 5.54968 10.5992C5.65917 10.7531 5.77146 10.9043 5.88809 11.0474C5.57189 11.4387 5.57401 12.0132 5.91884 12.402C6.30374 12.8369 6.96798 12.8766 7.40257 12.4914L7.43265 12.4646C7.24556 12.8377 7.29132 13.3027 7.58428 13.6339C7.96918 14.0682 8.63305 14.1082 9.06765 13.723L9.23828 13.5677C9.0047 13.9508 9.03659 14.4574 9.34958 14.8108C9.73442 15.2443 10.3983 15.2843 10.8326 14.9005L11.0958 14.6623C10.8483 15.0486 10.8737 15.5662 11.1932 15.9261C11.578 16.3603 12.2423 16.4007 12.6765 16.0155L13.1008 15.6506C13.1419 15.67 13.1802 15.6875 13.217 15.7043L13.5075 15.8738L13.505 15.8717C13.6491 15.9583 13.8004 16.0283 13.9564 16.0774C14.1127 16.1263 14.2744 16.155 14.4389 16.155C14.6178 16.155 14.8005 16.1207 14.9698 16.0448C15.1411 15.9697 15.2981 15.8531 15.428 15.7057C15.5839 15.5304 15.6869 15.3248 15.7399 15.1105C15.8944 15.1667 16.0564 15.1949 16.2171 15.1949C16.4113 15.1949 16.6051 15.1548 16.7854 15.0754C16.9653 14.996 17.1331 14.8769 17.2715 14.7206C17.4432 14.5274 17.5516 14.2974 17.5985 14.0592C17.6901 14.0778 17.7834 14.0882 17.8771 14.0882C18.0706 14.0882 18.2649 14.0488 18.4452 13.9687C18.6254 13.8896 18.7925 13.7702 18.9305 13.6142C19.118 13.4025 19.2306 13.1467 19.2685 12.8849C19.3086 12.8884 19.349 12.8899 19.3887 12.8899C19.6216 12.8899 19.8502 12.8398 20.0612 12.7504C20.2726 12.6602 20.4683 12.5293 20.6267 12.3523C20.7727 12.1859 20.8843 11.9921 20.9633 11.7832C21.0417 11.5736 21.0881 11.35 21.0889 11.1207C21.0889 11.0371 21.0825 10.9526 21.0674 10.8689C21.8776 9.96824 22.3057 8.46805 22.4911 8.07456C22.4972 8.06167 22.5036 8.04847 22.5111 8.03516L23.4228 8.99702C23.5316 9.11257 23.6829 9.17945 23.8421 9.18271C24.0023 9.18623 24.1557 9.12473 24.2698 9.01421C24.2698 9.01421 25.6588 7.75406 26.4289 6.91345C27.1988 6.07289 21.9464 -1.00089 20.4753 0.1201ZM20.1766 11.4863C20.1308 11.6086 20.0635 11.7209 19.9974 11.7946V11.7939C19.9369 11.8633 19.8425 11.9305 19.7326 11.9777C19.6225 12.0242 19.4984 12.0496 19.3886 12.0496C19.3167 12.0496 19.2505 12.0386 19.1972 12.0207C19.1936 12.0192 19.1908 12.0182 19.1875 12.0171L17.9889 10.8603C17.8219 10.6993 17.5557 10.7043 17.3948 10.871C17.2335 11.038 17.2381 11.3042 17.4051 11.4651L18.372 12.3984C18.3756 12.4076 18.3788 12.4166 18.3835 12.4259C18.4239 12.5049 18.4439 12.5937 18.4439 12.6816C18.4432 12.8168 18.3978 12.9478 18.3016 13.0565C18.2447 13.1209 18.1785 13.1674 18.1059 13.1996C18.034 13.2317 17.9553 13.2482 17.877 13.2482C17.7414 13.2475 17.6101 13.2017 17.5007 13.1051L17.476 13.083C17.4717 13.078 17.4685 13.0722 17.4638 13.0665L16.413 11.9698C16.2527 11.8017 15.9862 11.796 15.8189 11.9562C15.6511 12.1165 15.6453 12.3833 15.806 12.5507L16.6966 13.4814C16.6988 13.4846 16.7009 13.4885 16.7027 13.4914C16.7567 13.5808 16.7846 13.6839 16.7846 13.7872C16.7846 13.9228 16.7389 14.0541 16.6423 14.1631C16.5858 14.2268 16.5192 14.2733 16.4466 14.3062C16.3744 14.3377 16.2961 14.3534 16.217 14.3534C16.0821 14.3534 15.9505 14.3077 15.8414 14.2115L15.8252 14.1982L15.4998 13.9371L14.9678 13.372C14.8087 13.2035 14.5429 13.1956 14.3741 13.3548C14.2052 13.5137 14.197 13.7805 14.3562 13.949L14.8616 14.4851C14.9135 14.5731 14.941 14.6725 14.941 14.7734C14.9407 14.9079 14.8949 15.0396 14.799 15.1476C14.7415 15.213 14.6864 15.2509 14.6295 15.2764C14.573 15.3011 14.5125 15.3143 14.4389 15.3147C14.372 15.3147 14.2947 15.3029 14.2092 15.2756C14.123 15.2485 14.0304 15.2063 13.9338 15.1497L13.9313 15.1476L13.7835 15.0617C14.1945 14.6739 14.2264 14.0276 13.849 13.6016C13.4691 13.1738 12.8177 13.1301 12.3832 13.4986L12.4618 13.4278C12.8958 13.0432 12.9358 12.379 12.5513 11.9448C12.1664 11.5105 11.5022 11.4705 11.0682 11.8553L10.8111 12.0874C11.0589 11.7022 11.0332 11.1836 10.7134 10.8237C10.3289 10.3894 9.66537 10.349 9.23041 10.7343L8.88879 11.0454C9.04901 10.682 8.99543 10.2417 8.71464 9.92476C8.33042 9.49017 7.66587 9.45046 7.23158 9.83499L6.5076 10.4767C6.41675 10.3626 6.32553 10.2406 6.23613 10.114C5.93996 9.6933 5.66166 9.22402 5.44128 8.82199C5.22023 8.41991 5.05571 8.08372 4.9838 7.93023C4.94591 7.84973 4.90076 7.77606 4.85215 7.70525C4.77637 7.59472 4.68939 7.49206 4.60035 7.3951L8.15658 3.64107C8.47138 3.83241 8.8101 3.98875 9.17564 4.06386C9.43608 4.11677 9.69394 4.13608 9.94616 4.13608C10.4265 4.13572 10.8883 4.06526 11.3154 3.99946C11.4227 3.98228 11.5282 3.96654 11.6309 3.9508C11.3107 4.17185 11.0003 4.43406 10.6694 4.74203C9.72832 5.6209 8.91524 6.69437 8.46491 7.18223C8.01422 7.66942 8.85198 8.51501 10.1851 8.12726C11.5185 7.74024 12.093 6.74582 12.093 6.74582L13.7663 6.14526L15.4274 6.5255L19.4429 10.1404L20.1365 10.8114L20.1505 10.8229C20.1777 10.8486 20.1991 10.8786 20.2177 10.9273C20.2364 10.976 20.2478 11.0418 20.2478 11.1205C20.2481 11.2312 20.223 11.364 20.1766 11.4863Z" fill="#444444"/>
</svg>
