<svg width="18" height="20" viewBox="0 0 18 20" fill="none" xmlns="http://www.w3.org/2000/svg">
<path d="M6.50594 14.7087V16.168C6.50594 16.1808 6.57265 16.3787 6.58612 16.4086C6.95078 17.2219 8.0794 16.8682 8.76799 16.9528C8.85522 16.9634 8.96427 17.0176 9.0313 17.0709C9.3549 17.3287 9.0964 17.8996 9.61501 18.0301C10.6615 17.9859 11.8418 18.1363 12.8739 18.0452C12.9633 18.0372 13.0464 18.0205 13.1243 17.975C13.5233 17.7418 13.2475 17.0231 13.8341 16.9528C14.6221 16.8582 15.7931 17.2768 16.0814 16.2174L16.0974 2.40748C16.0589 1.98573 15.7247 1.6525 15.3104 1.59092H7.29203C6.97964 1.60247 6.50626 2.04089 6.50626 2.34494V3.83629H4.9668V2.34494C4.9668 1.19964 6.15539 0.0684568 7.29042 0.0501757C9.91071 0.174295 12.676 -0.109544 15.2796 0.0501757C16.5827 0.130035 17.557 1.10439 17.6369 2.40748V17.6767C17.5538 18.916 16.6051 19.8788 15.3739 20H7.22852C6.11819 19.9487 4.9668 18.8281 4.9668 17.7075V14.7568L5.01491 14.7087H6.50626H6.50594Z" fill="#444444"/>
<path d="M7.85689 7.04044C9.35113 7.55873 10.5301 9.27074 10.7033 10.8166C10.7344 11.0934 10.7633 11.3336 10.474 11.477L1.16472 11.5033C0.515262 11.4622 0.819306 10.5241 0.934445 10.1162C1.31225 8.77683 2.32573 7.52088 3.63588 7.01254C3.6022 6.29156 3.80682 5.59206 4.44281 5.18956C5.12755 4.75594 6.52173 4.76717 7.16253 5.28064C7.73406 5.73863 7.86555 6.33101 7.85657 7.04012L7.85689 7.04044ZM6.79466 6.88361C6.85207 6.39708 6.62212 5.99072 6.1064 5.95224C5.89921 5.93684 5.50472 5.93075 5.30299 5.95352C4.88926 6.00002 4.62723 6.43556 4.68303 6.83069L4.72601 6.88393H6.79466V6.88361ZM9.55287 10.4757C9.34664 9.54335 8.51597 8.38811 7.60481 8.0459C7.50057 8.00678 7.19332 7.90992 7.09935 7.90992H6.60223C7.30974 8.58375 7.83925 9.47824 7.88512 10.4757H9.55287Z" fill="#444444"/>
<path d="M11.3053 13.4462C11.1953 13.5562 11.0397 13.6111 10.8848 13.6191L0.556308 13.6181C-0.173012 13.5081 -0.186804 12.5396 0.524235 12.3991L10.9807 12.3984C11.4717 12.4783 11.652 13.0992 11.3053 13.4462Z" fill="#444444"/>
</svg>
