<svg width="11" height="12" viewBox="0 0 11 12" fill="none" xmlns="http://www.w3.org/2000/svg">
<path d="M4.135 3.53427C4.79603 2.76249 4.07874 1.74774 3.64273 1.04742C3.38957 0.647233 3.02389 0.0755423 2.51757 0.00408092C2.0253 -0.0530882 1.5893 0.50431 1.26581 0.804448C0.492261 1.51906 0.0562584 2.44806 0 3.51998C0 3.64861 0 3.83441 0 3.6629C0.0703231 4.30606 0.154711 4.90633 0.36568 5.50661C0.562584 6.0783 0.843877 6.60711 1.16736 7.10734C1.85653 8.16497 2.65821 9.19401 3.6146 10.0515C4.54287 10.8948 5.58365 11.638 6.82134 11.9095C7.97463 12.1525 9.11387 11.9095 10.0281 11.1378C10.3656 10.8662 10.9704 10.466 10.9985 9.98009C11.0267 9.49415 10.6469 9.12255 10.3234 8.82241C9.63426 8.19355 8.62161 7.15022 7.67928 7.90771C7.3136 8.20785 6.91979 8.77954 6.44159 8.851C5.96339 8.93675 5.4852 8.57945 5.13358 8.2936C4.34596 7.65045 3.58648 6.76433 3.12234 5.83533C2.92544 5.42085 2.75666 4.89204 3.03796 4.49186C3.33331 4.09167 3.82557 3.90587 4.135 3.51998V3.53427Z" fill="#008B7C"/>
</svg>
