<svg width="54" height="73" viewBox="0 0 54 73" fill="none" xmlns="http://www.w3.org/2000/svg">
<path fill-rule="evenodd" clip-rule="evenodd" d="M47.7021 25.2955C49.9551 33.153 45.3962 41.3776 37.5387 43.6307L29.3963 45.9655C21.5388 48.2186 13.3142 43.6596 11.0611 35.8021L9.30997 29.6953L45.951 19.1886L47.7021 25.2955ZM52.926 12.7826L40.7123 16.2848L36.0427 -7.29698e-05L31.9715 1.16733L36.6411 17.4522L16.285 23.2893L11.6153 7.00436L7.54412 8.17176L12.2137 24.4567L5.23707e-05 27.9589L1.16745 32.0301L5.2387 30.8627L6.98982 36.9695C9.88615 47.0703 20.4629 52.9331 30.5637 50.0367L32.5992 49.453L36.6852 63.7023C37.6506 67.0692 35.6963 70.5948 32.3295 71.5603C28.9625 72.5257 25.4369 70.5714 24.4715 67.2045C22.8628 61.5944 16.9851 58.3363 11.3749 59.945C5.76477 61.5537 2.50668 67.4314 4.11536 73.0416L7.03388 83.2196L11.1051 82.0522L8.18658 71.8742C7.22114 68.5073 9.17543 64.9816 12.5423 64.0162C15.9092 63.0508 19.4348 65.005 20.4003 68.3719C22.009 73.9821 27.8867 77.2402 33.4969 75.6315C39.1111 74.0216 42.3651 68.1451 40.7564 62.5349L36.6705 48.2856L38.7061 47.7019C48.8068 44.8056 54.6696 34.2288 51.7733 24.1281L50.0222 18.0213L54.0934 16.8538L52.926 12.7826Z" fill="#E5E7EB"/>
</svg>
