<svg width="20" height="20" viewBox="0 0 20 20" fill="none" xmlns="http://www.w3.org/2000/svg">
<path fill-rule="evenodd" clip-rule="evenodd" d="M10 18.75C5.1675 18.75 1.25 14.8313 1.25 10C1.25 5.16875 5.1675 1.25 10 1.25C14.8325 1.25 18.75 5.16875 18.75 10C18.75 14.8313 14.8325 18.75 10 18.75ZM10 0C4.47688 0 0 4.475 0 10C0 15.525 4.47688 20 10 20C15.5231 20 20 15.525 20 10C20 4.475 15.5231 0 10 0Z" fill="black"/>
<path d="M9.35363 13.8559V13.8503C9.35372 13.5309 9.62194 13.2722 9.95324 13.2722C10.2845 13.2722 10.5527 13.5309 10.5528 13.8503V13.8559C10.5528 14.1754 10.2846 14.434 9.95324 14.434C9.62188 14.434 9.35363 14.1754 9.35363 13.8559ZM9.35363 12.2036C9.35363 11.5032 9.4993 10.9702 9.75109 10.541C9.99887 10.1188 10.3259 9.83976 10.5919 9.625C10.8778 9.39421 11.0563 9.2603 11.1925 9.07707C11.3061 8.92403 11.4004 8.7169 11.4005 8.34744C11.4005 7.38823 10.6917 6.72154 9.95324 6.72154C9.35039 6.72155 8.77821 7.15405 8.57726 7.84282C8.48743 8.15003 8.15677 8.32917 7.838 8.24294C7.51901 8.15644 7.33324 7.83684 7.42296 7.52931C7.7437 6.43017 8.72314 5.56544 9.95324 5.56543C11.4756 5.56543 12.5997 6.87269 12.5997 8.34744C12.5996 8.94131 12.438 9.38791 12.1681 9.75115C11.9206 10.0841 11.5881 10.3297 11.3624 10.5118C11.1167 10.7102 10.931 10.8788 10.795 11.1106C10.663 11.3356 10.5528 11.6646 10.5528 12.2036C10.5526 12.5229 10.2845 12.7817 9.95324 12.7817C9.62203 12.7817 9.35387 12.5229 9.35363 12.2036Z" fill="black"/>
</svg>
