<svg width="1440" height="556" viewBox="0 0 1440 556" fill="none" xmlns="http://www.w3.org/2000/svg">
<mask id="mask0_2014_3940" style="mask-type:alpha" maskUnits="userSpaceOnUse" x="0" y="0" width="1440" height="556">
<rect width="1440" height="556" rx="62" fill="#F9F9F9"/>
</mask>
<g mask="url(#mask0_2014_3940)">
<path opacity="0.2" d="M1451.62 729.36H-12V-185.665H1451.61L1451.62 729.36ZM34.1855 727.472H76.5898V683.702H34.1855V727.472ZM78.4805 727.472H120.884V683.702H78.4805V727.472ZM122.775 727.472H165.18V683.702H122.775V727.472ZM167.071 727.472H209.474V683.702H167.071V727.472ZM211.365 727.472H253.769V683.702H211.365V727.472ZM255.66 727.472H298.062V683.702H255.66V727.472ZM299.954 727.472H342.357V683.702H299.954V727.472ZM344.249 727.472H386.652V683.702H344.249V727.472ZM388.544 727.472H430.946V683.702H388.544V727.472ZM432.838 727.472H475.241V683.702H432.838V727.472ZM477.132 727.472H519.535V683.702H477.132V727.472ZM521.427 727.472H563.831V683.702H521.427V727.472ZM565.723 727.472H608.126V683.702H565.723V727.472ZM610.017 727.472H652.42V683.702H610.017V727.472ZM654.312 727.472H696.715V683.702H654.312V727.472ZM698.606 727.472H741.009V683.702H698.606V727.472ZM742.9 727.472H785.304V683.702H742.9V727.472ZM787.195 727.472H829.599V683.702H787.195V727.472ZM831.49 727.472H873.893V683.702H831.49V727.472ZM875.784 727.472H918.187V683.702H875.784V727.472ZM920.078 727.472H962.482V683.702H920.078V727.472ZM964.374 727.472H1006.78V683.702H964.374V727.472ZM1008.67 727.472H1051.07V683.702H1008.67V727.472ZM1052.96 727.472H1095.37V683.702H1052.96V727.472ZM1097.26 727.472H1139.66V683.702H1097.26V727.472ZM1141.55 727.472H1183.96V683.702H1141.55V727.472ZM1185.85 727.472H1228.25V683.702H1185.85V727.472ZM1230.14 727.472H1272.55V683.702H1230.14V727.472ZM1274.44 727.472H1316.84V683.702H1274.44V727.472ZM1318.73 727.472H1361.13V683.702H1318.73V727.472ZM1363.03 727.472H1405.43V683.702H1363.03V727.472ZM1407.32 727.472H1449.72V683.702H1407.32V727.472ZM-10.1084 727.472H32.2949V683.702H-10.1084V727.472ZM34.1855 681.814H76.5898V638.045H34.1855V681.814ZM78.4805 681.814H120.884V638.045H78.4805V681.814ZM122.775 681.814H165.18V638.045H122.775V681.814ZM167.071 681.814H209.474V638.045H167.071V681.814ZM211.365 681.814H253.769V638.045H211.365V681.814ZM255.66 681.814H298.062V638.045H255.66V681.814ZM299.954 681.814H342.357V638.045H299.954V681.814ZM344.249 681.814H386.652V638.045H344.249V681.814ZM388.544 681.814H430.946V638.045H388.544V681.814ZM432.838 681.814H475.241V638.045H432.838V681.814ZM477.132 681.814H519.535V638.045H477.132V681.814ZM521.427 681.814H563.831V638.045H521.427V681.814ZM565.723 681.814H608.126V638.045H565.723V681.814ZM610.017 681.814H652.42V638.045H610.017V681.814ZM654.312 681.814H696.715V638.045H654.312V681.814ZM698.606 681.814H741.009V638.045H698.606V681.814ZM742.9 681.814H785.304V638.045H742.9V681.814ZM787.195 681.814H829.599V638.045H787.195V681.814ZM831.49 681.814H873.893V638.045H831.49V681.814ZM875.784 681.814H918.187V638.045H875.784V681.814ZM920.078 681.814H962.482V638.045H920.078V681.814ZM964.374 681.814H1006.78V638.045H964.374V681.814ZM1008.67 681.814H1051.07V638.045H1008.67V681.814ZM1052.96 681.814H1095.37V638.045H1052.96V681.814ZM1097.26 681.814H1139.66V638.045H1097.26V681.814ZM1141.55 681.814H1183.96V638.045H1141.55V681.814ZM1185.85 681.814H1228.25V638.045H1185.85V681.814ZM1230.14 681.814H1272.55V638.045H1230.14V681.814ZM1274.44 681.814H1316.84V638.045H1274.44V681.814ZM1318.73 681.814H1361.13V638.045H1318.73V681.814ZM1363.03 681.814H1405.43V638.045H1363.03V681.814ZM1407.32 681.814H1449.72V638.045H1407.32V681.814ZM-10.1084 681.814H32.2949V638.045H-10.1084V681.814ZM34.1855 636.156H76.5898V592.388H34.1855V636.156ZM78.4805 636.156H120.884V592.388H78.4805V636.156ZM122.775 636.156H165.18V592.388H122.775V636.156ZM167.071 636.156H209.474V592.388H167.071V636.156ZM211.365 636.156H253.769V592.388H211.365V636.156ZM255.66 636.156H298.062V592.388H255.66V636.156ZM299.954 636.156H342.357V592.388H299.954V636.156ZM344.249 636.156H386.652V592.388H344.249V636.156ZM388.544 636.156H430.946V592.388H388.544V636.156ZM432.838 636.156H475.241V592.388H432.838V636.156ZM477.132 636.156H519.535V592.388H477.132V636.156ZM521.427 636.156H563.831V592.388H521.427V636.156ZM565.723 636.156H608.126V592.388H565.723V636.156ZM610.017 636.156H652.42V592.388H610.017V636.156ZM654.312 636.156H696.715V592.388H654.312V636.156ZM698.606 636.156H741.009V592.388H698.606V636.156ZM742.9 636.156H785.304V592.388H742.9V636.156ZM787.195 636.156H829.599V592.388H787.195V636.156ZM831.49 636.156H873.893V592.388H831.49V636.156ZM875.784 636.156H918.187V592.388H875.784V636.156ZM920.078 636.156H962.482V592.388H920.078V636.156ZM964.374 636.156H1006.78V592.388H964.374V636.156ZM1008.67 636.156H1051.07V592.388H1008.67V636.156ZM1052.96 636.156H1095.37V592.388H1052.96V636.156ZM1097.26 636.156H1139.66V592.388H1097.26V636.156ZM1141.55 636.156H1183.96V592.388H1141.55V636.156ZM1185.85 636.156H1228.25V592.388H1185.85V636.156ZM1230.14 636.156H1272.55V592.388H1230.14V636.156ZM1274.44 636.156H1316.84V592.388H1274.44V636.156ZM1318.73 636.156H1361.13V592.388H1318.73V636.156ZM1363.03 636.156H1405.43V592.388H1363.03V636.156ZM1407.32 636.156H1449.72V592.388H1407.32V636.156ZM-10.1084 636.156H32.2949V592.388H-10.1084V636.156ZM34.1855 590.5H76.5898V546.731H34.1855V590.5ZM78.4805 590.5H120.884V546.731H78.4805V590.5ZM122.775 590.5H165.18V546.731H122.775V590.5ZM167.071 590.5H209.474V546.731H167.071V590.5ZM211.365 590.5H253.769V546.731H211.365V590.5ZM255.66 590.5H298.062V546.731H255.66V590.5ZM299.954 590.5H342.357V546.731H299.954V590.5ZM344.249 590.5H386.652V546.731H344.249V590.5ZM388.544 590.5H430.946V546.731H388.544V590.5ZM432.838 590.5H475.241V546.731H432.838V590.5ZM477.132 590.5H519.535V546.731H477.132V590.5ZM521.427 590.5H563.831V546.731H521.427V590.5ZM565.723 590.5H608.126V546.731H565.723V590.5ZM610.017 590.5H652.42V546.731H610.017V590.5ZM654.312 590.5H696.715V546.731H654.312V590.5ZM698.606 590.5H741.009V546.731H698.606V590.5ZM742.9 590.5H785.304V546.731H742.9V590.5ZM787.195 590.5H829.599V546.731H787.195V590.5ZM831.49 590.5H873.893V546.731H831.49V590.5ZM875.784 590.5H918.187V546.731H875.784V590.5ZM920.078 590.5H962.482V546.731H920.078V590.5ZM964.374 590.5H1006.78V546.731H964.374V590.5ZM1008.67 590.5H1051.07V546.731H1008.67V590.5ZM1052.96 590.5H1095.37V546.731H1052.96V590.5ZM1097.26 590.5H1139.66V546.731H1097.26V590.5ZM1141.55 590.5H1183.96V546.731H1141.55V590.5ZM1185.85 590.5H1228.25V546.731H1185.85V590.5ZM1230.14 590.5H1272.55V546.731H1230.14V590.5ZM1274.44 590.5H1316.84V546.731H1274.44V590.5ZM1318.73 590.5H1361.13V546.731H1318.73V590.5ZM1363.03 590.5H1405.43V546.731H1363.03V590.5ZM1407.32 590.5H1449.72V546.731H1407.32V590.5ZM-10.1084 590.5H32.2949V546.731H-10.1084V590.5ZM34.1855 544.844H76.5898V501.074H34.1855V544.844ZM78.4805 544.844H120.884V501.074H78.4805V544.844ZM122.775 544.844H165.18V501.074H122.775V544.844ZM167.071 544.844H209.474V501.074H167.071V544.844ZM211.365 544.844H253.769V501.074H211.365V544.844ZM255.66 544.844H298.062V501.074H255.66V544.844ZM299.954 544.844H342.357V501.074H299.954V544.844ZM344.249 544.844H386.652V501.074H344.249V544.844ZM388.544 544.844H430.946V501.074H388.544V544.844ZM432.838 544.844H475.241V501.074H432.838V544.844ZM477.132 544.844H519.535V501.074H477.132V544.844ZM521.427 544.844H563.831V501.074H521.427V544.844ZM565.723 544.844H608.126V501.074H565.723V544.844ZM610.017 544.844H652.42V501.074H610.017V544.844ZM654.312 544.844H696.715V501.074H654.312V544.844ZM698.606 544.844H741.009V501.074H698.606V544.844ZM742.9 544.844H785.304V501.074H742.9V544.844ZM787.195 544.844H829.599V501.074H787.195V544.844ZM831.49 544.844H873.893V501.074H831.49V544.844ZM875.784 544.844H918.187V501.074H875.784V544.844ZM920.078 544.844H962.482V501.074H920.078V544.844ZM964.374 544.844H1006.78V501.074H964.374V544.844ZM1008.67 544.844H1051.07V501.074H1008.67V544.844ZM1052.96 544.844H1095.37V501.074H1052.96V544.844ZM1097.26 544.844H1139.66V501.074H1097.26V544.844ZM1141.55 544.844H1183.96V501.074H1141.55V544.844ZM1185.85 544.844H1228.25V501.074H1185.85V544.844ZM1230.14 544.844H1272.55V501.074H1230.14V544.844ZM1274.44 544.844H1316.84V501.074H1274.44V544.844ZM1318.73 544.844H1361.13V501.074H1318.73V544.844ZM1363.03 544.844H1405.43V501.074H1363.03V544.844ZM1407.32 544.844H1449.72V501.074H1407.32V544.844ZM-10.1084 544.844H32.2949V501.074H-10.1084V544.844ZM34.1855 499.187H76.5898V455.418H34.1855V499.187ZM78.4805 499.187H120.884V455.418H78.4805V499.187ZM122.775 499.187H165.18V455.418H122.775V499.187ZM167.071 499.187H209.474V455.418H167.071V499.187ZM211.365 499.187H253.769V455.418H211.365V499.187ZM255.66 499.187H298.062V455.418H255.66V499.187ZM299.954 499.187H342.357V455.418H299.954V499.187ZM344.249 499.187H386.652V455.418H344.249V499.187ZM388.544 499.187H430.946V455.418H388.544V499.187ZM432.838 499.187H475.241V455.418H432.838V499.187ZM477.132 499.187H519.535V455.418H477.132V499.187ZM521.427 499.187H563.831V455.418H521.427V499.187ZM565.723 499.187H608.126V455.418H565.723V499.187ZM610.017 499.187H652.42V455.418H610.017V499.187ZM654.312 499.187H696.715V455.418H654.312V499.187ZM698.606 499.187H741.009V455.418H698.606V499.187ZM742.9 499.187H785.304V455.418H742.9V499.187ZM787.195 499.187H829.599V455.418H787.195V499.187ZM831.49 499.187H873.893V455.418H831.49V499.187ZM875.784 499.187H918.187V455.418H875.784V499.187ZM920.078 499.187H962.482V455.418H920.078V499.187ZM964.374 499.187H1006.78V455.418H964.374V499.187ZM1008.67 499.187H1051.07V455.418H1008.67V499.187ZM1052.96 499.187H1095.37V455.418H1052.96V499.187ZM1097.26 499.187H1139.66V455.418H1097.26V499.187ZM1141.55 499.187H1183.96V455.418H1141.55V499.187ZM1185.85 499.187H1228.25V455.418H1185.85V499.187ZM1230.14 499.187H1272.55V455.418H1230.14V499.187ZM1274.44 499.187H1316.84V455.418H1274.44V499.187ZM1318.73 499.187H1361.13V455.418H1318.73V499.187ZM1363.03 499.187H1405.43V455.418H1363.03V499.187ZM1407.32 499.187H1449.72V455.418H1407.32V499.187ZM-10.1084 499.187H32.2949V455.418H-10.1084V499.187ZM34.1855 453.53H76.5898V409.761H34.1855V453.53ZM78.4805 453.53H120.884V409.761H78.4805V453.53ZM122.775 453.53H165.18V409.761H122.775V453.53ZM167.071 453.53H209.474V409.761H167.071V453.53ZM211.365 453.53H253.769V409.761H211.365V453.53ZM255.66 453.53H298.062V409.761H255.66V453.53ZM299.954 453.53H342.357V409.761H299.954V453.53ZM344.249 453.53H386.652V409.761H344.249V453.53ZM388.544 453.53H430.946V409.761H388.544V453.53ZM432.838 453.53H475.241V409.761H432.838V453.53ZM477.132 453.53H519.535V409.761H477.132V453.53ZM521.427 453.53H563.831V409.761H521.427V453.53ZM565.723 453.53H608.126V409.761H565.723V453.53ZM610.017 453.53H652.42V409.761H610.017V453.53ZM654.312 453.53H696.715V409.761H654.312V453.53ZM698.606 453.53H741.009V409.761H698.606V453.53ZM742.9 453.53H785.304V409.761H742.9V453.53ZM787.195 453.53H829.599V409.761H787.195V453.53ZM831.49 453.53H873.893V409.761H831.49V453.53ZM875.784 453.53H918.187V409.761H875.784V453.53ZM920.078 453.53H962.482V409.761H920.078V453.53ZM964.374 453.53H1006.78V409.761H964.374V453.53ZM1008.67 453.53H1051.07V409.761H1008.67V453.53ZM1052.96 453.53H1095.37V409.761H1052.96V453.53ZM1097.26 453.53H1139.66V409.761H1097.26V453.53ZM1141.55 453.53H1183.96V409.761H1141.55V453.53ZM1185.85 453.53H1228.25V409.761H1185.85V453.53ZM1230.14 453.53H1272.55V409.761H1230.14V453.53ZM1274.44 453.53H1316.84V409.761H1274.44V453.53ZM1318.73 453.53H1361.13V409.761H1318.73V453.53ZM1363.03 453.53H1405.43V409.761H1363.03V453.53ZM1407.32 453.53H1449.72V409.761H1407.32V453.53ZM-10.1084 453.53H32.2949V409.761H-10.1084V453.53ZM34.1855 407.873H76.5898V364.104H34.1855V407.873ZM78.4805 407.873H120.884V364.104H78.4805V407.873ZM122.775 407.873H165.18V364.104H122.775V407.873ZM167.071 407.873H209.474V364.104H167.071V407.873ZM211.365 407.873H253.769V364.104H211.365V407.873ZM255.66 407.873H298.062V364.104H255.66V407.873ZM299.954 407.873H342.357V364.104H299.954V407.873ZM344.249 407.873H386.652V364.104H344.249V407.873ZM388.544 407.873H430.946V364.104H388.544V407.873ZM432.838 407.873H475.241V364.104H432.838V407.873ZM477.132 407.873H519.535V364.104H477.132V407.873ZM521.427 407.873H563.831V364.104H521.427V407.873ZM565.723 407.873H608.126V364.104H565.723V407.873ZM610.017 407.873H652.42V364.104H610.017V407.873ZM654.312 407.873H696.715V364.104H654.312V407.873ZM698.606 407.873H741.009V364.104H698.606V407.873ZM742.9 407.873H785.304V364.104H742.9V407.873ZM787.195 407.873H829.599V364.104H787.195V407.873ZM831.49 407.873H873.893V364.104H831.49V407.873ZM875.784 407.873H918.187V364.104H875.784V407.873ZM920.078 407.873H962.482V364.104H920.078V407.873ZM964.374 407.873H1006.78V364.104H964.374V407.873ZM1008.67 407.873H1051.07V364.104H1008.67V407.873ZM1052.96 407.873H1095.37V364.104H1052.96V407.873ZM1097.26 407.873H1139.66V364.104H1097.26V407.873ZM1141.55 407.873H1183.96V364.104H1141.55V407.873ZM1185.85 407.873H1228.25V364.104H1185.85V407.873ZM1230.14 407.873H1272.55V364.104H1230.14V407.873ZM1274.44 407.873H1316.84V364.104H1274.44V407.873ZM1318.73 407.873H1361.13V364.104H1318.73V407.873ZM1363.03 407.873H1405.43V364.104H1363.03V407.873ZM1407.32 407.873H1449.72V364.104H1407.32V407.873ZM-10.1084 407.873H32.2949V364.104H-10.1084V407.873ZM34.1855 362.216H76.5898V318.447H34.1855V362.216ZM78.4805 362.216H120.884V318.447H78.4805V362.216ZM122.775 362.216H165.18V318.447H122.775V362.216ZM167.071 362.216H209.474V318.447H167.071V362.216ZM211.365 362.216H253.769V318.447H211.365V362.216ZM255.66 362.216H298.062V318.447H255.66V362.216ZM299.954 362.216H342.357V318.447H299.954V362.216ZM344.249 362.216H386.652V318.447H344.249V362.216ZM388.544 362.216H430.946V318.447H388.544V362.216ZM432.838 362.216H475.241V318.447H432.838V362.216ZM477.132 362.216H519.535V318.447H477.132V362.216ZM521.427 362.216H563.831V318.447H521.427V362.216ZM565.723 362.216H608.126V318.447H565.723V362.216ZM610.017 362.216H652.42V318.447H610.017V362.216ZM654.312 362.216H696.715V318.447H654.312V362.216ZM698.606 362.216H741.009V318.447H698.606V362.216ZM742.9 362.216H785.304V318.447H742.9V362.216ZM787.195 362.216H829.599V318.447H787.195V362.216ZM831.49 362.216H873.893V318.447H831.49V362.216ZM875.784 362.216H918.187V318.447H875.784V362.216ZM920.078 362.216H962.482V318.447H920.078V362.216ZM964.374 362.216H1006.78V318.447H964.374V362.216ZM1008.67 362.216H1051.07V318.447H1008.67V362.216ZM1052.96 362.216H1095.37V318.447H1052.96V362.216ZM1097.26 362.216H1139.66V318.447H1097.26V362.216ZM1141.55 362.216H1183.96V318.447H1141.55V362.216ZM1185.85 362.216H1228.25V318.447H1185.85V362.216ZM1230.14 362.216H1272.55V318.447H1230.14V362.216ZM1274.44 362.216H1316.84V318.447H1274.44V362.216ZM1318.73 362.216H1361.13V318.447H1318.73V362.216ZM1363.03 362.216H1405.43V318.447H1363.03V362.216ZM1407.32 362.216H1449.72V318.447H1407.32V362.216ZM-10.1084 362.216H32.2949V318.447H-10.1084V362.216ZM34.1855 316.56H76.5898V272.791H34.1855V316.56ZM78.4805 316.56H120.884V272.791H78.4805V316.56ZM122.775 316.56H165.18V272.791H122.775V316.56ZM167.071 316.56H209.474V272.791H167.071V316.56ZM211.365 316.56H253.769V272.791H211.365V316.56ZM255.66 316.56H298.062V272.791H255.66V316.56ZM299.954 316.56H342.357V272.791H299.954V316.56ZM344.249 316.56H386.652V272.791H344.249V316.56ZM388.544 316.56H430.946V272.791H388.544V316.56ZM432.838 316.56H475.241V272.791H432.838V316.56ZM477.132 316.56H519.535V272.791H477.132V316.56ZM521.427 316.56H563.831V272.791H521.427V316.56ZM565.723 316.56H608.126V272.791H565.723V316.56ZM610.017 316.56H652.42V272.791H610.017V316.56ZM654.312 316.56H696.715V272.791H654.312V316.56ZM698.606 316.56H741.009V272.791H698.606V316.56ZM742.9 316.56H785.304V272.791H742.9V316.56ZM787.195 316.56H829.599V272.791H787.195V316.56ZM831.49 316.56H873.893V272.791H831.49V316.56ZM875.784 316.56H918.187V272.791H875.784V316.56ZM920.078 316.56H962.482V272.791H920.078V316.56ZM964.374 316.56H1006.78V272.791H964.374V316.56ZM1008.67 316.56H1051.07V272.791H1008.67V316.56ZM1052.96 316.56H1095.37V272.791H1052.96V316.56ZM1097.26 316.56H1139.66V272.791H1097.26V316.56ZM1141.55 316.56H1183.96V272.791H1141.55V316.56ZM1185.85 316.56H1228.25V272.791H1185.85V316.56ZM1230.14 316.56H1272.55V272.791H1230.14V316.56ZM1274.44 316.56H1316.84V272.791H1274.44V316.56ZM1318.73 316.56H1361.13V272.791H1318.73V316.56ZM1363.03 316.56H1405.43V272.791H1363.03V316.56ZM1407.32 316.56H1449.72V272.791H1407.32V316.56ZM-10.1084 316.56H32.2949V272.791H-10.1084V316.56ZM34.1855 270.903H76.5898V227.133H34.1855V270.903ZM78.4805 270.903H120.884V227.133H78.4805V270.903ZM122.775 270.903H165.18V227.133H122.775V270.903ZM167.071 270.903H209.474V227.133H167.071V270.903ZM211.365 270.903H253.769V227.133H211.365V270.903ZM255.66 270.903H298.062V227.133H255.66V270.903ZM299.954 270.903H342.357V227.133H299.954V270.903ZM344.249 270.903H386.652V227.133H344.249V270.903ZM388.544 270.903H430.946V227.133H388.544V270.903ZM432.838 270.903H475.241V227.133H432.838V270.903ZM477.132 270.903H519.535V227.133H477.132V270.903ZM521.427 270.903H563.831V227.133H521.427V270.903ZM565.723 270.903H608.126V227.133H565.723V270.903ZM610.017 270.903H652.42V227.133H610.017V270.903ZM654.312 270.903H696.715V227.133H654.312V270.903ZM698.606 270.903H741.009V227.133H698.606V270.903ZM742.9 270.903H785.304V227.133H742.9V270.903ZM787.195 270.903H829.599V227.133H787.195V270.903ZM831.49 270.903H873.893V227.133H831.49V270.903ZM875.784 270.903H918.187V227.133H875.784V270.903ZM920.078 270.903H962.482V227.133H920.078V270.903ZM964.374 270.903H1006.78V227.133H964.374V270.903ZM1008.67 270.903H1051.07V227.133H1008.67V270.903ZM1052.96 270.903H1095.37V227.133H1052.96V270.903ZM1097.26 270.903H1139.66V227.133H1097.26V270.903ZM1141.55 270.903H1183.96V227.133H1141.55V270.903ZM1185.85 270.903H1228.25V227.133H1185.85V270.903ZM1230.14 270.903H1272.55V227.133H1230.14V270.903ZM1274.44 270.903H1316.84V227.133H1274.44V270.903ZM1318.73 270.903H1361.13V227.133H1318.73V270.903ZM1363.03 270.903H1405.43V227.133H1363.03V270.903ZM1407.32 270.903H1449.72V227.133H1407.32V270.903ZM-10.1084 270.903H32.2949V227.133H-10.1084V270.903ZM34.1855 225.245H76.5898V181.477H34.1855V225.245ZM78.4805 225.245H120.884V181.477H78.4805V225.245ZM122.775 225.245H165.18V181.477H122.775V225.245ZM167.071 225.245H209.474V181.477H167.071V225.245ZM211.365 225.245H253.769V181.477H211.365V225.245ZM255.66 225.245H298.062V181.477H255.66V225.245ZM299.954 225.245H342.357V181.477H299.954V225.245ZM344.249 225.245H386.652V181.477H344.249V225.245ZM388.544 225.245H430.946V181.477H388.544V225.245ZM432.838 225.245H475.241V181.477H432.838V225.245ZM477.132 225.245H519.535V181.477H477.132V225.245ZM521.427 225.245H563.831V181.477H521.427V225.245ZM565.723 225.245H608.126V181.477H565.723V225.245ZM610.017 225.245H652.42V181.477H610.017V225.245ZM654.312 225.245H696.715V181.477H654.312V225.245ZM698.606 225.245H741.009V181.477H698.606V225.245ZM742.9 225.245H785.304V181.477H742.9V225.245ZM787.195 225.245H829.599V181.477H787.195V225.245ZM831.49 225.245H873.893V181.477H831.49V225.245ZM875.784 225.245H918.187V181.477H875.784V225.245ZM920.078 225.245H962.482V181.477H920.078V225.245ZM964.374 225.245H1006.78V181.477H964.374V225.245ZM1008.67 225.245H1051.07V181.477H1008.67V225.245ZM1052.96 225.245H1095.37V181.477H1052.96V225.245ZM1097.26 225.245H1139.66V181.477H1097.26V225.245ZM1141.55 225.245H1183.96V181.477H1141.55V225.245ZM1185.85 225.245H1228.25V181.477H1185.85V225.245ZM1230.14 225.245H1272.55V181.477H1230.14V225.245ZM1274.44 225.245H1316.84V181.477H1274.44V225.245ZM1318.73 225.245H1361.13V181.477H1318.73V225.245ZM1363.03 225.245H1405.43V181.477H1363.03V225.245ZM1407.32 225.245H1449.72V181.477H1407.32V225.245ZM-10.1084 225.245H32.2949V181.477H-10.1084V225.245ZM34.1855 179.589H76.5898V135.819H34.1855V179.589ZM78.4805 179.589H120.884V135.819H78.4805V179.589ZM122.775 179.589H165.18V135.819H122.775V179.589ZM167.071 179.589H209.474V135.819H167.071V179.589ZM211.365 179.589H253.769V135.819H211.365V179.589ZM255.66 179.589H298.062V135.819H255.66V179.589ZM299.954 179.589H342.357V135.819H299.954V179.589ZM344.249 179.589H386.652V135.819H344.249V179.589ZM388.544 179.589H430.946V135.819H388.544V179.589ZM432.838 179.589H475.241V135.819H432.838V179.589ZM477.132 179.589H519.535V135.819H477.132V179.589ZM521.427 179.589H563.831V135.819H521.427V179.589ZM565.723 179.589H608.126V135.819H565.723V179.589ZM610.017 179.589H652.42V135.819H610.017V179.589ZM654.312 179.589H696.715V135.819H654.312V179.589ZM698.606 179.589H741.009V135.819H698.606V179.589ZM742.9 179.589H785.304V135.819H742.9V179.589ZM787.195 179.589H829.599V135.819H787.195V179.589ZM831.49 179.589H873.893V135.819H831.49V179.589ZM875.784 179.589H918.187V135.819H875.784V179.589ZM920.078 179.589H962.482V135.819H920.078V179.589ZM964.374 179.589H1006.78V135.819H964.374V179.589ZM1008.67 179.589H1051.07V135.819H1008.67V179.589ZM1052.96 179.589H1095.37V135.819H1052.96V179.589ZM1097.26 179.589H1139.66V135.819H1097.26V179.589ZM1141.55 179.589H1183.96V135.819H1141.55V179.589ZM1185.85 179.589H1228.25V135.819H1185.85V179.589ZM1230.14 179.589H1272.55V135.819H1230.14V179.589ZM1274.44 179.589H1316.84V135.819H1274.44V179.589ZM1318.73 179.589H1361.13V135.819H1318.73V179.589ZM1363.03 179.589H1405.43V135.819H1363.03V179.589ZM1407.32 179.589H1449.72V135.819H1407.32V179.589ZM-10.1084 179.589H32.2949V135.819H-10.1084V179.589ZM34.1855 133.932H76.5898V90.1621H34.1855V133.932ZM78.4805 133.932H120.884V90.1621H78.4805V133.932ZM122.775 133.932H165.18V90.1621H122.775V133.932ZM167.071 133.932H209.474V90.1621H167.071V133.932ZM211.365 133.932H253.769V90.1621H211.365V133.932ZM255.66 133.932H298.062V90.1621H255.66V133.932ZM299.954 133.932H342.357V90.1621H299.954V133.932ZM344.249 133.932H386.652V90.1621H344.249V133.932ZM388.544 133.932H430.946V90.1621H388.544V133.932ZM432.838 133.932H475.241V90.1621H432.838V133.932ZM477.132 133.932H519.535V90.1621H477.132V133.932ZM521.427 133.932H563.831V90.1621H521.427V133.932ZM565.723 133.932H608.126V90.1621H565.723V133.932ZM610.017 133.932H652.42V90.1621H610.017V133.932ZM654.312 133.932H696.715V90.1621H654.312V133.932ZM698.606 133.932H741.009V90.1621H698.606V133.932ZM742.9 133.932H785.304V90.1621H742.9V133.932ZM787.195 133.932H829.599V90.1621H787.195V133.932ZM831.49 133.932H873.893V90.1621H831.49V133.932ZM875.784 133.932H918.187V90.1621H875.784V133.932ZM920.078 133.932H962.482V90.1621H920.078V133.932ZM964.374 133.932H1006.78V90.1621H964.374V133.932ZM1008.67 133.932H1051.07V90.1621H1008.67V133.932ZM1052.96 133.932H1095.37V90.1621H1052.96V133.932ZM1097.26 133.932H1139.66V90.1621H1097.26V133.932ZM1141.55 133.932H1183.96V90.1621H1141.55V133.932ZM1185.85 133.932H1228.25V90.1621H1185.85V133.932ZM1230.14 133.932H1272.55V90.1621H1230.14V133.932ZM1274.44 133.932H1316.84V90.1621H1274.44V133.932ZM1318.73 133.932H1361.13V90.1621H1318.73V133.932ZM1363.03 133.932H1405.43V90.1621H1363.03V133.932ZM1407.32 133.932H1449.72V90.1621H1407.32V133.932ZM-10.1084 133.932H32.2949V90.1621H-10.1084V133.932ZM34.1855 88.2744H76.5898V44.5068H34.1855V88.2744ZM78.4805 88.2744H120.884V44.5068H78.4805V88.2744ZM122.775 88.2744H165.18V44.5068H122.775V88.2744ZM167.071 88.2744H209.474V44.5068H167.071V88.2744ZM211.365 88.2744H253.769V44.5068H211.365V88.2744ZM255.66 88.2744H298.062V44.5068H255.66V88.2744ZM299.954 88.2744H342.357V44.5068H299.954V88.2744ZM344.249 88.2744H386.652V44.5068H344.249V88.2744ZM388.544 88.2744H430.946V44.5068H388.544V88.2744ZM432.838 88.2744H475.241V44.5068H432.838V88.2744ZM477.132 88.2744H519.535V44.5068H477.132V88.2744ZM521.427 88.2744H563.831V44.5068H521.427V88.2744ZM565.723 88.2744H608.126V44.5068H565.723V88.2744ZM610.017 88.2744H652.42V44.5068H610.017V88.2744ZM654.312 88.2744H696.715V44.5068H654.312V88.2744ZM698.606 88.2744H741.009V44.5068H698.606V88.2744ZM742.9 88.2744H785.304V44.5068H742.9V88.2744ZM787.195 88.2744H829.599V44.5068H787.195V88.2744ZM831.49 88.2744H873.893V44.5068H831.49V88.2744ZM875.784 88.2744H918.187V44.5068H875.784V88.2744ZM920.078 88.2744H962.482V44.5068H920.078V88.2744ZM964.374 88.2744H1006.78V44.5068H964.374V88.2744ZM1008.67 88.2744H1051.07V44.5068H1008.67V88.2744ZM1052.96 88.2744H1095.37V44.5068H1052.96V88.2744ZM1097.26 88.2744H1139.66V44.5068H1097.26V88.2744ZM1141.55 88.2744H1183.96V44.5068H1141.55V88.2744ZM1185.85 88.2744H1228.25V44.5068H1185.85V88.2744ZM1230.14 88.2744H1272.55V44.5068H1230.14V88.2744ZM1274.44 88.2744H1316.84V44.5068H1274.44V88.2744ZM1318.73 88.2744H1361.13V44.5068H1318.73V88.2744ZM1363.03 88.2744H1405.43V44.5068H1363.03V88.2744ZM1407.32 88.2744H1449.72V44.5068H1407.32V88.2744ZM-10.1084 88.2744H32.2949V44.5068H-10.1084V88.2744ZM34.1855 42.6191H76.5898V-1.15039H34.1855V42.6191ZM78.4805 42.6191H120.884V-1.15039H78.4805V42.6191ZM122.775 42.6191H165.18V-1.15039H122.775V42.6191ZM167.071 42.6191H209.474V-1.15039H167.071V42.6191ZM211.365 42.6191H253.769V-1.15039H211.365V42.6191ZM255.66 42.6191H298.062V-1.15039H255.66V42.6191ZM299.954 42.6191H342.357V-1.15039H299.954V42.6191ZM344.249 42.6191H386.652V-1.15039H344.249V42.6191ZM388.544 42.6191H430.946V-1.15039H388.544V42.6191ZM432.838 42.6191H475.241V-1.15039H432.838V42.6191ZM477.132 42.6191H519.535V-1.15039H477.132V42.6191ZM521.427 42.6191H563.831V-1.15039H521.427V42.6191ZM565.723 42.6191H608.126V-1.15039H565.723V42.6191ZM610.017 42.6191H652.42V-1.15039H610.017V42.6191ZM654.312 42.6191H696.715V-1.15039H654.312V42.6191ZM698.606 42.6191H741.009V-1.15039H698.606V42.6191ZM742.9 42.6191H785.304V-1.15039H742.9V42.6191ZM787.195 42.6191H829.599V-1.15039H787.195V42.6191ZM831.49 42.6191H873.893V-1.15039H831.49V42.6191ZM875.784 42.6191H918.187V-1.15039H875.784V42.6191ZM920.078 42.6191H962.482V-1.15039H920.078V42.6191ZM964.374 42.6191H1006.78V-1.15039H964.374V42.6191ZM1008.67 42.6191H1051.07V-1.15039H1008.67V42.6191ZM1052.96 42.6191H1095.37V-1.15039H1052.96V42.6191ZM1097.26 42.6191H1139.66V-1.15039H1097.26V42.6191ZM1141.55 42.6191H1183.96V-1.15039H1141.55V42.6191ZM1185.85 42.6191H1228.25V-1.15039H1185.85V42.6191ZM1230.14 42.6191H1272.55V-1.15039H1230.14V42.6191ZM1274.44 42.6191H1316.84V-1.15039H1274.44V42.6191ZM1318.73 42.6191H1361.13V-1.15039H1318.73V42.6191ZM1363.03 42.6191H1405.43V-1.15039H1363.03V42.6191ZM1407.32 42.6191H1449.72V-1.15039H1407.32V42.6191ZM-10.1084 42.6191H32.2949V-1.15039H-10.1084V42.6191ZM34.1855 -3.03809H76.5898V-46.8066H34.1855V-3.03809ZM78.4805 -3.03809H120.884V-46.8066H78.4805V-3.03809ZM122.775 -3.03809H165.18V-46.8066H122.775V-3.03809ZM167.071 -3.03809H209.474V-46.8066H167.071V-3.03809ZM211.365 -3.03809H253.769V-46.8066H211.365V-3.03809ZM255.66 -3.03809H298.062V-46.8066H255.66V-3.03809ZM299.954 -3.03809H342.357V-46.8066H299.954V-3.03809ZM344.249 -3.03809H386.652V-46.8066H344.249V-3.03809ZM388.544 -3.03809H430.946V-46.8066H388.544V-3.03809ZM432.838 -3.03809H475.241V-46.8066H432.838V-3.03809ZM477.132 -3.03809H519.535V-46.8066H477.132V-3.03809ZM521.427 -3.03809H563.831V-46.8066H521.427V-3.03809ZM565.723 -3.03809H608.126V-46.8066H565.723V-3.03809ZM610.017 -3.03809H652.42V-46.8066H610.017V-3.03809ZM654.312 -3.03809H696.715V-46.8066H654.312V-3.03809ZM698.606 -3.03809H741.009V-46.8066H698.606V-3.03809ZM742.9 -3.03809H785.304V-46.8066H742.9V-3.03809ZM787.195 -3.03809H829.599V-46.8066H787.195V-3.03809ZM831.49 -3.03809H873.893V-46.8066H831.49V-3.03809ZM875.784 -3.03809H918.187V-46.8066H875.784V-3.03809ZM920.078 -3.03809H962.482V-46.8066H920.078V-3.03809ZM964.374 -3.03809H1006.78V-46.8066H964.374V-3.03809ZM1008.67 -3.03809H1051.07V-46.8066H1008.67V-3.03809ZM1052.96 -3.03809H1095.37V-46.8066H1052.96V-3.03809ZM1097.26 -3.03809H1139.66V-46.8066H1097.26V-3.03809ZM1141.55 -3.03809H1183.96V-46.8066H1141.55V-3.03809ZM1185.85 -3.03809H1228.25V-46.8066H1185.85V-3.03809ZM1230.14 -3.03809H1272.55V-46.8066H1230.14V-3.03809ZM1274.44 -3.03809H1316.84V-46.8066H1274.44V-3.03809ZM1318.73 -3.03809H1361.13V-46.8066H1318.73V-3.03809ZM1363.03 -3.03809H1405.43V-46.8066H1363.03V-3.03809ZM1407.32 -3.03809H1449.72V-46.8066H1407.32V-3.03809ZM-10.1084 -3.03809H32.2949V-46.8066H-10.1084V-3.03809ZM34.1855 -48.6943H76.5898V-92.4639H34.1855V-48.6943ZM78.4805 -48.6943H120.884V-92.4639H78.4805V-48.6943ZM122.775 -48.6943H165.18V-92.4639H122.775V-48.6943ZM167.071 -48.6943H209.474V-92.4639H167.071V-48.6943ZM211.365 -48.6943H253.769V-92.4639H211.365V-48.6943ZM255.66 -48.6943H298.062V-92.4639H255.66V-48.6943ZM299.954 -48.6943H342.357V-92.4639H299.954V-48.6943ZM344.249 -48.6943H386.652V-92.4639H344.249V-48.6943ZM388.544 -48.6943H430.946V-92.4639H388.544V-48.6943ZM432.838 -48.6943H475.241V-92.4639H432.838V-48.6943ZM477.132 -48.6943H519.535V-92.4639H477.132V-48.6943ZM521.427 -48.6943H563.831V-92.4639H521.427V-48.6943ZM565.723 -48.6943H608.126V-92.4639H565.723V-48.6943ZM610.017 -48.6943H652.42V-92.4639H610.017V-48.6943ZM654.312 -48.6943H696.715V-92.4639H654.312V-48.6943ZM698.606 -48.6943H741.009V-92.4639H698.606V-48.6943ZM742.9 -48.6943H785.304V-92.4639H742.9V-48.6943ZM787.195 -48.6943H829.599V-92.4639H787.195V-48.6943ZM831.49 -48.6943H873.893V-92.4639H831.49V-48.6943ZM875.784 -48.6943H918.187V-92.4639H875.784V-48.6943ZM920.078 -48.6943H962.482V-92.4639H920.078V-48.6943ZM964.374 -48.6943H1006.78V-92.4639H964.374V-48.6943ZM1008.67 -48.6943H1051.07V-92.4639H1008.67V-48.6943ZM1052.96 -48.6943H1095.37V-92.4639H1052.96V-48.6943ZM1097.26 -48.6943H1139.66V-92.4639H1097.26V-48.6943ZM1141.55 -48.6943H1183.96V-92.4639H1141.55V-48.6943ZM1185.85 -48.6943H1228.25V-92.4639H1185.85V-48.6943ZM1230.14 -48.6943H1272.55V-92.4639H1230.14V-48.6943ZM1274.44 -48.6943H1316.84V-92.4639H1274.44V-48.6943ZM1318.73 -48.6943H1361.13V-92.4639H1318.73V-48.6943ZM1363.03 -48.6943H1405.43V-92.4639H1363.03V-48.6943ZM1407.32 -48.6943H1449.72V-92.4639H1407.32V-48.6943ZM-10.1084 -48.6943H32.2949V-92.4639H-10.1084V-48.6943ZM34.1855 -94.3516H76.5898V-138.12H34.1855V-94.3516ZM78.4805 -94.3516H120.884V-138.12H78.4805V-94.3516ZM122.775 -94.3516H165.18V-138.12H122.775V-94.3516ZM167.071 -94.3516H209.474V-138.12H167.071V-94.3516ZM211.365 -94.3516H253.769V-138.12H211.365V-94.3516ZM255.66 -94.3516H298.062V-138.12H255.66V-94.3516ZM299.954 -94.3516H342.357V-138.12H299.954V-94.3516ZM344.249 -94.3516H386.652V-138.12H344.249V-94.3516ZM388.544 -94.3516H430.946V-138.12H388.544V-94.3516ZM432.838 -94.3516H475.241V-138.12H432.838V-94.3516ZM477.132 -94.3516H519.535V-138.12H477.132V-94.3516ZM521.427 -94.3516H563.831V-138.12H521.427V-94.3516ZM565.723 -94.3516H608.126V-138.12H565.723V-94.3516ZM610.017 -94.3516H652.42V-138.12H610.017V-94.3516ZM654.312 -94.3516H696.715V-138.12H654.312V-94.3516ZM698.606 -94.3516H741.009V-138.12H698.606V-94.3516ZM742.9 -94.3516H785.304V-138.12H742.9V-94.3516ZM787.195 -94.3516H829.599V-138.12H787.195V-94.3516ZM831.49 -94.3516H873.893V-138.12H831.49V-94.3516ZM875.784 -94.3516H918.187V-138.12H875.784V-94.3516ZM920.078 -94.3516H962.482V-138.12H920.078V-94.3516ZM964.374 -94.3516H1006.78V-138.12H964.374V-94.3516ZM1008.67 -94.3516H1051.07V-138.12H1008.67V-94.3516ZM1052.96 -94.3516H1095.37V-138.12H1052.96V-94.3516ZM1097.26 -94.3516H1139.66V-138.12H1097.26V-94.3516ZM1141.55 -94.3516H1183.96V-138.12H1141.55V-94.3516ZM1185.85 -94.3516H1228.25V-138.12H1185.85V-94.3516ZM1230.14 -94.3516H1272.55V-138.12H1230.14V-94.3516ZM1274.44 -94.3516H1316.84V-138.12H1274.44V-94.3516ZM1318.73 -94.3516H1361.13V-138.12H1318.73V-94.3516ZM1363.03 -94.3516H1405.43V-138.12H1363.03V-94.3516ZM1407.32 -94.3516H1449.72V-138.12H1407.32V-94.3516ZM-10.1084 -94.3516H32.2949V-138.12H-10.1084V-94.3516ZM34.1855 -140.008H76.5898V-183.777H34.1855V-140.008ZM78.4805 -140.008H120.884V-183.777H78.4805V-140.008ZM122.775 -140.008H165.18V-183.777H122.775V-140.008ZM167.071 -140.008H209.474V-183.777H167.071V-140.008ZM211.365 -140.008H253.769V-183.777H211.365V-140.008ZM255.66 -140.008H298.062V-183.777H255.66V-140.008ZM299.954 -140.008H342.357V-183.777H299.954V-140.008ZM344.249 -140.008H386.652V-183.777H344.249V-140.008ZM388.544 -140.008H430.946V-183.777H388.544V-140.008ZM432.838 -140.008H475.241V-183.777H432.838V-140.008ZM477.132 -140.008H519.535V-183.777H477.132V-140.008ZM521.427 -140.008H563.831V-183.777H521.427V-140.008ZM565.723 -140.008H608.126V-183.777H565.723V-140.008ZM610.017 -140.008H652.42V-183.777H610.017V-140.008ZM654.312 -140.008H696.715V-183.777H654.312V-140.008ZM698.606 -140.008H741.009V-183.777H698.606V-140.008ZM742.9 -140.008H785.304V-183.777H742.9V-140.008ZM787.195 -140.008H829.599V-183.777H787.195V-140.008ZM831.49 -140.008H873.893V-183.777H831.49V-140.008ZM875.784 -140.008H918.187V-183.777H875.784V-140.008ZM920.078 -140.008H962.482V-183.777H920.078V-140.008ZM964.374 -140.008H1006.78V-183.777H964.374V-140.008ZM1008.67 -140.008H1051.07V-183.777H1008.67V-140.008ZM1052.96 -140.008H1095.37V-183.777H1052.96V-140.008ZM1097.26 -140.008H1139.66V-183.777H1097.26V-140.008ZM1141.55 -140.008H1183.96V-183.777H1141.55V-140.008ZM1185.85 -140.008H1228.25V-183.777H1185.85V-140.008ZM1230.14 -140.008H1272.55V-183.777H1230.14V-140.008ZM1274.44 -140.008H1316.84V-183.777H1274.44V-140.008ZM1318.73 -140.008H1361.13V-183.777H1318.73V-140.008ZM1363.03 -140.008H1405.43V-183.777H1363.03V-140.008ZM1407.32 -140.008H1449.72V-183.777H1407.32V-140.008ZM-10.1084 -140.008H32.2949V-183.777H-10.1084V-140.008Z" fill="url(#paint0_radial_2014_3940)"/>
</g>
<defs>
<radialGradient id="paint0_radial_2014_3940" cx="0" cy="0" r="1" gradientUnits="userSpaceOnUse" gradientTransform="translate(720 272) rotate(90) scale(265.5 901.349)">
<stop stop-color="#008B7C"/>
<stop offset="1" stop-color="#008B7C" stop-opacity="0"/>
</radialGradient>
</defs>
</svg>
