<svg width="223" height="333" viewBox="0 0 223 333" fill="none" xmlns="http://www.w3.org/2000/svg">
<path d="M184.795 136.471C205.235 156.041 230.975 208.401 220.385 219.551C209.215 231.321 144.355 167.321 144.225 145.591C144.145 133.521 164.735 117.261 184.795 136.471Z" fill="url(#paint0_linear_2283_2863)"/>
<g style="mix-blend-mode:multiply" opacity="0.3">
<path d="M184.055 200.681C185.025 196.961 185.715 193.171 186.075 189.291C187.705 171.831 189.325 154.811 185.035 136.711C184.955 136.631 184.865 136.551 184.785 136.471C164.725 117.261 144.135 133.521 144.215 145.591C144.295 157.661 164.325 182.761 184.045 200.681H184.055Z" fill="#008B7C"/>
</g>
<path d="M99.0048 304.001C48.4948 304.001 25.7948 205.381 16.9748 149.421C13.8548 129.611 30.0248 111.801 51.1648 111.801H146.845C167.985 111.801 184.155 129.611 181.035 149.421C172.225 205.371 149.525 304.001 99.0048 304.001Z" fill="url(#paint1_radial_2283_2863)"/>
<path opacity="0.3" d="M99.0148 145.801C138.034 145.801 169.665 136.323 169.665 124.631C169.665 112.939 138.034 103.461 99.0148 103.461C59.9959 103.461 28.3647 112.939 28.3647 124.631C28.3647 136.323 59.9959 145.801 99.0148 145.801Z" fill="url(#paint2_radial_2283_2863)"/>
<path d="M99.0049 131.37C139.421 131.37 172.185 105.161 172.185 72.83C172.185 40.4993 139.421 14.29 99.0049 14.29C58.5887 14.29 25.825 40.4993 25.825 72.83C25.825 105.161 58.5887 131.37 99.0049 131.37Z" fill="url(#paint3_radial_2283_2863)"/>
<path style="mix-blend-mode:multiply" d="M62.7049 39.9502C49.4749 39.9502 38.7549 50.6702 38.7549 63.9002C38.7549 89.3902 65.7249 117.9 99.0049 117.9C132.285 117.9 159.255 89.3902 159.255 63.9002C159.255 50.6702 148.535 39.9502 135.305 39.9502H62.7049Z" fill="url(#paint4_radial_2283_2863)"/>
<path d="M132.425 82.8502H65.575C56.075 82.8502 48.375 75.1502 48.375 65.6502C48.375 56.1502 56.075 48.4502 65.575 48.4502H132.425C141.925 48.4502 149.625 56.1502 149.625 65.6502C149.625 75.1502 141.925 82.8502 132.425 82.8502Z" fill="url(#paint5_linear_2283_2863)"/>
<path style="mix-blend-mode:multiply" d="M104.545 99.0899H93.455C90.005 99.0899 87.215 96.2999 87.215 92.8499C87.215 91.6199 88.2049 90.6299 89.4349 90.6299H108.565C109.795 90.6299 110.785 91.6199 110.785 92.8499C110.785 96.2999 107.995 99.0899 104.545 99.0899Z" fill="#808080"/>
<g filter="url(#filter0_i_2283_2863)">
<path d="M80.4949 61.2998H68.0749C66.3959 61.2998 65.0349 62.6609 65.0349 64.3398V68.7798C65.0349 70.4588 66.3959 71.8198 68.0749 71.8198H80.4949C82.1738 71.8198 83.5349 70.4588 83.5349 68.7798V64.3398C83.5349 62.6609 82.1738 61.2998 80.4949 61.2998Z" fill="white"/>
</g>
<g filter="url(#filter1_i_2283_2863)">
<path d="M117.515 61.2998H129.935C131.615 61.2998 132.975 62.6598 132.975 64.3398V68.7698C132.975 70.4498 131.615 71.8098 129.935 71.8098H117.515C115.835 71.8098 114.475 70.4498 114.475 68.7698V64.3398C114.475 62.6598 115.835 61.2998 117.515 61.2998Z" fill="white"/>
</g>
<path d="M98.2349 18.2102C74.2249 18.2102 53.0549 27.9102 40.5049 42.6802C54.8149 56.7002 78.7649 66.9002 106.485 68.9802C128.925 70.6702 149.695 66.7202 165.415 58.9402C157.195 35.4402 130.245 18.2002 98.2449 18.2002L98.2349 18.2102Z" fill="url(#paint6_linear_2283_2863)" style="mix-blend-mode:overlay"/>
<path d="M181.165 58.3103C179.855 58.3103 178.795 57.2503 178.795 55.9403V21.4003C178.795 20.0903 179.855 19.0303 181.165 19.0303C182.475 19.0303 183.535 20.0903 183.535 21.4003V55.9403C183.535 57.2503 182.475 58.3103 181.165 58.3103Z" fill="url(#paint7_linear_2283_2863)"/>
<path d="M179.785 60.21H173.585C173.585 30.43 140.135 6.2 99.0249 6.2C57.9149 6.2 24.4549 30.43 24.4549 60.21H18.2549C18.2549 27.01 54.4849 0 99.0249 0C143.565 0 179.795 27.01 179.795 60.21H179.785Z" fill="url(#paint8_linear_2283_2863)"/>
<path d="M13.2449 52.1699H23.515C25.665 52.1699 27.415 53.9199 27.415 56.0699V90.0099C27.415 92.1599 25.665 93.9099 23.515 93.9099H13.2449C11.0949 93.9099 9.34497 92.1599 9.34497 90.0099V56.0699C9.34497 53.9199 11.0949 52.1699 13.2449 52.1699Z" fill="url(#paint9_linear_2283_2863)"/>
<path d="M183.845 52.1699H173.565C171.411 52.1699 169.665 53.916 169.665 56.0699V90.0199C169.665 92.1738 171.411 93.9199 173.565 93.9199H183.845C185.999 93.9199 187.745 92.1738 187.745 90.0199V56.0699C187.745 53.916 185.999 52.1699 183.845 52.1699Z" fill="url(#paint10_linear_2283_2863)"/>
<path d="M127.715 129.03C126.355 129.03 125.205 127.96 125.135 126.58C125.055 125.15 126.155 123.94 127.575 123.86C170.305 121.59 175.935 91.1399 176.155 89.8399C176.395 88.4399 177.705 87.4899 179.125 87.7199C180.535 87.9499 181.485 89.2799 181.255 90.6799C181.195 91.0399 174.865 126.53 127.855 129.02C127.805 129.02 127.765 129.02 127.715 129.02V129.03Z" fill="url(#paint11_linear_2283_2863)"/>
<path d="M109.825 126.451C109.825 121.951 113.475 118.301 117.975 118.301H126.765C131.265 118.301 134.915 121.951 134.915 126.451C134.915 130.951 131.265 134.601 126.765 134.601H117.975C113.475 134.601 109.825 130.951 109.825 126.451Z" fill="url(#paint12_linear_2283_2863)"/>
<g style="mix-blend-mode:multiply" opacity="0.3">
<path d="M16.6848 146.7C16.7448 147.6 16.8349 148.51 16.9849 149.43C20.5849 172.29 26.5048 202.28 35.6948 229.75C43.8148 200.13 48.3849 155.48 36.0449 137.48C31.5449 130.92 24.8748 132.39 16.6948 146.71L16.6848 146.7Z" fill="#008B7C"/>
</g>
<path d="M1.74489 160.13C-3.23511 190.3 2.84491 248.48 14.8949 248.38C27.6249 248.26 42.5649 151.16 32.9849 135.22C27.6649 126.37 6.62489 130.53 1.74489 160.14V160.13Z" fill="url(#paint13_radial_2283_2863)"/>
<path style="mix-blend-mode:multiply" d="M99.0049 332.859C127.718 332.859 150.995 328.87 150.995 323.949C150.995 319.028 127.718 315.039 99.0049 315.039C70.2916 315.039 47.0149 319.028 47.0149 323.949C47.0149 328.87 70.2916 332.859 99.0049 332.859Z" fill="url(#paint14_radial_2283_2863)"/>
<g filter="url(#filter2_i_2283_2863)">
<path d="M103 215C117.359 215 129 203.359 129 189C129 174.641 117.359 163 103 163C88.6406 163 77 174.641 77 189C77 203.359 88.6406 215 103 215Z" fill="#008B7C"/>
</g>
<path d="M116.588 177.359C115.896 175.181 114.791 172.997 112.924 171.845C112.248 171.426 111.604 171.028 110.741 171.012C107.806 170.95 104.877 175.207 104.689 179.025C104.582 181.219 105.376 183.439 106.315 184.691C107.264 185.958 107.634 186.267 107.634 186.267C108.391 186.89 109.222 187.241 109.346 188.016C109.373 188.194 109.335 188.335 109.346 188.388C109.362 188.461 109.265 190.765 109.158 193.384C109.04 196.149 108.895 198.914 108.831 200.767C108.824 200.977 108.82 201.094 108.82 201.118C108.6 203.826 105.719 206.905 102.506 206.889C99.0405 206.868 96.3475 203.36 96.2027 201.223C96.031 198.662 95.854 196.102 95.6823 193.541C95.5643 191.708 95.4731 190.268 95.4677 190.236C95.4624 190.142 95.4731 189.99 95.736 189.823C95.9988 189.655 98.3002 187.875 98.6221 185.728C98.9493 183.581 98.0051 171.437 97.9461 171.316C97.8871 171.196 97.3131 170.646 96.8947 171.358L97.0771 183.832C97.0771 183.832 96.5353 184.67 95.8754 183.879L95.5804 171.379C95.5804 171.379 95.0815 170.546 94.4216 171.353L94.604 183.958C94.604 183.958 93.9174 184.754 93.3166 183.937L93.0215 171.348C93.0215 171.348 92.485 170.641 91.7555 171.358L91.8789 183.937C91.8789 183.937 91.3263 184.748 90.6289 183.952L90.4358 171.473C90.4358 171.473 89.8779 170.646 89.2878 171.416C89.2878 171.416 88.7192 183.837 89.1805 185.728C89.6418 187.618 90.7308 188.896 92.1256 189.865C92.1256 189.865 92.469 190.048 92.469 190.446C92.469 193.494 92.2919 195.667 92.2919 200.139C92.2919 201.176 92.2919 201.846 92.4743 202.763C92.6299 203.527 93.1342 205.878 95.1298 207.926C98.0803 210.958 102.029 211 102.501 211C102.785 211 107.243 210.916 110.199 207.486C112.409 204.92 112.575 201.878 112.682 199.872C112.838 197.002 112.382 189.749 112.264 188.613C112.178 187.801 112.398 187.529 112.65 187.236C112.902 186.942 118.557 183.612 116.583 177.37L116.588 177.359ZM89.7813 185.057C90.0817 185.738 90.5377 186.586 91.2244 187.471C91.8198 188.241 92.4314 188.833 92.9518 189.273C92.485 189.048 91.6482 188.566 90.924 187.649C90.1032 186.613 89.8672 185.565 89.7813 185.052V185.057ZM112.929 185.293C112.929 185.293 116.84 183.146 115.418 176.925C115.418 176.925 117.832 183.031 112.929 185.293Z" fill="white"/>
<g filter="url(#filter3_i_2283_2863)">
<path d="M103 218C119.016 218 132 205.016 132 189C132 172.984 119.016 160 103 160C86.9837 160 74 172.984 74 189C74 205.016 86.9837 218 103 218Z" stroke="#008B7C" stroke-miterlimit="10"/>
</g>
<defs>
<filter id="filter0_i_2283_2863" x="65.0349" y="61.2998" width="18.5" height="14.5195" filterUnits="userSpaceOnUse" color-interpolation-filters="sRGB">
<feFlood flood-opacity="0" result="BackgroundImageFix"/>
<feBlend mode="normal" in="SourceGraphic" in2="BackgroundImageFix" result="shape"/>
<feColorMatrix in="SourceAlpha" type="matrix" values="0 0 0 0 0 0 0 0 0 0 0 0 0 0 0 0 0 0 127 0" result="hardAlpha"/>
<feOffset dy="4"/>
<feGaussianBlur stdDeviation="2"/>
<feComposite in2="hardAlpha" operator="arithmetic" k2="-1" k3="1"/>
<feColorMatrix type="matrix" values="0 0 0 0 0 0 0 0 0 0 0 0 0 0 0 0 0 0 0.25 0"/>
<feBlend mode="normal" in2="shape" result="effect1_innerShadow_2283_2863"/>
</filter>
<filter id="filter1_i_2283_2863" x="114.475" y="61.2998" width="18.5" height="14.5098" filterUnits="userSpaceOnUse" color-interpolation-filters="sRGB">
<feFlood flood-opacity="0" result="BackgroundImageFix"/>
<feBlend mode="normal" in="SourceGraphic" in2="BackgroundImageFix" result="shape"/>
<feColorMatrix in="SourceAlpha" type="matrix" values="0 0 0 0 0 0 0 0 0 0 0 0 0 0 0 0 0 0 127 0" result="hardAlpha"/>
<feOffset dy="4"/>
<feGaussianBlur stdDeviation="2"/>
<feComposite in2="hardAlpha" operator="arithmetic" k2="-1" k3="1"/>
<feColorMatrix type="matrix" values="0 0 0 0 0 0 0 0 0 0 0 0 0 0 0 0 0 0 0.25 0"/>
<feBlend mode="normal" in2="shape" result="effect1_innerShadow_2283_2863"/>
</filter>
<filter id="filter2_i_2283_2863" x="77" y="163" width="52" height="56" filterUnits="userSpaceOnUse" color-interpolation-filters="sRGB">
<feFlood flood-opacity="0" result="BackgroundImageFix"/>
<feBlend mode="normal" in="SourceGraphic" in2="BackgroundImageFix" result="shape"/>
<feColorMatrix in="SourceAlpha" type="matrix" values="0 0 0 0 0 0 0 0 0 0 0 0 0 0 0 0 0 0 127 0" result="hardAlpha"/>
<feOffset dy="4"/>
<feGaussianBlur stdDeviation="2"/>
<feComposite in2="hardAlpha" operator="arithmetic" k2="-1" k3="1"/>
<feColorMatrix type="matrix" values="0 0 0 0 0 0 0 0 0 0 0 0 0 0 0 0 0 0 0.25 0"/>
<feBlend mode="normal" in2="shape" result="effect1_innerShadow_2283_2863"/>
</filter>
<filter id="filter3_i_2283_2863" x="73.5" y="159.5" width="59" height="63" filterUnits="userSpaceOnUse" color-interpolation-filters="sRGB">
<feFlood flood-opacity="0" result="BackgroundImageFix"/>
<feBlend mode="normal" in="SourceGraphic" in2="BackgroundImageFix" result="shape"/>
<feColorMatrix in="SourceAlpha" type="matrix" values="0 0 0 0 0 0 0 0 0 0 0 0 0 0 0 0 0 0 127 0" result="hardAlpha"/>
<feOffset dy="4"/>
<feGaussianBlur stdDeviation="2"/>
<feComposite in2="hardAlpha" operator="arithmetic" k2="-1" k3="1"/>
<feColorMatrix type="matrix" values="0 0 0 0 0 0 0 0 0 0 0 0 0 0 0 0 0 0 0.25 0"/>
<feBlend mode="normal" in2="shape" result="effect1_innerShadow_2283_2863"/>
</filter>
<linearGradient id="paint0_linear_2283_2863" x1="170.5" y1="144.001" x2="220" y2="228.001" gradientUnits="userSpaceOnUse">
<stop stop-color="white"/>
<stop offset="0.4" stop-color="#ADDCD7"/>
<stop offset="0.8" stop-color="#99D6D0"/>
<stop offset="1" stop-color="#AED2CF"/>
</linearGradient>
<radialGradient id="paint1_radial_2283_2863" cx="0" cy="0" r="1" gradientTransform="matrix(-8.50001 142 -122.746 24.5849 107.5 179.501)" gradientUnits="userSpaceOnUse">
<stop stop-color="white"/>
<stop offset="0.4" stop-color="#ADDCD7"/>
<stop offset="0.8" stop-color="#99D6D0"/>
<stop offset="1" stop-color="#AED2CF"/>
</radialGradient>
<radialGradient id="paint2_radial_2283_2863" cx="0" cy="0" r="1" gradientUnits="userSpaceOnUse" gradientTransform="translate(99.0148 124.631) rotate(90) scale(21.17 66.8509)">
<stop offset="0.125" stop-color="#008B7C"/>
<stop offset="1" stop-color="#002521" stop-opacity="0"/>
</radialGradient>
<radialGradient id="paint3_radial_2283_2863" cx="0" cy="0" r="1" gradientTransform="matrix(-6 82 -95.6056 31.6018 116.5 36.5)" gradientUnits="userSpaceOnUse">
<stop stop-color="white"/>
<stop offset="0.4" stop-color="#ADDCD7"/>
<stop offset="0.8" stop-color="#99D6D0"/>
<stop offset="1" stop-color="#AED2CF"/>
</radialGradient>
<radialGradient id="paint4_radial_2283_2863" cx="0" cy="0" r="1" gradientUnits="userSpaceOnUse" gradientTransform="translate(100.005 80.9817) scale(85.18 51.9598)">
<stop stop-color="white"/>
<stop offset="0.76" stop-color="#B4E3DE"/>
<stop offset="1" stop-color="#9BCCC7"/>
</radialGradient>
<linearGradient id="paint5_linear_2283_2863" x1="99.8573" y1="80.404" x2="99.6464" y2="47.1707" gradientUnits="userSpaceOnUse">
<stop stop-color="#008C7D"/>
<stop offset="1" stop-color="#006A5E"/>
</linearGradient>
<linearGradient id="paint6_linear_2283_2863" x1="40.5049" y1="43.7902" x2="165.415" y2="43.7902" gradientUnits="userSpaceOnUse">
<stop stop-color="#FAFAFA"/>
<stop offset="0.59" stop-color="#FAFAFA" stop-opacity="0.4"/>
<stop offset="1" stop-color="#FAFAFA" stop-opacity="0"/>
</linearGradient>
<linearGradient id="paint7_linear_2283_2863" x1="181.205" y1="55.5171" x2="175.467" y2="18.4561" gradientUnits="userSpaceOnUse">
<stop stop-color="#008C7D"/>
<stop offset="1" stop-color="#006A5E"/>
</linearGradient>
<linearGradient id="paint8_linear_2283_2863" x1="100.393" y1="55.9284" x2="99.9877" y2="-2.239" gradientUnits="userSpaceOnUse">
<stop stop-color="#008C7D"/>
<stop offset="1" stop-color="#006A5E"/>
</linearGradient>
<linearGradient id="paint9_linear_2283_2863" x1="18.533" y1="90.9418" x2="16.796" y2="50.6908" gradientUnits="userSpaceOnUse">
<stop stop-color="#008C7D"/>
<stop offset="1" stop-color="#006A5E"/>
</linearGradient>
<linearGradient id="paint10_linear_2283_2863" x1="178.858" y1="90.9511" x2="177.121" y2="50.6904" gradientUnits="userSpaceOnUse">
<stop stop-color="#008C7D"/>
<stop offset="1" stop-color="#006A5E"/>
</linearGradient>
<linearGradient id="paint11_linear_2283_2863" x1="153.686" y1="126.09" x2="153.136" y2="86.1537" gradientUnits="userSpaceOnUse">
<stop stop-color="#008C7D"/>
<stop offset="1" stop-color="#006A5E"/>
</linearGradient>
<linearGradient id="paint12_linear_2283_2863" x1="122.582" y1="133.442" x2="122.391" y2="117.696" gradientUnits="userSpaceOnUse">
<stop stop-color="#008C7D"/>
<stop offset="1" stop-color="#006A5E"/>
</linearGradient>
<radialGradient id="paint13_radial_2283_2863" cx="0" cy="0" r="1" gradientUnits="userSpaceOnUse" gradientTransform="translate(25.3796 144.545) rotate(-83.75) scale(98.0815 32.3092)">
<stop stop-color="white"/>
<stop offset="0.4" stop-color="#ADDCD7"/>
<stop offset="0.8" stop-color="#99D6D0"/>
<stop offset="1" stop-color="#AED2CF"/>
</radialGradient>
<radialGradient id="paint14_radial_2283_2863" cx="0" cy="0" r="1" gradientUnits="userSpaceOnUse" gradientTransform="translate(94.4864 322.53) rotate(180) scale(48.0173 7.4442)">
<stop stop-color="#BABABA"/>
<stop offset="0.293269" stop-color="#E6E6E6"/>
<stop offset="1" stop-color="white"/>
</radialGradient>
</defs>
</svg>
