<svg width="85" height="81" viewBox="0 0 85 81" fill="none" xmlns="http://www.w3.org/2000/svg">
<path d="M45.1958 78.8713C44.4628 76.3248 44.5921 73.6072 45.5637 71.1395C46.5353 68.6717 48.295 66.5918 50.5699 65.222C52.8449 63.8522 55.5081 63.2691 58.1468 63.563C60.7855 63.8568 63.2524 65.0113 65.1651 66.8475C72.8724 60.4359 74.4299 53.3954 71.1095 41.8158L67.4872 29.1835C62.6672 12.3742 49.8371 3.48506 35.07 7.71946C20.3029 11.9539 14.1341 26.2954 18.9529 43.1006L23.1788 57.8382C23.4178 58.6757 23.3141 59.5741 22.8905 60.3362C22.4669 61.0984 21.7579 61.6621 20.9191 61.9039L16.6987 63.1141C13.6214 63.9928 10.322 63.6181 7.52405 62.072C4.72611 60.5259 2.65808 57.9347 1.7735 54.8667L0.566082 50.6559C-0.311008 47.5845 0.068587 44.2898 1.62162 41.4944C3.17465 38.699 5.77433 36.6311 8.85053 35.7442L10.8679 35.1657C9.75102 19.213 17.7532 5.84951 33.2589 1.40333C48.7646 -3.04285 62.6282 4.05072 70.1347 18.1712L72.152 17.5928C75.23 16.715 78.5297 17.0906 81.3277 18.6374C84.1257 20.1842 86.1937 22.7759 87.0784 25.8443L88.2858 30.0551C89.1628 33.1261 88.783 36.4204 87.2296 39.2152C85.6763 42.01 83.0763 44.077 80.0002 44.9627L78.6961 45.3366C79.9633 50.3705 79.6684 55.6717 77.8504 60.5384C76.0325 65.4051 72.7771 69.6078 68.5154 72.5901C69.3462 75.6755 68.9145 78.9654 67.3154 81.736C65.7162 84.5067 63.0806 86.5312 59.9882 87.3641C56.8958 88.1971 53.6001 87.7702 50.826 86.1775C48.0519 84.5848 46.0267 81.9567 45.1958 78.8713ZM51.5264 77.056C51.8249 78.0971 52.4261 79.026 53.254 79.7253C54.0819 80.4247 55.0992 80.863 56.1774 80.985C57.2556 81.107 58.3462 80.907 59.3113 80.4105C60.2765 79.914 61.0727 79.1432 61.5994 78.1955C62.1261 77.2478 62.3597 76.1659 62.2704 75.0865C62.1812 74.0071 61.7733 72.9788 61.0982 72.1315C60.4231 71.2843 59.5113 70.6561 58.4779 70.3265C57.4445 69.9969 56.336 69.9807 55.2926 70.2799C53.8941 70.6821 52.7121 71.6216 52.0059 72.892C51.2998 74.1625 51.1273 75.6601 51.5264 77.056ZM77.1394 38.9521L78.1903 38.6507C79.5898 38.2494 80.7731 37.3101 81.4801 36.0393C82.1871 34.7684 82.36 33.27 81.9607 31.8734L80.7533 27.6626C80.3529 26.2663 79.4132 25.0864 78.1407 24.3823C76.8683 23.6782 75.3672 23.5075 73.9673 23.9077L72.9122 24.2102L77.1394 38.9521ZM6.89665 48.8407L8.10406 53.0514C8.50627 54.4457 9.44633 55.6231 10.718 56.3254C11.9897 57.0278 13.4892 57.1977 14.8876 56.7979L15.9427 56.4954L11.7167 41.7577L10.6616 42.0603C9.26244 42.4627 8.07989 43.403 7.3739 44.6744C6.66792 45.9458 6.49626 47.4443 6.89665 48.8407Z" fill="#E5E7EB"/>
</svg>
