<svg width="28" height="27" viewBox="0 0 28 27" fill="none" xmlns="http://www.w3.org/2000/svg">
<path d="M13.0392 0.580969C13.3966 -0.193902 14.4979 -0.193902 14.8553 0.580969L18.227 7.89076C18.3727 8.20657 18.672 8.42401 19.0173 8.46496L27.0113 9.41277C27.8586 9.51324 28.199 10.5606 27.5725 11.14L21.6623 16.6055C21.407 16.8416 21.2927 17.1935 21.3605 17.5346L22.9293 25.4302C23.0956 26.2671 22.2047 26.9144 21.46 26.4976L14.4357 22.5657C14.1322 22.3958 13.7623 22.3958 13.4588 22.5657L6.43449 26.4976C5.68988 26.9144 4.79892 26.2671 4.96522 25.4301L6.53406 17.5346C6.60184 17.1935 6.48752 16.8416 6.23219 16.6055L0.322067 11.14C-0.304432 10.5606 0.0358839 9.51324 0.883278 9.41277L8.87721 8.46496C9.22258 8.42401 9.52186 8.20657 9.66753 7.89076L13.0392 0.580969Z" fill="#008B7C"/>
</svg>
