<svg width="86" height="98" viewBox="0 0 86 98" fill="none" xmlns="http://www.w3.org/2000/svg">
<path d="M28.9188 57.9409C28.5791 56.7562 29.264 55.5205 30.4487 55.1808L64.1246 45.5244C65.3092 45.1848 66.5449 45.8697 66.8846 47.0543C67.2243 48.239 66.5393 49.4747 65.3547 49.8144L31.6788 59.4708C30.4942 59.8104 29.2585 59.1255 28.9188 57.9409ZM34.3313 76.8165C33.9916 75.6319 34.6765 74.3962 35.8612 74.0565L54.8083 68.6235C55.993 68.2838 57.2287 68.9688 57.5683 70.1534C57.908 71.338 57.2231 72.5737 56.0384 72.9134L37.0913 78.3464C35.9067 78.6861 34.671 78.0011 34.3313 76.8165Z" fill="#008B7C"/>
<path d="M87.9405 88.9129L33.1725 104.617C32.0285 104.945 30.8945 105.038 29.699 104.917C28.575 104.775 27.4815 104.47 26.541 103.888C25.529 103.327 24.711 102.633 23.995 101.755C23.2585 100.806 22.7365 99.7948 22.4084 98.6508L6.0684 41.6663C5.74037 40.5224 5.64733 39.3884 5.7688 38.1929C5.91076 37.0689 6.21623 35.9754 6.79769 35.0349C7.35866 34.0229 8.05262 33.2049 8.9306 32.4888C9.88006 31.7523 10.891 31.2303 12.035 30.9023L20.3289 28.524L21.5385 32.7425L13.2446 35.1207C10.9567 35.7767 9.55926 38.1893 10.2358 40.5487L26.5758 97.5332C27.2319 99.8211 29.6444 101.219 32.0039 100.542L86.7004 84.858C88.9883 84.202 90.3857 81.7894 89.7092 79.43L73.3486 22.374C72.6926 20.0861 70.2801 18.6887 67.9206 19.3652L59.6983 21.7229L58.4886 17.5045L66.7825 15.1263C67.9265 14.7983 69.0605 14.7052 70.256 14.8267C71.3799 14.9687 72.4734 15.2741 73.4139 15.8556C74.426 16.4166 75.244 17.1105 75.96 17.9885C76.6965 18.938 77.2185 19.9489 77.5466 21.0929L93.8866 78.0774C94.2146 79.2213 94.3077 80.3553 94.1862 81.5508C94.0442 82.6748 93.7388 83.7683 93.1573 84.7088C92.5963 85.7208 91.9024 86.5388 91.0244 87.2549C90.0954 88.0629 89.0845 88.5849 87.9405 88.9129Z" fill="#008B7C"/>
<path d="M64.0482 29.6062L22.0069 41.6613L18.0706 27.9336C17.23 25.0021 18.9129 21.9661 21.8443 21.1255L27.2782 19.5674C28.1016 15.1529 31.388 11.5024 35.8209 10.2312C40.2538 8.96011 44.9753 10.3145 48.0128 13.6218L53.4467 12.0637C56.3782 11.2231 59.4142 12.906 60.2548 15.8375L64.0482 29.6062ZM25.0157 36.2333L58.6916 26.5769L55.9649 17.0676C55.8009 16.4956 55.1568 16.1386 54.5849 16.3026L46.2195 18.7013L45.309 17.4149C43.4674 14.7705 40.1049 13.5681 36.959 14.4702C33.813 15.3722 31.5986 18.1738 31.4382 21.3923L31.3478 22.9657L22.9824 25.3645C22.4105 25.5285 22.0535 26.1725 22.2175 26.7445L24.9443 36.2538L25.0157 36.2333Z" fill="#008B7C"/>
</svg>
