<svg width="88" height="90" viewBox="0 0 88 90" fill="none" xmlns="http://www.w3.org/2000/svg">
<path d="M40.6016 11.6596C42.0203 11.2528 43.4437 10.9443 44.8053 10.7882C46.1333 10.5889 47.4761 10.5059 48.8185 10.5399C50.1602 10.5595 51.5012 10.6789 52.8764 10.9175C54.2114 11.1383 55.6145 11.4743 57.0347 11.8699C59.4487 12.5841 61.7588 13.0585 64.0462 13.3109C68.538 13.7682 73.074 13.5061 77.4832 12.5344C79.7266 12.061 82.0109 11.5056 84.3609 10.8318L90.5716 32.4908C91.7516 36.606 92.3443 40.6553 92.3589 44.671C92.3998 48.6219 91.9785 52.5639 91.1035 56.4169C90.2349 60.263 88.9769 64.0107 87.3491 67.6019C85.7024 71.2696 83.7975 74.8158 81.6489 78.2139C79.4643 81.6305 77.0718 84.9096 74.4849 88.0326C71.9082 91.1858 69.254 94.1912 66.5455 97.0072L65.468 98.1541L63.9464 97.7524C60.0521 96.7765 56.1979 95.6473 52.3927 94.3675C48.533 93.1198 44.7644 91.6061 41.1141 89.8371C37.493 88.0934 34.0002 86.0949 30.662 83.8567C27.3815 81.6596 24.3196 79.1526 21.5184 76.3701C18.7617 73.5425 16.3179 70.4259 14.2294 67.0743C12.0772 63.5586 10.4242 59.7608 9.31771 55.79L3.10708 34.1309C5.4625 33.4555 7.69406 32.716 9.84742 31.9286C11.9684 31.1578 14.0297 30.2318 16.0147 29.1581C17.955 28.0978 19.8518 26.8859 21.6541 25.4666C23.5272 24.0043 25.255 22.3648 26.8134 20.5709C28.7518 18.3391 30.8392 16.5041 33.0059 15.0682C35.3462 13.5459 37.9086 12.396 40.6016 11.6596ZM80.44 17.7165C76.2841 18.6929 72.0269 19.172 67.758 19.1437C63.5068 19.0985 59.2836 18.4489 55.2153 17.2143C53.1 16.5563 50.9038 16.1941 48.6892 16.1381C46.4841 16.1067 44.2869 16.4088 42.172 17.0341C40.0325 17.6327 37.9935 18.5452 36.1216 19.7418C34.2642 20.943 32.5966 22.4146 31.1738 24.1081C28.3753 27.3247 25.1306 30.1239 21.5385 32.4204C18.0192 34.6367 14.1971 36.471 10.0559 37.9281L14.7402 54.2644C15.7696 57.8544 17.2197 61.1538 19.0997 64.1952C20.9889 67.2028 23.204 69.993 25.7046 72.5152C28.2339 75.0629 31.0105 77.3526 33.9933 79.3503C37.0136 81.3615 40.1328 83.1451 43.4057 84.7498C46.6802 86.36 50.0249 87.7449 53.4491 88.9371C56.9019 90.1269 60.3058 91.1257 63.6592 91.9689C66.1119 89.4108 68.4556 86.7504 70.6842 83.995C72.977 81.1703 75.0897 78.2041 77.0097 75.114C78.9349 72.0188 80.6403 68.8517 82.1359 65.5456C83.6072 62.2709 84.7485 58.8578 85.5431 55.3568C86.321 51.8985 86.7011 48.3626 86.6759 44.818C86.6723 41.1836 86.1525 37.5681 85.1321 34.0799L80.44 17.7165Z" fill="#E5E7EB"/>
<path fill-rule="evenodd" clip-rule="evenodd" d="M67.9124 30.7177L64.943 29.3541L62.799 30.174L47.1837 64.8188L35.8512 55.6452L33.5797 55.898L31.5866 58.4092L31.834 60.6822L46.4033 72.4788L47.7647 72.7917L50.2827 72.2337L51.3914 71.3181L68.6983 32.8657L67.9124 30.7177Z" fill="#E5E7EB"/>
</svg>
