<svg width="115" height="109" viewBox="0 0 115 109" fill="none" xmlns="http://www.w3.org/2000/svg">
<mask id="path-1-outside-1_2064_505" maskUnits="userSpaceOnUse" x="-1.2369" y="-1.40028" width="141.006" height="141.006" fill="black">
<rect fill="white" x="-1.2369" y="-1.40028" width="141.006" height="141.006"/>
<path d="M58.436 23.6022L63.0131 39.5646L71.5072 37.1289L68.2015 25.6005C65.8258 25.4324 63.8452 23.9621 63.4109 21.5307C62.43 16.0509 70.4303 13.769 72.511 18.8181C73.4736 21.1526 72.618 23.4787 70.6299 24.9021L73.9357 36.4305L82.7567 33.9012C85.8677 33.0091 90.6323 35.8246 91.5185 38.915L93.4858 45.776L104.968 42.4837C104.779 40.3396 106.639 38.1848 108.71 37.7869C112.528 37.0522 115.657 40.9068 114.03 44.4853C112.47 47.9153 107.579 48.2481 105.691 45.0061L94.2091 48.2985L96.6448 56.7925L112.42 52.269C112.314 50.3825 113.705 48.5215 115.465 47.8734C119.134 46.5222 122.804 49.9303 121.721 53.6968C120.566 57.7082 115.019 58.3687 113.021 54.7235L97.3389 59.2202L99.8549 67.9945L111.337 64.7022C111.34 61.4638 114.496 59.2386 117.611 60.2521C120.959 61.3444 121.956 65.7438 119.412 68.1962C117.147 70.3805 113.513 69.8169 111.939 67.1543L100.55 70.4198L103.99 82.4154C104.877 85.5077 102.329 90.4178 99.2165 91.3104L90.3955 93.8398L93.7012 105.368C96.4389 105.53 98.6542 107.557 98.5555 110.415C98.4017 114.885 92.5524 116.657 89.9313 113.017C88.2211 110.642 88.996 107.696 91.2741 106.064L87.9683 94.5358L79.4743 96.9714L84.0514 112.934C88.1303 112.892 90.2188 118.004 87.3909 120.948C85.7964 122.609 83.2228 122.928 81.3016 121.651C78.3519 119.692 78.474 115.33 81.5046 113.565L76.9543 97.696L68.2734 100.185L71.6193 111.854C74.9458 111.826 77.2253 115.368 75.9317 118.445C74.8043 121.128 71.4462 122.216 68.9852 120.643C65.9425 118.699 66.0345 114.351 69.0719 112.483L65.7528 100.908L55.1586 103.946C51.9915 104.854 47.2642 101.957 46.37 98.8386L42.9571 86.9364L31.4754 90.2287C31.5512 93.321 28.7679 95.7227 25.6899 95.0725C22.2327 94.341 20.7465 90.082 23.0073 87.3813C25.1099 84.8695 28.9674 85.0858 30.6865 87.8303L42.2617 84.5111L39.7457 75.7368L23.9702 80.2604C24.1979 84.4111 19.1593 86.7962 16.0482 84C13.1357 81.3814 14.4346 76.5462 18.2677 75.7463C20.084 75.3671 22.2899 76.1985 23.179 77.8605L39.0479 73.3102L36.6122 64.8161L25.0371 68.1353C25.1676 70.6073 23.0806 72.7223 20.6367 72.8872C17.0877 73.1263 14.4978 69.475 15.9434 66.1951C17.4937 62.681 22.3781 62.3319 24.3143 65.6147L35.8895 62.2956L33.9489 55.528C33.0547 52.4095 35.5285 47.4477 38.6955 46.5395L49.2898 43.5017L45.9921 31.9871C44.7023 31.8615 43.5358 31.5308 42.5809 30.6054C39.258 27.3806 41.908 21.8344 46.4966 22.4073C50.8674 22.9537 52.1671 28.805 48.4644 31.1103L51.8103 42.7789L60.4912 40.2897L55.9404 24.4189C53.1762 24.5038 50.9738 22.2458 51.0595 19.4772C51.1556 16.4064 54.1223 14.2636 57.0859 15.0577C60.9979 16.1057 61.8911 21.4913 58.4323 23.6033L58.436 23.6022ZM54.7963 17.7C53.2946 18.4218 53.2462 20.6155 54.6064 21.5156C55.8444 22.3354 57.5998 21.6804 57.9559 20.2356C58.4272 18.325 56.5417 16.8618 54.7982 17.6994L54.7963 17.7ZM44.7929 29.0956C47.3582 30.5176 49.4851 26.5672 46.9225 25.1829C44.3761 23.806 42.2612 27.6923 44.7929 29.0956ZM67.044 18.8348C64.9867 19.819 65.9862 23.3542 68.4131 22.9535C71.8128 22.3912 70.2745 17.2877 67.044 18.8348ZM40.081 48.7973C37.6818 49.6187 36.1925 51.9283 36.393 54.447C40.3997 69.1534 44.6184 83.8657 49.0132 98.4588C50.0452 100.436 52.1289 101.624 54.3578 101.421C69.1323 97.4053 83.9025 93.1416 98.5733 88.7569C100.521 87.7797 101.68 85.6499 101.522 83.4831C97.5509 68.7462 93.2889 54.0099 88.8965 39.3898C87.688 37.051 85.0666 35.906 82.5174 36.5924L40.0786 48.7959L40.081 48.7973ZM21.4104 66.1784C20.3512 65.5944 18.9341 65.9907 18.3619 67.0627C17.5805 68.5263 18.7056 70.4543 20.4073 70.3242C22.6558 70.1547 23.3298 67.2376 21.4104 66.1784ZM108.534 40.5774C106.254 41.7651 107.95 45.782 110.709 44.4529C113.221 43.2432 111.388 39.0918 108.534 40.5774ZM21.1661 81.5315C22.6361 78.8796 18.5432 76.8341 17.2534 79.402C15.9635 81.9698 19.7934 84.0079 21.1661 81.5315ZM116.013 50.4543C115.517 50.6934 115.055 51.38 114.961 51.9125C114.564 54.1375 117.386 55.5384 118.814 53.8125C120.35 51.9565 118.408 49.3004 116.013 50.4543ZM25.8568 88.3275C23.2196 89.4052 24.8379 93.6102 27.6044 92.4408C30.2018 91.3441 28.5316 87.2329 25.8568 88.3275ZM115.282 62.6853C112.573 63.7815 114.151 67.8464 116.852 66.8575C119.553 65.8686 117.91 61.6201 115.282 62.6853ZM69.5709 115.507C68.1702 118.034 72.0173 120.216 73.4503 117.696C74.8833 115.176 70.9929 112.941 69.5709 115.507ZM92.7825 108.236C91.7494 108.702 91.3043 110.027 91.7205 111.062C92.3398 112.601 94.5302 112.885 95.5283 111.564C96.9502 109.682 94.9736 107.246 92.7825 108.236ZM82.8099 115.741C82.3143 115.98 81.852 116.666 81.758 117.199C81.3463 119.501 84.1938 120.813 85.6109 119.099C87.1623 117.224 85.1464 114.616 82.8099 115.741Z"/>
</mask>
<path d="M58.436 23.6022L63.0131 39.5646L71.5072 37.1289L68.2015 25.6005C65.8258 25.4324 63.8452 23.9621 63.4109 21.5307C62.43 16.0509 70.4303 13.769 72.511 18.8181C73.4736 21.1526 72.618 23.4787 70.6299 24.9021L73.9357 36.4305L82.7567 33.9012C85.8677 33.0091 90.6323 35.8246 91.5185 38.915L93.4858 45.776L104.968 42.4837C104.779 40.3396 106.639 38.1848 108.71 37.7869C112.528 37.0522 115.657 40.9068 114.03 44.4853C112.47 47.9153 107.579 48.2481 105.691 45.0061L94.2091 48.2985L96.6448 56.7925L112.42 52.269C112.314 50.3825 113.705 48.5215 115.465 47.8734C119.134 46.5222 122.804 49.9303 121.721 53.6968C120.566 57.7082 115.019 58.3687 113.021 54.7235L97.3389 59.2202L99.8549 67.9945L111.337 64.7022C111.34 61.4638 114.496 59.2386 117.611 60.2521C120.959 61.3444 121.956 65.7438 119.412 68.1962C117.147 70.3805 113.513 69.8169 111.939 67.1543L100.55 70.4198L103.99 82.4154C104.877 85.5077 102.329 90.4178 99.2165 91.3104L90.3955 93.8398L93.7012 105.368C96.4389 105.53 98.6542 107.557 98.5555 110.415C98.4017 114.885 92.5524 116.657 89.9313 113.017C88.2211 110.642 88.996 107.696 91.2741 106.064L87.9683 94.5358L79.4743 96.9714L84.0514 112.934C88.1303 112.892 90.2188 118.004 87.3909 120.948C85.7964 122.609 83.2228 122.928 81.3016 121.651C78.3519 119.692 78.474 115.33 81.5046 113.565L76.9543 97.696L68.2734 100.185L71.6193 111.854C74.9458 111.826 77.2253 115.368 75.9317 118.445C74.8043 121.128 71.4462 122.216 68.9852 120.643C65.9425 118.699 66.0345 114.351 69.0719 112.483L65.7528 100.908L55.1586 103.946C51.9915 104.854 47.2642 101.957 46.37 98.8386L42.9571 86.9364L31.4754 90.2287C31.5512 93.321 28.7679 95.7227 25.6899 95.0725C22.2327 94.341 20.7465 90.082 23.0073 87.3813C25.1099 84.8695 28.9674 85.0858 30.6865 87.8303L42.2617 84.5111L39.7457 75.7368L23.9702 80.2604C24.1979 84.4111 19.1593 86.7962 16.0482 84C13.1357 81.3814 14.4346 76.5462 18.2677 75.7463C20.084 75.3671 22.2899 76.1985 23.179 77.8605L39.0479 73.3102L36.6122 64.8161L25.0371 68.1353C25.1676 70.6073 23.0806 72.7223 20.6367 72.8872C17.0877 73.1263 14.4978 69.475 15.9434 66.1951C17.4937 62.681 22.3781 62.3319 24.3143 65.6147L35.8895 62.2956L33.9489 55.528C33.0547 52.4095 35.5285 47.4477 38.6955 46.5395L49.2898 43.5017L45.9921 31.9871C44.7023 31.8615 43.5358 31.5308 42.5809 30.6054C39.258 27.3806 41.908 21.8344 46.4966 22.4073C50.8674 22.9537 52.1671 28.805 48.4644 31.1103L51.8103 42.7789L60.4912 40.2897L55.9404 24.4189C53.1762 24.5038 50.9738 22.2458 51.0595 19.4772C51.1556 16.4064 54.1223 14.2636 57.0859 15.0577C60.9979 16.1057 61.8911 21.4913 58.4323 23.6033L58.436 23.6022ZM54.7963 17.7C53.2946 18.4218 53.2462 20.6155 54.6064 21.5156C55.8444 22.3354 57.5998 21.6804 57.9559 20.2356C58.4272 18.325 56.5417 16.8618 54.7982 17.6994L54.7963 17.7ZM44.7929 29.0956C47.3582 30.5176 49.4851 26.5672 46.9225 25.1829C44.3761 23.806 42.2612 27.6923 44.7929 29.0956ZM67.044 18.8348C64.9867 19.819 65.9862 23.3542 68.4131 22.9535C71.8128 22.3912 70.2745 17.2877 67.044 18.8348ZM40.081 48.7973C37.6818 49.6187 36.1925 51.9283 36.393 54.447C40.3997 69.1534 44.6184 83.8657 49.0132 98.4588C50.0452 100.436 52.1289 101.624 54.3578 101.421C69.1323 97.4053 83.9025 93.1416 98.5733 88.7569C100.521 87.7797 101.68 85.6499 101.522 83.4831C97.5509 68.7462 93.2889 54.0099 88.8965 39.3898C87.688 37.051 85.0666 35.906 82.5174 36.5924L40.0786 48.7959L40.081 48.7973ZM21.4104 66.1784C20.3512 65.5944 18.9341 65.9907 18.3619 67.0627C17.5805 68.5263 18.7056 70.4543 20.4073 70.3242C22.6558 70.1547 23.3298 67.2376 21.4104 66.1784ZM108.534 40.5774C106.254 41.7651 107.95 45.782 110.709 44.4529C113.221 43.2432 111.388 39.0918 108.534 40.5774ZM21.1661 81.5315C22.6361 78.8796 18.5432 76.8341 17.2534 79.402C15.9635 81.9698 19.7934 84.0079 21.1661 81.5315ZM116.013 50.4543C115.517 50.6934 115.055 51.38 114.961 51.9125C114.564 54.1375 117.386 55.5384 118.814 53.8125C120.35 51.9565 118.408 49.3004 116.013 50.4543ZM25.8568 88.3275C23.2196 89.4052 24.8379 93.6102 27.6044 92.4408C30.2018 91.3441 28.5316 87.2329 25.8568 88.3275ZM115.282 62.6853C112.573 63.7815 114.151 67.8464 116.852 66.8575C119.553 65.8686 117.91 61.6201 115.282 62.6853ZM69.5709 115.507C68.1702 118.034 72.0173 120.216 73.4503 117.696C74.8833 115.176 70.9929 112.941 69.5709 115.507ZM92.7825 108.236C91.7494 108.702 91.3043 110.027 91.7205 111.062C92.3398 112.601 94.5302 112.885 95.5283 111.564C96.9502 109.682 94.9736 107.246 92.7825 108.236ZM82.8099 115.741C82.3143 115.98 81.852 116.666 81.758 117.199C81.3463 119.501 84.1938 120.813 85.6109 119.099C87.1623 117.224 85.1464 114.616 82.8099 115.741Z" fill="#E5E7EB"/>
<path d="M58.436 23.6022L63.0131 39.5646L71.5072 37.1289L68.2015 25.6005C65.8258 25.4324 63.8452 23.9621 63.4109 21.5307C62.43 16.0509 70.4303 13.769 72.511 18.8181C73.4736 21.1526 72.618 23.4787 70.6299 24.9021L73.9357 36.4305L82.7567 33.9012C85.8677 33.0091 90.6323 35.8246 91.5185 38.915L93.4858 45.776L104.968 42.4837C104.779 40.3396 106.639 38.1848 108.71 37.7869C112.528 37.0522 115.657 40.9068 114.03 44.4853C112.47 47.9153 107.579 48.2481 105.691 45.0061L94.2091 48.2985L96.6448 56.7925L112.42 52.269C112.314 50.3825 113.705 48.5215 115.465 47.8734C119.134 46.5222 122.804 49.9303 121.721 53.6968C120.566 57.7082 115.019 58.3687 113.021 54.7235L97.3389 59.2202L99.8549 67.9945L111.337 64.7022C111.34 61.4638 114.496 59.2386 117.611 60.2521C120.959 61.3444 121.956 65.7438 119.412 68.1962C117.147 70.3805 113.513 69.8169 111.939 67.1543L100.55 70.4198L103.99 82.4154C104.877 85.5077 102.329 90.4178 99.2165 91.3104L90.3955 93.8398L93.7012 105.368C96.4389 105.53 98.6542 107.557 98.5555 110.415C98.4017 114.885 92.5524 116.657 89.9313 113.017C88.2211 110.642 88.996 107.696 91.2741 106.064L87.9683 94.5358L79.4743 96.9714L84.0514 112.934C88.1303 112.892 90.2188 118.004 87.3909 120.948C85.7964 122.609 83.2228 122.928 81.3016 121.651C78.3519 119.692 78.474 115.33 81.5046 113.565L76.9543 97.696L68.2734 100.185L71.6193 111.854C74.9458 111.826 77.2253 115.368 75.9317 118.445C74.8043 121.128 71.4462 122.216 68.9852 120.643C65.9425 118.699 66.0345 114.351 69.0719 112.483L65.7528 100.908L55.1586 103.946C51.9915 104.854 47.2642 101.957 46.37 98.8386L42.9571 86.9364L31.4754 90.2287C31.5512 93.321 28.7679 95.7227 25.6899 95.0725C22.2327 94.341 20.7465 90.082 23.0073 87.3813C25.1099 84.8695 28.9674 85.0858 30.6865 87.8303L42.2617 84.5111L39.7457 75.7368L23.9702 80.2604C24.1979 84.4111 19.1593 86.7962 16.0482 84C13.1357 81.3814 14.4346 76.5462 18.2677 75.7463C20.084 75.3671 22.2899 76.1985 23.179 77.8605L39.0479 73.3102L36.6122 64.8161L25.0371 68.1353C25.1676 70.6073 23.0806 72.7223 20.6367 72.8872C17.0877 73.1263 14.4978 69.475 15.9434 66.1951C17.4937 62.681 22.3781 62.3319 24.3143 65.6147L35.8895 62.2956L33.9489 55.528C33.0547 52.4095 35.5285 47.4477 38.6955 46.5395L49.2898 43.5017L45.9921 31.9871C44.7023 31.8615 43.5358 31.5308 42.5809 30.6054C39.258 27.3806 41.908 21.8344 46.4966 22.4073C50.8674 22.9537 52.1671 28.805 48.4644 31.1103L51.8103 42.7789L60.4912 40.2897L55.9404 24.4189C53.1762 24.5038 50.9738 22.2458 51.0595 19.4772C51.1556 16.4064 54.1223 14.2636 57.0859 15.0577C60.9979 16.1057 61.8911 21.4913 58.4323 23.6033L58.436 23.6022ZM54.7963 17.7C53.2946 18.4218 53.2462 20.6155 54.6064 21.5156C55.8444 22.3354 57.5998 21.6804 57.9559 20.2356C58.4272 18.325 56.5417 16.8618 54.7982 17.6994L54.7963 17.7ZM44.7929 29.0956C47.3582 30.5176 49.4851 26.5672 46.9225 25.1829C44.3761 23.806 42.2612 27.6923 44.7929 29.0956ZM67.044 18.8348C64.9867 19.819 65.9862 23.3542 68.4131 22.9535C71.8128 22.3912 70.2745 17.2877 67.044 18.8348ZM40.081 48.7973C37.6818 49.6187 36.1925 51.9283 36.393 54.447C40.3997 69.1534 44.6184 83.8657 49.0132 98.4588C50.0452 100.436 52.1289 101.624 54.3578 101.421C69.1323 97.4053 83.9025 93.1416 98.5733 88.7569C100.521 87.7797 101.68 85.6499 101.522 83.4831C97.5509 68.7462 93.2889 54.0099 88.8965 39.3898C87.688 37.051 85.0666 35.906 82.5174 36.5924L40.0786 48.7959L40.081 48.7973ZM21.4104 66.1784C20.3512 65.5944 18.9341 65.9907 18.3619 67.0627C17.5805 68.5263 18.7056 70.4543 20.4073 70.3242C22.6558 70.1547 23.3298 67.2376 21.4104 66.1784ZM108.534 40.5774C106.254 41.7651 107.95 45.782 110.709 44.4529C113.221 43.2432 111.388 39.0918 108.534 40.5774ZM21.1661 81.5315C22.6361 78.8796 18.5432 76.8341 17.2534 79.402C15.9635 81.9698 19.7934 84.0079 21.1661 81.5315ZM116.013 50.4543C115.517 50.6934 115.055 51.38 114.961 51.9125C114.564 54.1375 117.386 55.5384 118.814 53.8125C120.35 51.9565 118.408 49.3004 116.013 50.4543ZM25.8568 88.3275C23.2196 89.4052 24.8379 93.6102 27.6044 92.4408C30.2018 91.3441 28.5316 87.2329 25.8568 88.3275ZM115.282 62.6853C112.573 63.7815 114.151 67.8464 116.852 66.8575C119.553 65.8686 117.91 61.6201 115.282 62.6853ZM69.5709 115.507C68.1702 118.034 72.0173 120.216 73.4503 117.696C74.8833 115.176 70.9929 112.941 69.5709 115.507ZM92.7825 108.236C91.7494 108.702 91.3043 110.027 91.7205 111.062C92.3398 112.601 94.5302 112.885 95.5283 111.564C96.9502 109.682 94.9736 107.246 92.7825 108.236ZM82.8099 115.741C82.3143 115.98 81.852 116.666 81.758 117.199C81.3463 119.501 84.1938 120.813 85.6109 119.099C87.1623 117.224 85.1464 114.616 82.8099 115.741Z" stroke="#E5E7EB" stroke-width="1.4" mask="url(#path-1-outside-1_2064_505)"/>
<path d="M59.9392 55.0551C60.4296 54.8672 60.9965 54.9337 61.4874 55.2817L61.527 55.3099L61.5567 55.3461L81.1601 79.4283L81.2389 79.5226C81.4132 79.7509 81.5189 80.0355 81.5595 80.3145C81.6057 80.6328 81.5726 80.9866 81.4132 81.2819L81.4119 81.2843L81.3156 81.441C80.7944 82.1961 79.7012 82.4619 78.9297 81.8112L78.9043 81.79L78.8838 81.7644L71.1235 72.2172L70.9737 72.1911L59.8545 75.4008L58.3493 87.551L58.3456 87.5805L58.3366 87.6095C58.0864 88.4352 57.406 88.8382 56.7203 88.8105C56.0443 88.7832 55.3833 88.3382 55.1452 87.5514L55.1241 87.4812L55.1325 87.4077L58.914 56.2878L58.9166 56.2647L58.9222 56.2418C59.071 55.6688 59.4507 55.2422 59.9392 55.0551ZM60.3234 71.796L68.7353 69.3839L61.6465 60.6905L60.3234 71.796Z" fill="#E5E7EB" stroke="#E5E7EB" stroke-width="0.7"/>
<path d="M90.4678 77.5074L90.4724 77.5234L90.4763 77.5406C90.586 78.1332 90.4142 78.7151 90.0401 79.1123C89.6595 79.5162 89.0838 79.7121 88.448 79.5475C87.7456 79.3655 87.4667 78.7556 87.3001 78.237C87.2196 77.9863 87.1419 77.6752 87.0754 77.45C87.0017 77.2003 86.9259 76.9948 86.8276 76.8374L86.8016 76.7961L83.2525 64.4189C82.0934 60.3766 80.3688 55.5305 79.5265 51.4179C79.4465 51.0274 79.4062 50.5935 79.5158 50.1937C79.6312 49.7731 79.9056 49.4167 80.3915 49.198L80.4139 49.1875L80.4345 49.1815C81.4126 48.7713 82.3991 49.4375 82.6791 50.331L82.6816 50.3395L90.4678 77.5074Z" fill="#E5E7EB" stroke="#E5E7EB" stroke-width="0.7"/>
</svg>
