<svg width="572" height="316" viewBox="0 0 572 316" fill="none" xmlns="http://www.w3.org/2000/svg">
<circle cx="479" cy="223" r="92.5" stroke="url(#paint0_linear_2302_7781)" stroke-opacity="0.5"/>
<circle cx="98" cy="98" r="98" fill="url(#paint1_radial_2302_7781)" fill-opacity="0.7"/>
<circle cx="286" cy="158" r="81" fill="url(#paint2_radial_2302_7781)"/>
<g filter="url(#filter0_i_2302_7781)">
<circle cx="448" cy="161" r="60" fill="#008B7C"/>
</g>
<g filter="url(#filter1_i_2302_7781)">
<circle cx="286" cy="161" r="60" fill="#008B7C"/>
</g>
<g filter="url(#filter2_i_2302_7781)">
<path d="M184 161C184 194.137 157.137 221 124 221C90.8629 221 64 194.137 64 161C64 127.863 90.8629 101 124 101C157.137 101 184 127.863 184 161Z" fill="#008B7C"/>
</g>
<path d="M153.346 154.701H148.95V165.717H153.346V183.808C153.346 185.113 152.307 186.169 151.019 186.169H96.3268C95.0389 186.169 94 185.113 94 183.808V142.895C94 141.59 95.0389 140.534 96.3268 140.534H151.019C152.307 140.534 153.346 141.59 153.346 142.895V154.701ZM98.6535 145.256V181.447H148.95V145.256H98.6535Z" fill="white"/>
<path d="M147.646 142.663L143.43 143.805L140.803 133.837L103.806 145.102L102.338 140.869L141.593 129.097C142.829 128.728 144.117 129.441 144.486 130.694C144.495 130.712 144.495 130.737 144.503 130.754L147.646 142.663ZM155.673 149.976C156.961 149.976 158 151.032 158 152.337V168.067C158 169.372 156.961 170.428 155.673 170.428H140.159C134.586 170.428 130.07 165.851 130.07 160.202C130.07 154.552 134.586 149.976 140.159 149.976H155.673ZM152.179 154.698H140.159C137.162 154.698 134.732 157.162 134.732 160.202C134.732 163.241 137.162 165.705 140.159 165.705H152.179C152.823 165.705 153.347 165.173 153.347 164.529V155.874C153.347 155.222 152.823 154.698 152.179 154.698Z" fill="white"/>
<path d="M138.379 160.024C138.379 160.65 138.624 161.251 139.06 161.694C139.497 162.137 140.089 162.385 140.706 162.385C141.323 162.385 141.915 162.137 142.351 161.694C142.787 161.251 143.032 160.65 143.032 160.024C143.032 159.398 142.787 158.797 142.351 158.355C141.915 157.912 141.323 157.663 140.706 157.663C140.089 157.663 139.497 157.912 139.06 158.355C138.624 158.797 138.379 159.398 138.379 160.024Z" fill="white"/>
<path d="M254 141L254 181.296L318 181.296L318 141L254 141ZM306.861 145.741C307.208 149.215 309.857 152.007 313.259 152.583L313.259 169.718C309.857 170.292 307.208 173.081 306.861 176.556L293.093 176.556C297.539 173.537 300.546 167.778 300.546 161.148C300.546 154.521 297.542 148.759 293.095 145.741L306.861 145.741ZM288.164 166.076C288.62 165.713 288.847 165.236 288.847 164.648C288.847 164.116 288.688 163.713 288.361 163.428C288.037 163.144 287.488 162.958 286.718 162.882L284.556 162.697C282.949 162.553 281.736 162.127 280.914 161.417C280.088 160.708 279.681 159.671 279.681 158.312C279.681 157.495 279.843 156.787 280.167 156.18C280.491 155.565 280.942 155.058 281.507 154.641C282.079 154.222 282.757 153.914 283.546 153.708C283.894 153.623 284.257 153.562 284.625 153.514L284.625 151.208L287.375 151.208L287.375 153.465C288.16 153.532 288.908 153.655 289.611 153.849C290.688 154.143 292.097 155.331 292.097 155.331C292.218 155.402 292.296 155.525 292.315 155.664C292.329 155.801 292.283 155.944 292.185 156.039L290.806 157.419C290.662 157.564 290.431 157.592 290.25 157.484C290.25 157.484 289.218 156.588 288.435 156.375C287.657 156.164 286.882 156.055 286.107 156.055C285.132 156.055 284.324 156.227 283.685 156.574C283.044 156.921 282.727 157.456 282.727 158.19C282.727 158.717 282.884 159.132 283.199 159.44C283.514 159.743 284.046 159.933 284.799 160.021L287.269 160.231C288.727 160.373 289.857 160.775 290.646 161.447C291.44 162.118 291.836 163.134 291.836 164.495C291.836 165.245 291.683 165.914 291.38 166.505C291.074 167.093 290.66 167.59 290.13 167.998C289.602 168.403 288.986 168.706 288.282 168.912C287.991 168.993 287.685 169.053 287.375 169.104L287.375 171.086L284.625 171.086L284.625 169.139C283.981 169.079 283.373 168.975 282.805 168.819C281.838 168.553 280.824 167.764 280.824 167.764C280.699 167.699 280.611 167.576 280.588 167.433C280.569 167.292 280.616 167.148 280.715 167.046L282.009 165.734C282.144 165.595 282.357 165.563 282.532 165.65C282.532 165.65 283.299 166.194 283.961 166.368C284.62 166.542 285.315 166.625 286.046 166.625C287 166.625 287.708 166.447 288.164 166.076ZM278.905 145.741C274.458 148.759 271.454 154.521 271.454 161.148C271.454 167.778 274.458 173.537 278.908 176.556L265.144 176.556C264.796 173.081 262.144 170.292 258.741 169.718L258.741 152.581C262.144 152.007 264.796 149.215 265.144 145.741L278.905 145.741Z" fill="white"/>
<path d="M303.35 161.148C303.35 162.273 304.262 163.185 305.387 163.185C306.512 163.185 307.424 162.273 307.424 161.148C307.424 160.023 306.512 159.111 305.387 159.111C304.262 159.111 303.35 160.023 303.35 161.148Z" fill="white"/>
<path d="M264.572 161.148C264.572 162.273 265.484 163.185 266.609 163.185C267.734 163.185 268.646 162.273 268.646 161.148C268.646 160.023 267.734 159.111 266.609 159.111C265.484 159.111 264.572 160.023 264.572 161.148Z" fill="white"/>
<path d="M426.418 166.924H432.432C433.456 166.924 434.258 165.969 434.258 164.749C434.258 163.53 433.456 162.628 432.432 162.628H426.418C425.394 162.628 424.592 163.583 424.592 164.802C424.592 166.022 425.438 166.924 426.418 166.924Z" fill="white"/>
<path d="M439.307 166.924H445.32C446.345 166.924 447.147 165.969 447.147 164.749C447.147 163.53 446.345 162.628 445.32 162.628H439.307C438.282 162.628 437.48 163.583 437.48 164.802C437.48 166.022 438.327 166.924 439.307 166.924Z" fill="white"/>
<path d="M451.121 166.924H457.135C458.159 166.924 458.961 165.969 458.961 164.749C458.961 163.53 458.159 162.628 457.135 162.628H451.121C450.097 162.628 449.295 163.583 449.295 164.802C449.295 166.022 450.141 166.924 451.121 166.924Z" fill="white"/>
<path d="M462.934 166.924H468.947C469.972 166.924 470.774 165.969 470.774 164.749C470.774 163.53 469.972 162.628 468.947 162.628H462.934C461.909 162.628 461.107 163.583 461.107 164.802C461.107 166.022 461.954 166.924 462.934 166.924Z" fill="white"/>
<path d="M477.742 139H418.313C417.046 139 416.055 139.991 416.055 141.258V155.303C416 155.468 416 155.633 416 155.799C416 155.964 416 156.129 416.055 156.294V181.299C416.055 182.566 417.046 183.558 418.313 183.558H477.742C479.009 183.558 480 182.566 480 181.299V141.258C480 140.046 479.009 139 477.742 139ZM475.484 179.096H420.571V158.057H475.484V179.096ZM475.484 153.596H420.571V143.516H475.484V153.596Z" fill="white"/>
<rect x="189" y="155" width="32" height="12" rx="6" fill="#008B7C" fill-opacity="0.7"/>
<rect x="351" y="156" width="32" height="12" rx="6" fill="#008B7C" fill-opacity="0.7"/>
<path fill-rule="evenodd" clip-rule="evenodd" d="M314.431 190.001C315.057 190.506 315.701 190.99 316.307 191.519C329.059 202.653 341.806 213.791 354.554 224.929C354.65 225.012 354.746 225.093 354.838 225.178C355.312 225.619 355.46 226.089 355.257 226.57C355.035 227.1 354.595 227.299 354.05 227.31C352.091 227.351 350.133 227.389 348.175 227.431C343 227.541 337.825 227.646 332.65 227.779C332.424 227.785 332.136 227.996 331.992 228.195C328.073 233.607 324.17 239.032 320.259 244.45C320.103 244.666 319.93 244.891 319.715 245.037C318.998 245.521 318.086 245.055 317.981 244.137C317.821 242.728 317.698 241.314 317.564 239.901C317.213 236.199 316.863 232.497 316.517 228.795C316.177 225.164 315.844 221.534 315.502 217.903C315.124 213.88 314.737 209.856 314.358 205.833C314.017 202.202 313.683 198.571 313.344 194.941C313.241 193.832 313.156 192.72 313.019 191.616C312.929 190.893 313.148 190.359 313.783 190C313.999 190.001 314.215 190.001 314.431 190.001ZM351.043 225.136C351.053 225.072 351.063 225.008 351.072 224.944C339.279 214.641 327.486 204.337 315.692 194.034C315.652 194.051 315.613 194.068 315.573 194.087C317.035 209.64 318.497 225.192 319.974 240.904C320.182 240.623 320.296 240.471 320.407 240.317C323.788 235.625 327.174 230.936 330.544 226.234C330.913 225.72 331.344 225.486 331.984 225.474C337.428 225.375 342.871 225.249 348.315 225.139C349.225 225.12 350.134 225.136 351.043 225.136Z" fill="#1B1B1B"/>
<path fill-rule="evenodd" clip-rule="evenodd" d="M351.044 225.135C350.135 225.135 349.226 225.119 348.316 225.138C342.873 225.249 337.43 225.374 331.985 225.474C331.345 225.485 330.915 225.719 330.546 226.234C327.176 230.935 323.79 235.624 320.408 240.316C320.298 240.47 320.183 240.622 319.975 240.904C318.499 225.192 317.036 209.639 315.574 194.086C315.614 194.068 315.654 194.051 315.694 194.033C327.487 204.336 339.281 214.64 351.074 224.944C351.063 225.008 351.054 225.072 351.044 225.135Z" fill="white"/>
<defs>
<filter id="filter0_i_2302_7781" x="388" y="101" width="124" height="124" filterUnits="userSpaceOnUse" color-interpolation-filters="sRGB">
<feFlood flood-opacity="0" result="BackgroundImageFix"/>
<feBlend mode="normal" in="SourceGraphic" in2="BackgroundImageFix" result="shape"/>
<feColorMatrix in="SourceAlpha" type="matrix" values="0 0 0 0 0 0 0 0 0 0 0 0 0 0 0 0 0 0 127 0" result="hardAlpha"/>
<feOffset dx="4" dy="4"/>
<feGaussianBlur stdDeviation="2"/>
<feComposite in2="hardAlpha" operator="arithmetic" k2="-1" k3="1"/>
<feColorMatrix type="matrix" values="0 0 0 0 0 0 0 0 0 0 0 0 0 0 0 0 0 0 0.35 0"/>
<feBlend mode="normal" in2="shape" result="effect1_innerShadow_2302_7781"/>
</filter>
<filter id="filter1_i_2302_7781" x="226" y="101" width="124" height="124" filterUnits="userSpaceOnUse" color-interpolation-filters="sRGB">
<feFlood flood-opacity="0" result="BackgroundImageFix"/>
<feBlend mode="normal" in="SourceGraphic" in2="BackgroundImageFix" result="shape"/>
<feColorMatrix in="SourceAlpha" type="matrix" values="0 0 0 0 0 0 0 0 0 0 0 0 0 0 0 0 0 0 127 0" result="hardAlpha"/>
<feOffset dx="4" dy="4"/>
<feGaussianBlur stdDeviation="2"/>
<feComposite in2="hardAlpha" operator="arithmetic" k2="-1" k3="1"/>
<feColorMatrix type="matrix" values="0 0 0 0 0 0 0 0 0 0 0 0 0 0 0 0 0 0 0.35 0"/>
<feBlend mode="normal" in2="shape" result="effect1_innerShadow_2302_7781"/>
</filter>
<filter id="filter2_i_2302_7781" x="64" y="101" width="124" height="124" filterUnits="userSpaceOnUse" color-interpolation-filters="sRGB">
<feFlood flood-opacity="0" result="BackgroundImageFix"/>
<feBlend mode="normal" in="SourceGraphic" in2="BackgroundImageFix" result="shape"/>
<feColorMatrix in="SourceAlpha" type="matrix" values="0 0 0 0 0 0 0 0 0 0 0 0 0 0 0 0 0 0 127 0" result="hardAlpha"/>
<feOffset dx="4" dy="4"/>
<feGaussianBlur stdDeviation="2"/>
<feComposite in2="hardAlpha" operator="arithmetic" k2="-1" k3="1"/>
<feColorMatrix type="matrix" values="0 0 0 0 0 0 0 0 0 0 0 0 0 0 0 0 0 0 0.35 0"/>
<feBlend mode="normal" in2="shape" result="effect1_innerShadow_2302_7781"/>
</filter>
<linearGradient id="paint0_linear_2302_7781" x1="479" y1="130" x2="479" y2="316" gradientUnits="userSpaceOnUse">
<stop stop-color="#008B7C"/>
<stop offset="1" stop-color="#D8ECEA"/>
</linearGradient>
<radialGradient id="paint1_radial_2302_7781" cx="0" cy="0" r="1" gradientUnits="userSpaceOnUse" gradientTransform="translate(98 98) rotate(90) scale(98)">
<stop stop-color="#008B7C" stop-opacity="0.6"/>
<stop offset="1" stop-color="#008B7C" stop-opacity="0"/>
</radialGradient>
<radialGradient id="paint2_radial_2302_7781" cx="0" cy="0" r="1" gradientUnits="userSpaceOnUse" gradientTransform="translate(286 158) rotate(90) scale(81)">
<stop stop-color="#008B7C"/>
<stop offset="0.966346" stop-color="#008B7C" stop-opacity="0"/>
</radialGradient>
</defs>
</svg>
