<svg width="577" height="317" viewBox="0 0 577 317" fill="none" xmlns="http://www.w3.org/2000/svg">
<circle cx="125" cy="158.255" r="125" fill="url(#paint0_radial_2302_7084)" fill-opacity="0.7"/>
<circle cx="423" cy="158.255" r="148.5" stroke="url(#paint1_linear_2302_7084)" stroke-opacity="0.5"/>
<path d="M31.1654 96.2196L26.522 95.504C19.0284 94.351 13.4961 87.902 13.4961 80.3192V65.5069C13.4961 57.9241 19.0284 51.475 26.522 50.322L31.1654 49.6064V96.2179V96.2196Z" fill="url(#paint2_linear_2302_7084)"/>
<path d="M199.127 96.2196L203.77 95.504C211.264 94.351 216.796 87.902 216.796 80.3192V65.5069C216.796 57.9241 211.264 51.475 203.77 50.322L199.127 49.6064V96.2179V96.2196Z" fill="url(#paint3_linear_2302_7084)"/>
<path d="M61.5149 157.614C61.004 164.6 56.0299 165.141 50.4608 178.391C43.3452 195.322 41.5973 211.766 37.7779 229.856C33.0155 252.426 19.6607 254.03 13.67 252.8C2.87312 250.582 -2.10103 237.669 0.82782 223.786C11.6422 172.556 32.1336 148.324 51.9253 148.511C55.6117 148.546 62.0118 150.808 61.5132 157.614H61.5149Z" fill="url(#paint4_linear_2302_7084)"/>
<path d="M168.778 157.614C169.289 164.6 174.263 165.141 179.832 178.391C186.947 195.322 188.695 211.766 192.515 229.856C197.277 252.426 210.632 254.03 216.623 252.8C227.419 250.582 232.394 237.669 229.465 223.786C218.65 172.556 198.159 148.324 178.367 148.511C174.681 148.546 168.281 150.808 168.779 157.614H168.778Z" fill="url(#paint5_linear_2302_7084)"/>
<path d="M187.568 176.343C187.568 188.833 186.408 200.271 184.253 210.604C184.036 211.657 183.807 212.7 183.565 213.73C173.72 256.022 146.806 278.921 115.148 278.921C83.491 278.921 56.5767 256.022 46.7316 213.73C46.4902 212.7 46.2592 211.657 46.044 210.604C43.8885 200.271 42.7285 188.833 42.7285 176.343C42.7285 148.556 71.7896 130.748 115.148 130.748C158.507 130.748 187.568 148.556 187.568 176.343Z" fill="url(#paint6_linear_2302_7084)"/>
<path d="M184.252 210.604C184.035 211.658 183.806 212.701 183.565 213.731C175.121 216.663 162.445 220.602 150.053 222.696V230.842L148.994 231.084C148.842 231.119 133.473 234.578 115.15 234.578C96.8259 234.578 81.4573 231.119 81.3051 231.084L80.2466 230.842V222.696C67.8541 220.602 55.1781 216.663 46.7345 213.731C46.493 212.701 46.2621 211.658 46.0469 210.604C54.5622 213.621 68.4542 218.058 81.8247 220.194L82.9725 220.378V228.654C86.7114 229.415 99.8825 231.855 115.153 231.855C130.424 231.855 143.598 229.416 147.334 228.654V220.378L148.481 220.194C161.852 218.058 175.744 213.621 184.259 210.604H184.252Z" fill="#008B7C"/>
<path d="M85.6853 122.13V139.532C85.6853 148.757 98.8757 156.237 115.145 156.237C131.415 156.237 144.605 148.757 144.605 139.532V122.13H85.6836H85.6853Z" fill="url(#paint7_linear_2302_7084)"/>
<path d="M146.363 22.528C146.363 34.9695 132.387 45.056 115.148 45.056C97.9095 45.056 83.9336 34.9695 83.9336 22.528C83.9336 10.0865 83.9318 0 115.148 0C146.365 0 146.363 10.0865 146.363 22.528Z" fill="url(#paint8_linear_2302_7084)"/>
<path d="M28.0508 95.5907C28.0508 106.221 33.87 116.003 43.2217 121.062C55.1085 127.49 76.2334 133.449 113.708 133.449C151.183 133.449 172.31 127.49 184.195 121.062C193.547 116.003 199.366 106.221 199.366 95.5907V48.9792C199.366 38.3486 193.547 28.5665 184.195 23.5084C172.308 17.0803 151.183 11.1211 113.708 11.1211C76.2334 11.1211 55.1068 17.0803 43.2217 23.5084C33.87 28.5665 28.0508 38.3486 28.0508 48.9792V95.5907Z" fill="url(#paint9_linear_2302_7084)"/>
<path d="M115.147 125.013C77.7143 125.013 58.5001 118.87 48.9717 113.718C42.5453 110.243 38.5527 103.537 38.5527 96.2197V60.4594C38.5527 53.1425 42.5453 46.438 48.9717 42.9615C58.5001 37.8089 77.7143 31.666 115.147 31.666C152.58 31.666 171.795 37.8089 181.323 42.9615C187.749 46.4363 191.742 53.1425 191.742 60.4594V96.2197C191.742 103.537 187.749 110.241 181.323 113.718C171.795 118.87 152.58 125.013 115.147 125.013Z" fill="url(#paint10_radial_2302_7084)"/>
<path d="M90.3791 79.0558C90.3791 85.4856 85.1653 82.2856 78.7355 82.2856C72.3056 82.2856 67.0918 85.4856 67.0918 79.0558C67.0918 72.626 72.3056 67.4121 78.7355 67.4121C85.1653 67.4121 90.3791 72.626 90.3791 79.0558Z" fill="white"/>
<path d="M124.468 98.3277C124.468 100.901 123.426 103.23 121.737 104.919C120.051 106.605 117.72 107.65 115.146 107.65C109.999 107.65 105.826 103.477 105.826 98.3295C105.826 97.9621 105.975 97.6297 106.216 97.3882C106.458 97.1468 106.792 96.998 107.158 96.998H123.137C123.872 96.998 124.468 97.5947 124.468 98.3295V98.3277Z" fill="white"/>
<path d="M163.071 79.0558C163.071 85.4856 157.857 82.2856 151.427 82.2856C144.997 82.2856 139.783 85.4856 139.783 79.0558C139.783 72.626 144.997 67.4121 151.427 67.4121C157.857 67.4121 163.071 72.626 163.071 79.0558Z" fill="white"/>
<path opacity="0.04" d="M187.568 176.343C187.568 188.834 186.408 200.271 184.254 210.604C184.037 211.657 183.806 212.7 183.566 213.731C173.721 256.022 146.807 278.921 115.149 278.921C100.339 278.921 86.5677 273.909 75.0938 264.244C86.0726 266.805 97.7285 265.831 108.55 262.608C134.584 254.855 156.183 233.589 164.343 207.682C171.742 184.19 167.897 157.495 154.523 136.861C175.184 144.318 187.569 158.205 187.569 176.345L187.568 176.343Z" fill="#383838"/>
<path opacity="0.49" d="M81.6934 158.622C80.2955 161.67 77.4051 163.697 74.8507 165.867C66.8287 172.685 61.1932 182.259 59.1287 192.584C58.7088 194.687 57.547 197.468 55.458 196.977C54.1983 196.681 53.5894 195.276 53.2255 194.034C50.3001 184.023 51.4199 172.892 56.2786 163.662C59.8513 156.877 65.415 151.177 72.0513 147.344C74.709 145.808 78.098 146.284 80.1555 148.562C80.1695 148.576 80.1818 148.591 80.1958 148.605C82.57 151.273 83.1841 155.375 81.6952 158.622H81.6934Z" fill="white"/>
<path opacity="0.49" d="M67.5302 30.053C50.1548 34.1068 41.1023 41.7054 36.6758 47.033C35.5648 48.3714 33.4005 47.2814 33.8274 45.5948C36.1019 36.6438 42.1941 31.0065 48.33 27.5528C53.6541 24.5539 59.5205 22.7676 65.4972 21.3714C67.6877 20.8588 69.9132 22.08 70.6638 24.2023C70.6743 24.2303 70.683 24.26 70.6935 24.288C71.5701 26.769 70.0917 29.4581 67.5302 30.0547V30.053Z" fill="white"/>
<path opacity="0.24" d="M115.147 316.255C138.048 316.255 156.613 312.113 156.613 307.003C156.613 301.893 138.048 297.751 115.147 297.751C92.2465 297.751 73.6816 301.893 73.6816 307.003C73.6816 312.113 92.2465 316.255 115.147 316.255Z" fill="url(#paint11_radial_2302_7084)"/>
<g filter="url(#filter0_d_2302_7084)">
<rect x="99.5" y="158.755" width="472" height="94" rx="10.5" fill="#F5F5F5" stroke="#008B7C"/>
<path d="M222.029 180.929L220.819 181.144C220.768 180.989 220.688 180.842 220.578 180.702C220.471 180.562 220.325 180.447 220.14 180.358C219.956 180.269 219.725 180.224 219.449 180.224C219.071 180.224 218.755 180.309 218.502 180.479C218.249 180.645 218.123 180.861 218.123 181.126C218.123 181.355 218.207 181.54 218.377 181.679C218.547 181.819 218.821 181.934 219.199 182.023L220.288 182.273C220.919 182.419 221.389 182.644 221.699 182.947C222.008 183.251 222.163 183.645 222.163 184.13C222.163 184.541 222.044 184.907 221.806 185.229C221.571 185.547 221.242 185.797 220.819 185.979C220.399 186.16 219.913 186.251 219.359 186.251C218.591 186.251 217.965 186.087 217.48 185.76C216.995 185.429 216.697 184.961 216.587 184.354L217.877 184.157C217.957 184.493 218.123 184.748 218.373 184.92C218.623 185.09 218.949 185.175 219.35 185.175C219.788 185.175 220.138 185.084 220.399 184.903C220.661 184.718 220.792 184.493 220.792 184.229C220.792 184.014 220.712 183.834 220.551 183.688C220.393 183.543 220.151 183.432 219.824 183.358L218.663 183.104C218.023 182.958 217.55 182.726 217.243 182.407C216.94 182.089 216.788 181.685 216.788 181.197C216.788 180.793 216.901 180.438 217.127 180.135C217.353 179.831 217.666 179.595 218.065 179.425C218.463 179.252 218.92 179.166 219.435 179.166C220.176 179.166 220.76 179.327 221.185 179.648C221.611 179.967 221.892 180.394 222.029 180.929Z" fill="#505050"/>
<path d="M215.29 180.929L214.08 181.144C214.029 180.989 213.949 180.842 213.839 180.702C213.732 180.562 213.586 180.447 213.401 180.358C213.217 180.269 212.986 180.224 212.709 180.224C212.331 180.224 212.016 180.309 211.763 180.479C211.51 180.645 211.383 180.861 211.383 181.126C211.383 181.355 211.468 181.54 211.638 181.679C211.807 181.819 212.081 181.934 212.459 182.023L213.549 182.273C214.179 182.419 214.65 182.644 214.959 182.947C215.269 183.251 215.424 183.645 215.424 184.13C215.424 184.541 215.304 184.907 215.066 185.229C214.831 185.547 214.502 185.797 214.08 185.979C213.66 186.16 213.174 186.251 212.62 186.251C211.852 186.251 211.226 186.087 210.741 185.76C210.255 185.429 209.958 184.961 209.848 184.354L211.138 184.157C211.218 184.493 211.383 184.748 211.633 184.92C211.883 185.09 212.209 185.175 212.611 185.175C213.049 185.175 213.398 185.084 213.66 184.903C213.922 184.718 214.053 184.493 214.053 184.229C214.053 184.014 213.973 183.834 213.812 183.688C213.654 183.543 213.412 183.432 213.084 183.358L211.924 183.104C211.284 182.958 210.81 182.726 210.504 182.407C210.2 182.089 210.049 181.685 210.049 181.197C210.049 180.793 210.162 180.438 210.388 180.135C210.614 179.831 210.927 179.595 211.325 179.425C211.724 179.252 212.181 179.166 212.696 179.166C213.437 179.166 214.02 179.327 214.446 179.648C214.871 179.967 215.153 180.394 215.29 180.929Z" fill="#505050"/>
<path d="M205.728 186.251C205.053 186.251 204.471 186.106 203.983 185.818C203.498 185.526 203.123 185.117 202.858 184.59C202.596 184.06 202.465 183.44 202.465 182.729C202.465 182.026 202.596 181.407 202.858 180.871C203.123 180.336 203.492 179.918 203.965 179.617C204.441 179.316 204.998 179.166 205.634 179.166C206.021 179.166 206.396 179.23 206.759 179.358C207.123 179.486 207.448 179.687 207.737 179.961C208.026 180.234 208.254 180.59 208.42 181.028C208.587 181.462 208.67 181.99 208.67 182.612V183.086H203.219V182.086H207.362C207.362 181.734 207.291 181.423 207.148 181.153C207.005 180.879 206.804 180.663 206.545 180.505C206.289 180.348 205.989 180.269 205.643 180.269C205.268 180.269 204.941 180.361 204.661 180.545C204.384 180.727 204.17 180.965 204.018 181.26C203.87 181.551 203.795 181.868 203.795 182.211V182.992C203.795 183.45 203.876 183.84 204.036 184.162C204.2 184.483 204.428 184.729 204.719 184.898C205.011 185.065 205.352 185.148 205.742 185.148C205.995 185.148 206.225 185.112 206.434 185.041C206.642 184.967 206.822 184.856 206.974 184.711C207.126 184.565 207.242 184.385 207.322 184.17L208.585 184.398C208.484 184.77 208.303 185.096 208.041 185.376C207.782 185.653 207.456 185.868 207.063 186.023C206.673 186.175 206.228 186.251 205.728 186.251Z" fill="#505050"/>
<path d="M198.193 186.112V179.255H199.484V180.344H199.555C199.68 179.975 199.9 179.685 200.216 179.474C200.534 179.259 200.894 179.152 201.296 179.152C201.379 179.152 201.478 179.155 201.591 179.161C201.707 179.167 201.798 179.175 201.863 179.184V180.46C201.809 180.445 201.714 180.429 201.577 180.411C201.44 180.39 201.303 180.38 201.167 180.38C200.851 180.38 200.57 180.447 200.323 180.581C200.079 180.712 199.885 180.895 199.742 181.13C199.6 181.362 199.528 181.627 199.528 181.925V186.112H198.193Z" fill="#505050"/>
<path d="M193.31 188.827C192.765 188.827 192.296 188.755 191.904 188.612C191.514 188.47 191.195 188.281 190.948 188.045C190.701 187.81 190.517 187.553 190.395 187.273L191.542 186.8C191.622 186.931 191.729 187.069 191.863 187.215C192 187.364 192.185 187.49 192.417 187.595C192.652 187.699 192.954 187.751 193.323 187.751C193.829 187.751 194.247 187.627 194.578 187.38C194.908 187.136 195.073 186.746 195.073 186.211V184.862H194.988C194.908 185.008 194.792 185.17 194.64 185.349C194.491 185.528 194.286 185.682 194.024 185.813C193.762 185.944 193.421 186.01 193.002 186.01C192.46 186.01 191.972 185.883 191.538 185.63C191.106 185.374 190.764 184.998 190.511 184.501C190.261 184.001 190.136 183.386 190.136 182.657C190.136 181.928 190.259 181.303 190.506 180.782C190.756 180.261 191.099 179.862 191.533 179.586C191.968 179.306 192.46 179.166 193.011 179.166C193.436 179.166 193.78 179.237 194.042 179.38C194.304 179.52 194.508 179.684 194.654 179.871C194.802 180.059 194.917 180.224 194.997 180.367H195.096V179.255H196.404V186.264C196.404 186.854 196.267 187.337 195.993 187.715C195.719 188.093 195.349 188.373 194.881 188.554C194.417 188.736 193.893 188.827 193.31 188.827ZM193.296 184.903C193.68 184.903 194.005 184.813 194.27 184.635C194.538 184.453 194.74 184.194 194.877 183.858C195.017 183.519 195.087 183.112 195.087 182.639C195.087 182.178 195.018 181.772 194.881 181.42C194.744 181.069 194.543 180.795 194.279 180.599C194.014 180.4 193.686 180.3 193.296 180.3C192.895 180.3 192.56 180.404 192.292 180.612C192.024 180.818 191.822 181.098 191.685 181.452C191.551 181.806 191.484 182.202 191.484 182.639C191.484 183.089 191.552 183.483 191.689 183.822C191.826 184.162 192.029 184.426 192.296 184.617C192.567 184.807 192.901 184.903 193.296 184.903Z" fill="#505050"/>
<path d="M185.748 186.251C185.105 186.251 184.544 186.104 184.065 185.809C183.586 185.514 183.214 185.102 182.949 184.572C182.684 184.043 182.552 183.423 182.552 182.715C182.552 182.004 182.684 181.382 182.949 180.849C183.214 180.316 183.586 179.903 184.065 179.608C184.544 179.313 185.105 179.166 185.748 179.166C186.391 179.166 186.952 179.313 187.431 179.608C187.91 179.903 188.282 180.316 188.547 180.849C188.812 181.382 188.945 182.004 188.945 182.715C188.945 183.423 188.812 184.043 188.547 184.572C188.282 185.102 187.91 185.514 187.431 185.809C186.952 186.104 186.391 186.251 185.748 186.251ZM185.753 185.13C186.169 185.13 186.515 185.02 186.788 184.8C187.062 184.58 187.265 184.287 187.396 183.92C187.529 183.554 187.596 183.151 187.596 182.711C187.596 182.273 187.529 181.871 187.396 181.505C187.265 181.136 187.062 180.84 186.788 180.617C186.515 180.394 186.169 180.282 185.753 180.282C185.333 180.282 184.985 180.394 184.708 180.617C184.434 180.84 184.23 181.136 184.096 181.505C183.965 181.871 183.9 182.273 183.9 182.711C183.9 183.151 183.965 183.554 184.096 183.92C184.23 184.287 184.434 184.58 184.708 184.8C184.985 185.02 185.333 185.13 185.753 185.13Z" fill="#505050"/>
<path d="M178.28 186.112V179.255H179.57V180.344H179.642C179.767 179.975 179.987 179.685 180.303 179.474C180.621 179.259 180.981 179.152 181.383 179.152C181.466 179.152 181.565 179.155 181.678 179.161C181.794 179.167 181.884 179.175 181.95 179.184V180.46C181.896 180.445 181.801 180.429 181.664 180.411C181.527 180.39 181.39 180.38 181.253 180.38C180.938 180.38 180.657 180.447 180.41 180.581C180.166 180.712 179.972 180.895 179.829 181.13C179.687 181.362 179.615 181.627 179.615 181.925V186.112H178.28Z" fill="#505050"/>
<path d="M170.347 186.113V176.97H173.606C174.317 176.97 174.906 177.099 175.373 177.358C175.841 177.617 176.19 177.971 176.423 178.421C176.655 178.867 176.771 179.37 176.771 179.93C176.771 180.492 176.653 180.998 176.418 181.447C176.186 181.894 175.835 182.248 175.365 182.51C174.897 182.769 174.309 182.898 173.601 182.898H171.36V181.729H173.476C173.926 181.729 174.29 181.651 174.57 181.497C174.85 181.339 175.055 181.124 175.186 180.854C175.317 180.583 175.382 180.275 175.382 179.93C175.382 179.584 175.317 179.278 175.186 179.01C175.055 178.742 174.848 178.532 174.565 178.38C174.286 178.229 173.917 178.153 173.458 178.153H171.726V186.113H170.347Z" fill="#505050"/>
<path d="M160.733 182.041V186.112H159.398V179.255H160.68V180.371H160.765C160.922 180.008 161.169 179.717 161.506 179.496C161.845 179.276 162.272 179.166 162.787 179.166C163.254 179.166 163.663 179.264 164.015 179.461C164.366 179.654 164.638 179.943 164.831 180.327C165.025 180.711 165.122 181.185 165.122 181.751V186.112H163.787V181.912C163.787 181.415 163.657 181.026 163.398 180.746C163.14 180.464 162.784 180.322 162.331 180.322C162.022 180.322 161.747 180.389 161.506 180.523C161.267 180.657 161.078 180.854 160.939 181.112C160.802 181.368 160.733 181.678 160.733 182.041Z" fill="#505050"/>
<path d="M156.268 186.112V179.255H157.603V186.112H156.268ZM156.942 178.197C156.71 178.197 156.511 178.12 156.344 177.965C156.18 177.807 156.099 177.62 156.099 177.403C156.099 177.182 156.18 176.995 156.344 176.84C156.511 176.682 156.71 176.604 156.942 176.604C157.175 176.604 157.372 176.682 157.536 176.84C157.703 176.995 157.786 177.182 157.786 177.403C157.786 177.62 157.703 177.807 157.536 177.965C157.372 178.12 157.175 178.197 156.942 178.197Z" fill="#505050"/>
<path d="M151.145 176.97V186.113H149.811V176.97H151.145Z" fill="#505050"/>
<path d="M148.015 176.97V186.113H146.68V176.97H148.015Z" fill="#505050"/>
<path d="M141.518 186.264C141.084 186.264 140.691 186.184 140.34 186.023C139.988 185.859 139.71 185.623 139.505 185.313C139.302 185.004 139.201 184.624 139.201 184.175C139.201 183.788 139.276 183.47 139.424 183.22C139.573 182.97 139.774 182.772 140.027 182.626C140.28 182.48 140.563 182.37 140.875 182.295C141.188 182.221 141.506 182.165 141.831 182.126C142.241 182.078 142.575 182.04 142.831 182.01C143.087 181.977 143.273 181.925 143.389 181.854C143.505 181.782 143.563 181.666 143.563 181.505V181.474C143.563 181.084 143.453 180.782 143.232 180.568C143.015 180.354 142.691 180.246 142.259 180.246C141.81 180.246 141.456 180.346 141.197 180.545C140.941 180.742 140.764 180.961 140.665 181.202L139.411 180.916C139.56 180.499 139.777 180.163 140.063 179.907C140.351 179.648 140.683 179.461 141.058 179.345C141.433 179.226 141.828 179.166 142.241 179.166C142.515 179.166 142.805 179.199 143.112 179.264C143.421 179.327 143.71 179.443 143.978 179.612C144.249 179.782 144.471 180.025 144.643 180.34C144.816 180.653 144.902 181.059 144.902 181.559V186.112H143.598V185.175H143.545C143.459 185.348 143.329 185.517 143.157 185.684C142.984 185.851 142.762 185.989 142.491 186.099C142.221 186.209 141.896 186.264 141.518 186.264ZM141.808 185.193C142.177 185.193 142.493 185.12 142.755 184.974C143.02 184.828 143.221 184.638 143.357 184.403C143.497 184.165 143.567 183.91 143.567 183.639V182.755C143.52 182.803 143.427 182.848 143.29 182.889C143.157 182.928 143.003 182.962 142.831 182.992C142.658 183.019 142.49 183.044 142.326 183.068C142.162 183.089 142.026 183.106 141.915 183.121C141.657 183.154 141.42 183.209 141.206 183.287C140.994 183.364 140.825 183.476 140.697 183.621C140.572 183.764 140.509 183.955 140.509 184.193C140.509 184.523 140.631 184.773 140.875 184.943C141.119 185.109 141.43 185.193 141.808 185.193Z" fill="#505050"/>
<path d="M137.979 179.943H136.586C136.533 179.645 136.433 179.383 136.287 179.157C136.141 178.931 135.963 178.739 135.752 178.581C135.54 178.424 135.304 178.305 135.042 178.224C134.783 178.144 134.507 178.104 134.216 178.104C133.689 178.104 133.217 178.236 132.801 178.501C132.387 178.766 132.06 179.154 131.818 179.666C131.58 180.178 131.461 180.803 131.461 181.541C131.461 182.285 131.58 182.913 131.818 183.425C132.06 183.937 132.388 184.324 132.805 184.586C133.222 184.848 133.691 184.979 134.211 184.979C134.5 184.979 134.774 184.94 135.033 184.863C135.295 184.782 135.531 184.665 135.743 184.51C135.954 184.355 136.132 184.166 136.278 183.943C136.427 183.717 136.53 183.458 136.586 183.166L137.979 183.171C137.905 183.62 137.76 184.034 137.546 184.412C137.335 184.787 137.063 185.111 136.729 185.385C136.399 185.656 136.021 185.866 135.595 186.014C135.17 186.163 134.705 186.238 134.202 186.238C133.411 186.238 132.705 186.05 132.086 185.675C131.467 185.297 130.979 184.757 130.622 184.055C130.268 183.352 130.091 182.514 130.091 181.541C130.091 180.565 130.269 179.727 130.627 179.028C130.984 178.325 131.472 177.787 132.091 177.412C132.71 177.034 133.414 176.845 134.202 176.845C134.688 176.845 135.14 176.915 135.56 177.055C135.982 177.191 136.362 177.394 136.698 177.662C137.034 177.927 137.313 178.251 137.533 178.635C137.753 179.016 137.902 179.452 137.979 179.943Z" fill="#505050"/>
<path d="M549.702 186.112L553.693 178.219V178.152H549.077V176.969H555.122V178.192L551.144 186.112H549.702Z" fill="#808080"/>
<path d="M544.708 186.263C544.003 186.26 543.4 186.074 542.9 185.705C542.4 185.336 542.018 184.799 541.753 184.094C541.488 183.388 541.355 182.539 541.355 181.545C541.355 180.554 541.488 179.707 541.753 179.004C542.021 178.302 542.405 177.766 542.905 177.397C543.408 177.028 544.009 176.844 544.708 176.844C545.408 176.844 546.007 177.03 546.507 177.402C547.007 177.771 547.39 178.307 547.655 179.009C547.922 179.708 548.056 180.554 548.056 181.545C548.056 182.542 547.924 183.393 547.659 184.098C547.394 184.801 547.012 185.338 546.512 185.71C546.012 186.079 545.411 186.263 544.708 186.263ZM544.708 185.071C545.327 185.071 545.811 184.769 546.159 184.165C546.51 183.561 546.686 182.687 546.686 181.545C546.686 180.786 546.605 180.144 546.445 179.621C546.287 179.094 546.059 178.695 545.762 178.424C545.467 178.15 545.116 178.013 544.708 178.013C544.092 178.013 543.608 178.317 543.257 178.924C542.906 179.531 542.729 180.405 542.726 181.545C542.726 182.307 542.805 182.951 542.963 183.478C543.123 184.001 543.351 184.399 543.646 184.67C543.94 184.937 544.294 185.071 544.708 185.071Z" fill="#808080"/>
<path d="M538.862 184.978C538.618 184.978 538.408 184.892 538.232 184.719C538.057 184.543 537.969 184.332 537.969 184.085C537.969 183.841 538.057 183.633 538.232 183.46C538.408 183.284 538.618 183.197 538.862 183.197C539.106 183.197 539.315 183.284 539.491 183.46C539.667 183.633 539.754 183.841 539.754 184.085C539.754 184.249 539.713 184.399 539.629 184.536C539.549 184.67 539.442 184.777 539.308 184.857C539.174 184.938 539.025 184.978 538.862 184.978ZM538.862 180.397C538.618 180.397 538.408 180.311 538.232 180.139C538.057 179.963 537.969 179.752 537.969 179.505C537.969 179.261 538.057 179.052 538.232 178.88C538.408 178.704 538.618 178.616 538.862 178.616C539.106 178.616 539.315 178.704 539.491 178.88C539.667 179.052 539.754 179.261 539.754 179.505C539.754 179.668 539.713 179.819 539.629 179.955C539.549 180.089 539.442 180.197 539.308 180.277C539.174 180.357 539.025 180.397 538.862 180.397Z" fill="#808080"/>
<path d="M535.491 176.969V186.112H534.107V178.353H534.054L531.866 179.781V178.46L534.147 176.969H535.491Z" fill="#808080"/>
<path d="M121.524 181.922C121.524 183.368 120.352 184.541 118.905 184.541C117.459 184.541 116.286 183.368 116.286 181.922C116.286 180.475 117.459 179.303 118.905 179.303C120.352 179.303 121.524 180.475 121.524 181.922Z" fill="#02BF21"/>
<g filter="url(#filter1_f_2302_7084)">
<path d="M123.096 181.922C123.096 184.236 121.22 186.112 118.905 186.112C116.591 186.112 114.715 184.236 114.715 181.922C114.715 179.608 116.591 177.731 118.905 177.731C121.22 177.731 123.096 179.608 123.096 181.922Z" fill="#02BF21" fill-opacity="0.4"/>
</g>
<path d="M116.81 214.397C116.81 213.819 117.279 213.35 117.857 213.35C118.436 213.35 118.905 213.819 118.905 214.397V226.445C118.905 227.023 118.436 227.492 117.857 227.492C117.279 227.492 116.81 227.023 116.81 226.445V214.397Z" fill="#008B7C" fill-opacity="0.4"/>
<path d="M121.524 208.897C121.524 208.174 122.111 207.588 122.834 207.588C123.557 207.588 124.143 208.174 124.143 208.897V231.421C124.143 232.144 123.557 232.731 122.834 232.731C122.111 232.731 121.524 232.144 121.524 231.421V208.897Z" fill="#008B7C" fill-opacity="0.4"/>
<path d="M126.762 204.445C126.762 203.866 127.231 203.397 127.809 203.397C128.388 203.397 128.857 203.866 128.857 204.445V236.397C128.857 236.976 128.388 237.445 127.809 237.445C127.231 237.445 126.762 236.976 126.762 236.397V204.445Z" fill="#008B7C" fill-opacity="0.4"/>
<path d="M131.477 210.731C131.477 210.153 131.946 209.684 132.524 209.684C133.103 209.684 133.572 210.153 133.572 210.731V229.588C133.572 230.167 133.103 230.636 132.524 230.636C131.946 230.636 131.477 230.167 131.477 229.588V210.731Z" fill="#008B7C" fill-opacity="0.4"/>
<path d="M136.191 217.541C136.191 216.962 136.66 216.493 137.239 216.493C137.818 216.493 138.287 216.962 138.287 217.541V223.303C138.287 223.881 137.818 224.35 137.239 224.35C136.66 224.35 136.191 223.881 136.191 223.303V217.541Z" fill="#008B7C" fill-opacity="0.4"/>
<path d="M140.905 219.636C140.905 219.057 141.374 218.588 141.953 218.588C142.531 218.588 143.001 219.057 143.001 219.636V221.207C143.001 221.786 142.531 222.255 141.953 222.255C141.374 222.255 140.905 221.786 140.905 221.207V219.636Z" fill="#008B7C" fill-opacity="0.4"/>
<path d="M145.619 218.588C145.619 218.009 146.088 217.54 146.667 217.54C147.245 217.54 147.714 218.009 147.714 218.588V221.731C147.714 222.309 147.245 222.778 146.667 222.778C146.088 222.778 145.619 222.309 145.619 221.731V218.588Z" fill="#008B7C" fill-opacity="0.4"/>
<path d="M150.334 217.541C150.334 216.962 150.803 216.493 151.382 216.493C151.96 216.493 152.429 216.962 152.429 217.541V223.303C152.429 223.881 151.96 224.35 151.382 224.35C150.803 224.35 150.334 223.881 150.334 223.303V217.541Z" fill="#008B7C" fill-opacity="0.4"/>
<path d="M155.048 217.541C155.048 216.962 155.517 216.493 156.095 216.493C156.674 216.493 157.143 216.962 157.143 217.541V223.303C157.143 223.881 156.674 224.35 156.095 224.35C155.517 224.35 155.048 223.881 155.048 223.303V217.541Z" fill="#008B7C" fill-opacity="0.4"/>
<path d="M160.286 217.541C160.286 216.962 160.755 216.493 161.334 216.493C161.912 216.493 162.381 216.962 162.381 217.541V223.303C162.381 223.881 161.912 224.35 161.334 224.35C160.755 224.35 160.286 223.881 160.286 223.303V217.541Z" fill="#008B7C" fill-opacity="0.4"/>
<path d="M165 204.445C165 203.866 165.469 203.397 166.048 203.397C166.626 203.397 167.095 203.866 167.095 204.445V236.397C167.095 236.976 166.626 237.445 166.048 237.445C165.469 237.445 165 236.976 165 236.397V204.445Z" fill="#008B7C" fill-opacity="0.4"/>
<path d="M169.715 215.445C169.715 214.866 170.184 214.397 170.762 214.397C171.341 214.397 171.81 214.866 171.81 215.445V225.397C171.81 225.976 171.341 226.445 170.762 226.445C170.184 226.445 169.715 225.976 169.715 225.397V215.445Z" fill="#008B7C" fill-opacity="0.4"/>
<path d="M174.429 207.064C174.429 206.486 174.898 206.017 175.476 206.017C176.055 206.017 176.524 206.486 176.524 207.064V233.255C176.524 233.833 176.055 234.302 175.476 234.302C174.898 234.302 174.429 233.833 174.429 233.255V207.064Z" fill="#008B7C" fill-opacity="0.4"/>
<path d="M179.144 204.445C179.144 203.866 179.613 203.397 180.191 203.397C180.77 203.397 181.239 203.866 181.239 204.445V236.397C181.239 236.976 180.77 237.445 180.191 237.445C179.613 237.445 179.144 236.976 179.144 236.397V204.445Z" fill="#008B7C" fill-opacity="0.4"/>
<path d="M183.857 204.445C183.857 203.866 184.326 203.397 184.905 203.397C185.484 203.397 185.953 203.866 185.953 204.445V236.397C185.953 236.976 185.484 237.445 184.905 237.445C184.326 237.445 183.857 236.976 183.857 236.397V204.445Z" fill="#008B7C" fill-opacity="0.4"/>
<path d="M188.572 206.541C188.572 205.962 189.041 205.493 189.62 205.493C190.198 205.493 190.668 205.962 190.668 206.541V234.303C190.668 234.881 190.198 235.35 189.62 235.35C189.041 235.35 188.572 234.881 188.572 234.303V206.541Z" fill="#008B7C" fill-opacity="0.4"/>
<path d="M193.81 208.636C193.81 208.057 194.279 207.588 194.857 207.588C195.436 207.588 195.905 208.057 195.905 208.636V231.683C195.905 232.262 195.436 232.731 194.857 232.731C194.279 232.731 193.81 232.262 193.81 231.683V208.636Z" fill="#008B7C" fill-opacity="0.4"/>
<path d="M198.523 211.778C198.523 211.2 198.992 210.73 199.571 210.73C200.15 210.73 200.619 211.2 200.619 211.778V229.064C200.619 229.642 200.15 230.111 199.571 230.111C198.992 230.111 198.523 229.642 198.523 229.064V211.778Z" fill="#008B7C" fill-opacity="0.4"/>
<path d="M203.238 213.874C203.238 213.295 203.707 212.826 204.286 212.826C204.864 212.826 205.334 213.295 205.334 213.874V226.969C205.334 227.548 204.864 228.017 204.286 228.017C203.707 228.017 203.238 227.548 203.238 226.969V213.874Z" fill="#008B7C" fill-opacity="0.4"/>
<path d="M207.953 215.445C207.953 214.866 208.422 214.397 209.001 214.397C209.579 214.397 210.048 214.866 210.048 215.445V225.397C210.048 225.976 209.579 226.445 209.001 226.445C208.422 226.445 207.953 225.976 207.953 225.397V215.445Z" fill="#008B7C" fill-opacity="0.4"/>
<path d="M212.667 217.541C212.667 216.962 213.136 216.493 213.715 216.493C214.293 216.493 214.762 216.962 214.762 217.541V223.303C214.762 223.881 214.293 224.35 213.715 224.35C213.136 224.35 212.667 223.881 212.667 223.303V217.541Z" fill="#008B7C" fill-opacity="0.4"/>
<path d="M217.381 219.112C217.381 218.533 217.85 218.064 218.428 218.064C219.007 218.064 219.476 218.533 219.476 219.112V221.731C219.476 222.31 219.007 222.779 218.428 222.779C217.85 222.779 217.381 222.31 217.381 221.731V219.112Z" fill="#008B7C" fill-opacity="0.4"/>
<path d="M222.096 219.112C222.096 218.533 222.565 218.064 223.143 218.064C223.722 218.064 224.191 218.533 224.191 219.112V221.731C224.191 222.31 223.722 222.779 223.143 222.779C222.565 222.779 222.096 222.31 222.096 221.731V219.112Z" fill="#008B7C" fill-opacity="0.4"/>
<path d="M226.81 219.374C226.81 218.651 227.396 218.064 228.119 218.064C228.842 218.064 229.429 218.651 229.429 219.374V221.469C229.429 222.192 228.842 222.779 228.119 222.779C227.396 222.779 226.81 222.192 226.81 221.469V219.374Z" fill="#008B7C" fill-opacity="0.4"/>
<path d="M232.048 219.112C232.048 218.533 232.517 218.064 233.095 218.064C233.674 218.064 234.143 218.533 234.143 219.112V221.731C234.143 222.31 233.674 222.779 233.095 222.779C232.517 222.779 232.048 222.31 232.048 221.731V219.112Z" fill="#008B7C" fill-opacity="0.4"/>
<path d="M236.763 219.112C236.763 218.533 237.232 218.064 237.81 218.064C238.389 218.064 238.858 218.533 238.858 219.112V221.731C238.858 222.31 238.389 222.779 237.81 222.779C237.232 222.779 236.763 222.31 236.763 221.731V219.112Z" fill="#008B7C" fill-opacity="0.4"/>
<path d="M241.477 204.445C241.477 203.866 241.946 203.397 242.524 203.397C243.103 203.397 243.572 203.866 243.572 204.445V236.397C243.572 236.976 243.103 237.445 242.524 237.445C241.946 237.445 241.477 236.976 241.477 236.397V204.445Z" fill="#008B7C" fill-opacity="0.4"/>
<path d="M246.191 206.541C246.191 205.962 246.66 205.493 247.239 205.493C247.818 205.493 248.287 205.962 248.287 206.541V233.779C248.287 234.357 247.818 234.826 247.239 234.826C246.66 234.826 246.191 234.357 246.191 233.779V206.541Z" fill="#008B7C" fill-opacity="0.4"/>
<path d="M250.905 206.541C250.905 205.962 251.374 205.493 251.953 205.493C252.531 205.493 253.001 205.962 253.001 206.541V233.779C253.001 234.357 252.531 234.826 251.953 234.826C251.374 234.826 250.905 234.357 250.905 233.779V206.541Z" fill="#008B7C" fill-opacity="0.4"/>
<path d="M255.619 208.636C255.619 208.057 256.088 207.588 256.667 207.588C257.245 207.588 257.714 208.057 257.714 208.636V231.683C257.714 232.262 257.245 232.731 256.667 232.731C256.088 232.731 255.619 232.262 255.619 231.683V208.636Z" fill="#008B7C" fill-opacity="0.4"/>
<path d="M260.334 210.207C260.334 209.628 260.803 209.159 261.382 209.159C261.96 209.159 262.429 209.628 262.429 210.207V230.112C262.429 230.69 261.96 231.159 261.382 231.159C260.803 231.159 260.334 230.69 260.334 230.112V210.207Z" fill="#008B7C" fill-opacity="0.4"/>
<path d="M265.572 210.207C265.572 209.628 266.041 209.159 266.62 209.159C267.198 209.159 267.668 209.628 267.668 210.207V230.112C267.668 230.69 267.198 231.159 266.62 231.159C266.041 231.159 265.572 230.69 265.572 230.112V210.207Z" fill="#008B7C" fill-opacity="0.4"/>
<path d="M270.286 210.207C270.286 209.628 270.755 209.159 271.334 209.159C271.912 209.159 272.381 209.628 272.381 210.207V230.112C272.381 230.69 271.912 231.159 271.334 231.159C270.755 231.159 270.286 230.69 270.286 230.112V210.207Z" fill="#008B7C" fill-opacity="0.4"/>
<path d="M275 218.064C275 217.486 275.469 217.017 276.048 217.017C276.626 217.017 277.095 217.486 277.095 218.064V222.779C277.095 223.357 276.626 223.826 276.048 223.826C275.469 223.826 275 223.357 275 222.779V218.064Z" fill="#008B7C" fill-opacity="0.4"/>
<path d="M279.715 215.969C279.715 215.391 280.184 214.922 280.762 214.922C281.341 214.922 281.81 215.391 281.81 215.969V224.874C281.81 225.453 281.341 225.922 280.762 225.922C280.184 225.922 279.715 225.453 279.715 224.874V215.969Z" fill="#008B7C" fill-opacity="0.4"/>
<path d="M284.43 211.778C284.43 211.2 284.899 210.73 285.477 210.73C286.056 210.73 286.525 211.2 286.525 211.778V228.54C286.525 229.119 286.056 229.588 285.477 229.588C284.899 229.588 284.43 229.119 284.43 228.54V211.778Z" fill="#008B7C" fill-opacity="0.4"/>
<path d="M289.143 211.778C289.143 211.2 289.612 210.73 290.19 210.73C290.769 210.73 291.238 211.2 291.238 211.778V228.54C291.238 229.119 290.769 229.588 290.19 229.588C289.612 229.588 289.143 229.119 289.143 228.54V211.778Z" fill="#008B7C" fill-opacity="0.4"/>
<path d="M293.857 211.778C293.857 211.2 294.326 210.73 294.905 210.73C295.484 210.73 295.953 211.2 295.953 211.778V228.54C295.953 229.119 295.484 229.588 294.905 229.588C294.326 229.588 293.857 229.119 293.857 228.54V211.778Z" fill="#008B7C" fill-opacity="0.4"/>
<path d="M298.572 204.707C298.572 203.984 299.159 203.397 299.882 203.397C300.605 203.397 301.191 203.984 301.191 204.707V236.136C301.191 236.859 300.605 237.445 299.882 237.445C299.159 237.445 298.572 236.859 298.572 236.136V204.707Z" fill="#008B7C" fill-opacity="0.4"/>
<path d="M303.81 204.445C303.81 203.866 304.279 203.397 304.857 203.397C305.436 203.397 305.905 203.866 305.905 204.445V236.397C305.905 236.976 305.436 237.445 304.857 237.445C304.279 237.445 303.81 236.976 303.81 236.397V204.445Z" fill="#008B7C" fill-opacity="0.4"/>
<path d="M308.524 204.445C308.524 203.866 308.993 203.397 309.572 203.397C310.151 203.397 310.62 203.866 310.62 204.445V236.397C310.62 236.976 310.151 237.445 309.572 237.445C308.993 237.445 308.524 236.976 308.524 236.397V204.445Z" fill="#008B7C" fill-opacity="0.4"/>
<path d="M313.238 211.778C313.238 211.2 313.707 210.73 314.286 210.73C314.864 210.73 315.334 211.2 315.334 211.778V228.54C315.334 229.119 314.864 229.588 314.286 229.588C313.707 229.588 313.238 229.119 313.238 228.54V211.778Z" fill="#008B7C" fill-opacity="0.4"/>
<path d="M317.953 204.445C317.953 203.866 318.422 203.397 319.001 203.397C319.579 203.397 320.048 203.866 320.048 204.445V236.397C320.048 236.976 319.579 237.445 319.001 237.445C318.422 237.445 317.953 236.976 317.953 236.397V204.445Z" fill="#008B7C" fill-opacity="0.4"/>
<path d="M322.667 204.445C322.667 203.866 323.136 203.397 323.715 203.397C324.293 203.397 324.762 203.866 324.762 204.445V236.397C324.762 236.976 324.293 237.445 323.715 237.445C323.136 237.445 322.667 236.976 322.667 236.397V204.445Z" fill="#008B7C" fill-opacity="0.4"/>
<path d="M327.382 208.636C327.382 208.057 327.851 207.588 328.429 207.588C329.008 207.588 329.477 208.057 329.477 208.636V232.207C329.477 232.786 329.008 233.255 328.429 233.255C327.851 233.255 327.382 232.786 327.382 232.207V208.636Z" fill="#008B7C" fill-opacity="0.4"/>
<path d="M332.096 208.636C332.096 208.057 332.565 207.588 333.143 207.588C333.722 207.588 334.191 208.057 334.191 208.636V232.207C334.191 232.786 333.722 233.255 333.143 233.255C332.565 233.255 332.096 232.786 332.096 232.207V208.636Z" fill="#008B7C" fill-opacity="0.4"/>
<path d="M337.334 208.636C337.334 208.057 337.803 207.588 338.382 207.588C338.96 207.588 339.429 208.057 339.429 208.636V232.207C339.429 232.786 338.96 233.255 338.382 233.255C337.803 233.255 337.334 232.786 337.334 232.207V208.636Z" fill="#008B7C" fill-opacity="0.4"/>
<path d="M342.048 217.541C342.048 216.962 342.517 216.493 343.095 216.493C343.674 216.493 344.143 216.962 344.143 217.541V222.779C344.143 223.357 343.674 223.826 343.095 223.826C342.517 223.826 342.048 223.357 342.048 222.779V217.541Z" fill="#008B7C" fill-opacity="0.4"/>
<path d="M346.762 217.541C346.762 216.962 347.231 216.493 347.809 216.493C348.388 216.493 348.857 216.962 348.857 217.541V222.779C348.857 223.357 348.388 223.826 347.809 223.826C347.231 223.826 346.762 223.357 346.762 222.779V217.541Z" fill="#008B7C" fill-opacity="0.4"/>
<path d="M351.477 215.445C351.477 214.866 351.946 214.397 352.524 214.397C353.103 214.397 353.572 214.866 353.572 215.445V224.874C353.572 225.452 353.103 225.921 352.524 225.921C351.946 225.921 351.477 225.452 351.477 224.874V215.445Z" fill="#008B7C" fill-opacity="0.4"/>
<path d="M356.191 215.445C356.191 214.866 356.66 214.397 357.239 214.397C357.818 214.397 358.287 214.866 358.287 215.445V224.874C358.287 225.452 357.818 225.921 357.239 225.921C356.66 225.921 356.191 225.452 356.191 224.874V215.445Z" fill="#008B7C" fill-opacity="0.4"/>
<path d="M360.905 215.445C360.905 214.866 361.374 214.397 361.953 214.397C362.531 214.397 363.001 214.866 363.001 215.445V224.874C363.001 225.452 362.531 225.921 361.953 225.921C361.374 225.921 360.905 225.452 360.905 224.874V215.445Z" fill="#008B7C" fill-opacity="0.4"/>
<path d="M365.619 215.445C365.619 214.866 366.088 214.397 366.667 214.397C367.245 214.397 367.714 214.866 367.714 215.445V224.874C367.714 225.452 367.245 225.921 366.667 225.921C366.088 225.921 365.619 225.452 365.619 224.874V215.445Z" fill="#008B7C" fill-opacity="0.4"/>
<path d="M370.334 215.707C370.334 214.984 370.92 214.397 371.644 214.397C372.367 214.397 372.953 214.984 372.953 215.707V224.612C372.953 225.335 372.367 225.921 371.644 225.921C370.92 225.921 370.334 225.335 370.334 224.612V215.707Z" fill="#008B7C" fill-opacity="0.4"/>
<path d="M375.572 219.112C375.572 218.533 376.041 218.064 376.62 218.064C377.198 218.064 377.668 218.533 377.668 219.112V221.207C377.668 221.786 377.198 222.255 376.62 222.255C376.041 222.255 375.572 221.786 375.572 221.207V219.112Z" fill="#008B7C" fill-opacity="0.4"/>
<path d="M380.286 220.16C380.286 219.581 380.755 219.112 381.334 219.112C381.912 219.112 382.381 219.581 382.381 220.16V220.684C382.381 221.262 381.912 221.731 381.334 221.731C380.755 221.731 380.286 221.262 380.286 220.684V220.16Z" fill="#008B7C" fill-opacity="0.4"/>
<path d="M385 220.16C385 219.581 385.469 219.112 386.048 219.112C386.626 219.112 387.095 219.581 387.095 220.16V220.684C387.095 221.262 386.626 221.731 386.048 221.731C385.469 221.731 385 221.262 385 220.684V220.16Z" fill="#008B7C" fill-opacity="0.4"/>
<path d="M389.715 220.16C389.715 219.581 390.184 219.112 390.762 219.112C391.341 219.112 391.81 219.581 391.81 220.16V220.684C391.81 221.262 391.341 221.731 390.762 221.731C390.184 221.731 389.715 221.262 389.715 220.684V220.16Z" fill="#008B7C" fill-opacity="0.4"/>
<path d="M394.43 220.16C394.43 219.581 394.899 219.112 395.477 219.112C396.056 219.112 396.525 219.581 396.525 220.16V220.684C396.525 221.262 396.056 221.731 395.477 221.731C394.899 221.731 394.43 221.262 394.43 220.684V220.16Z" fill="#008B7C" fill-opacity="0.4"/>
<path d="M399.144 206.016C399.144 205.438 399.613 204.969 400.191 204.969C400.77 204.969 401.239 205.438 401.239 206.016V234.302C401.239 234.881 400.77 235.35 400.191 235.35C399.613 235.35 399.144 234.881 399.144 234.302V206.016Z" fill="#008B7C" fill-opacity="0.4"/>
<path d="M403.857 206.016C403.857 205.438 404.326 204.969 404.905 204.969C405.484 204.969 405.953 205.438 405.953 206.016V234.302C405.953 234.881 405.484 235.35 404.905 235.35C404.326 235.35 403.857 234.881 403.857 234.302V206.016Z" fill="#008B7C" fill-opacity="0.4"/>
<path d="M409.096 206.016C409.096 205.438 409.565 204.969 410.143 204.969C410.722 204.969 411.191 205.438 411.191 206.016V234.302C411.191 234.881 410.722 235.35 410.143 235.35C409.565 235.35 409.096 234.881 409.096 234.302V206.016Z" fill="#008B7C" fill-opacity="0.4"/>
<path d="M413.811 206.016C413.811 205.438 414.28 204.969 414.858 204.969C415.437 204.969 415.906 205.438 415.906 206.016V234.302C415.906 234.881 415.437 235.35 414.858 235.35C414.28 235.35 413.811 234.881 413.811 234.302V206.016Z" fill="#008B7C" fill-opacity="0.4"/>
<path d="M418.524 204.445C418.524 203.866 418.993 203.397 419.572 203.397C420.151 203.397 420.62 203.866 420.62 204.445V236.397C420.62 236.976 420.151 237.445 419.572 237.445C418.993 237.445 418.524 236.976 418.524 236.397V204.445Z" fill="#008B7C" fill-opacity="0.4"/>
<path d="M423.238 204.445C423.238 203.866 423.707 203.397 424.286 203.397C424.864 203.397 425.334 203.866 425.334 204.445V236.397C425.334 236.976 424.864 237.445 424.286 237.445C423.707 237.445 423.238 236.976 423.238 236.397V204.445Z" fill="#008B7C" fill-opacity="0.4"/>
<path d="M427.953 209.16C427.953 208.581 428.422 208.112 429.001 208.112C429.579 208.112 430.048 208.581 430.048 209.16V231.684C430.048 232.262 429.579 232.731 429.001 232.731C428.422 232.731 427.953 232.262 427.953 231.684V209.16Z" fill="#008B7C" fill-opacity="0.4"/>
<path d="M432.667 211.255C432.667 210.676 433.136 210.207 433.715 210.207C434.293 210.207 434.762 210.676 434.762 211.255V229.064C434.762 229.643 434.293 230.112 433.715 230.112C433.136 230.112 432.667 229.643 432.667 229.064V211.255Z" fill="#008B7C" fill-opacity="0.4"/>
<path d="M437.382 214.922C437.382 214.343 437.851 213.874 438.429 213.874C439.008 213.874 439.477 214.343 439.477 214.922V225.922C439.477 226.5 439.008 226.969 438.429 226.969C437.851 226.969 437.382 226.5 437.382 225.922V214.922Z" fill="#008B7C" fill-opacity="0.4"/>
<path d="M442.096 217.803C442.096 217.079 442.682 216.493 443.405 216.493C444.128 216.493 444.715 217.079 444.715 217.803V223.041C444.715 223.764 444.128 224.35 443.405 224.35C442.682 224.35 442.096 223.764 442.096 223.041V217.803Z" fill="#008B7C" fill-opacity="0.4"/>
<path d="M447.334 219.112C447.334 218.533 447.803 218.064 448.382 218.064C448.96 218.064 449.429 218.533 449.429 219.112V221.207C449.429 221.786 448.96 222.255 448.382 222.255C447.803 222.255 447.334 221.786 447.334 221.207V219.112Z" fill="#008B7C" fill-opacity="0.4"/>
<path d="M452.049 220.16C452.049 219.581 452.518 219.112 453.096 219.112C453.675 219.112 454.144 219.581 454.144 220.16C454.144 220.739 453.675 221.208 453.096 221.208C452.518 221.208 452.049 220.739 452.049 220.16Z" fill="#008B7C" fill-opacity="0.4"/>
<path d="M456.763 220.16C456.763 219.581 457.232 219.112 457.81 219.112C458.389 219.112 458.858 219.581 458.858 220.16C458.858 220.739 458.389 221.208 457.81 221.208C457.232 221.208 456.763 220.739 456.763 220.16Z" fill="#008B7C" fill-opacity="0.4"/>
<path d="M461.477 220.159C461.477 219.58 461.946 219.111 462.524 219.111C463.103 219.111 463.572 219.58 463.572 220.159C463.572 220.738 463.103 221.207 462.524 221.207C461.946 221.207 461.477 220.738 461.477 220.159Z" fill="#008B7C" fill-opacity="0.4"/>
<path d="M466.191 220.16C466.191 219.581 466.66 219.112 467.239 219.112C467.818 219.112 468.287 219.581 468.287 220.16C468.287 220.739 467.818 221.208 467.239 221.208C466.66 221.208 466.191 220.739 466.191 220.16Z" fill="#008B7C" fill-opacity="0.4"/>
<path d="M470.905 220.16C470.905 219.581 471.374 219.112 471.953 219.112C472.531 219.112 473.001 219.581 473.001 220.16C473.001 220.739 472.531 221.208 471.953 221.208C471.374 221.208 470.905 220.739 470.905 220.16Z" fill="#008B7C" fill-opacity="0.4"/>
<path d="M475.619 210.731C475.619 210.153 476.088 209.684 476.667 209.684C477.245 209.684 477.714 210.153 477.714 210.731V229.588C477.714 230.167 477.245 230.636 476.667 230.636C476.088 230.636 475.619 230.167 475.619 229.588V210.731Z" fill="#008B7C" fill-opacity="0.4"/>
<path d="M480.857 210.731C480.857 210.153 481.326 209.684 481.905 209.684C482.484 209.684 482.953 210.153 482.953 210.731V229.588C482.953 230.167 482.484 230.636 481.905 230.636C481.326 230.636 480.857 230.167 480.857 229.588V210.731Z" fill="#008B7C" fill-opacity="0.4"/>
<path d="M485.572 210.731C485.572 210.153 486.041 209.684 486.62 209.684C487.198 209.684 487.668 210.153 487.668 210.731V229.588C487.668 230.167 487.198 230.636 486.62 230.636C486.041 230.636 485.572 230.167 485.572 229.588V210.731Z" fill="#008B7C" fill-opacity="0.4"/>
<path d="M490.286 210.731C490.286 210.153 490.755 209.684 491.334 209.684C491.912 209.684 492.381 210.153 492.381 210.731V229.588C492.381 230.167 491.912 230.636 491.334 230.636C490.755 230.636 490.286 230.167 490.286 229.588V210.731Z" fill="#008B7C" fill-opacity="0.4"/>
<path d="M495.001 204.445C495.001 203.866 495.47 203.397 496.049 203.397C496.627 203.397 497.096 203.866 497.096 204.445V236.397C497.096 236.976 496.627 237.445 496.049 237.445C495.47 237.445 495.001 236.976 495.001 236.397V204.445Z" fill="#008B7C" fill-opacity="0.4"/>
<path d="M499.715 210.731C499.715 210.153 500.184 209.684 500.762 209.684C501.341 209.684 501.81 210.153 501.81 210.731V229.588C501.81 230.167 501.341 230.636 500.762 230.636C500.184 230.636 499.715 230.167 499.715 229.588V210.731Z" fill="#008B7C" fill-opacity="0.4"/>
<path d="M504.429 214.922C504.429 214.343 504.898 213.874 505.476 213.874C506.055 213.874 506.524 214.343 506.524 214.922V225.922C506.524 226.5 506.055 226.969 505.476 226.969C504.898 226.969 504.429 226.5 504.429 225.922V214.922Z" fill="#008B7C" fill-opacity="0.4"/>
<path d="M509.144 217.541C509.144 216.962 509.613 216.493 510.191 216.493C510.77 216.493 511.239 216.962 511.239 217.541V223.303C511.239 223.881 510.77 224.35 510.191 224.35C509.613 224.35 509.144 223.881 509.144 223.303V217.541Z" fill="#008B7C" fill-opacity="0.4"/>
<path d="M514.382 219.112C514.382 218.533 514.851 218.064 515.429 218.064C516.008 218.064 516.477 218.533 516.477 219.112V221.207C516.477 221.786 516.008 222.255 515.429 222.255C514.851 222.255 514.382 221.786 514.382 221.207V219.112Z" fill="#008B7C" fill-opacity="0.4"/>
<path d="M519.096 219.112C519.096 218.533 519.565 218.064 520.143 218.064C520.722 218.064 521.191 218.533 521.191 219.112V221.207C521.191 221.786 520.722 222.255 520.143 222.255C519.565 222.255 519.096 221.786 519.096 221.207V219.112Z" fill="#008B7C" fill-opacity="0.4"/>
<path d="M523.81 217.541C523.81 216.962 524.279 216.493 524.857 216.493C525.436 216.493 525.905 216.962 525.905 217.541V223.303C525.905 223.881 525.436 224.35 524.857 224.35C524.279 224.35 523.81 223.881 523.81 223.303V217.541Z" fill="#008B7C" fill-opacity="0.4"/>
<path d="M528.524 214.922C528.524 214.343 528.993 213.874 529.572 213.874C530.151 213.874 530.62 214.343 530.62 214.922V225.922C530.62 226.5 530.151 226.969 529.572 226.969C528.993 226.969 528.524 226.5 528.524 225.922V214.922Z" fill="#008B7C" fill-opacity="0.4"/>
<path d="M533.238 210.731C533.238 210.153 533.707 209.684 534.286 209.684C534.864 209.684 535.334 210.153 535.334 210.731V229.588C535.334 230.167 534.864 230.636 534.286 230.636C533.707 230.636 533.238 230.167 533.238 229.588V210.731Z" fill="#008B7C" fill-opacity="0.4"/>
<path d="M537.953 207.588C537.953 207.009 538.422 206.54 539.001 206.54C539.579 206.54 540.048 207.009 540.048 207.588V232.731C540.048 233.309 539.579 233.778 539.001 233.778C538.422 233.778 537.953 233.309 537.953 232.731V207.588Z" fill="#008B7C" fill-opacity="0.4"/>
<path d="M542.667 204.445C542.667 203.866 543.136 203.397 543.715 203.397C544.293 203.397 544.762 203.866 544.762 204.445V236.397C544.762 236.976 544.293 237.445 543.715 237.445C543.136 237.445 542.667 236.976 542.667 236.397V204.445Z" fill="#008B7C" fill-opacity="0.4"/>
<path d="M547.381 219.897C547.381 219.174 547.967 218.588 548.69 218.588C549.414 218.588 550 219.174 550 219.897V220.421C550 221.144 549.414 221.731 548.69 221.731C547.967 221.731 547.381 221.144 547.381 220.421V219.897Z" fill="#008B7C" fill-opacity="0.4"/>
<path d="M552.619 219.636C552.619 219.057 553.088 218.588 553.667 218.588C554.245 218.588 554.714 219.057 554.714 219.636V220.683C554.714 221.262 554.245 221.731 553.667 221.731C553.088 221.731 552.619 221.262 552.619 220.683V219.636Z" fill="#008B7C" fill-opacity="0.4"/>
<g filter="url(#filter2_d_2302_7084)">
<path d="M345.067 218.307C345.067 227.409 337.689 234.787 328.587 234.787C319.485 234.787 312.106 227.409 312.106 218.307C312.106 209.205 319.485 201.826 328.587 201.826C337.689 201.826 345.067 209.205 345.067 218.307Z" fill="white"/>
<path d="M343.206 218.306C343.206 226.381 336.661 232.926 328.587 232.926C320.512 232.926 313.967 226.381 313.967 218.306C313.967 210.232 320.512 203.687 328.587 203.687C336.661 203.687 343.206 210.232 343.206 218.306Z" fill="url(#paint12_linear_2302_7084)"/>
</g>
<path d="M322.304 227.079H322.188V226.168H322.304V227.079ZM322.746 227.079H322.63V226.168H322.746V227.079ZM323.189 227.079H323.073V226.168H323.189V227.079ZM323.632 227.079H323.516V226.168H323.632V227.079ZM324.074 227.079H323.958V226.168H324.074V227.079ZM324.517 227.079H324.401V226.168H324.517V227.079ZM324.959 227.079H324.843V226.168H324.959V227.079ZM325.402 227.079H325.286V226.168H325.402V227.079ZM325.844 227.079H325.729V226.168H325.844V227.079ZM326.287 227.079H326.171V226.168H326.287V227.079ZM326.729 227.079H326.614V226.168H326.729V227.079ZM327.172 227.079H327.057V226.168H327.172V227.079ZM327.614 227.079H327.499V226.168H327.614V227.079ZM328.057 227.079H327.942V226.168H328.057V227.079ZM328.5 227.079H328.385V226.168H328.5V227.079ZM328.942 227.079H328.827V226.168H328.942V227.079ZM329.385 227.079H329.27V226.168H329.385V227.079ZM329.828 227.079H329.712V226.168H329.828V227.079ZM330.271 227.079H330.155V226.168H330.271V227.079ZM330.713 227.079H330.598V226.168H330.713V227.079ZM331.156 227.079H331.04V226.168H331.156V227.079ZM331.598 227.079H331.483V226.168H331.598V227.079ZM332.041 227.079H331.926V226.168H332.041V227.079ZM332.486 227.079H332.371V226.168H332.486V227.079ZM332.929 227.079H332.813V226.168H332.929V227.079ZM333.372 227.079H333.256V226.168H333.372V227.079ZM333.814 227.079H333.699V226.168H333.814V227.079ZM334.257 227.079H334.141V226.168H334.257V227.079ZM334.699 227.079H334.583V226.168H334.699V227.079ZM335.142 227.079H335.026V226.168H335.142V227.079ZM336.537 215.937L335.954 216.373V220.599L336.537 221.035V225.497H320.674V221.031L321.315 220.652V216.513L320.674 215.934V211.002H336.537V215.937ZM320.732 215.91L321.373 216.488V220.685L320.732 221.064V225.439H336.479V221.062L335.896 220.625V216.345L336.479 215.908V211.06H320.732V215.91ZM338.207 225.278H337.283V225.164H338.207V225.278ZM321.432 225.219H321.009V224.801H321.432V225.219ZM336.255 225.219H335.832V224.801H336.255V225.219ZM319.417 224.722C319.541 224.722 319.641 224.821 319.641 224.943C319.641 225.065 319.541 225.163 319.417 225.164C319.293 225.164 319.193 225.065 319.193 224.943C319.193 224.82 319.293 224.722 319.417 224.722ZM338.207 224.842H337.283V224.728H338.207V224.842ZM335.039 224.534H322.159V224.501H335.039V224.534ZM338.207 224.405H337.283V224.291H338.207V224.405ZM319.417 223.949C319.541 223.949 319.641 224.048 319.641 224.17C319.641 224.292 319.541 224.391 319.417 224.392C319.293 224.392 319.193 224.292 319.193 224.17C319.193 224.048 319.293 223.949 319.417 223.949ZM338.207 223.969H337.283V223.855H338.207V223.969ZM319.458 223.175C319.502 223.183 319.542 223.204 319.574 223.236C319.606 223.267 319.627 223.307 319.636 223.351C319.645 223.394 319.641 223.439 319.624 223.48C319.607 223.521 319.578 223.557 319.541 223.581C319.505 223.606 319.461 223.619 319.417 223.619C319.358 223.62 319.301 223.596 319.259 223.555C319.218 223.514 319.194 223.458 319.193 223.399C319.192 223.354 319.205 223.311 319.229 223.273C319.253 223.236 319.288 223.207 319.329 223.19C319.37 223.172 319.415 223.167 319.458 223.175ZM338.207 223.532H337.283V223.418H338.207V223.532ZM338.207 223.095H337.283V222.982H338.207V223.095ZM319.417 222.405C319.541 222.405 319.641 222.504 319.641 222.626C319.64 222.748 319.541 222.847 319.417 222.847C319.293 222.847 319.193 222.748 319.193 222.626C319.193 222.504 319.293 222.405 319.417 222.405ZM338.207 222.659H337.283V222.545H338.207V222.659ZM338.207 222.223H337.283V222.108H338.207V222.223ZM319.417 221.632C319.541 221.633 319.641 221.732 319.641 221.854C319.64 221.976 319.541 222.075 319.417 222.075C319.293 222.075 319.193 221.976 319.193 221.854C319.193 221.732 319.293 221.632 319.417 221.632ZM338.207 221.786H337.283V221.672H338.207V221.786ZM338.207 221.349H337.283V221.235H338.207V221.349ZM319.417 220.861C319.541 220.861 319.641 220.96 319.641 221.082C319.641 221.204 319.541 221.303 319.417 221.303C319.293 221.303 319.193 221.204 319.193 221.082C319.193 220.96 319.293 220.861 319.417 220.861ZM338.207 220.913H337.283V220.799H338.207V220.913ZM319.458 220.087C319.502 220.095 319.542 220.117 319.574 220.148C319.606 220.179 319.627 220.219 319.636 220.263C319.645 220.306 319.641 220.351 319.624 220.392C319.607 220.433 319.578 220.468 319.541 220.493C319.505 220.518 319.461 220.531 319.417 220.531C319.388 220.531 319.359 220.526 319.332 220.515C319.305 220.504 319.28 220.488 319.259 220.467C319.238 220.447 319.222 220.422 319.21 220.395C319.199 220.368 319.193 220.339 319.193 220.31C319.192 220.266 319.205 220.222 319.229 220.185C319.254 220.148 319.288 220.118 319.329 220.101C319.37 220.084 319.415 220.079 319.458 220.087ZM338.207 220.476H337.283V220.362H338.207V220.476ZM338.207 220.039H337.283V219.925H338.207V220.039ZM319.417 219.317C319.541 219.317 319.641 219.416 319.641 219.538C319.64 219.66 319.541 219.759 319.417 219.759C319.293 219.759 319.193 219.66 319.193 219.538C319.193 219.416 319.293 219.317 319.417 219.317ZM319.417 218.545C319.541 218.545 319.64 218.644 319.641 218.766C319.641 218.888 319.541 218.987 319.417 218.987C319.293 218.987 319.193 218.888 319.193 218.766C319.193 218.644 319.293 218.545 319.417 218.545ZM337.538 218.538C337.567 218.538 337.596 218.544 337.624 218.555C337.651 218.566 337.675 218.582 337.696 218.603C337.717 218.623 337.733 218.647 337.745 218.674C337.756 218.701 337.762 218.73 337.762 218.76C337.763 218.804 337.75 218.848 337.726 218.885C337.702 218.922 337.667 218.952 337.626 218.969C337.585 218.987 337.539 218.991 337.496 218.983C337.452 218.975 337.412 218.954 337.38 218.922C337.348 218.891 337.327 218.851 337.318 218.808C337.309 218.764 337.313 218.718 337.33 218.677C337.347 218.636 337.376 218.601 337.413 218.576C337.45 218.551 337.494 218.538 337.538 218.538ZM337.538 217.767C337.567 217.767 337.596 217.772 337.624 217.783C337.651 217.794 337.675 217.81 337.696 217.831C337.717 217.851 337.733 217.876 337.745 217.903C337.756 217.93 337.762 217.959 337.762 217.988C337.763 218.032 337.75 218.076 337.726 218.114C337.702 218.151 337.667 218.18 337.626 218.197C337.585 218.215 337.539 218.22 337.496 218.211C337.452 218.203 337.412 218.182 337.38 218.151C337.348 218.12 337.326 218.079 337.318 218.036C337.309 217.992 337.313 217.947 337.33 217.906C337.347 217.865 337.376 217.829 337.413 217.805C337.45 217.78 337.494 217.767 337.538 217.767ZM319.417 217.773C319.541 217.773 319.641 217.872 319.641 217.994C319.641 218.116 319.541 218.215 319.417 218.215C319.293 218.215 319.193 218.116 319.193 217.994C319.193 217.872 319.293 217.773 319.417 217.773ZM337.538 216.994C337.567 216.994 337.596 217 337.624 217.011C337.651 217.022 337.675 217.038 337.696 217.058C337.717 217.079 337.733 217.103 337.745 217.13C337.756 217.157 337.762 217.186 337.762 217.215C337.763 217.26 337.75 217.304 337.726 217.341C337.702 217.378 337.667 217.408 337.626 217.425C337.585 217.443 337.539 217.448 337.496 217.439C337.452 217.431 337.412 217.41 337.38 217.378C337.348 217.347 337.326 217.307 337.318 217.263C337.309 217.22 337.313 217.174 337.33 217.133C337.347 217.092 337.376 217.057 337.413 217.032C337.45 217.007 337.494 216.994 337.538 216.994ZM319.674 216.943H318.75V216.829H319.674V216.943ZM337.538 216.222C337.567 216.222 337.596 216.228 337.624 216.239C337.651 216.25 337.675 216.266 337.696 216.287C337.717 216.307 337.733 216.332 337.745 216.358C337.756 216.385 337.762 216.415 337.762 216.444C337.763 216.488 337.75 216.532 337.726 216.569C337.702 216.607 337.667 216.636 337.626 216.654C337.585 216.671 337.539 216.676 337.496 216.667C337.452 216.659 337.412 216.638 337.38 216.607C337.348 216.575 337.326 216.535 337.318 216.491C337.309 216.448 337.314 216.403 337.33 216.362C337.347 216.32 337.376 216.285 337.413 216.26C337.45 216.236 337.494 216.222 337.538 216.222ZM319.674 216.506H318.75V216.392H319.674V216.506ZM319.674 216.069H318.75V215.955H319.674V216.069ZM337.538 215.451C337.567 215.45 337.596 215.456 337.624 215.467C337.651 215.478 337.675 215.494 337.696 215.514C337.717 215.535 337.733 215.56 337.745 215.587C337.756 215.613 337.762 215.642 337.762 215.672C337.763 215.716 337.75 215.76 337.726 215.797C337.702 215.835 337.667 215.864 337.626 215.881C337.585 215.899 337.539 215.904 337.496 215.896C337.452 215.887 337.412 215.866 337.38 215.835C337.348 215.803 337.326 215.763 337.318 215.72C337.309 215.676 337.314 215.631 337.33 215.59C337.347 215.549 337.376 215.513 337.413 215.488C337.45 215.464 337.494 215.45 337.538 215.451ZM319.674 215.633H318.75V215.519H319.674V215.633ZM319.674 215.196H318.75V215.082H319.674V215.196ZM337.538 214.679C337.597 214.678 337.654 214.701 337.696 214.743C337.738 214.784 337.762 214.84 337.762 214.899C337.763 214.944 337.75 214.988 337.726 215.025C337.702 215.062 337.667 215.092 337.626 215.109C337.585 215.127 337.54 215.132 337.496 215.124C337.452 215.115 337.412 215.094 337.381 215.063C337.349 215.032 337.327 214.991 337.318 214.948C337.309 214.904 337.313 214.859 337.33 214.818C337.347 214.777 337.376 214.741 337.413 214.716C337.45 214.692 337.494 214.679 337.538 214.679ZM319.674 214.76H318.75V214.646H319.674V214.76ZM337.538 213.907C337.567 213.907 337.596 213.912 337.624 213.923C337.651 213.934 337.675 213.95 337.696 213.971C337.717 213.991 337.733 214.016 337.745 214.043C337.756 214.07 337.762 214.099 337.762 214.128C337.763 214.172 337.75 214.216 337.726 214.253C337.702 214.29 337.667 214.32 337.626 214.337C337.585 214.355 337.539 214.36 337.496 214.351C337.452 214.343 337.412 214.322 337.38 214.29C337.348 214.259 337.326 214.219 337.318 214.175C337.309 214.132 337.313 214.086 337.33 214.045C337.347 214.004 337.376 213.969 337.413 213.945C337.45 213.92 337.494 213.907 337.538 213.907ZM319.674 214.324H318.75V214.209H319.674V214.324ZM319.674 213.887H318.75V213.773H319.674V213.887ZM337.538 213.134C337.597 213.134 337.654 213.157 337.696 213.198C337.738 213.24 337.762 213.296 337.762 213.355C337.763 213.4 337.75 213.443 337.726 213.481C337.702 213.518 337.667 213.547 337.626 213.565C337.585 213.583 337.54 213.588 337.496 213.579C337.453 213.571 337.412 213.55 337.381 213.519C337.349 213.488 337.327 213.447 337.318 213.404C337.309 213.36 337.313 213.315 337.33 213.273C337.347 213.232 337.376 213.197 337.413 213.172C337.45 213.147 337.494 213.134 337.538 213.134ZM319.674 213.45H318.75V213.336H319.674V213.45ZM319.674 213.014H318.75V212.9H319.674V213.014ZM337.538 212.362C337.567 212.362 337.596 212.368 337.624 212.379C337.651 212.39 337.675 212.406 337.696 212.427C337.717 212.447 337.733 212.472 337.745 212.498C337.756 212.525 337.762 212.554 337.762 212.583C337.763 212.628 337.75 212.672 337.726 212.709C337.702 212.746 337.667 212.776 337.626 212.793C337.585 212.811 337.539 212.816 337.496 212.807C337.452 212.799 337.412 212.778 337.38 212.747C337.348 212.715 337.326 212.675 337.318 212.631C337.309 212.588 337.313 212.543 337.33 212.502C337.347 212.46 337.376 212.425 337.413 212.4C337.45 212.376 337.494 212.362 337.538 212.362ZM319.674 212.577H318.75V212.463H319.674V212.577ZM319.674 212.141H318.75V212.027H319.674V212.141ZM337.538 211.59C337.597 211.59 337.654 211.613 337.696 211.654C337.738 211.696 337.762 211.752 337.762 211.811C337.763 211.856 337.75 211.899 337.726 211.937C337.702 211.974 337.667 212.003 337.626 212.021C337.585 212.038 337.54 212.043 337.496 212.035C337.452 212.027 337.412 212.006 337.381 211.975C337.349 211.943 337.327 211.903 337.318 211.86C337.309 211.816 337.314 211.771 337.33 211.73C337.347 211.689 337.376 211.653 337.413 211.628C337.45 211.604 337.494 211.59 337.538 211.59ZM334.922 212.03H322.043V212.006H334.922V212.03ZM319.674 211.704H318.75V211.59H319.674V211.704ZM321.432 211.687H321.009V211.269H321.432V211.687ZM336.255 211.687H335.832V211.269H336.255V211.687ZM322.118 210.446H322.002V209.535H322.118V210.446ZM322.56 210.446H322.445V209.535H322.56V210.446ZM323.003 210.446H322.888V209.535H323.003V210.446ZM323.445 210.446H323.33V209.535H323.445V210.446ZM323.888 210.446H323.773V209.535H323.888V210.446ZM324.331 210.446H324.215V209.535H324.331V210.446ZM324.774 210.446H324.658V209.535H324.774V210.446ZM325.216 210.446H325.1V209.535H325.216V210.446ZM325.659 210.446H325.543V209.535H325.659V210.446ZM326.101 210.446H325.986V209.535H326.101V210.446ZM326.544 210.446H326.429V209.535H326.544V210.446ZM326.986 210.446H326.871V209.535H326.986V210.446ZM327.429 210.446H327.314V209.535H327.429V210.446ZM327.872 210.446H327.756V209.535H327.872V210.446ZM328.314 210.446H328.199V209.535H328.314V210.446ZM328.757 210.446H328.641V209.535H328.757V210.446ZM329.2 210.446H329.084V209.535H329.2V210.446ZM329.643 210.446H329.527V209.535H329.643V210.446ZM330.085 210.446H329.969V209.535H330.085V210.446ZM330.528 210.446H330.412V209.535H330.528V210.446ZM330.97 210.446H330.854V209.535H330.97V210.446ZM331.412 210.446H331.297V209.535H331.412V210.446ZM331.858 210.446H331.742V209.535H331.858V210.446ZM332.301 210.446H332.185V209.535H332.301V210.446ZM332.743 210.446H332.628V209.535H332.743V210.446ZM333.185 210.446H333.07V209.535H333.185V210.446ZM333.628 210.446H333.513V209.535H333.628V210.446ZM334.071 210.446H333.955V209.535H334.071V210.446ZM334.514 210.446H334.398V209.535H334.514V210.446ZM334.956 210.446H334.841V209.535H334.956V210.446Z" fill="white"/>
<path d="M332.66 215.117V221.303H331.165V215.117H332.66Z" fill="white"/>
<path d="M325.941 221.303H324.334L326.421 215.117H328.412L330.499 221.303H328.892L327.439 216.676H327.391L325.941 221.303ZM325.726 218.869H329.085V220.005H325.726V218.869Z" fill="white"/>
</g>
<defs>
<filter id="filter0_d_2302_7084" x="94" y="157.255" width="483" height="105" filterUnits="userSpaceOnUse" color-interpolation-filters="sRGB">
<feFlood flood-opacity="0" result="BackgroundImageFix"/>
<feColorMatrix in="SourceAlpha" type="matrix" values="0 0 0 0 0 0 0 0 0 0 0 0 0 0 0 0 0 0 127 0" result="hardAlpha"/>
<feOffset dy="4"/>
<feGaussianBlur stdDeviation="2.5"/>
<feComposite in2="hardAlpha" operator="out"/>
<feColorMatrix type="matrix" values="0 0 0 0 0 0 0 0 0 0 0 0 0 0 0 0 0 0 0.2 0"/>
<feBlend mode="normal" in2="BackgroundImageFix" result="effect1_dropShadow_2302_7084"/>
<feBlend mode="normal" in="SourceGraphic" in2="effect1_dropShadow_2302_7084" result="shape"/>
</filter>
<filter id="filter1_f_2302_7084" x="112.715" y="175.731" width="12.3809" height="12.3809" filterUnits="userSpaceOnUse" color-interpolation-filters="sRGB">
<feFlood flood-opacity="0" result="BackgroundImageFix"/>
<feBlend mode="normal" in="SourceGraphic" in2="BackgroundImageFix" result="shape"/>
<feGaussianBlur stdDeviation="1" result="effect1_foregroundBlur_2302_7084"/>
</filter>
<filter id="filter2_d_2302_7084" x="298.106" y="187.826" width="66.9609" height="66.9609" filterUnits="userSpaceOnUse" color-interpolation-filters="sRGB">
<feFlood flood-opacity="0" result="BackgroundImageFix"/>
<feColorMatrix in="SourceAlpha" type="matrix" values="0 0 0 0 0 0 0 0 0 0 0 0 0 0 0 0 0 0 127 0" result="hardAlpha"/>
<feOffset dx="3" dy="3"/>
<feGaussianBlur stdDeviation="8.5"/>
<feComposite in2="hardAlpha" operator="out"/>
<feColorMatrix type="matrix" values="0 0 0 0 0 0 0 0 0 0.545098 0 0 0 0 0.486275 0 0 0 0.25 0"/>
<feBlend mode="normal" in2="BackgroundImageFix" result="effect1_dropShadow_2302_7084"/>
<feBlend mode="normal" in="SourceGraphic" in2="effect1_dropShadow_2302_7084" result="shape"/>
</filter>
<radialGradient id="paint0_radial_2302_7084" cx="0" cy="0" r="1" gradientUnits="userSpaceOnUse" gradientTransform="translate(125 158.255) rotate(90) scale(125)">
<stop stop-color="#008B7C" stop-opacity="0.6"/>
<stop offset="1" stop-color="#008B7C" stop-opacity="0"/>
</radialGradient>
<linearGradient id="paint1_linear_2302_7084" x1="423" y1="9.25488" x2="423" y2="307.255" gradientUnits="userSpaceOnUse">
<stop stop-color="#008B7C"/>
<stop offset="1" stop-color="#D8ECEA"/>
</linearGradient>
<linearGradient id="paint2_linear_2302_7084" x1="11.3843" y1="72.913" x2="29.9862" y2="72.913" gradientUnits="userSpaceOnUse">
<stop stop-color="#E4E8EF"/>
<stop offset="1" stop-color="#A0A5B0"/>
</linearGradient>
<linearGradient id="paint3_linear_2302_7084" x1="197.015" y1="72.913" x2="215.615" y2="72.913" gradientUnits="userSpaceOnUse">
<stop stop-color="#A0A5B0"/>
<stop offset="1" stop-color="#E4E8EF"/>
</linearGradient>
<linearGradient id="paint4_linear_2302_7084" x1="-7.35337" y1="200.805" x2="57.4313" y2="200.805" gradientUnits="userSpaceOnUse">
<stop stop-color="#E4E8EF"/>
<stop offset="1" stop-color="#A0A5B0"/>
</linearGradient>
<linearGradient id="paint5_linear_2302_7084" x1="161.396" y1="200.805" x2="226.183" y2="200.805" gradientUnits="userSpaceOnUse">
<stop stop-color="#A0A5B0"/>
<stop offset="1" stop-color="#E4E8EF"/>
</linearGradient>
<linearGradient id="paint6_linear_2302_7084" x1="115.148" y1="174.011" x2="115.148" y2="303.62" gradientUnits="userSpaceOnUse">
<stop stop-color="#E4E8EF"/>
<stop offset="1" stop-color="#A0A5B0"/>
</linearGradient>
<linearGradient id="paint7_linear_2302_7084" x1="115.147" y1="110.67" x2="115.147" y2="154.788" gradientUnits="userSpaceOnUse">
<stop offset="0.21" stop-color="#E4E8EF"/>
<stop offset="1" stop-color="#A0A5B0"/>
</linearGradient>
<linearGradient id="paint8_linear_2302_7084" x1="115.148" y1="15.9075" x2="115.148" y2="0.86256" gradientUnits="userSpaceOnUse">
<stop stop-color="#A0A5B0"/>
<stop offset="1" stop-color="#E4E8EF"/>
</linearGradient>
<linearGradient id="paint9_linear_2302_7084" x1="113.708" y1="24.8853" x2="113.708" y2="131.888" gradientUnits="userSpaceOnUse">
<stop stop-color="#E4E8EF"/>
<stop offset="1" stop-color="#A0A5B0"/>
</linearGradient>
<radialGradient id="paint10_radial_2302_7084" cx="0" cy="0" r="1" gradientUnits="userSpaceOnUse" gradientTransform="translate(115.147 78.1493) scale(81.273 46.3256)">
<stop stop-color="#55B9AE"/>
<stop offset="1" stop-color="#008B7C"/>
</radialGradient>
<radialGradient id="paint11_radial_2302_7084" cx="0" cy="0" r="1" gradientUnits="userSpaceOnUse" gradientTransform="translate(115.147 306.618) scale(39.55 7.51449)">
<stop stop-opacity="0.8"/>
<stop offset="0.93" stop-opacity="0"/>
</radialGradient>
<linearGradient id="paint12_linear_2302_7084" x1="328.587" y1="203.687" x2="328.587" y2="232.926" gradientUnits="userSpaceOnUse">
<stop stop-color="#008B7C"/>
<stop offset="1" stop-color="#006257"/>
</linearGradient>
</defs>
</svg>
