<svg width="567" height="316" viewBox="0 0 567 316" fill="none" xmlns="http://www.w3.org/2000/svg">
<circle cx="125" cy="125" r="125" fill="url(#paint0_radial_2302_8391)" fill-opacity="0.7"/>
<path d="M477.5 215C486.207 215 494.222 218.042 500.507 223.123C508.753 229.81 514 239.971 514 251.336C514 271.399 477.5 316 477.5 316C477.5 316 460.922 295.738 450.139 276.393C444.892 267.037 441 257.88 441 251.337C441 231.275 457.347 215 477.5 215ZM477.5 267.925C486.927 267.925 494.568 260.349 494.568 250.964C494.568 248.667 494.106 246.486 493.27 244.476C490.704 238.306 484.621 233.973 477.5 233.973C468.072 233.973 460.432 241.578 460.432 250.963C460.432 259.086 466.141 265.831 473.781 267.495C474.962 267.782 476.231 267.925 477.5 267.925Z" fill="#199E90"/>
<path d="M16.0001 268C24.8368 268 32 275.247 32 284.186C32 293.125 16.0001 313 16.0001 313C16.0001 313 0 293.125 0 284.186C0 275.247 7.16365 268 16.0001 268ZM16.0001 291.588C20.1305 291.588 23.4789 288.2 23.4789 284.022C23.4789 279.843 20.1305 276.456 16.0001 276.456C11.8696 276.456 8.5213 279.843 8.5213 284.022C8.52154 288.2 11.8699 291.588 16.0001 291.588Z" fill="#008B7C"/>
<mask id="path-4-inside-1_2302_8391" fill="white">
<path d="M20.028 261.165C20.0457 261.111 20.4468 259.808 21.313 257.44C21.434 257.105 21.804 256.935 22.1356 257.056C22.47 257.18 22.6418 257.548 22.5187 257.883C21.6678 260.215 21.2619 261.531 21.2567 261.544C21.1717 261.822 20.9175 262 20.6422 262C20.5804 262 20.5164 261.99 20.4547 261.972C20.1151 261.866 19.925 261.505 20.028 261.165ZM22.6982 253.796C23.1584 252.625 23.6519 251.412 24.161 250.192C24.2997 249.865 24.6751 249.71 25.0013 249.846C25.3304 249.985 25.4845 250.361 25.346 250.688C24.8395 251.901 24.3511 253.106 23.8939 254.267C23.7935 254.52 23.5518 254.677 23.2947 254.677C23.2179 254.677 23.1382 254.661 23.061 254.631C22.7292 254.499 22.5672 254.126 22.6982 253.796ZM525.443 251.19C526.592 250.624 527.774 250.07 528.954 249.543C529.278 249.398 529.658 249.545 529.802 249.869C529.946 250.194 529.8 250.575 529.476 250.719C528.311 251.239 527.145 251.785 526.011 252.346C525.921 252.39 525.823 252.413 525.728 252.413C525.492 252.413 525.263 252.279 525.15 252.053C524.996 251.734 525.124 251.348 525.443 251.19ZM532.521 248.031C533.711 247.553 534.93 247.086 536.143 246.649C536.477 246.528 536.844 246.703 536.965 247.037C537.084 247.372 536.911 247.74 536.577 247.861C535.38 248.294 534.177 248.752 532.999 249.226C532.922 249.257 532.84 249.272 532.76 249.272C532.506 249.272 532.264 249.118 532.164 248.868C532.033 248.538 532.192 248.163 532.521 248.031ZM25.6952 246.623C26.2094 245.459 26.7463 244.269 27.2938 243.085C27.4429 242.763 27.8233 242.624 28.1471 242.773C28.4685 242.923 28.6099 243.304 28.4584 243.628C27.916 244.802 27.3814 245.987 26.8699 247.143C26.7648 247.385 26.5308 247.527 26.284 247.527C26.1967 247.527 26.109 247.508 26.0245 247.472C25.6979 247.328 25.5515 246.947 25.6952 246.623ZM539.808 245.397C541.021 245.003 542.268 244.625 543.512 244.27C543.854 244.169 544.208 244.367 544.306 244.71C544.404 245.052 544.208 245.408 543.867 245.506C542.636 245.858 541.402 246.234 540.202 246.623C540.137 246.644 540.071 246.654 540.004 246.654C539.734 246.654 539.482 246.479 539.392 246.206C539.284 245.868 539.469 245.505 539.808 245.397ZM547.252 243.263C548.49 242.949 549.76 242.65 551.019 242.372C551.366 242.295 551.708 242.516 551.785 242.861C551.86 243.209 551.641 243.554 551.295 243.628C550.048 243.904 548.794 244.2 547.565 244.509C547.514 244.522 547.46 244.53 547.409 244.53C547.121 244.53 546.858 244.334 546.787 244.043C546.699 243.698 546.907 243.348 547.252 243.263ZM554.81 241.594C556.065 241.355 557.347 241.131 558.622 240.925C558.972 240.865 559.301 241.108 559.357 241.458C559.414 241.808 559.177 242.14 558.825 242.197C557.563 242.4 556.291 242.622 555.05 242.858C555.009 242.866 554.97 242.871 554.929 242.871C554.629 242.871 554.359 242.655 554.299 242.346C554.232 241.996 554.461 241.661 554.81 241.594ZM562.449 240.361C563.709 240.191 564.999 240.034 566.289 239.895C566.644 239.856 566.96 240.111 566.996 240.464C567.035 240.819 566.78 241.136 566.428 241.174C565.151 241.313 563.868 241.468 562.619 241.635C562.59 241.64 562.562 241.64 562.534 241.64C562.215 241.64 561.94 241.406 561.897 241.084C561.85 240.732 562.097 240.407 562.449 240.361ZM28.9517 239.578C29.5095 238.425 30.0878 237.256 30.6713 236.102C30.8306 235.786 31.2163 235.657 31.5349 235.817C31.851 235.979 31.977 236.365 31.8178 236.682C31.2396 237.83 30.6636 238.994 30.1086 240.14C29.9982 240.369 29.7694 240.503 29.5304 240.503C29.4377 240.503 29.34 240.482 29.25 240.438C28.9313 240.284 28.7976 239.897 28.9517 239.578ZM32.4448 232.655C33.041 231.519 33.6581 230.371 34.2748 229.238C34.4445 228.926 34.8352 228.813 35.1461 228.983C35.4571 229.153 35.5728 229.544 35.4031 229.856C34.7886 230.981 34.1746 232.124 33.5834 233.254C33.4678 233.473 33.2441 233.597 33.0129 233.597C32.9126 233.597 32.8096 233.574 32.7146 233.525C32.4011 233.357 32.2802 232.968 32.4448 232.655ZM36.1587 225.852C36.7936 224.735 37.4438 223.604 38.0964 222.494C38.2765 222.188 38.6723 222.088 38.9755 222.268C39.2812 222.448 39.3842 222.842 39.2042 223.148C38.554 224.253 37.9064 225.376 37.2765 226.488C37.1584 226.696 36.94 226.813 36.7163 226.813C36.6085 226.813 36.5005 226.787 36.4002 226.73C36.092 226.552 35.9839 226.161 36.1587 225.852ZM432.2 219.327C432.488 219.121 432.889 219.191 433.095 219.482C433.835 220.53 434.58 221.601 435.305 222.659C435.506 222.953 435.431 223.352 435.138 223.555C435.028 223.63 434.902 223.666 434.776 223.666C434.57 223.666 434.369 223.568 434.246 223.388C433.524 222.332 432.784 221.269 432.046 220.226C431.841 219.935 431.91 219.533 432.2 219.327ZM40.0884 219.173C40.762 218.068 41.4479 216.961 42.132 215.882C42.3221 215.581 42.718 215.49 43.0187 215.681C43.3195 215.872 43.4066 216.268 43.2165 216.569C42.5379 217.643 41.8543 218.745 41.1835 219.842C41.0625 220.043 40.8517 220.151 40.636 220.151C40.5203 220.151 40.4072 220.12 40.3016 220.055C39.9987 219.871 39.9036 219.474 40.0884 219.173ZM427.641 213.094C427.926 212.882 428.327 212.939 428.54 213.222C429.314 214.255 430.087 215.303 430.841 216.335C431.049 216.623 430.987 217.025 430.699 217.236C430.586 217.319 430.452 217.357 430.321 217.357C430.123 217.357 429.928 217.267 429.802 217.095C429.054 216.065 428.283 215.022 427.515 213.997C427.301 213.712 427.358 213.31 427.641 213.094ZM44.2265 212.622C44.9332 211.544 45.6583 210.46 46.3753 209.399C46.5757 209.105 46.9741 209.031 47.2672 209.229C47.5624 209.43 47.6371 209.829 47.4393 210.122C46.7247 211.178 46.0051 212.257 45.3035 213.331C45.1802 213.518 44.9747 213.622 44.7639 213.622C44.6429 213.622 44.5222 213.586 44.4118 213.516C44.1161 213.32 44.034 212.921 44.2265 212.622ZM422.904 206.999C423.182 206.778 423.585 206.821 423.806 207.099C424.605 208.101 425.41 209.126 426.196 210.143C426.415 210.423 426.363 210.83 426.083 211.047C425.965 211.137 425.826 211.181 425.69 211.181C425.497 211.181 425.307 211.095 425.181 210.933C424.397 209.919 423.598 208.899 422.803 207.903C422.582 207.625 422.626 207.22 422.904 206.999ZM48.5756 206.211C49.3132 205.161 50.0712 204.1 50.8246 203.062C51.0352 202.774 51.4362 202.709 51.724 202.92C52.0092 203.129 52.0735 203.531 51.8654 203.819C51.1148 204.852 50.3619 205.904 49.6269 206.952C49.5009 207.13 49.3029 207.225 49.1 207.225C48.9716 207.225 48.843 207.189 48.7325 207.109C48.4418 206.904 48.3699 206.502 48.5756 206.211ZM417.987 201.046C418.259 200.817 418.663 200.85 418.894 201.121C419.719 202.097 420.554 203.096 421.372 204.092C421.598 204.365 421.56 204.772 421.285 204.996C421.166 205.096 421.02 205.145 420.876 205.145C420.691 205.145 420.508 205.063 420.38 204.909C419.568 203.92 418.738 202.923 417.915 201.953C417.683 201.682 417.717 201.275 417.987 201.046ZM53.1272 199.946C53.9011 198.919 54.6924 197.884 55.4817 196.872C55.6974 196.592 56.1038 196.54 56.3812 196.759C56.6613 196.978 56.7127 197.382 56.4943 197.663C55.7104 198.669 54.924 199.699 54.1528 200.722C54.027 200.889 53.8344 200.979 53.6414 200.979C53.5052 200.979 53.369 200.935 53.2535 200.848C52.9705 200.634 52.9141 200.23 53.1272 199.946ZM412.893 195.245C413.158 195.008 413.564 195.029 413.8 195.291C414.661 196.247 415.525 197.22 416.37 198.185C416.604 198.453 416.576 198.86 416.309 199.094C416.188 199.203 416.036 199.254 415.887 199.254C415.707 199.254 415.53 199.179 415.404 199.035C414.561 198.072 413.703 197.104 412.847 196.154C412.61 195.891 412.63 195.484 412.893 195.245ZM57.885 193.837C58.6918 192.832 59.517 191.826 60.3396 190.842C60.5657 190.569 60.972 190.533 61.2445 190.76C61.5169 190.989 61.5529 191.393 61.3241 191.666C60.5092 192.647 59.6869 193.648 58.885 194.645C58.7566 194.802 58.5712 194.884 58.3838 194.884C58.2422 194.884 58.101 194.838 57.9801 194.74C57.705 194.519 57.6611 194.112 57.885 193.837ZM407.624 189.609C407.878 189.361 408.284 189.369 408.531 189.627C409.426 190.556 410.32 191.504 411.189 192.438C411.43 192.698 411.415 193.105 411.155 193.347C411.032 193.463 410.875 193.522 410.718 193.522C410.546 193.522 410.374 193.453 410.248 193.316C409.382 192.387 408.493 191.444 407.606 190.517C407.359 190.263 407.367 189.853 407.624 189.609ZM62.8428 187.889C63.686 186.913 64.5444 185.934 65.3976 184.979C65.6341 184.717 66.0402 184.693 66.305 184.93C66.5699 185.167 66.5927 185.574 66.3563 185.839C65.5056 186.789 64.6523 187.76 63.8144 188.731C63.6886 188.877 63.5086 188.955 63.3286 188.955C63.1795 188.955 63.0308 188.903 62.9098 188.798C62.6397 188.563 62.6114 188.159 62.8428 187.889ZM402.178 184.14C402.424 183.885 402.83 183.88 403.085 184.129C403.997 185.02 404.922 185.939 405.83 186.856C406.079 187.108 406.079 187.515 405.827 187.765C405.701 187.891 405.537 187.953 405.375 187.953C405.208 187.953 405.043 187.889 404.917 187.763C404.015 186.851 403.095 185.937 402.188 185.049C401.933 184.801 401.928 184.395 402.178 184.14ZM68.0012 182.116C68.8802 181.169 69.7721 180.221 70.6564 179.299C70.9029 179.042 71.3093 179.034 71.5663 179.281C71.8208 179.526 71.8284 179.935 71.5841 180.19C70.7051 181.107 69.8187 182.049 68.9445 182.991C68.8187 183.128 68.6464 183.197 68.4743 183.197C68.3176 183.197 68.1606 183.141 68.0372 183.025C67.7751 182.785 67.7595 182.376 68.0012 182.116ZM396.556 178.851C396.798 178.589 397.204 178.571 397.466 178.81C398.41 179.675 399.363 180.561 400.296 181.447C400.556 181.691 400.566 182.098 400.322 182.356C400.196 182.489 400.026 182.559 399.857 182.559C399.697 182.559 399.538 182.5 399.415 182.381C398.484 181.503 397.538 180.62 396.598 179.76C396.335 179.521 396.317 179.111 396.556 178.851ZM73.36 176.529C74.2673 175.615 75.1927 174.701 76.1129 173.807C76.3673 173.56 76.7735 173.565 77.0202 173.82C77.2667 174.078 77.2617 174.484 77.0073 174.732C76.092 175.62 75.172 176.529 74.27 177.438C74.1442 177.564 73.9796 177.626 73.8149 177.626C73.6502 177.626 73.4885 177.564 73.3624 177.438C73.1109 177.188 73.1109 176.781 73.36 176.529ZM390.768 173.748C390.999 173.477 391.406 173.447 391.676 173.678C392.647 174.51 393.626 175.365 394.593 176.22C394.858 176.454 394.883 176.861 394.647 177.129C394.521 177.273 394.344 177.345 394.166 177.345C394.015 177.345 393.863 177.291 393.74 177.183C392.781 176.333 391.807 175.484 390.841 174.654C390.57 174.425 390.54 174.018 390.768 173.748ZM384.815 168.84C385.036 168.562 385.443 168.519 385.718 168.74C386.72 169.54 387.728 170.364 388.717 171.183C388.992 171.41 389.028 171.817 388.802 172.09C388.676 172.244 388.494 172.324 388.308 172.324C388.164 172.324 388.018 172.275 387.897 172.175C386.915 171.361 385.911 170.542 384.916 169.747C384.638 169.523 384.595 169.118 384.815 168.84ZM78.9145 171.137C79.8526 170.257 80.8112 169.376 81.7622 168.516C82.0272 168.279 82.4331 168.3 82.6695 168.562C82.9084 168.828 82.8853 169.234 82.6234 169.474C81.6775 170.326 80.7238 171.201 79.7908 172.077C79.6675 172.193 79.5105 172.249 79.3513 172.249C79.1816 172.249 79.0093 172.183 78.8835 172.046C78.6418 171.786 78.6548 171.379 78.9145 171.137ZM378.701 164.136C378.914 163.853 379.315 163.794 379.601 164.007C380.624 164.769 381.659 165.557 382.68 166.348C382.96 166.564 383.011 166.968 382.795 167.249C382.669 167.414 382.479 167.501 382.286 167.501C382.15 167.501 382.011 167.457 381.893 167.365C380.88 166.582 379.85 165.799 378.832 165.037C378.547 164.826 378.488 164.422 378.701 164.136ZM84.6591 165.949C85.6281 165.107 86.6175 164.262 87.6018 163.436C87.8745 163.209 88.2806 163.245 88.5091 163.518C88.7352 163.791 88.6995 164.195 88.4268 164.425C87.4477 165.246 86.4631 166.085 85.5018 166.922C85.3811 167.028 85.2294 167.079 85.0804 167.079C84.9003 167.079 84.7232 167.004 84.5948 166.858C84.3634 166.59 84.3914 166.183 84.6591 165.949ZM372.429 159.643C372.633 159.352 373.033 159.28 373.324 159.483C374.378 160.215 375.439 160.967 376.483 161.718C376.771 161.924 376.835 162.328 376.629 162.617C376.503 162.792 376.305 162.885 376.105 162.885C375.976 162.885 375.845 162.844 375.732 162.764C374.694 162.015 373.637 161.268 372.591 160.539C372.301 160.338 372.229 159.937 372.429 159.643ZM90.5935 160.98C91.5985 160.168 92.6189 159.362 93.6289 158.58C93.909 158.361 94.3127 158.415 94.5309 158.696C94.747 158.976 94.6956 159.381 94.4154 159.597C93.4131 160.374 92.3981 161.178 91.3981 161.983C91.28 162.079 91.1384 162.125 90.9972 162.125C90.8095 162.125 90.6219 162.043 90.4961 161.886C90.2724 161.608 90.3161 161.203 90.5935 160.98ZM366.012 155.369C366.204 155.07 366.6 154.983 366.901 155.176C367.978 155.874 369.065 156.587 370.132 157.303C370.425 157.501 370.504 157.9 370.306 158.196C370.183 158.382 369.98 158.482 369.772 158.482C369.651 158.482 369.525 158.446 369.417 158.371C368.356 157.661 367.276 156.95 366.204 156.26C365.906 156.067 365.819 155.668 366.012 155.369ZM96.7082 156.237C97.7415 155.467 98.7926 154.699 99.8336 153.955C100.121 153.749 100.522 153.816 100.73 154.105C100.936 154.393 100.869 154.797 100.581 155.003C99.548 155.742 98.5022 156.504 97.4763 157.272C97.3609 157.357 97.2271 157.398 97.0932 157.398C96.8954 157.398 96.7027 157.308 96.5769 157.138C96.3664 156.855 96.4254 156.45 96.7082 156.237ZM359.45 151.316C359.632 151.01 360.026 150.912 360.332 151.092C361.429 151.751 362.542 152.428 363.632 153.105C363.935 153.293 364.028 153.69 363.84 153.994C363.719 154.189 363.508 154.298 363.292 154.298C363.177 154.298 363.061 154.267 362.956 154.2C361.869 153.525 360.766 152.853 359.671 152.199C359.368 152.017 359.267 151.622 359.45 151.316ZM103 151.733C104.062 151.004 105.141 150.278 106.21 149.573C106.509 149.377 106.907 149.46 107.102 149.758C107.298 150.054 107.215 150.453 106.917 150.649C105.856 151.35 104.782 152.07 103.728 152.794C103.617 152.871 103.491 152.907 103.365 152.907C103.16 152.907 102.959 152.809 102.836 152.629C102.635 152.336 102.71 151.934 103 151.733ZM352.752 147.493C352.924 147.181 353.315 147.068 353.626 147.24C354.752 147.861 355.885 148.499 356.995 149.138C357.304 149.316 357.409 149.707 357.232 150.016C357.113 150.224 356.898 150.34 356.674 150.34C356.566 150.34 356.455 150.312 356.355 150.255C355.25 149.619 354.124 148.983 353.006 148.368C352.695 148.195 352.582 147.804 352.752 147.493ZM109.462 147.477C110.541 146.795 111.649 146.11 112.754 145.443C113.058 145.26 113.451 145.358 113.636 145.662C113.818 145.966 113.721 146.362 113.417 146.545C112.32 147.209 111.22 147.889 110.148 148.566C110.04 148.633 109.922 148.664 109.806 148.664C109.593 148.664 109.385 148.559 109.261 148.366C109.071 148.064 109.161 147.665 109.462 147.477ZM345.928 143.901C346.09 143.584 346.475 143.458 346.794 143.617C347.935 144.199 349.09 144.799 350.225 145.399C350.539 145.567 350.657 145.955 350.493 146.269C350.377 146.488 350.153 146.612 349.925 146.612C349.822 146.612 349.719 146.589 349.624 146.537C348.496 145.94 347.347 145.345 346.211 144.766C345.894 144.606 345.769 144.217 345.928 143.901ZM116.085 143.476C117.198 142.829 118.331 142.191 119.452 141.573C119.763 141.401 120.154 141.514 120.326 141.825C120.496 142.137 120.382 142.528 120.072 142.701C118.958 143.314 117.833 143.95 116.725 144.591C116.625 144.647 116.514 144.676 116.406 144.676C116.183 144.676 115.967 144.56 115.849 144.354C115.671 144.045 115.777 143.654 116.085 143.476ZM338.986 140.546C339.137 140.224 339.518 140.085 339.842 140.234C341.001 140.775 342.176 141.334 343.332 141.897C343.651 142.052 343.785 142.438 343.628 142.757C343.517 142.987 343.288 143.12 343.049 143.12C342.957 143.12 342.859 143.097 342.769 143.054C341.62 142.495 340.451 141.939 339.3 141.403C338.978 141.251 338.837 140.87 338.986 140.546ZM122.857 139.737C123.996 139.137 125.153 138.542 126.297 137.968C126.613 137.809 127.001 137.937 127.158 138.254C127.317 138.573 127.189 138.96 126.872 139.119C125.737 139.688 124.585 140.28 123.454 140.875C123.359 140.927 123.256 140.95 123.156 140.95C122.925 140.95 122.701 140.824 122.588 140.605C122.421 140.291 122.542 139.902 122.857 139.737ZM331.936 137.43C332.074 137.103 332.45 136.951 332.779 137.09C333.956 137.59 335.148 138.11 336.323 138.633C336.647 138.777 336.794 139.155 336.65 139.482C336.542 139.722 336.308 139.863 336.061 139.863C335.974 139.863 335.886 139.845 335.801 139.809C334.635 139.289 333.447 138.772 332.275 138.275C331.948 138.136 331.797 137.757 331.936 137.43ZM129.772 136.266C130.928 135.715 132.108 135.164 133.277 134.636C133.601 134.49 133.982 134.631 134.128 134.956C134.275 135.28 134.131 135.661 133.807 135.808C132.645 136.336 131.473 136.879 130.324 137.43C130.234 137.471 130.139 137.492 130.047 137.492C129.807 137.492 129.576 137.355 129.468 137.126C129.314 136.804 129.45 136.421 129.772 136.266ZM324.783 134.554C324.911 134.222 325.281 134.057 325.613 134.183C326.81 134.647 328.018 135.126 329.209 135.607C329.538 135.741 329.694 136.114 329.561 136.444C329.461 136.696 329.221 136.848 328.967 136.848C328.885 136.848 328.805 136.833 328.725 136.799C327.543 136.32 326.34 135.844 325.15 135.386C324.819 135.257 324.654 134.886 324.783 134.554ZM136.814 133.074C137.994 132.566 139.194 132.064 140.381 131.58C140.71 131.446 141.086 131.603 141.219 131.933C141.353 132.263 141.194 132.639 140.865 132.772C139.685 133.254 138.492 133.754 137.32 134.256C137.238 134.292 137.153 134.307 137.068 134.307C136.819 134.307 136.582 134.163 136.477 133.918C136.338 133.591 136.487 133.212 136.814 133.074ZM317.537 131.917C317.656 131.58 318.023 131.402 318.357 131.521C319.568 131.943 320.791 132.381 321.997 132.821C322.328 132.945 322.5 133.313 322.377 133.648C322.282 133.908 322.037 134.07 321.776 134.07C321.701 134.07 321.627 134.057 321.555 134.031C320.357 133.591 319.138 133.156 317.933 132.736C317.599 132.618 317.422 132.252 317.537 131.917ZM310.212 129.518C310.317 129.18 310.677 128.99 311.017 129.095C312.248 129.479 313.487 129.878 314.697 130.277C315.034 130.391 315.216 130.754 315.106 131.091C315.016 131.361 314.767 131.534 314.497 131.534C314.43 131.534 314.361 131.524 314.294 131.5C313.091 131.104 311.857 130.707 310.634 130.326C310.297 130.218 310.107 129.858 310.212 129.518ZM143.977 130.156C145.17 129.698 146.388 129.242 147.599 128.802C147.933 128.681 148.301 128.853 148.421 129.188C148.542 129.523 148.37 129.891 148.038 130.012C146.835 130.45 145.622 130.903 144.437 131.359C144.363 131.387 144.283 131.4 144.209 131.4C143.949 131.4 143.705 131.243 143.607 130.988C143.481 130.656 143.646 130.282 143.977 130.156ZM302.812 127.357C302.907 127.015 303.262 126.814 303.604 126.909C304.843 127.255 306.092 127.612 307.318 127.973C307.66 128.073 307.855 128.431 307.755 128.773C307.673 129.054 307.415 129.234 307.138 129.234C307.079 129.234 307.017 129.227 306.955 129.209C305.737 128.848 304.493 128.493 303.259 128.15C302.918 128.055 302.717 127.702 302.812 127.357ZM151.246 127.52C152.459 127.105 153.695 126.698 154.919 126.307C155.255 126.199 155.618 126.384 155.726 126.724C155.834 127.064 155.646 127.425 155.31 127.532C154.094 127.921 152.865 128.328 151.66 128.737C151.593 128.761 151.524 128.773 151.454 128.773C151.187 128.773 150.938 128.604 150.845 128.336C150.732 128.001 150.912 127.636 151.246 127.52ZM295.348 125.434C295.433 125.089 295.78 124.875 296.125 124.96C297.374 125.264 298.633 125.583 299.872 125.905C300.216 125.995 300.422 126.348 300.332 126.69C300.257 126.981 299.996 127.172 299.71 127.172C299.656 127.172 299.602 127.167 299.548 127.151C298.317 126.829 297.063 126.515 295.822 126.211C295.477 126.127 295.266 125.779 295.348 125.434ZM158.612 125.164C159.838 124.796 161.087 124.435 162.326 124.09C162.665 123.995 163.02 124.196 163.115 124.538C163.21 124.88 163.012 125.236 162.671 125.331C161.439 125.674 160.198 126.032 158.98 126.397C158.918 126.415 158.856 126.425 158.795 126.425C158.517 126.425 158.262 126.245 158.18 125.964C158.078 125.625 158.27 125.267 158.612 125.164ZM287.83 123.737C287.902 123.39 288.244 123.168 288.591 123.241C289.18 123.367 289.768 123.495 290.36 123.624C291.03 123.771 291.699 123.92 292.364 124.072C292.711 124.152 292.927 124.497 292.85 124.844C292.781 125.143 292.516 125.344 292.223 125.344C292.177 125.344 292.128 125.339 292.079 125.328C291.416 125.176 290.753 125.027 290.084 124.883C289.496 124.754 288.91 124.626 288.324 124.499C287.977 124.427 287.756 124.085 287.83 123.737ZM166.058 123.088C167.294 122.766 168.556 122.452 169.808 122.154C170.155 122.071 170.502 122.285 170.584 122.63C170.667 122.975 170.453 123.323 170.109 123.405C168.865 123.704 167.611 124.015 166.379 124.335C166.325 124.347 166.272 124.355 166.218 124.355C165.932 124.355 165.673 124.162 165.598 123.871C165.508 123.529 165.714 123.176 166.058 123.088ZM280.269 122.213C280.336 121.865 280.672 121.636 281.022 121.703C282.274 121.943 283.548 122.195 284.81 122.452C285.16 122.522 285.384 122.862 285.314 123.212C285.253 123.516 284.983 123.727 284.685 123.727C284.641 123.727 284.6 123.722 284.556 123.714C283.297 123.459 282.027 123.207 280.78 122.968C280.431 122.901 280.202 122.563 280.269 122.213ZM173.576 121.289C174.828 121.013 176.1 120.745 177.359 120.493C177.707 120.421 178.046 120.648 178.115 120.995C178.184 121.345 177.961 121.682 177.611 121.755C176.362 122.004 175.095 122.272 173.851 122.545C173.805 122.555 173.758 122.56 173.715 122.56C173.419 122.56 173.152 122.354 173.088 122.056C173.011 121.708 173.229 121.366 173.576 121.289ZM272.679 120.859C272.738 120.509 273.07 120.272 273.419 120.331C274.681 120.545 275.961 120.768 277.226 120.995C277.575 121.06 277.806 121.394 277.742 121.744C277.688 122.053 277.416 122.272 277.113 122.272C277.074 122.272 277.036 122.27 276.997 122.262C275.737 122.035 274.463 121.811 273.206 121.6C272.856 121.541 272.62 121.209 272.679 120.859ZM181.153 119.762C182.415 119.533 183.695 119.309 184.962 119.1C185.309 119.043 185.643 119.281 185.7 119.633C185.759 119.983 185.52 120.313 185.17 120.372C183.911 120.578 182.639 120.799 181.384 121.028C181.346 121.036 181.307 121.039 181.269 121.039C180.965 121.039 180.693 120.823 180.639 120.511C180.575 120.161 180.806 119.826 181.153 119.762ZM265.061 119.674C265.112 119.324 265.436 119.079 265.788 119.131C267.055 119.314 268.341 119.509 269.608 119.708C269.957 119.764 270.199 120.094 270.142 120.444C270.093 120.761 269.821 120.987 269.51 120.987C269.476 120.987 269.443 120.985 269.407 120.98C268.145 120.781 266.865 120.588 265.603 120.405C265.254 120.354 265.009 120.027 265.061 119.674ZM257.414 118.675C257.458 118.322 257.777 118.07 258.129 118.111C259.394 118.266 260.684 118.428 261.961 118.598C262.313 118.644 262.56 118.969 262.514 119.321C262.473 119.646 262.195 119.88 261.879 119.88C261.851 119.88 261.823 119.877 261.794 119.875C260.519 119.705 259.234 119.543 257.975 119.391C257.622 119.347 257.373 119.028 257.414 118.675ZM188.779 118.505C190.044 118.32 191.331 118.142 192.609 117.978C192.963 117.931 193.282 118.181 193.328 118.534C193.372 118.884 193.125 119.208 192.773 119.255C191.503 119.417 190.223 119.594 188.966 119.78C188.936 119.785 188.905 119.787 188.874 119.787C188.56 119.787 188.285 119.556 188.237 119.236C188.185 118.884 188.43 118.557 188.779 118.505ZM250.447 117.285C251.722 117.406 253.014 117.537 254.292 117.674C254.644 117.712 254.898 118.029 254.862 118.382C254.826 118.714 254.546 118.959 254.222 118.959C254.199 118.959 254.176 118.956 254.153 118.954C252.881 118.817 251.593 118.686 250.326 118.565C249.974 118.531 249.714 118.217 249.748 117.864C249.781 117.509 250.094 117.251 250.447 117.285ZM196.443 117.512C197.72 117.367 199.014 117.233 200.289 117.112C200.641 117.079 200.954 117.336 200.987 117.692C201.021 118.044 200.764 118.358 200.409 118.392C199.142 118.516 197.857 118.65 196.587 118.791C196.564 118.794 196.538 118.796 196.515 118.796C196.191 118.796 195.914 118.552 195.878 118.225C195.837 117.869 196.091 117.553 196.443 117.512ZM242.746 116.654C244.021 116.742 245.316 116.837 246.599 116.942C246.954 116.973 247.216 117.282 247.187 117.637C247.159 117.975 246.879 118.227 246.548 118.227H246.494C245.216 118.122 243.926 118.024 242.659 117.936C242.304 117.913 242.036 117.607 242.062 117.252C242.086 116.896 242.384 116.628 242.746 116.654ZM204.136 116.775C205.408 116.672 206.703 116.579 207.991 116.499C208.351 116.476 208.652 116.747 208.672 117.099C208.696 117.455 208.426 117.761 208.074 117.784C206.794 117.864 205.504 117.957 204.239 118.057C204.221 118.06 204.203 118.06 204.187 118.06C203.856 118.06 203.573 117.805 203.547 117.468C203.519 117.112 203.784 116.803 204.136 116.775ZM235.03 116.229C236.302 116.281 237.603 116.345 238.888 116.414C239.243 116.435 239.515 116.736 239.495 117.091C239.477 117.436 239.194 117.702 238.855 117.702C238.842 117.702 238.831 117.702 238.819 117.699C237.536 117.63 236.243 117.568 234.976 117.516C234.621 117.501 234.346 117.2 234.362 116.844C234.377 116.489 234.683 116.216 235.03 116.229ZM211.849 116.286C213.127 116.224 214.424 116.172 215.712 116.131C216.062 116.123 216.363 116.399 216.376 116.754C216.386 117.109 216.108 117.406 215.753 117.418C214.474 117.46 213.181 117.511 211.911 117.57H211.88C211.538 117.57 211.255 117.303 211.238 116.958C211.222 116.602 211.495 116.301 211.849 116.286ZM227.297 116.02H227.304C228.579 116.036 229.879 116.062 231.167 116.098C231.522 116.108 231.802 116.402 231.792 116.759C231.784 117.107 231.496 117.385 231.152 117.385H231.134C229.851 117.349 228.556 117.323 227.289 117.308C226.934 117.303 226.649 117.012 226.654 116.656C226.659 116.304 226.945 116.02 227.297 116.02ZM219.575 116.036C220.855 116.015 222.156 116.003 223.439 116C223.441 116 223.441 116 223.441 116C223.796 116 224.084 116.288 224.084 116.641C224.084 116.999 223.796 117.287 223.441 117.287C222.164 117.29 220.871 117.303 219.596 117.323H219.586C219.236 117.323 218.948 117.043 218.943 116.69C218.938 116.335 219.221 116.041 219.575 116.036Z"/>
</mask>
<path d="M20.028 261.165C20.0457 261.111 20.4468 259.808 21.313 257.44C21.434 257.105 21.804 256.935 22.1356 257.056C22.47 257.18 22.6418 257.548 22.5187 257.883C21.6678 260.215 21.2619 261.531 21.2567 261.544C21.1717 261.822 20.9175 262 20.6422 262C20.5804 262 20.5164 261.99 20.4547 261.972C20.1151 261.866 19.925 261.505 20.028 261.165ZM22.6982 253.796C23.1584 252.625 23.6519 251.412 24.161 250.192C24.2997 249.865 24.6751 249.71 25.0013 249.846C25.3304 249.985 25.4845 250.361 25.346 250.688C24.8395 251.901 24.3511 253.106 23.8939 254.267C23.7935 254.52 23.5518 254.677 23.2947 254.677C23.2179 254.677 23.1382 254.661 23.061 254.631C22.7292 254.499 22.5672 254.126 22.6982 253.796ZM525.443 251.19C526.592 250.624 527.774 250.07 528.954 249.543C529.278 249.398 529.658 249.545 529.802 249.869C529.946 250.194 529.8 250.575 529.476 250.719C528.311 251.239 527.145 251.785 526.011 252.346C525.921 252.39 525.823 252.413 525.728 252.413C525.492 252.413 525.263 252.279 525.15 252.053C524.996 251.734 525.124 251.348 525.443 251.19ZM532.521 248.031C533.711 247.553 534.93 247.086 536.143 246.649C536.477 246.528 536.844 246.703 536.965 247.037C537.084 247.372 536.911 247.74 536.577 247.861C535.38 248.294 534.177 248.752 532.999 249.226C532.922 249.257 532.84 249.272 532.76 249.272C532.506 249.272 532.264 249.118 532.164 248.868C532.033 248.538 532.192 248.163 532.521 248.031ZM25.6952 246.623C26.2094 245.459 26.7463 244.269 27.2938 243.085C27.4429 242.763 27.8233 242.624 28.1471 242.773C28.4685 242.923 28.6099 243.304 28.4584 243.628C27.916 244.802 27.3814 245.987 26.8699 247.143C26.7648 247.385 26.5308 247.527 26.284 247.527C26.1967 247.527 26.109 247.508 26.0245 247.472C25.6979 247.328 25.5515 246.947 25.6952 246.623ZM539.808 245.397C541.021 245.003 542.268 244.625 543.512 244.27C543.854 244.169 544.208 244.367 544.306 244.71C544.404 245.052 544.208 245.408 543.867 245.506C542.636 245.858 541.402 246.234 540.202 246.623C540.137 246.644 540.071 246.654 540.004 246.654C539.734 246.654 539.482 246.479 539.392 246.206C539.284 245.868 539.469 245.505 539.808 245.397ZM547.252 243.263C548.49 242.949 549.76 242.65 551.019 242.372C551.366 242.295 551.708 242.516 551.785 242.861C551.86 243.209 551.641 243.554 551.295 243.628C550.048 243.904 548.794 244.2 547.565 244.509C547.514 244.522 547.46 244.53 547.409 244.53C547.121 244.53 546.858 244.334 546.787 244.043C546.699 243.698 546.907 243.348 547.252 243.263ZM554.81 241.594C556.065 241.355 557.347 241.131 558.622 240.925C558.972 240.865 559.301 241.108 559.357 241.458C559.414 241.808 559.177 242.14 558.825 242.197C557.563 242.4 556.291 242.622 555.05 242.858C555.009 242.866 554.97 242.871 554.929 242.871C554.629 242.871 554.359 242.655 554.299 242.346C554.232 241.996 554.461 241.661 554.81 241.594ZM562.449 240.361C563.709 240.191 564.999 240.034 566.289 239.895C566.644 239.856 566.96 240.111 566.996 240.464C567.035 240.819 566.78 241.136 566.428 241.174C565.151 241.313 563.868 241.468 562.619 241.635C562.59 241.64 562.562 241.64 562.534 241.64C562.215 241.64 561.94 241.406 561.897 241.084C561.85 240.732 562.097 240.407 562.449 240.361ZM28.9517 239.578C29.5095 238.425 30.0878 237.256 30.6713 236.102C30.8306 235.786 31.2163 235.657 31.5349 235.817C31.851 235.979 31.977 236.365 31.8178 236.682C31.2396 237.83 30.6636 238.994 30.1086 240.14C29.9982 240.369 29.7694 240.503 29.5304 240.503C29.4377 240.503 29.34 240.482 29.25 240.438C28.9313 240.284 28.7976 239.897 28.9517 239.578ZM32.4448 232.655C33.041 231.519 33.6581 230.371 34.2748 229.238C34.4445 228.926 34.8352 228.813 35.1461 228.983C35.4571 229.153 35.5728 229.544 35.4031 229.856C34.7886 230.981 34.1746 232.124 33.5834 233.254C33.4678 233.473 33.2441 233.597 33.0129 233.597C32.9126 233.597 32.8096 233.574 32.7146 233.525C32.4011 233.357 32.2802 232.968 32.4448 232.655ZM36.1587 225.852C36.7936 224.735 37.4438 223.604 38.0964 222.494C38.2765 222.188 38.6723 222.088 38.9755 222.268C39.2812 222.448 39.3842 222.842 39.2042 223.148C38.554 224.253 37.9064 225.376 37.2765 226.488C37.1584 226.696 36.94 226.813 36.7163 226.813C36.6085 226.813 36.5005 226.787 36.4002 226.73C36.092 226.552 35.9839 226.161 36.1587 225.852ZM432.2 219.327C432.488 219.121 432.889 219.191 433.095 219.482C433.835 220.53 434.58 221.601 435.305 222.659C435.506 222.953 435.431 223.352 435.138 223.555C435.028 223.63 434.902 223.666 434.776 223.666C434.57 223.666 434.369 223.568 434.246 223.388C433.524 222.332 432.784 221.269 432.046 220.226C431.841 219.935 431.91 219.533 432.2 219.327ZM40.0884 219.173C40.762 218.068 41.4479 216.961 42.132 215.882C42.3221 215.581 42.718 215.49 43.0187 215.681C43.3195 215.872 43.4066 216.268 43.2165 216.569C42.5379 217.643 41.8543 218.745 41.1835 219.842C41.0625 220.043 40.8517 220.151 40.636 220.151C40.5203 220.151 40.4072 220.12 40.3016 220.055C39.9987 219.871 39.9036 219.474 40.0884 219.173ZM427.641 213.094C427.926 212.882 428.327 212.939 428.54 213.222C429.314 214.255 430.087 215.303 430.841 216.335C431.049 216.623 430.987 217.025 430.699 217.236C430.586 217.319 430.452 217.357 430.321 217.357C430.123 217.357 429.928 217.267 429.802 217.095C429.054 216.065 428.283 215.022 427.515 213.997C427.301 213.712 427.358 213.31 427.641 213.094ZM44.2265 212.622C44.9332 211.544 45.6583 210.46 46.3753 209.399C46.5757 209.105 46.9741 209.031 47.2672 209.229C47.5624 209.43 47.6371 209.829 47.4393 210.122C46.7247 211.178 46.0051 212.257 45.3035 213.331C45.1802 213.518 44.9747 213.622 44.7639 213.622C44.6429 213.622 44.5222 213.586 44.4118 213.516C44.1161 213.32 44.034 212.921 44.2265 212.622ZM422.904 206.999C423.182 206.778 423.585 206.821 423.806 207.099C424.605 208.101 425.41 209.126 426.196 210.143C426.415 210.423 426.363 210.83 426.083 211.047C425.965 211.137 425.826 211.181 425.69 211.181C425.497 211.181 425.307 211.095 425.181 210.933C424.397 209.919 423.598 208.899 422.803 207.903C422.582 207.625 422.626 207.22 422.904 206.999ZM48.5756 206.211C49.3132 205.161 50.0712 204.1 50.8246 203.062C51.0352 202.774 51.4362 202.709 51.724 202.92C52.0092 203.129 52.0735 203.531 51.8654 203.819C51.1148 204.852 50.3619 205.904 49.6269 206.952C49.5009 207.13 49.3029 207.225 49.1 207.225C48.9716 207.225 48.843 207.189 48.7325 207.109C48.4418 206.904 48.3699 206.502 48.5756 206.211ZM417.987 201.046C418.259 200.817 418.663 200.85 418.894 201.121C419.719 202.097 420.554 203.096 421.372 204.092C421.598 204.365 421.56 204.772 421.285 204.996C421.166 205.096 421.02 205.145 420.876 205.145C420.691 205.145 420.508 205.063 420.38 204.909C419.568 203.92 418.738 202.923 417.915 201.953C417.683 201.682 417.717 201.275 417.987 201.046ZM53.1272 199.946C53.9011 198.919 54.6924 197.884 55.4817 196.872C55.6974 196.592 56.1038 196.54 56.3812 196.759C56.6613 196.978 56.7127 197.382 56.4943 197.663C55.7104 198.669 54.924 199.699 54.1528 200.722C54.027 200.889 53.8344 200.979 53.6414 200.979C53.5052 200.979 53.369 200.935 53.2535 200.848C52.9705 200.634 52.9141 200.23 53.1272 199.946ZM412.893 195.245C413.158 195.008 413.564 195.029 413.8 195.291C414.661 196.247 415.525 197.22 416.37 198.185C416.604 198.453 416.576 198.86 416.309 199.094C416.188 199.203 416.036 199.254 415.887 199.254C415.707 199.254 415.53 199.179 415.404 199.035C414.561 198.072 413.703 197.104 412.847 196.154C412.61 195.891 412.63 195.484 412.893 195.245ZM57.885 193.837C58.6918 192.832 59.517 191.826 60.3396 190.842C60.5657 190.569 60.972 190.533 61.2445 190.76C61.5169 190.989 61.5529 191.393 61.3241 191.666C60.5092 192.647 59.6869 193.648 58.885 194.645C58.7566 194.802 58.5712 194.884 58.3838 194.884C58.2422 194.884 58.101 194.838 57.9801 194.74C57.705 194.519 57.6611 194.112 57.885 193.837ZM407.624 189.609C407.878 189.361 408.284 189.369 408.531 189.627C409.426 190.556 410.32 191.504 411.189 192.438C411.43 192.698 411.415 193.105 411.155 193.347C411.032 193.463 410.875 193.522 410.718 193.522C410.546 193.522 410.374 193.453 410.248 193.316C409.382 192.387 408.493 191.444 407.606 190.517C407.359 190.263 407.367 189.853 407.624 189.609ZM62.8428 187.889C63.686 186.913 64.5444 185.934 65.3976 184.979C65.6341 184.717 66.0402 184.693 66.305 184.93C66.5699 185.167 66.5927 185.574 66.3563 185.839C65.5056 186.789 64.6523 187.76 63.8144 188.731C63.6886 188.877 63.5086 188.955 63.3286 188.955C63.1795 188.955 63.0308 188.903 62.9098 188.798C62.6397 188.563 62.6114 188.159 62.8428 187.889ZM402.178 184.14C402.424 183.885 402.83 183.88 403.085 184.129C403.997 185.02 404.922 185.939 405.83 186.856C406.079 187.108 406.079 187.515 405.827 187.765C405.701 187.891 405.537 187.953 405.375 187.953C405.208 187.953 405.043 187.889 404.917 187.763C404.015 186.851 403.095 185.937 402.188 185.049C401.933 184.801 401.928 184.395 402.178 184.14ZM68.0012 182.116C68.8802 181.169 69.7721 180.221 70.6564 179.299C70.9029 179.042 71.3093 179.034 71.5663 179.281C71.8208 179.526 71.8284 179.935 71.5841 180.19C70.7051 181.107 69.8187 182.049 68.9445 182.991C68.8187 183.128 68.6464 183.197 68.4743 183.197C68.3176 183.197 68.1606 183.141 68.0372 183.025C67.7751 182.785 67.7595 182.376 68.0012 182.116ZM396.556 178.851C396.798 178.589 397.204 178.571 397.466 178.81C398.41 179.675 399.363 180.561 400.296 181.447C400.556 181.691 400.566 182.098 400.322 182.356C400.196 182.489 400.026 182.559 399.857 182.559C399.697 182.559 399.538 182.5 399.415 182.381C398.484 181.503 397.538 180.62 396.598 179.76C396.335 179.521 396.317 179.111 396.556 178.851ZM73.36 176.529C74.2673 175.615 75.1927 174.701 76.1129 173.807C76.3673 173.56 76.7735 173.565 77.0202 173.82C77.2667 174.078 77.2617 174.484 77.0073 174.732C76.092 175.62 75.172 176.529 74.27 177.438C74.1442 177.564 73.9796 177.626 73.8149 177.626C73.6502 177.626 73.4885 177.564 73.3624 177.438C73.1109 177.188 73.1109 176.781 73.36 176.529ZM390.768 173.748C390.999 173.477 391.406 173.447 391.676 173.678C392.647 174.51 393.626 175.365 394.593 176.22C394.858 176.454 394.883 176.861 394.647 177.129C394.521 177.273 394.344 177.345 394.166 177.345C394.015 177.345 393.863 177.291 393.74 177.183C392.781 176.333 391.807 175.484 390.841 174.654C390.57 174.425 390.54 174.018 390.768 173.748ZM384.815 168.84C385.036 168.562 385.443 168.519 385.718 168.74C386.72 169.54 387.728 170.364 388.717 171.183C388.992 171.41 389.028 171.817 388.802 172.09C388.676 172.244 388.494 172.324 388.308 172.324C388.164 172.324 388.018 172.275 387.897 172.175C386.915 171.361 385.911 170.542 384.916 169.747C384.638 169.523 384.595 169.118 384.815 168.84ZM78.9145 171.137C79.8526 170.257 80.8112 169.376 81.7622 168.516C82.0272 168.279 82.4331 168.3 82.6695 168.562C82.9084 168.828 82.8853 169.234 82.6234 169.474C81.6775 170.326 80.7238 171.201 79.7908 172.077C79.6675 172.193 79.5105 172.249 79.3513 172.249C79.1816 172.249 79.0093 172.183 78.8835 172.046C78.6418 171.786 78.6548 171.379 78.9145 171.137ZM378.701 164.136C378.914 163.853 379.315 163.794 379.601 164.007C380.624 164.769 381.659 165.557 382.68 166.348C382.96 166.564 383.011 166.968 382.795 167.249C382.669 167.414 382.479 167.501 382.286 167.501C382.15 167.501 382.011 167.457 381.893 167.365C380.88 166.582 379.85 165.799 378.832 165.037C378.547 164.826 378.488 164.422 378.701 164.136ZM84.6591 165.949C85.6281 165.107 86.6175 164.262 87.6018 163.436C87.8745 163.209 88.2806 163.245 88.5091 163.518C88.7352 163.791 88.6995 164.195 88.4268 164.425C87.4477 165.246 86.4631 166.085 85.5018 166.922C85.3811 167.028 85.2294 167.079 85.0804 167.079C84.9003 167.079 84.7232 167.004 84.5948 166.858C84.3634 166.59 84.3914 166.183 84.6591 165.949ZM372.429 159.643C372.633 159.352 373.033 159.28 373.324 159.483C374.378 160.215 375.439 160.967 376.483 161.718C376.771 161.924 376.835 162.328 376.629 162.617C376.503 162.792 376.305 162.885 376.105 162.885C375.976 162.885 375.845 162.844 375.732 162.764C374.694 162.015 373.637 161.268 372.591 160.539C372.301 160.338 372.229 159.937 372.429 159.643ZM90.5935 160.98C91.5985 160.168 92.6189 159.362 93.6289 158.58C93.909 158.361 94.3127 158.415 94.5309 158.696C94.747 158.976 94.6956 159.381 94.4154 159.597C93.4131 160.374 92.3981 161.178 91.3981 161.983C91.28 162.079 91.1384 162.125 90.9972 162.125C90.8095 162.125 90.6219 162.043 90.4961 161.886C90.2724 161.608 90.3161 161.203 90.5935 160.98ZM366.012 155.369C366.204 155.07 366.6 154.983 366.901 155.176C367.978 155.874 369.065 156.587 370.132 157.303C370.425 157.501 370.504 157.9 370.306 158.196C370.183 158.382 369.98 158.482 369.772 158.482C369.651 158.482 369.525 158.446 369.417 158.371C368.356 157.661 367.276 156.95 366.204 156.26C365.906 156.067 365.819 155.668 366.012 155.369ZM96.7082 156.237C97.7415 155.467 98.7926 154.699 99.8336 153.955C100.121 153.749 100.522 153.816 100.73 154.105C100.936 154.393 100.869 154.797 100.581 155.003C99.548 155.742 98.5022 156.504 97.4763 157.272C97.3609 157.357 97.2271 157.398 97.0932 157.398C96.8954 157.398 96.7027 157.308 96.5769 157.138C96.3664 156.855 96.4254 156.45 96.7082 156.237ZM359.45 151.316C359.632 151.01 360.026 150.912 360.332 151.092C361.429 151.751 362.542 152.428 363.632 153.105C363.935 153.293 364.028 153.69 363.84 153.994C363.719 154.189 363.508 154.298 363.292 154.298C363.177 154.298 363.061 154.267 362.956 154.2C361.869 153.525 360.766 152.853 359.671 152.199C359.368 152.017 359.267 151.622 359.45 151.316ZM103 151.733C104.062 151.004 105.141 150.278 106.21 149.573C106.509 149.377 106.907 149.46 107.102 149.758C107.298 150.054 107.215 150.453 106.917 150.649C105.856 151.35 104.782 152.07 103.728 152.794C103.617 152.871 103.491 152.907 103.365 152.907C103.16 152.907 102.959 152.809 102.836 152.629C102.635 152.336 102.71 151.934 103 151.733ZM352.752 147.493C352.924 147.181 353.315 147.068 353.626 147.24C354.752 147.861 355.885 148.499 356.995 149.138C357.304 149.316 357.409 149.707 357.232 150.016C357.113 150.224 356.898 150.34 356.674 150.34C356.566 150.34 356.455 150.312 356.355 150.255C355.25 149.619 354.124 148.983 353.006 148.368C352.695 148.195 352.582 147.804 352.752 147.493ZM109.462 147.477C110.541 146.795 111.649 146.11 112.754 145.443C113.058 145.26 113.451 145.358 113.636 145.662C113.818 145.966 113.721 146.362 113.417 146.545C112.32 147.209 111.22 147.889 110.148 148.566C110.04 148.633 109.922 148.664 109.806 148.664C109.593 148.664 109.385 148.559 109.261 148.366C109.071 148.064 109.161 147.665 109.462 147.477ZM345.928 143.901C346.09 143.584 346.475 143.458 346.794 143.617C347.935 144.199 349.09 144.799 350.225 145.399C350.539 145.567 350.657 145.955 350.493 146.269C350.377 146.488 350.153 146.612 349.925 146.612C349.822 146.612 349.719 146.589 349.624 146.537C348.496 145.94 347.347 145.345 346.211 144.766C345.894 144.606 345.769 144.217 345.928 143.901ZM116.085 143.476C117.198 142.829 118.331 142.191 119.452 141.573C119.763 141.401 120.154 141.514 120.326 141.825C120.496 142.137 120.382 142.528 120.072 142.701C118.958 143.314 117.833 143.95 116.725 144.591C116.625 144.647 116.514 144.676 116.406 144.676C116.183 144.676 115.967 144.56 115.849 144.354C115.671 144.045 115.777 143.654 116.085 143.476ZM338.986 140.546C339.137 140.224 339.518 140.085 339.842 140.234C341.001 140.775 342.176 141.334 343.332 141.897C343.651 142.052 343.785 142.438 343.628 142.757C343.517 142.987 343.288 143.12 343.049 143.12C342.957 143.12 342.859 143.097 342.769 143.054C341.62 142.495 340.451 141.939 339.3 141.403C338.978 141.251 338.837 140.87 338.986 140.546ZM122.857 139.737C123.996 139.137 125.153 138.542 126.297 137.968C126.613 137.809 127.001 137.937 127.158 138.254C127.317 138.573 127.189 138.96 126.872 139.119C125.737 139.688 124.585 140.28 123.454 140.875C123.359 140.927 123.256 140.95 123.156 140.95C122.925 140.95 122.701 140.824 122.588 140.605C122.421 140.291 122.542 139.902 122.857 139.737ZM331.936 137.43C332.074 137.103 332.45 136.951 332.779 137.09C333.956 137.59 335.148 138.11 336.323 138.633C336.647 138.777 336.794 139.155 336.65 139.482C336.542 139.722 336.308 139.863 336.061 139.863C335.974 139.863 335.886 139.845 335.801 139.809C334.635 139.289 333.447 138.772 332.275 138.275C331.948 138.136 331.797 137.757 331.936 137.43ZM129.772 136.266C130.928 135.715 132.108 135.164 133.277 134.636C133.601 134.49 133.982 134.631 134.128 134.956C134.275 135.28 134.131 135.661 133.807 135.808C132.645 136.336 131.473 136.879 130.324 137.43C130.234 137.471 130.139 137.492 130.047 137.492C129.807 137.492 129.576 137.355 129.468 137.126C129.314 136.804 129.45 136.421 129.772 136.266ZM324.783 134.554C324.911 134.222 325.281 134.057 325.613 134.183C326.81 134.647 328.018 135.126 329.209 135.607C329.538 135.741 329.694 136.114 329.561 136.444C329.461 136.696 329.221 136.848 328.967 136.848C328.885 136.848 328.805 136.833 328.725 136.799C327.543 136.32 326.34 135.844 325.15 135.386C324.819 135.257 324.654 134.886 324.783 134.554ZM136.814 133.074C137.994 132.566 139.194 132.064 140.381 131.58C140.71 131.446 141.086 131.603 141.219 131.933C141.353 132.263 141.194 132.639 140.865 132.772C139.685 133.254 138.492 133.754 137.32 134.256C137.238 134.292 137.153 134.307 137.068 134.307C136.819 134.307 136.582 134.163 136.477 133.918C136.338 133.591 136.487 133.212 136.814 133.074ZM317.537 131.917C317.656 131.58 318.023 131.402 318.357 131.521C319.568 131.943 320.791 132.381 321.997 132.821C322.328 132.945 322.5 133.313 322.377 133.648C322.282 133.908 322.037 134.07 321.776 134.07C321.701 134.07 321.627 134.057 321.555 134.031C320.357 133.591 319.138 133.156 317.933 132.736C317.599 132.618 317.422 132.252 317.537 131.917ZM310.212 129.518C310.317 129.18 310.677 128.99 311.017 129.095C312.248 129.479 313.487 129.878 314.697 130.277C315.034 130.391 315.216 130.754 315.106 131.091C315.016 131.361 314.767 131.534 314.497 131.534C314.43 131.534 314.361 131.524 314.294 131.5C313.091 131.104 311.857 130.707 310.634 130.326C310.297 130.218 310.107 129.858 310.212 129.518ZM143.977 130.156C145.17 129.698 146.388 129.242 147.599 128.802C147.933 128.681 148.301 128.853 148.421 129.188C148.542 129.523 148.37 129.891 148.038 130.012C146.835 130.45 145.622 130.903 144.437 131.359C144.363 131.387 144.283 131.4 144.209 131.4C143.949 131.4 143.705 131.243 143.607 130.988C143.481 130.656 143.646 130.282 143.977 130.156ZM302.812 127.357C302.907 127.015 303.262 126.814 303.604 126.909C304.843 127.255 306.092 127.612 307.318 127.973C307.66 128.073 307.855 128.431 307.755 128.773C307.673 129.054 307.415 129.234 307.138 129.234C307.079 129.234 307.017 129.227 306.955 129.209C305.737 128.848 304.493 128.493 303.259 128.15C302.918 128.055 302.717 127.702 302.812 127.357ZM151.246 127.52C152.459 127.105 153.695 126.698 154.919 126.307C155.255 126.199 155.618 126.384 155.726 126.724C155.834 127.064 155.646 127.425 155.31 127.532C154.094 127.921 152.865 128.328 151.66 128.737C151.593 128.761 151.524 128.773 151.454 128.773C151.187 128.773 150.938 128.604 150.845 128.336C150.732 128.001 150.912 127.636 151.246 127.52ZM295.348 125.434C295.433 125.089 295.78 124.875 296.125 124.96C297.374 125.264 298.633 125.583 299.872 125.905C300.216 125.995 300.422 126.348 300.332 126.69C300.257 126.981 299.996 127.172 299.71 127.172C299.656 127.172 299.602 127.167 299.548 127.151C298.317 126.829 297.063 126.515 295.822 126.211C295.477 126.127 295.266 125.779 295.348 125.434ZM158.612 125.164C159.838 124.796 161.087 124.435 162.326 124.09C162.665 123.995 163.02 124.196 163.115 124.538C163.21 124.88 163.012 125.236 162.671 125.331C161.439 125.674 160.198 126.032 158.98 126.397C158.918 126.415 158.856 126.425 158.795 126.425C158.517 126.425 158.262 126.245 158.18 125.964C158.078 125.625 158.27 125.267 158.612 125.164ZM287.83 123.737C287.902 123.39 288.244 123.168 288.591 123.241C289.18 123.367 289.768 123.495 290.36 123.624C291.03 123.771 291.699 123.92 292.364 124.072C292.711 124.152 292.927 124.497 292.85 124.844C292.781 125.143 292.516 125.344 292.223 125.344C292.177 125.344 292.128 125.339 292.079 125.328C291.416 125.176 290.753 125.027 290.084 124.883C289.496 124.754 288.91 124.626 288.324 124.499C287.977 124.427 287.756 124.085 287.83 123.737ZM166.058 123.088C167.294 122.766 168.556 122.452 169.808 122.154C170.155 122.071 170.502 122.285 170.584 122.63C170.667 122.975 170.453 123.323 170.109 123.405C168.865 123.704 167.611 124.015 166.379 124.335C166.325 124.347 166.272 124.355 166.218 124.355C165.932 124.355 165.673 124.162 165.598 123.871C165.508 123.529 165.714 123.176 166.058 123.088ZM280.269 122.213C280.336 121.865 280.672 121.636 281.022 121.703C282.274 121.943 283.548 122.195 284.81 122.452C285.16 122.522 285.384 122.862 285.314 123.212C285.253 123.516 284.983 123.727 284.685 123.727C284.641 123.727 284.6 123.722 284.556 123.714C283.297 123.459 282.027 123.207 280.78 122.968C280.431 122.901 280.202 122.563 280.269 122.213ZM173.576 121.289C174.828 121.013 176.1 120.745 177.359 120.493C177.707 120.421 178.046 120.648 178.115 120.995C178.184 121.345 177.961 121.682 177.611 121.755C176.362 122.004 175.095 122.272 173.851 122.545C173.805 122.555 173.758 122.56 173.715 122.56C173.419 122.56 173.152 122.354 173.088 122.056C173.011 121.708 173.229 121.366 173.576 121.289ZM272.679 120.859C272.738 120.509 273.07 120.272 273.419 120.331C274.681 120.545 275.961 120.768 277.226 120.995C277.575 121.06 277.806 121.394 277.742 121.744C277.688 122.053 277.416 122.272 277.113 122.272C277.074 122.272 277.036 122.27 276.997 122.262C275.737 122.035 274.463 121.811 273.206 121.6C272.856 121.541 272.62 121.209 272.679 120.859ZM181.153 119.762C182.415 119.533 183.695 119.309 184.962 119.1C185.309 119.043 185.643 119.281 185.7 119.633C185.759 119.983 185.52 120.313 185.17 120.372C183.911 120.578 182.639 120.799 181.384 121.028C181.346 121.036 181.307 121.039 181.269 121.039C180.965 121.039 180.693 120.823 180.639 120.511C180.575 120.161 180.806 119.826 181.153 119.762ZM265.061 119.674C265.112 119.324 265.436 119.079 265.788 119.131C267.055 119.314 268.341 119.509 269.608 119.708C269.957 119.764 270.199 120.094 270.142 120.444C270.093 120.761 269.821 120.987 269.51 120.987C269.476 120.987 269.443 120.985 269.407 120.98C268.145 120.781 266.865 120.588 265.603 120.405C265.254 120.354 265.009 120.027 265.061 119.674ZM257.414 118.675C257.458 118.322 257.777 118.07 258.129 118.111C259.394 118.266 260.684 118.428 261.961 118.598C262.313 118.644 262.56 118.969 262.514 119.321C262.473 119.646 262.195 119.88 261.879 119.88C261.851 119.88 261.823 119.877 261.794 119.875C260.519 119.705 259.234 119.543 257.975 119.391C257.622 119.347 257.373 119.028 257.414 118.675ZM188.779 118.505C190.044 118.32 191.331 118.142 192.609 117.978C192.963 117.931 193.282 118.181 193.328 118.534C193.372 118.884 193.125 119.208 192.773 119.255C191.503 119.417 190.223 119.594 188.966 119.78C188.936 119.785 188.905 119.787 188.874 119.787C188.56 119.787 188.285 119.556 188.237 119.236C188.185 118.884 188.43 118.557 188.779 118.505ZM250.447 117.285C251.722 117.406 253.014 117.537 254.292 117.674C254.644 117.712 254.898 118.029 254.862 118.382C254.826 118.714 254.546 118.959 254.222 118.959C254.199 118.959 254.176 118.956 254.153 118.954C252.881 118.817 251.593 118.686 250.326 118.565C249.974 118.531 249.714 118.217 249.748 117.864C249.781 117.509 250.094 117.251 250.447 117.285ZM196.443 117.512C197.72 117.367 199.014 117.233 200.289 117.112C200.641 117.079 200.954 117.336 200.987 117.692C201.021 118.044 200.764 118.358 200.409 118.392C199.142 118.516 197.857 118.65 196.587 118.791C196.564 118.794 196.538 118.796 196.515 118.796C196.191 118.796 195.914 118.552 195.878 118.225C195.837 117.869 196.091 117.553 196.443 117.512ZM242.746 116.654C244.021 116.742 245.316 116.837 246.599 116.942C246.954 116.973 247.216 117.282 247.187 117.637C247.159 117.975 246.879 118.227 246.548 118.227H246.494C245.216 118.122 243.926 118.024 242.659 117.936C242.304 117.913 242.036 117.607 242.062 117.252C242.086 116.896 242.384 116.628 242.746 116.654ZM204.136 116.775C205.408 116.672 206.703 116.579 207.991 116.499C208.351 116.476 208.652 116.747 208.672 117.099C208.696 117.455 208.426 117.761 208.074 117.784C206.794 117.864 205.504 117.957 204.239 118.057C204.221 118.06 204.203 118.06 204.187 118.06C203.856 118.06 203.573 117.805 203.547 117.468C203.519 117.112 203.784 116.803 204.136 116.775ZM235.03 116.229C236.302 116.281 237.603 116.345 238.888 116.414C239.243 116.435 239.515 116.736 239.495 117.091C239.477 117.436 239.194 117.702 238.855 117.702C238.842 117.702 238.831 117.702 238.819 117.699C237.536 117.63 236.243 117.568 234.976 117.516C234.621 117.501 234.346 117.2 234.362 116.844C234.377 116.489 234.683 116.216 235.03 116.229ZM211.849 116.286C213.127 116.224 214.424 116.172 215.712 116.131C216.062 116.123 216.363 116.399 216.376 116.754C216.386 117.109 216.108 117.406 215.753 117.418C214.474 117.46 213.181 117.511 211.911 117.57H211.88C211.538 117.57 211.255 117.303 211.238 116.958C211.222 116.602 211.495 116.301 211.849 116.286ZM227.297 116.02H227.304C228.579 116.036 229.879 116.062 231.167 116.098C231.522 116.108 231.802 116.402 231.792 116.759C231.784 117.107 231.496 117.385 231.152 117.385H231.134C229.851 117.349 228.556 117.323 227.289 117.308C226.934 117.303 226.649 117.012 226.654 116.656C226.659 116.304 226.945 116.02 227.297 116.02ZM219.575 116.036C220.855 116.015 222.156 116.003 223.439 116C223.441 116 223.441 116 223.441 116C223.796 116 224.084 116.288 224.084 116.641C224.084 116.999 223.796 117.287 223.441 117.287C222.164 117.29 220.871 117.303 219.596 117.323H219.586C219.236 117.323 218.948 117.043 218.943 116.69C218.938 116.335 219.221 116.041 219.575 116.036Z" stroke="url(#paint1_linear_2302_8391)" stroke-opacity="0.5" stroke-width="2" mask="url(#path-4-inside-1_2302_8391)"/>
<path d="M450 276.341C460.806 295.712 477.42 316 477.42 316C477.42 316 514 271.34 514 251.251C514 239.87 508.741 229.696 500.477 223C499.091 229.581 496.837 237.111 493.225 244.382C494.063 246.394 494.525 248.577 494.525 250.877C494.525 260.276 486.868 267.861 477.42 267.861C476.149 267.861 474.877 267.718 473.693 267.43C467.308 271.771 459.506 274.961 450 276.341Z" fill="#008B7C"/>
<path d="M344.421 129.494C343.56 127.852 342.868 127.695 341.715 127.774C340.575 127.852 333.73 128.32 331.583 128.467C331.583 128.467 324.941 128.058 316.543 127.19C312.347 126.741 307.452 126.207 302.234 125.59C299.627 125.281 296.934 124.95 294.247 124.58C293.587 124.485 292.922 124.39 292.257 124.295C291.641 124.195 291.022 124.095 290.403 123.994L289.367 123.801L289.108 123.752L288.978 123.728C289.234 123.766 289.04 123.735 289.093 123.742L289.078 123.736L289.049 123.724L288.815 123.638C288.653 123.596 288.513 123.517 288.372 123.449C288.224 123.396 288.095 123.302 287.962 123.223C287.435 122.896 286.94 122.46 286.411 121.843C285.886 121.218 285.346 120.419 284.785 119.46C283.484 117.118 282.204 114.812 280.965 112.582C278.399 107.958 276.005 103.642 273.952 99.9426C269.847 92.5436 267.111 87.6106 267.111 87.6106C266.963 87.3456 266.795 87.077 266.617 86.8226C263.869 82.9267 258.481 81.9951 254.584 84.7413C250.686 87.4874 249.754 92.8724 252.503 96.7683L252.55 96.8356C252.55 96.8356 255.799 101.443 260.674 108.354C263.112 111.809 265.956 115.841 269.002 120.16C269.764 121.24 270.539 122.338 271.323 123.45C271.723 124.004 272.124 124.562 272.529 125.122C272.963 125.72 273.416 126.347 273.934 127.009C274.956 128.322 276.16 129.725 277.663 131.039C279.168 132.35 281.013 133.558 283.069 134.356C283.583 134.555 284.098 134.748 284.631 134.881C285.159 135.03 285.689 135.169 286.222 135.248L287.019 135.38L287.348 135.43L287.479 135.44L287.743 135.463L288.794 135.549C289.57 135.597 290.343 135.644 291.116 135.692C291.84 135.721 292.563 135.752 293.282 135.781C296.121 135.883 298.872 135.939 301.535 135.983C306.856 136.07 311.804 136.105 316.046 136.127C321.4 136.136 325.622 136.142 328.011 136.146C328.095 136.324 328.189 136.496 328.295 136.657C330.044 139.328 336.844 138.19 336.844 138.19L337.067 141.434C337.067 141.434 335.774 143.429 336.74 145.609C337.706 147.788 341.616 148.201 343.016 147.765C344.417 147.329 348.842 140.356 349.071 139.727C349.301 139.098 345.282 131.137 344.421 129.494Z" fill="#E09A72"/>
<path d="M321.134 254.939H306.259L306.138 241.306H321.013L321.134 254.939Z" fill="#F0F0F0"/>
<path d="M306.18 249.388L306.138 259.71H344.282C344.282 259.71 345.149 252.959 337.19 251.509C329.715 250.148 321.471 248.804 321.471 248.804C321.471 248.804 314.967 255.635 306.18 249.388Z" fill="#2B2725"/>
<path d="M344.988 261.238C345.027 261.899 344.549 262.437 343.92 262.437H306.722C306.094 262.437 305.554 261.899 305.516 261.238L305.457 260.227C305.419 259.565 305.898 259.028 306.525 259.028H343.722C344.35 259.028 344.89 259.565 344.929 260.227L344.988 261.238Z" fill="#403936"/>
<path d="M310.684 160.872C306.722 160.872 233.883 160.872 233.883 160.872L234.52 171.106C234.52 171.109 234.52 171.113 234.52 171.117C234.871 176.775 239.774 181.362 245.467 181.362H303.012C305.876 181.362 307.495 182.068 307.273 186.954C306.98 193.426 304.532 246.759 304.532 246.759H323.955C323.955 246.759 326.926 181.567 327.188 178.48C328.109 167.664 320.983 160.872 310.684 160.872Z" fill="#4B4B4B"/>
<path d="M186.85 205.86H182.696L151.404 180.64H155.558L186.85 205.86Z" fill="#555555"/>
<path d="M202.528 205.86H198.373L167.082 180.64H171.237L202.528 205.86Z" fill="#555555"/>
<path opacity="0.1" d="M283.562 315.605C360.923 315.605 423.636 313.027 423.636 309.847C423.636 306.667 360.923 304.089 283.562 304.089C206.201 304.089 143.488 306.667 143.488 309.847C143.488 313.027 206.201 315.605 283.562 315.605Z" fill="black"/>
<path d="M280.399 206.151V197.169C280.399 188.349 273.462 181.198 264.904 181.198H200.614C192.057 181.198 185.119 188.348 185.119 197.169V206.151H280.399Z" fill="#2B3030"/>
<path d="M232.999 181.198H224.837V205.519H232.999V181.198Z" fill="#3F4547"/>
<path d="M281.887 201.705C281.887 203.625 280.373 205.181 278.507 205.181H186.003C184.137 205.181 182.623 203.624 182.623 201.705C182.623 199.785 184.137 198.229 186.003 198.229H278.507C280.374 198.229 281.887 199.785 281.887 201.705Z" fill="#7B868A"/>
<path d="M286.622 277.759V283.35C286.622 287.122 289.679 290.179 293.451 290.179H300.382C304.154 290.179 307.211 287.122 307.211 283.35V277.759H286.622Z" fill="#495052"/>
<path d="M333.846 275.944C333.846 277.819 332.326 279.339 330.451 279.339H260.395C258.52 279.339 256.999 277.819 256.999 275.944C256.999 274.068 258.52 272.548 260.395 272.548H330.451C332.326 272.548 333.846 274.068 333.846 275.944Z" fill="#272E30"/>
<path d="M361.579 142.865C361.579 144.959 359.881 146.657 357.787 146.657H356.167C354.073 146.657 352.375 144.959 352.375 142.865V132.042C352.375 129.948 354.073 128.25 356.167 128.25H357.787C359.881 128.25 361.579 129.948 361.579 132.042V142.865Z" fill="white"/>
<path d="M357.408 127.652H353.725V147.056H357.408V127.652Z" fill="#BBC0C7"/>
<path d="M178.991 216.877C178.991 219.085 177.201 220.875 174.993 220.875H160.801C158.593 220.875 156.803 219.085 156.803 216.877V207.446C156.803 205.237 158.593 203.447 160.801 203.447H174.993C177.201 203.447 178.991 205.237 178.991 207.446V216.877Z" fill="#FF0000"/>
<path d="M183.637 202.415C183.637 202.415 176.394 202.415 174.866 202.415C173.337 202.415 172.54 202.814 170.746 204.475C168.952 206.137 159.117 217.168 157.921 218.896C157.063 220.135 156.658 222.351 157.854 223.281C158.596 223.858 161.908 226.206 161.908 226.206L177.86 223.115L183.637 202.415Z" fill="#BBC0C7"/>
<path d="M385.218 271.877L390.175 258.285L395.089 260.475L388.297 273.249L401.413 267.143L403.34 272.165L389.506 276.396L403.099 281.354L400.908 286.268L388.131 279.475L394.239 292.593L389.216 294.52L384.984 280.686L380.03 294.277L375.115 292.087L381.904 279.313L368.791 285.42L366.863 280.396L380.699 276.164L367.105 271.209L369.295 266.294L382.067 273.083L375.963 259.97L380.985 258.042L385.218 271.877ZM384.88 276.047L384.78 276.271L384.868 276.501L385.093 276.601L385.322 276.513L385.422 276.289L385.333 276.06L385.108 275.96L384.88 276.047Z" fill="#95A2AB"/>
<path d="M388.877 287.094C394.849 284.999 397.991 278.46 395.897 272.489C393.802 266.518 387.263 263.376 381.292 265.47C375.321 267.565 372.178 274.103 374.273 280.074C376.368 286.046 382.906 289.188 388.877 287.094Z" fill="#BBC3C7"/>
<path d="M386.194 285.927C391.521 285.309 395.339 280.49 394.721 275.163C394.103 269.836 389.284 266.018 383.957 266.636C378.63 267.254 374.812 272.073 375.43 277.4C376.048 282.727 380.867 286.545 386.194 285.927Z" fill="#C9D2D6"/>
<path d="M389.605 276.282C389.605 278.77 387.588 280.787 385.1 280.787C382.612 280.787 380.595 278.77 380.595 276.282C380.595 273.793 382.612 271.776 385.1 271.776C387.588 271.776 389.605 273.793 389.605 276.282Z" fill="#929799"/>
<path d="M385.101 242.519C366.455 242.519 351.339 257.635 351.339 276.281C351.339 294.928 366.455 310.044 385.101 310.044C403.748 310.044 418.864 294.928 418.864 276.281C418.864 257.635 403.748 242.519 385.101 242.519ZM385.101 293.302C375.701 293.302 368.08 285.681 368.08 276.281C368.08 266.881 375.7 259.26 385.101 259.26C394.502 259.26 402.123 266.881 402.123 276.281C402.123 285.681 394.502 293.302 385.101 293.302Z" fill="#111617"/>
<path d="M385.102 251.865C371.617 251.865 360.686 262.797 360.686 276.281C360.686 289.766 371.617 300.698 385.102 300.698C398.586 300.698 409.518 289.766 409.518 276.281C409.518 262.797 398.586 251.865 385.102 251.865ZM385.102 293.303C375.701 293.303 368.081 285.682 368.081 276.281C368.081 266.881 375.701 259.26 385.102 259.26C394.502 259.26 402.123 266.881 402.123 276.281C402.123 285.682 394.502 293.303 385.102 293.303Z" fill="#272E30"/>
<path d="M385.102 255.645C373.704 255.645 364.465 264.884 364.465 276.281C364.465 287.679 373.705 296.918 385.102 296.918C396.499 296.918 405.738 287.679 405.738 276.281C405.738 264.884 396.499 255.645 385.102 255.645ZM385.102 293.039C375.847 293.039 368.344 285.536 368.344 276.281C368.344 267.026 375.847 259.524 385.102 259.524C394.357 259.524 401.859 267.026 401.859 276.281C401.859 285.536 394.357 293.039 385.102 293.039Z" fill="#495052"/>
<path d="M343.688 269.936C343.688 269.936 352.005 269.936 353.392 269.936C354.778 269.936 355.786 269.384 357.046 266.989C358.306 264.594 366.372 251.614 370.405 249.094C374.438 246.573 419.05 243.171 419.05 243.171C419.05 243.171 411.236 219.856 375.194 223.889L355.786 231.198L343.688 269.936Z" fill="#01897A"/>
<path d="M256.632 261.663C256.632 271.946 253.315 280.238 234.572 289.195L206.874 298.649L182.99 280.787C182.99 280.787 187.954 256.354 187.954 256.853C187.954 257.351 206.874 248.726 206.874 248.726L256.632 261.663Z" fill="#363C3D"/>
<path d="M206.188 271.885L211.145 258.294L216.059 260.483L209.268 273.257L222.382 267.151L224.308 272.175L210.474 276.405L224.066 281.362L221.877 286.276L209.104 279.485L215.212 292.602L210.188 294.528L205.955 280.69L201 294.286L196.085 292.096L202.873 279.321L189.759 285.429L187.832 280.405L201.668 276.173L188.074 271.218L190.264 266.303L203.04 273.095L196.934 259.979L201.957 258.051L206.188 271.885ZM205.848 276.058L205.748 276.279L205.836 276.509L206.063 276.61L206.29 276.523L206.391 276.298L206.302 276.067L206.08 275.969L205.848 276.058Z" fill="#95A2AB"/>
<path d="M210.603 286.85C216.441 284.409 219.196 277.698 216.755 271.859C214.314 266.021 207.603 263.267 201.765 265.708C195.926 268.148 193.172 274.86 195.613 280.698C198.053 286.536 204.765 289.291 210.603 286.85Z" fill="#BBC3C7"/>
<path d="M210.54 284.985C215.342 282.596 217.297 276.766 214.907 271.965C212.517 267.163 206.688 265.208 201.886 267.598C197.085 269.988 195.13 275.817 197.519 280.619C199.909 285.42 205.739 287.375 210.54 284.985Z" fill="#C9D2D6"/>
<path d="M206.193 280.787C208.681 280.787 210.698 278.77 210.698 276.282C210.698 273.793 208.681 271.776 206.193 271.776C203.705 271.776 201.688 273.793 201.688 276.282C201.688 278.77 203.705 280.787 206.193 280.787Z" fill="#929799"/>
<path d="M206.193 242.519C187.547 242.519 172.431 257.635 172.431 276.281C172.431 294.928 187.547 310.044 206.193 310.044C224.84 310.044 239.956 294.928 239.956 276.281C239.956 257.635 224.84 242.519 206.193 242.519ZM206.193 293.302C196.793 293.302 189.172 285.681 189.172 276.281C189.172 266.881 196.793 259.26 206.193 259.26C215.594 259.26 223.214 266.881 223.214 276.281C223.214 285.681 215.594 293.302 206.193 293.302Z" fill="#111617"/>
<path d="M206.192 251.865C192.707 251.865 181.775 262.797 181.775 276.281C181.775 289.766 192.707 300.698 206.192 300.698C219.676 300.698 230.608 289.766 230.608 276.281C230.608 262.797 219.676 251.865 206.192 251.865ZM206.192 293.303C196.791 293.303 189.17 285.682 189.17 276.281C189.17 266.881 196.79 259.26 206.192 259.26C215.593 259.26 223.213 266.881 223.213 276.281C223.212 285.682 215.592 293.303 206.192 293.303Z" fill="#272E30"/>
<path d="M206.193 255.645C194.796 255.645 185.557 264.884 185.557 276.281C185.557 287.679 194.796 296.918 206.193 296.918C217.591 296.918 226.83 287.679 226.83 276.281C226.83 264.884 217.59 255.645 206.193 255.645ZM206.193 293.039C196.938 293.039 189.436 285.536 189.436 276.281C189.436 267.026 196.938 259.524 206.193 259.524C215.448 259.524 222.951 267.026 222.951 276.281C222.951 285.536 215.448 293.039 206.193 293.039Z" fill="#495052"/>
<path d="M182.528 201.571H281.887C281.887 201.571 281.887 207.539 281.887 208.363C281.887 209.187 281.558 210.123 280.058 212.121C278.559 214.12 270.045 227.484 267.648 232.944C264.649 239.773 262.816 260.93 287.471 265.761V275.922C279.309 275.922 266.648 275.922 260.818 275.922C254.988 275.922 242.994 273.923 242.994 261.93C242.994 249.936 167.199 225.782 167.199 225.782L182.528 201.571Z" fill="#01897A"/>
<path d="M250.144 262.143C250.144 264.35 248.223 266.141 245.851 266.141H149.443C147.072 266.141 145.15 264.351 145.15 262.143V259.406C145.15 257.197 147.072 255.408 149.443 255.408H245.851C248.222 255.408 250.144 257.198 250.144 259.406V262.143Z" fill="#7B868A"/>
<path d="M287.472 265.76C287.472 265.76 320.578 265.76 326.833 265.76C333.089 265.76 336.527 260.464 340.28 248.848C344.033 237.231 348.219 229.751 347.428 219.36C346.177 202.918 339.162 163.486 337.22 153.209C336.344 148.572 335.02 141.542 335.556 136.002C336.092 130.462 339.131 127.245 342.525 127.245C345.921 127.245 355.035 127.245 355.035 127.245V147.805C351.861 147.805 352.375 149.621 352.619 154.875C352.619 154.875 359.68 188.338 362.739 197.421C365.798 206.503 369.336 212.639 371.63 212.829C373.925 213.021 374.594 213.402 375.264 215.698C375.933 217.992 378.144 226.037 378.144 226.037C368.444 226.037 363.684 231.11 360.311 240.731C356.937 250.351 351.94 265.093 350.815 268.841C349.691 272.59 346.692 275.921 343.444 275.921C340.196 275.921 326.203 275.921 326.203 275.921H283.6L287.472 265.76Z" fill="#019E8D"/>
<path d="M346.022 141.311C344.937 141.311 343.937 140.598 343.622 139.503C343.572 139.331 338.61 122.144 335.288 112.979C332.955 106.542 327.407 105.961 321.894 105.961C321.844 105.961 321.796 105.961 321.748 105.961L321.352 105.962C319.973 105.962 318.854 104.844 318.854 103.463C318.854 102.082 319.972 100.964 321.352 100.964L321.739 100.963C326.428 100.958 336.24 100.937 339.987 111.274C343.366 120.599 348.22 137.407 348.425 138.118C348.806 139.444 348.042 140.829 346.715 141.211C346.484 141.279 346.25 141.311 346.022 141.311Z" fill="#BBC0C7"/>
<path d="M320.364 94.7578H319.018V112.776H320.364C321.736 112.776 322.848 111.663 322.848 110.29V97.2435C322.849 95.8708 321.736 94.7578 320.364 94.7578Z" fill="#9EA2A8"/>
<path d="M208.954 208.214C163.545 208.214 145.167 239.607 145.167 260.213L250.143 260.398C250.143 260.398 259.813 208.214 208.954 208.214Z" fill="#019E8D"/>
<path d="M330.084 148.534C327.987 149.228 325.726 148.09 325.033 145.994L324.64 144.807C323.946 142.71 325.084 140.449 327.18 139.756L345.189 133.797C347.286 133.103 349.547 134.241 350.24 136.337L350.634 137.524C351.327 139.621 350.19 141.883 348.094 142.576L330.084 148.534Z" fill="#01897A"/>
<path d="M333.011 142.696C332.483 141.098 330.759 140.232 329.161 140.76L319.571 143.934L321.484 149.718L331.074 146.544C332.673 146.016 333.54 144.293 333.011 142.696Z" fill="#111617"/>
<path d="M321.484 149.717C319.887 150.245 318.164 149.38 317.635 147.782C317.107 146.185 317.973 144.461 319.571 143.933C321.168 143.405 322.891 144.271 323.419 145.869C323.947 147.465 323.082 149.188 321.484 149.717Z" fill="#111617"/>
<path d="M316.183 90.2754H314.018V117.261H316.183C318.392 117.261 320.182 115.471 320.182 113.262V94.2728C320.182 92.0654 318.392 90.2754 316.183 90.2754Z" fill="#BBC0C7"/>
<path opacity="0.6" d="M233.111 249.275C233.111 250.445 232.162 251.393 230.993 251.393H168.916C167.746 251.393 166.798 250.445 166.798 249.275C166.798 248.105 167.746 247.157 168.916 247.157H230.993C232.162 247.157 233.111 248.105 233.111 249.275Z" fill="#007B6E"/>
<path opacity="0.6" d="M233.11 239.71C233.11 240.879 232.162 241.828 230.992 241.828H178.729C177.56 241.828 176.611 240.879 176.611 239.71C176.611 238.54 177.56 237.592 178.729 237.592H230.992C232.162 237.592 233.11 238.54 233.11 239.71Z" fill="#007B6E"/>
<path d="M335.635 264.165C335.635 265.256 334.784 266.14 333.733 266.14H279.756C278.705 266.14 277.854 265.256 277.854 264.165C277.854 263.074 278.705 262.189 279.756 262.189H333.733C334.784 262.189 335.635 263.073 335.635 264.165Z" fill="#272E30"/>
<path d="M297.806 284.365C297.806 286.486 296.087 288.205 293.967 288.205C291.846 288.205 290.127 286.486 290.127 284.365C290.127 282.245 291.846 280.525 293.967 280.525C296.087 280.525 297.806 282.245 297.806 284.365Z" fill="#76797D"/>
<path d="M295.615 284.366C295.615 285.511 294.687 286.438 293.542 286.438H269.288C268.143 286.438 267.215 285.511 267.215 284.366C267.215 283.221 268.143 282.293 269.288 282.293H293.542C294.687 282.293 295.615 283.221 295.615 284.366Z" fill="#909499"/>
<path d="M201.164 177.231H137.771V181.321H201.164V177.231Z" fill="#2B3030"/>
<path d="M204.573 175.515C204.573 176.839 203.505 177.912 202.188 177.912H137.43C136.113 177.912 135.045 176.839 135.045 175.515V114.19C135.045 112.867 136.112 111.793 137.43 111.793H202.188C203.505 111.793 204.573 112.866 204.573 114.19V175.515Z" fill="#01897A"/>
<path d="M181.109 127.32L171.975 147.526L192.948 140.325C190.96 134.532 186.641 129.825 181.109 127.32ZM179.209 142.754C178.469 142.754 177.869 142.155 177.869 141.415C177.869 140.675 178.469 140.075 179.209 140.075C179.949 140.075 180.549 140.675 180.549 141.415C180.549 142.155 179.949 142.754 179.209 142.754ZM182.18 138.174C180.845 138.174 179.762 137.091 179.762 135.756C179.762 134.42 180.845 133.337 182.18 133.337C183.516 133.337 184.599 134.42 184.599 135.756C184.599 137.091 183.516 138.174 182.18 138.174Z" fill="#FFCC00"/>
<path d="M189.677 143.252L168.703 150.453L177.838 130.247C175.052 128.985 171.961 128.277 168.703 128.277C156.456 128.277 146.527 138.206 146.527 150.453C146.527 162.701 156.456 172.629 168.703 172.629C180.951 172.629 190.879 162.701 190.879 150.453C190.879 147.931 190.452 145.51 189.677 143.252ZM153.225 144.649C153.225 142.964 154.59 141.598 156.276 141.598C157.961 141.598 159.327 142.964 159.327 144.649C159.327 146.335 157.961 147.7 156.276 147.7C154.59 147.7 153.225 146.334 153.225 144.649ZM158.21 162.285C156.567 162.285 155.234 160.953 155.234 159.309C155.234 157.665 156.567 156.332 158.21 156.332C159.854 156.332 161.187 157.665 161.187 159.309C161.187 160.953 159.854 162.285 158.21 162.285ZM162.527 152.537C161.581 152.537 160.815 151.77 160.815 150.825C160.815 149.879 161.581 149.114 162.527 149.114C163.472 149.114 164.238 149.88 164.238 150.825C164.238 151.771 163.472 152.537 162.527 152.537ZM161.336 136.686C161.336 134.631 163.002 132.965 165.057 132.965C167.112 132.965 168.778 134.631 168.778 136.686C168.778 138.741 167.112 140.407 165.057 140.407C163.002 140.407 161.336 138.741 161.336 136.686ZM168.703 167.048C167.799 167.048 167.066 166.316 167.066 165.411C167.066 164.507 167.799 163.774 168.703 163.774C169.607 163.774 170.34 164.507 170.34 165.411C170.34 166.316 169.607 167.048 168.703 167.048ZM170.712 160.351C169.027 160.351 167.661 158.984 167.661 157.3C167.661 155.615 169.028 154.249 170.712 154.249C172.398 154.249 173.763 155.615 173.763 157.3C173.763 158.984 172.398 160.351 170.712 160.351ZM179.016 162.586C178.07 162.586 177.304 161.819 177.304 160.874C177.304 159.928 178.07 159.163 179.016 159.163C179.961 159.163 180.727 159.929 180.727 160.874C180.728 161.819 179.961 162.586 179.016 162.586ZM182.545 156.183C180.449 156.183 178.75 154.484 178.75 152.388C178.75 150.292 180.448 148.592 182.545 148.592C184.642 148.592 186.341 150.291 186.341 152.388C186.341 154.484 184.641 156.183 182.545 156.183Z" fill="#FFCC00"/>
<path opacity="0.2" d="M204.573 117.246H135.045V122.018H204.573V117.246Z" fill="#591700"/>
<path d="M206.618 119.028C206.618 119.55 206.196 119.973 205.677 119.973H133.941C133.421 119.973 133 119.549 133 119.028V111.374C133 110.852 133.421 110.43 133.941 110.43H205.677C206.197 110.43 206.618 110.853 206.618 111.374V119.028Z" fill="#008B7C"/>
<path d="M314.711 134.97C314.711 134.97 324.148 134.97 325.507 134.97C326.661 134.97 327.34 135.177 328.087 136.903C328.834 138.628 332.297 146.982 332.025 147.603C331.753 148.224 326.865 154.99 325.439 155.335C324.013 155.68 320.143 154.99 319.328 152.712C318.513 150.434 319.939 148.501 319.939 148.501V145.194C319.939 145.194 313.082 145.877 311.521 143.047C309.959 140.216 311.521 134.97 314.711 134.97Z" fill="#F0A87F"/>
<path d="M321.755 149.81C320.147 150.342 318.412 149.47 317.881 147.862C317.349 146.254 318.22 144.519 319.829 143.987C321.437 143.455 323.172 144.327 323.703 145.935C324.235 147.543 323.364 149.277 321.755 149.81Z" fill="#111617"/>
<path d="M277.508 101.497L270.842 87.8034C267.978 81.9211 260.854 79.4575 254.93 82.3009C249.005 85.1442 246.524 92.2173 249.387 98.0995L256.054 111.793L277.508 101.497Z" fill="#245D4A"/>
<path d="M249.561 72.9065L252.879 65.4414L267.965 66.4658L266.381 82.4825L255.444 81.2766L249.561 72.9065Z" fill="#E09A72"/>
<path d="M298.64 254.939H284.442L284.325 241.306H298.523L298.64 254.939Z" fill="#FAFAFA"/>
<path d="M283.686 249.388L283.644 259.71H321.788C321.788 259.71 322.655 252.959 314.695 251.509C307.221 250.148 298.977 248.804 298.977 248.804C298.977 248.804 292.472 255.635 283.686 249.388Z" fill="#36302E"/>
<path d="M322.495 261.238C322.533 261.899 322.063 262.437 321.446 262.437H284.889C284.272 262.437 283.741 261.899 283.703 261.238L283.646 260.227C283.608 259.565 284.078 259.028 284.696 259.028H321.253C321.87 259.028 322.401 259.565 322.438 260.227L322.495 261.238Z" fill="#4F4743"/>
<path d="M288.318 160.872C284.388 160.872 213.995 160.872 213.995 160.872L212.752 171.106C212.752 171.109 212.752 171.113 212.752 171.117C213.101 176.775 217.965 181.362 223.614 181.362H280.706C283.548 181.362 285.154 182.068 284.935 186.954C284.644 193.426 282.216 246.759 282.216 246.759H301.486C301.486 246.759 304.434 181.567 304.695 178.48C305.607 167.664 298.536 160.872 288.318 160.872Z" fill="#393939"/>
<path d="M213.434 160.872H256.976C256.976 160.872 267.612 108.468 267.929 98.7837C268.245 89.0992 266.386 81.5102 266.386 81.5102C266.386 81.5102 254.814 82.577 249.127 71.5762C249.127 71.5762 234.121 73.1154 227.966 89.9361C221.813 106.756 213.434 160.872 213.434 160.872Z" fill="#008B7C"/>
<path d="M285.688 59.847C285.688 69.9463 281.721 77.7112 272.724 77.7112C266.171 77.7112 251.605 69.9463 251.605 59.847V48.9631C251.605 38.8638 259.235 30.6777 268.646 30.6777C278.057 30.6777 285.688 34.0661 285.688 36.8119V59.847Z" fill="#F0A87F"/>
<path d="M253.805 90.144C253.805 90.144 256.206 95.2114 259.809 102.813C261.61 106.614 263.712 111.048 265.963 115.799C267.05 118.091 268.174 120.459 269.315 122.866C269.811 123.852 270.297 124.68 270.78 125.335C271.267 125.982 271.732 126.446 272.238 126.806C272.365 126.893 272.489 126.995 272.633 127.057C272.769 127.134 272.904 127.222 273.064 127.274L273.292 127.376L273.321 127.39L273.335 127.397C273.282 127.387 273.473 127.431 273.22 127.375L273.348 127.408L273.605 127.473L274.629 127.734C275.242 127.876 275.854 128.017 276.464 128.158C277.124 128.298 277.782 128.437 278.437 128.575C281.102 129.125 283.775 129.634 286.364 130.117C291.545 131.081 296.409 131.941 300.579 132.67C308.927 134.098 315.549 134.952 315.549 134.952C317.605 135.304 317.96 137.34 317.604 139.371C317.271 141.272 315.521 142.584 313.617 142.459C313.617 142.459 307.957 142.067 299.469 141.479C295.224 141.17 290.273 140.799 284.951 140.353C282.288 140.128 279.538 139.886 276.703 139.594C275.984 139.517 275.263 139.439 274.539 139.36C273.769 139.26 272.998 139.161 272.224 139.062L271.178 138.904L270.916 138.865L270.785 138.845L270.459 138.773L269.669 138.588C269.14 138.474 268.621 138.301 268.101 138.118C267.576 137.95 267.075 137.724 266.573 137.493C264.57 136.562 262.805 135.243 261.389 133.843C259.975 132.439 258.865 130.97 257.931 129.6C257.459 128.91 257.048 128.259 256.654 127.638C256.288 127.056 255.923 126.477 255.562 125.901C254.854 124.749 254.153 123.609 253.465 122.488C250.712 118.007 248.14 113.823 245.938 110.238C241.531 103.067 238.593 98.2859 238.593 98.2859L238.551 98.2164C236.067 94.1745 237.37 88.9075 241.46 86.4538C245.551 83.9993 250.881 85.2868 253.364 89.3287C253.527 89.5943 253.675 89.8722 253.805 90.144Z" fill="#F0A87F"/>
<path d="M263.876 102.86L257.365 89.1666C254.567 83.2844 247.609 80.8208 241.823 83.6641C236.036 86.5074 233.612 93.5806 236.41 99.4628L242.921 113.156L263.876 102.86Z" fill="#245D4A"/>
<path d="M275.463 60.8082C275.463 60.8082 279.353 62.1167 280.544 60.6726C281.736 59.2286 279.683 55.2168 279.683 55.2168C279.683 55.2168 280.346 59.3884 279.236 59.8703C278.128 60.3514 275.463 60.8082 275.463 60.8082Z" fill="#D6875A"/>
<path d="M269.939 51.0994C269.939 52.5598 271.123 53.7437 272.584 53.7437C274.044 53.7437 275.228 52.5598 275.228 51.0994C275.228 49.639 274.044 48.4551 272.584 48.4551C271.123 48.4551 269.939 49.639 269.939 51.0994Z" fill="#47211E"/>
<path d="M272.273 50.6329C272.273 51.177 272.715 51.6183 273.259 51.6183C273.803 51.6183 274.244 51.177 274.244 50.6329C274.244 50.0888 273.803 49.6475 273.259 49.6475C272.715 49.6475 272.273 50.0888 272.273 50.6329Z" fill="white"/>
<path d="M276.827 46.3559C276.827 46.7326 276.475 47.0371 276.041 47.0371H269.434C268.999 47.0371 268.647 46.7318 268.647 46.3559C268.647 45.9792 268.999 45.6738 269.434 45.6738H276.041C276.475 45.6738 276.827 45.9792 276.827 46.3559Z" fill="#47211E"/>
<path d="M279.969 51.0994C279.969 52.5598 281.153 53.7437 282.613 53.7437C284.073 53.7437 285.257 52.5598 285.257 51.0994C285.257 49.639 284.073 48.4551 282.613 48.4551C281.153 48.4551 279.969 49.639 279.969 51.0994Z" fill="#47211E"/>
<path d="M283.286 51.6183C283.83 51.6183 284.272 51.1771 284.272 50.6329C284.272 50.0886 283.83 49.6475 283.286 49.6475C282.742 49.6475 282.301 50.0886 282.301 50.6329C282.301 51.1771 282.742 51.6183 283.286 51.6183Z" fill="white"/>
<path d="M286.369 46.3559C286.369 46.7326 286.047 47.0371 285.649 47.0371H279.591C279.193 47.0371 278.871 46.7318 278.871 46.3559C278.871 45.9792 279.194 45.6738 279.591 45.6738H285.649C286.047 45.6738 286.369 45.9792 286.369 46.3559Z" fill="#47211E"/>
<path d="M277.168 70.8946C280.368 70.8946 282.962 68.7586 282.962 66.123H271.374C271.374 68.7586 273.968 70.8946 277.168 70.8946Z" fill="white"/>
<path d="M288.414 37.4942C288.414 39.7526 285.82 41.584 282.62 41.584C279.42 41.584 276.826 39.7535 276.826 37.4942C276.826 35.2358 279.42 33.4043 282.62 33.4043C285.819 33.4043 288.414 35.2348 288.414 37.4942Z" fill="#47211E"/>
<path d="M278.19 37.4942C278.19 39.3766 276.36 40.9024 274.101 40.9024C271.842 40.9024 270.011 39.3766 270.011 37.4942C270.011 35.6117 271.842 34.0859 274.101 34.0859C276.36 34.0859 278.19 35.6117 278.19 37.4942Z" fill="#47211E"/>
<path d="M266.262 40.9024C269.085 40.9024 271.374 39.5291 271.374 37.835C271.374 36.1409 269.085 34.7676 266.262 34.7676C263.438 34.7676 261.149 36.1409 261.149 37.835C261.149 39.5291 263.438 40.9024 266.262 40.9024Z" fill="#47211E"/>
<path d="M239.288 63.2443C242.901 66.4058 249.545 67.3226 252.667 66.542C255.814 65.7551 256.937 63.7324 256.937 61.8219C256.937 59.9114 256.937 57.4395 256.937 48.6729C256.937 39.9072 262.219 33.3889 270.759 33.3889C276.642 33.3889 285.511 33.3889 290.46 33.3889C286.266 22.6402 275.614 15 263.127 15C246.976 15 233.884 25.1413 233.884 40.9018C233.884 49.6259 237.156 61.3789 239.288 63.2443Z" fill="#008B7C"/>
<path d="M264.531 15.0522C264.08 15.0319 263.632 15 263.176 15C262.029 15 260.899 15.0584 259.786 15.1628C268.649 16.9333 275.935 23.9735 279.06 33.4044C280.847 33.4044 282.637 33.4044 284.325 33.4044C281.139 23.7877 273.631 16.643 264.531 15.0522Z" fill="#245D4A"/>
<path opacity="0.4" d="M248.197 56.2393C248.197 57.9337 246.823 59.3067 245.13 59.3067C243.435 59.3067 242.062 57.9328 242.062 56.2393C242.062 54.5448 243.436 53.1719 245.13 53.1719C246.823 53.1719 248.197 54.5448 248.197 56.2393Z" fill="#591700"/>
<path d="M252.497 69.6835C251.181 69.6835 249.984 68.7929 249.651 67.4583C249.258 65.8854 250.214 64.2903 251.788 63.8969C253.844 63.3829 253.844 62.3532 253.844 62.0156V48.8366C253.844 38.0876 260.749 30.5801 270.636 30.5801H288.632C290.254 30.5801 291.568 31.8951 291.568 33.5168C291.568 35.1385 290.254 36.4535 288.632 36.4535H270.636C264.003 36.4535 259.717 41.3141 259.717 48.8366V62.0156C259.717 64.8938 258.009 68.3968 253.212 69.5957C252.973 69.6551 252.733 69.6835 252.497 69.6835Z" fill="white"/>
<defs>
<radialGradient id="paint0_radial_2302_8391" cx="0" cy="0" r="1" gradientUnits="userSpaceOnUse" gradientTransform="translate(125 125) rotate(90) scale(125)">
<stop stop-color="#008B7C" stop-opacity="0.6"/>
<stop offset="1" stop-color="#008B7C" stop-opacity="0"/>
</radialGradient>
<linearGradient id="paint1_linear_2302_8391" x1="293.5" y1="116" x2="293.5" y2="262" gradientUnits="userSpaceOnUse">
<stop stop-color="#008B7C"/>
<stop offset="1" stop-color="#D8ECEA"/>
</linearGradient>
</defs>
</svg>
