<svg width="574" height="317" viewBox="0 0 574 317" fill="none" xmlns="http://www.w3.org/2000/svg">
<circle cx="114" cy="118" r="112.5" stroke="url(#paint0_linear_2302_8502)" stroke-opacity="0.5"/>
<circle cx="458" cy="201" r="115" fill="url(#paint1_radial_2302_8502)" fill-opacity="0.7"/>
<path d="M460.685 296.991C460.685 296.991 460.717 297.291 460.717 297.792C460.718 299.295 460.425 302.605 458.076 305.049C454.945 308.307 454.926 312.36 458.235 313.052C461.543 313.744 469.433 312.831 469.433 312.831C469.433 312.831 471.217 309.731 469.998 301.452C468.78 293.174 468.073 284.094 468.073 284.094L459.084 282.69L460.685 296.991Z" fill="#FF7446"/>
<path d="M458.923 300.511C458.923 300.511 455.588 305.036 454.808 306.924C454.027 308.812 454.195 313.508 454.808 313.992C460.2 318.249 470.424 314.418 470.424 314.418C470.424 314.418 471.127 311.296 471.481 307.464C471.836 303.633 471.636 300.062 470.424 300.062C469.211 300.062 468.998 302.072 466.231 301.504C463.464 300.937 461.761 299.943 458.923 300.511Z" fill="#3B3B3B"/>
<path d="M471.272 309.372C469.193 310.184 466.371 311.133 463.747 311.508C460.947 311.908 457.176 310.661 454.33 309.409C454.183 311.416 454.394 313.665 454.807 313.992C460.2 318.249 470.423 314.417 470.423 314.417C470.423 314.417 470.905 312.28 471.272 309.372Z" fill="white"/>
<path d="M471.272 309.372C463.536 311.696 462.112 312.108 454.33 309.409C455.626 310.105 456.987 310.683 458.398 311.129C461.389 312.055 463.155 311.975 465.021 311.556C467.247 311.061 469.342 310.304 471.272 309.372Z" fill="#957447"/>
<path d="M370.747 156.162C372.96 156.994 375.894 158.229 375.894 158.229C376.273 157.316 368.969 155.755 367.944 153.531C367.396 152.34 376.327 156.722 376.947 156.2C377.204 155.984 366.845 152.611 367.323 151.797C367.724 151.113 378.215 154.811 378.273 154.299C378.353 153.588 369.19 151.75 370.01 150.726C370.43 150.202 381.551 153.21 382.752 153.385C384.22 153.385 378.907 149.776 380.717 149.294C383.174 148.638 389.347 155.714 389.829 155.814C391.226 156.103 403.122 157.56 408.946 153.751C413.651 150.674 418.215 145.942 419.333 141.868C420.428 137.873 421.946 132.168 420.649 127.767C425.947 126.96 431.088 126.775 436.465 127.417C436.793 134.027 428.879 160.216 425.57 162.371C418.291 167.112 405.304 165.952 396.148 165.198C388.769 164.591 381.541 163.137 374.895 159.764C373.41 159.01 371.42 158.166 370.27 156.854C369.973 156.515 370.325 156.003 370.747 156.162Z" fill="#F25C12"/>
<path d="M423.958 105.582C420.015 109.655 416.032 134.06 417.498 139.877C420.029 144.601 431.488 145.417 435.194 147.658C443.742 144.143 437.886 128.379 437.886 128.379L441.003 97.6748C441.003 97.6748 431.469 97.8237 423.958 105.582Z" fill="#00685D"/>
<path d="M434.738 291.533C435.905 295.202 434.751 299.241 431.761 301.664C430.728 302.501 429.529 303.285 428.172 303.878C422.936 306.167 416.153 305.652 415.208 310.354C414.262 315.057 448.413 309.035 448.413 309.035C448.413 309.035 446.043 297.598 445.89 295.682C445.737 293.767 446.099 286.732 446.099 286.732L432.91 285.785L434.738 291.533Z" fill="#FF7446"/>
<path d="M447.027 300.942C447.027 300.942 447.445 302.758 448.401 305.837C449.357 308.916 448.761 311.816 448.761 311.816C448.761 311.816 416.773 313.331 415.479 312.318C414.184 311.305 414.849 307.617 415.176 307.29C415.504 306.964 419.563 305.867 421.645 304.583C423.727 303.298 430.837 298.438 433.239 298.635C435.642 298.831 436.751 300.605 441.313 300.808C445.875 301.011 445.894 300.055 447.027 300.942Z" fill="#3B3B3B"/>
<path d="M415.478 312.318C416.773 313.331 448.76 311.816 448.76 311.816C448.76 311.816 449.152 309.913 448.792 307.553C432.094 310.647 415.175 307.29 415.175 307.29C414.848 307.617 414.183 311.305 415.478 312.318Z" fill="white"/>
<path d="M448.792 307.553C437.389 309.831 424.748 309.349 415.176 307.29C432.587 309.919 446.626 307.882 445.655 307.98C445.697 307.975 449.002 307.525 448.792 307.553Z" fill="#957447"/>
<path d="M473.496 180.697C478.984 200.765 472.17 290.785 472.17 290.785L455.74 289.661C455.74 289.661 452.002 200.108 449.291 197.397C448.497 196.603 447.645 196.855 446.99 197.305C446.33 197.76 445.866 198.446 445.631 199.213C443.94 204.738 434.276 236.904 436.224 243.947C438.357 251.66 447.877 292.977 447.877 292.977L434.091 293.527C434.091 293.527 415.188 261.963 415.188 239.927C415.188 217.892 418.263 188.681 427.195 176.796C431.261 171.387 451.277 167.202 451.277 167.202C451.277 167.202 471.782 174.428 473.496 180.697Z" fill="#1D1D1D"/>
<path d="M443.802 292.94C443.802 292.94 434.282 248.885 432.149 240.661C430.599 234.69 436.393 211.782 439.681 199.685C440.669 196.053 445.031 194.591 448.01 196.892C448.01 196.892 434.091 236.234 436.225 243.947C438.358 251.659 447.878 292.976 447.878 292.976L434.091 293.527C434.091 293.527 434.057 293.47 433.991 293.358L443.802 292.94Z" fill="#454545"/>
<path d="M470.087 176.531C471.848 177.908 473.122 179.325 473.497 180.696C478.985 200.764 472.172 290.785 472.172 290.785L468.103 290.507C468.331 287.251 474.231 202.518 470.087 176.531Z" fill="#454545"/>
<path d="M424.04 182.178C424.999 180.133 426.05 178.322 427.196 176.796C427.668 176.168 428.356 175.556 429.202 174.966C431.486 176.133 434.644 177.405 439.011 178.748C452.183 182.799 466.384 180.639 472.285 178.585C472.885 179.293 473.306 180.001 473.497 180.696C473.973 182.437 474.356 184.704 474.66 187.393C471.714 189.584 454.591 194.878 439.011 189.919C429.124 186.773 425.438 184.866 424.04 182.178Z" fill="#454545"/>
<path d="M472.165 297.602C467.955 298.968 457.822 298.629 455.402 297.602C453.171 296.654 453.02 288.355 455.402 287.904C458.749 287.272 468.236 287.342 472.165 287.904C474.565 288.248 474.471 296.853 472.165 297.602Z" fill="#7C7C7C"/>
<path d="M447.179 293.894C442.969 295.26 432.836 294.921 430.416 293.894C428.185 292.946 428.034 284.647 430.416 284.196C433.763 283.564 443.25 283.634 447.179 284.196C449.579 284.54 449.485 293.145 447.179 293.894Z" fill="#7C7C7C"/>
<path d="M453.456 96.9866C453.456 96.9866 467.158 96.2821 472.758 102.918C478.358 109.554 477.9 179.27 475.633 181.215C473.367 183.161 453.894 189.037 438.427 184.46C422.96 179.884 421.976 173.601 421.976 173.601C421.976 173.601 426.091 126.716 426.091 113.902C426.091 101.087 438.602 93.539 453.456 96.9866Z" fill="#008B7C"/>
<path d="M465.542 167.604C466.753 164.238 465.457 153.53 464.079 145.784C463 145.991 461.963 146.236 460.983 146.519C459.328 141.395 457.869 128.097 457.82 119.737C457.728 104.055 465.668 99.4943 465.668 99.4943C467.241 99.135 469.758 100.616 473.694 104.714C478.242 117.146 477.289 175.001 475.158 176.83C474.25 177.61 472.472 182.5 467.891 183.47C466.7 178.794 464.423 170.716 465.542 167.604Z" fill="#00685D"/>
<path d="M454.637 97.1303C457.608 99.8614 457.839 99.9135 454.751 103.497C451.665 107.08 441.444 111.154 439.986 110.466C436.369 108.758 439.735 103.056 442.143 98.9549C442.895 97.6742 451.666 94.3994 454.637 97.1303Z" fill="#00685D"/>
<path d="M441.357 86.8054C441.357 86.8054 440.558 105.673 441.357 106.5C442.157 107.326 453.624 103.332 454.624 100.991C455.624 98.6496 450.446 64.54 450.446 64.54L441.357 86.8054Z" fill="#F25C12"/>
<path opacity="0.6" d="M441.012 99.2473C443.039 98.8821 444.784 98.3664 445.296 97.7876C449.974 92.5038 446.469 83.9298 446.836 81.7001C447.568 77.263 449.058 73.5969 448.311 69.7705L441.358 86.8054C441.358 86.8054 441.068 93.6275 441.012 99.2473Z" fill="#B5450E"/>
<path d="M456.191 210.867H496.427C497.188 210.867 497.806 210.249 497.806 209.487V183.366C497.806 182.605 497.188 181.987 496.427 181.987H456.191C455.429 181.987 454.812 182.605 454.812 183.366V209.487C454.812 210.249 455.429 210.867 456.191 210.867Z" fill="#50BFA5"/>
<path d="M456.452 207.54H492.868V185.313H456.452V207.54Z" fill="white"/>
<path d="M454.67 202.781H456.954C457.383 202.781 457.731 202.433 457.731 202.003V190.85C457.731 190.42 457.383 190.072 456.954 190.072H454.67C454.24 190.072 453.892 190.42 453.892 190.85V202.003C453.892 202.433 454.24 202.781 454.67 202.781Z" fill="#014E45"/>
<path d="M468.846 167.603C466.136 175.851 475.68 193.692 471.804 199.401C467.927 205.11 469.878 211.106 474.575 214.078C479.273 217.05 485.112 212.884 484.641 210.622C484.171 208.359 482.903 202.267 482.324 199.482C481.745 196.697 492.671 174.386 484.979 160.856C480.416 152.827 487.164 139.009 483.6 130.08C480.409 136.026 465.305 132.311 466.172 138.836C467.55 144.41 470.37 162.968 468.846 167.603Z" fill="#F25C12"/>
<path d="M434.627 67.2427C434.627 67.2427 432.66 74.0143 432.66 79.567C432.66 85.1197 432.791 94.7355 436.725 94.7355C440.658 94.7355 446.296 93.6521 447.607 85.7971C448.919 77.942 447.607 69.2742 443.674 67.2427C439.74 65.2112 434.627 67.2427 434.627 67.2427Z" fill="#FF7446"/>
<path d="M436.162 72.2459C437.22 71.8093 438.314 72.7539 438.112 73.9122C437.788 75.7685 437.868 77.8022 439.604 78.2261C442.947 79.0421 444.527 78.2261 445.074 78.7911C445.621 79.3561 443.494 82.3695 445.074 82.9345C446.655 83.4995 447.505 78.1007 448.903 78.1007C450.301 78.1007 450.605 85.8852 448.903 87.643C447.201 89.4008 449.146 91.7864 451.395 91.7864C453.644 91.7864 451.111 94.6114 454.14 95.553C457.169 96.4946 459.6 96.4946 460.573 92.6652C461.545 88.8358 460.573 86.7012 460.573 86.7012C460.573 86.7012 463.669 83.0808 462.882 79.5026C462.445 77.5135 460.432 73.9357 460.432 73.9357C460.432 73.9357 458.871 69.6883 458.446 67.2399C458.02 64.7915 451.993 62.3431 447.865 61.9037C443.737 61.4643 445.804 58.9531 442.34 58.9531C438.875 58.9531 438.399 63.5281 438.399 63.5281C438.399 63.5281 433.453 60.5709 433.223 60.7109C430.344 62.4647 432.737 65.5447 432.737 65.5447C432.737 65.5447 430.366 65.7957 429.88 68.8721C429.394 71.9481 431.399 73.8315 434.56 72.8271C435.158 72.6371 435.691 72.4401 436.162 72.2459Z" fill="#141414"/>
<path d="M432.739 61.0576C433.349 61.1449 434.152 61.3379 435.113 61.6246C436.593 62.4482 438.399 63.5281 438.399 63.5281C438.399 63.5281 444.856 65.3352 448.557 67.0989C453.299 69.3591 457.455 71.6263 460.245 73.413C460.361 73.7416 460.433 73.9355 460.433 73.9355C460.433 73.9355 461.173 75.2511 461.853 76.7304C458.915 76.0885 453.179 73.8763 446.78 70.8269C439.555 67.3832 432.332 61.4031 432.739 61.0576Z" fill="#0C004A"/>
<path d="M446.709 77.6772C446.709 77.6772 448.38 74.5998 449.868 76.3169C451.357 78.0343 450.575 85.2955 448.289 85.2955C446.002 85.2955 445.898 79.6232 446.709 77.6772Z" fill="#FF7446"/>
<path d="M465.246 99.6411C465.246 99.6411 460.586 103.188 460.67 118.87C460.715 127.23 463.169 141.395 464.681 146.519C470.957 144.535 479.808 144.407 486.217 146.519C487.081 139.677 485.336 125.076 484.248 120.359C481.573 108.759 471.905 96.9871 465.246 99.6411Z" fill="#008B7C"/>
<path d="M437.044 61.8751C440.144 55.3726 447.977 52.6371 454.54 55.7653C461.104 58.8934 463.913 66.7007 460.813 73.2032C460.694 73.4536 460.566 73.6964 460.432 73.9354L436.716 62.6322C436.818 62.3783 436.925 62.1255 437.044 61.8751Z" fill="#008B7C"/>
<path d="M441.974 64.8418C442.076 64.588 442.184 64.3352 442.303 64.0848C444.892 58.6533 450.784 55.8501 456.479 56.8971C455.876 56.4729 455.229 56.0933 454.54 55.7653C447.977 52.6371 440.144 55.3726 437.045 61.8751C436.925 62.1255 436.818 62.3783 436.716 62.6324L460.432 73.9356C460.476 73.8575 441.974 64.8418 441.974 64.8418Z" fill="#00685D"/>
<path d="M426.126 57.9067C426.378 57.3771 438.726 62.4137 446.621 66.1763C454.516 69.9389 460.711 73.4184 460.458 73.9481C460.206 74.4778 447.112 71.4025 439.217 67.6402C431.322 63.8776 425.873 58.4364 426.126 57.9067Z" fill="#00685D"/>
<path d="M75.9999 315.391H205.446L205.446 17.5903H75.9999L75.9999 315.391Z" fill="#72BEB6"/>
<path d="M154.659 315.477H163.123L163.123 -0.000305176H154.659L154.659 315.477Z" fill="#027669"/>
<path d="M154.668 0.00488281C154.669 0.806437 154.726 315.35 154.726 315.35H76.377V17.3997L154.668 0.00488281Z" fill="#008B7C"/>
<path d="M85.3447 43.512L85.7306 126.793C86.0602 126.753 86.387 126.733 86.7101 126.733C90.9897 126.733 94.5784 130.2 94.5988 134.6L138.079 129.249C138.062 125.244 141.042 121.859 145.017 121.37L144.625 34.2016C144.067 34.3203 143.512 34.3771 142.966 34.3771C138.73 34.3771 135.1 30.9468 135.08 26.5068L91.6045 35.7457C91.6221 39.4904 89.0082 42.7335 85.3447 43.512ZM88.3942 45.6641C91.387 44.2351 93.5946 41.496 94.3554 38.2681L132.669 30.1262C134.03 33.9532 137.463 36.8093 141.6 37.3307L141.967 119.033C138.702 120.32 136.239 123.118 135.376 126.519L97.0948 131.23C95.8665 127.493 92.6759 124.636 88.757 123.886L88.3942 45.6641Z" fill="#027669"/>
<path d="M85.4805 195.273L85.656 294.529C85.6608 294.529 85.6657 294.529 85.6703 294.529C90.0282 294.529 93.5648 298.059 93.5727 302.418L104.934 302.398C104.934 298.039 108.464 294.503 112.823 294.495V194.264C112.591 194.285 112.361 194.294 112.133 194.294C107.819 194.294 104.242 190.791 104.242 186.391L92.7041 187.385C92.7117 191.492 89.5719 194.92 85.4805 195.273ZM88.5242 197.683C91.865 196.459 94.4454 193.642 95.3722 190.206L101.7 189.661C102.863 193.37 105.949 196.235 109.784 197.079V291.89C106.196 292.935 103.362 295.773 102.324 299.363L96.1768 299.374C95.129 295.783 92.2856 292.949 88.6909 291.914L88.5242 197.683Z" fill="#027669"/>
<path d="M117.889 192.466V294.459H117.903C122.266 294.459 125.805 297.996 125.805 302.361L135.085 302.345C135.118 298.009 138.638 294.51 142.974 294.502L143.76 191.659C143.528 191.679 143.297 191.688 143.069 191.688C138.733 191.688 135.144 188.148 135.178 183.725L125.113 184.592C125.113 188.694 121.975 192.114 117.889 192.466ZM120.928 194.893C124.316 193.687 126.881 190.891 127.792 187.412L132.614 186.997C133.126 188.673 134.042 190.211 135.312 191.491C136.813 193.003 138.673 194.024 140.698 194.471L139.954 291.894C136.386 292.931 133.552 295.748 132.494 299.31L128.414 299.317C127.371 295.72 124.527 292.882 120.928 291.844L120.928 194.893Z" fill="#027669"/>
<path d="M136.777 164.034C138.54 164.034 139.969 161.262 139.969 157.843C139.969 154.424 138.54 151.652 136.777 151.652C135.014 151.652 133.585 154.424 133.585 157.843C133.585 161.262 135.014 164.034 136.777 164.034Z" fill="#F7CC7F"/>
<path d="M130.597 155.664V160.546H137.286C137.483 159.74 137.593 158.837 137.593 157.888C137.593 157.106 137.518 156.355 137.38 155.664H130.597Z" fill="#F47458"/>
<path d="M125.99 157.843C125.99 162.996 128.144 167.173 130.801 167.173C133.458 167.173 135.611 162.996 135.611 157.843C135.611 152.69 133.458 148.513 130.801 148.513C128.144 148.513 125.99 152.69 125.99 157.843Z" fill="#FAE0B2"/>
<path d="M129.51 167.173C132.167 167.173 134.321 162.996 134.321 157.843C134.321 152.69 132.167 148.513 129.51 148.513C126.853 148.513 124.699 152.69 124.699 157.843C124.699 162.996 126.853 167.173 129.51 167.173Z" fill="#FAE0B2"/>
<path d="M192.653 294.813C192.653 294.813 189.863 297.573 189.799 298.586C189.736 299.599 189.552 310.45 190.691 311.463C191.83 312.476 195.176 313.194 194.101 314.334C193.288 315.195 187.032 315.011 182.887 314.78C181.677 314.713 180.159 304.925 179.679 303.487C178.984 301.397 176.784 296.142 177.417 294.685C177.725 293.976 179.707 293.067 181.786 291.707C183.972 290.276 186.064 287.088 186.064 287.088L192.653 294.813Z" fill="#F7A491"/>
<path d="M229.984 301.593C229.984 301.593 227.487 308.744 227.485 308.761C227.299 309.894 226.567 312.694 226.567 313.723C226.567 317.592 243.782 310.439 239.924 308.725C239.574 308.569 238.479 307.33 238.364 306.013C238.187 303.984 239.814 301.439 239.814 301.439L229.984 301.593Z" fill="#F7A491"/>
<path d="M228.551 174.097L219.64 184.495L210.901 238.888L183.399 289.631C183.399 289.631 187.535 295.98 191.975 296.979L231.009 245.693L252.164 181.49L251.421 167.226L228.551 174.097Z" fill="#5E5E5E"/>
<path d="M250.86 164.062L257.02 183.058C257.02 183.058 262.442 239.648 261.671 243.547C259.789 253.056 240.776 304.841 240.776 304.841L228.595 303.29L241.964 242.063L219.689 184.543L250.86 164.062Z" fill="#424242"/>
<path d="M309.996 99.3942C307.116 102.571 307.742 102.953 307.362 103.35C306.912 103.82 298.554 105.6 298.554 105.6C298.554 105.6 273.956 111.019 272.617 111.263L247.099 105.459L240.886 117.823C240.886 117.823 268.8 123.368 270.305 123.392C271.81 123.417 304.199 112.04 307.083 111.135C307.083 111.135 310.918 111.384 313.331 111.458C315.744 111.532 318.051 110.482 318.732 110.394C318.833 110.381 321.083 109.949 323.71 108.646C325.973 107.523 323.321 107.501 323.321 107.501C323.321 107.501 318.761 108.792 318.721 108.398C318.69 108.094 321.223 107.543 323.74 106.327C324.387 106.015 325.025 105.704 325.608 105.414C327.14 104.652 327.118 103.448 325.39 103.977C324.78 104.164 323.774 104.501 323.091 104.847C322.353 105.222 321.556 105.315 320.889 105.53C319.563 105.957 318.602 106.285 318.614 106.219C318.629 106.132 318.308 106.021 318.984 105.668C319.798 105.242 321.723 104.739 322.872 104.016C323.524 103.605 324.937 102.835 324.937 102.835C324.937 102.835 327.294 101.294 327.064 100.976C326.562 100.281 324.915 100.984 324.1 101.664C323.366 101.816 321.903 102.67 321.903 102.67C321.903 102.67 318.563 103.7 318.412 103.207C318.35 103.011 320.072 102.012 321.793 100.819C323.612 99.5583 324.863 98.5587 324.688 98.153C324.412 97.5072 322.879 98.4042 322.879 98.4042C322.879 98.4042 321.527 99.1958 321.059 99.4225C320.51 99.6881 318.805 100.353 318.805 100.353C318.805 100.353 312.765 102.375 312.659 101.896C312.553 101.417 312.749 100.081 313.08 99.8194C313.411 99.5579 314.263 99.4147 314.594 99.1534C314.925 98.892 315.583 98.2624 315.301 97.81C315.021 97.3565 312.507 97.9626 312.507 97.9626C312.507 97.9626 310.828 98.4771 309.996 99.3942Z" fill="#F8A492"/>
<path d="M255.849 106.772C255.849 106.772 254.971 112.192 254.406 114.198C253.937 115.864 250.635 122.718 250.635 122.718C250.635 122.718 238.803 118.838 233.211 116.619C226.428 113.928 218.587 108.129 219.096 107.395C220.524 105.337 222.831 102.932 226.085 102.119C237.348 99.3033 255.849 106.772 255.849 106.772Z" fill="#3C8F7C"/>
<path d="M257.215 182.66C245.926 187.115 219.393 184.543 219.393 184.543C219.393 184.543 221.074 172.958 221.669 165.133C222.263 157.314 217.284 144.933 215.181 123.449C214.735 118.893 216.518 106.589 222.905 102.727C225.15 101.371 226.523 101.193 226.523 101.193C226.582 101.192 235.311 99.4118 239.766 100.784C241.031 101.912 244.976 105.168 247.246 108.977C250.228 114.021 252.676 119.837 253.252 121.75C255.825 130.27 256.918 154.938 256.918 159.59C256.918 164.242 257.215 182.66 257.215 182.66Z" fill="#50BFA5"/>
<path d="M247.246 108.977C247.24 108.983 247.228 108.983 247.216 108.989C242.879 110.337 226.517 101.241 226.517 101.241L226.523 101.193L228.507 88.2179C228.507 88.2179 238.72 85.8124 238.126 89.5014C237.532 93.1849 239.51 100.552 239.51 100.552C239.575 100.618 239.659 100.695 239.765 100.784C241.031 101.912 244.976 105.168 247.246 108.977Z" fill="#F7A491"/>
<path d="M238.125 89.4997C238.719 85.8136 228.505 88.2198 228.505 88.2198L228.34 89.2995C228.638 90.0216 229.004 90.64 229.448 91.1141C231.729 93.5532 235.296 95.0181 238.379 95.1289C238.07 93.1417 237.881 91.0111 238.125 89.4997Z" fill="#FE875E"/>
<path d="M226.532 68.2686C226.219 68.1557 224.025 84.3302 228.188 88.7806C232.352 93.2312 240.464 94.6878 243.373 91.1827C246.592 87.3059 246.43 69.9217 239.957 65.3437C233.484 60.7651 226.532 68.2686 226.532 68.2686Z" fill="#F7A491"/>
<path d="M237.492 56.6918C232.49 57.7048 229.249 60.7423 228.058 62.0372C225.786 62.3026 222.698 63.5504 219.51 68.7943C215.589 75.2429 218.484 82.3874 223.048 85.8926C227.612 89.3972 227.561 93.467 227.561 93.467C227.561 93.467 235.294 89.4981 234.543 83.3844C234.228 80.8184 233.115 80.2366 233.949 78.2276C234.815 76.1419 234.167 72.8998 234.328 70.0838L234.792 68.3086C234.792 68.3086 238.031 65.805 241.2 66.5108C244.368 67.2175 243.912 55.3916 237.492 56.6918Z" fill="#242424"/>
<path d="M235.217 79.9132C235.25 81.8867 234.849 83.4669 233.702 83.4864C232.555 83.5063 232.232 82.7332 231.282 79.9483C230.392 77.3372 231.473 76.3593 232.62 76.34C233.767 76.32 235.184 77.9403 235.217 79.9132Z" fill="#F7A491"/>
<path d="M181.922 291.638C181.922 291.638 187.75 309.544 190.268 310.43C190.936 310.665 194.747 311.712 195.352 313.149C195.367 313.185 195.38 313.229 195.39 313.278C195.585 314.188 194.82 315.029 193.888 315.029H181.946C181.946 315.029 180.251 306.941 179.581 303.388C179.581 303.388 176.032 294.706 176.426 293.917C176.821 293.128 181.922 291.638 181.922 291.638Z" fill="#393939"/>
<path d="M225.588 315L227.559 308.688C227.559 308.688 231.7 310.463 233.77 310.167C235.839 309.871 239.881 308.688 239.881 308.688C248.143 311.444 254.912 312.782 253.681 315H225.588Z" fill="#393939"/>
<path d="M310.706 126.731C306.904 129.037 307.128 129.312 306.633 129.595C306.047 129.93 297.012 129.534 297.012 129.534C297.012 129.534 270.375 128.54 268.939 128.436L244.374 116.521L234.694 126.745C234.694 126.745 261.781 139.014 263.315 139.414C264.849 139.814 301.061 137.082 304.256 136.941C304.256 136.941 308.116 138.139 310.565 138.814C313.015 139.488 315.66 139.065 316.38 139.152C316.487 139.164 318.907 139.316 321.945 138.732C324.564 138.229 321.856 137.544 321.856 137.544C321.856 137.544 316.84 137.632 316.905 137.247C316.955 136.95 319.695 137.059 322.599 136.531C323.345 136.395 324.082 136.258 324.757 136.128C326.529 135.784 326.831 134.632 324.92 134.705C324.245 134.73 323.125 134.8 322.332 134.959C321.476 135.13 320.635 135.019 319.894 135.057C318.423 135.131 317.433 135.202 317.464 135.142C317.503 135.063 317.12 134.88 317.908 134.712C318.856 134.511 320.961 134.513 322.332 134.111C323.109 133.884 324.762 133.504 324.762 133.504C324.762 133.504 326.723 132.333 326.71 132.177C326.638 131.335 325.237 131.735 324.221 132.178C323.429 132.138 321.701 132.586 321.701 132.586C321.701 132.586 318.006 132.731 317.982 132.224C317.973 132.03 320.105 131.886 322.304 131.187C324.821 130.386 325.445 129.257 325.373 128.81C325.264 128.126 323.846 128.768 323.846 128.768C323.846 128.768 321.903 129.653 321.363 129.751C320.729 129.867 312.426 130.018 312.446 129.536C312.466 129.053 313.267 128.42 313.676 128.254C314.085 128.087 314.864 127.862 315.273 127.697C315.682 127.531 315.963 126.685 315.798 126.183C315.632 125.681 313.825 125.952 313.825 125.952C313.825 125.952 311.803 126.066 310.706 126.731Z" fill="#F8A492"/>
<path d="M242.408 136.459C242.408 136.459 247.242 130.363 248.926 127.894C252.197 123.103 254.935 117.703 254.935 117.703C254.935 117.703 241.467 109.946 236.449 107.301C218.031 97.5937 218.46 112.071 219.315 115.283C221.23 122.469 242.408 136.459 242.408 136.459Z" fill="#96D9C9"/>
<path d="M310.307 106.115C311.9 105.207 313.132 103.783 312.727 101.991C314.092 103.41 312.371 106.031 310.307 106.115Z" fill="#FE875E"/>
<path d="M413.096 155.924C413.096 157.22 412.054 158.272 410.77 158.272H347.592C346.307 158.272 345.266 157.22 345.266 155.924V95.8719C345.266 94.5757 346.307 93.5244 347.592 93.5244H410.77C412.054 93.5244 413.096 94.5748 413.096 95.8719V155.924Z" fill="#01897A"/>
<path d="M390.188 108.94L381.236 128.467L401.791 121.508C399.842 115.91 395.61 111.361 390.188 108.94ZM388.326 123.856C387.601 123.856 387.013 123.276 387.013 122.561C387.013 121.846 387.601 121.266 388.326 121.266C389.052 121.266 389.64 121.846 389.64 122.561C389.64 123.277 389.052 123.856 388.326 123.856ZM391.238 119.429C389.93 119.429 388.868 118.383 388.868 117.092C388.868 115.802 389.93 114.755 391.238 114.755C392.547 114.755 393.608 115.802 393.608 117.092C393.608 118.383 392.547 119.429 391.238 119.429Z" fill="#FFCC00"/>
<path d="M398.566 124.541L378.154 131.55L387.044 111.885C384.332 110.657 381.324 109.968 378.154 109.968C366.234 109.968 356.571 119.63 356.571 131.55C356.571 143.47 366.234 153.133 378.154 153.133C390.073 153.133 399.736 143.47 399.736 131.55C399.736 129.096 399.32 126.74 398.566 124.541ZM363.09 125.901C363.09 124.262 364.419 122.932 366.059 122.932C367.698 122.932 369.028 124.262 369.028 125.901C369.028 127.542 367.699 128.871 366.059 128.871C364.419 128.871 363.09 127.541 363.09 125.901ZM367.942 143.065C366.342 143.065 365.045 141.768 365.045 140.168C365.045 138.569 366.342 137.272 367.942 137.272C369.541 137.272 370.839 138.569 370.839 140.168C370.839 141.769 369.541 143.065 367.942 143.065ZM372.143 133.578C371.222 133.578 370.476 132.832 370.476 131.912C370.476 130.991 371.222 130.246 372.143 130.246C373.063 130.246 373.808 130.992 373.808 131.912C373.808 132.833 373.063 133.578 372.143 133.578ZM370.983 118.151C370.983 116.151 372.605 114.53 374.605 114.53C376.605 114.53 378.226 116.151 378.226 118.151C378.226 120.151 376.605 121.773 374.605 121.773C372.605 121.773 370.983 120.151 370.983 118.151ZM378.154 147.701C377.274 147.701 376.56 146.988 376.56 146.107C376.56 145.228 377.273 144.514 378.154 144.514C379.033 144.514 379.747 145.228 379.747 146.107C379.747 146.988 379.033 147.701 378.154 147.701ZM380.109 141.183C378.468 141.183 377.139 139.853 377.139 138.213C377.139 136.574 378.469 135.244 380.109 135.244C381.749 135.244 383.078 136.574 383.078 138.213C383.078 139.853 381.749 141.183 380.109 141.183ZM388.19 143.358C387.27 143.358 386.524 142.612 386.524 141.692C386.524 140.771 387.27 140.026 388.19 140.026C389.11 140.026 389.855 140.772 389.855 141.692C389.856 142.612 389.11 143.358 388.19 143.358ZM391.625 137.127C389.585 137.127 387.931 135.473 387.931 133.433C387.931 131.393 389.584 129.739 391.625 129.739C393.665 129.739 395.319 131.392 395.319 133.433C395.319 135.473 393.665 137.127 391.625 137.127Z" fill="#FFCC00"/>
<path opacity="0.2" d="M413.096 98.6631H345.266V103.802H413.096V98.6631Z" fill="#591700"/>
<path d="M415.152 100.729C415.152 101.291 414.74 101.746 414.233 101.746H344.13C343.622 101.746 343.211 101.29 343.211 100.729V92.4861C343.211 91.9237 343.623 91.4688 344.13 91.4688H414.233C414.741 91.4688 415.152 91.9246 415.152 92.4861V100.729Z" fill="#008B7C"/>
<path d="M1 316L573 316" stroke="#008B7C" stroke-width="2" stroke-linecap="round"/>
<defs>
<linearGradient id="paint0_linear_2302_8502" x1="114" y1="5" x2="114" y2="231" gradientUnits="userSpaceOnUse">
<stop stop-color="#008B7C"/>
<stop offset="1" stop-color="#D8ECEA"/>
</linearGradient>
<radialGradient id="paint1_radial_2302_8502" cx="0" cy="0" r="1" gradientUnits="userSpaceOnUse" gradientTransform="translate(458 201) rotate(90) scale(115)">
<stop stop-color="#008B7C" stop-opacity="0.6"/>
<stop offset="1" stop-color="#008B7C" stop-opacity="0"/>
</radialGradient>
</defs>
</svg>
