<svg width="24" height="20" viewBox="0 0 24 20" fill="none" xmlns="http://www.w3.org/2000/svg">
<path d="M16.6257 15.0531C14.6705 17.11 11.5344 17.7917 8.89976 16.6842C8.18624 17.4144 7.23635 17.8807 6.24461 18.1081C5.95176 18.1754 5.54675 18.2575 5.25083 18.2706C5.11608 18.2765 4.96619 18.2354 5.05756 18.0766C5.08964 18.0206 5.48978 17.7647 5.58602 17.6808C6.067 17.2609 6.45507 16.6831 6.68863 16.0885C6.74073 15.9555 6.87933 15.5828 6.88292 15.4584C6.88421 15.4114 6.88061 15.3957 6.85726 15.3557C6.79515 15.2489 6.4887 15.0023 6.3809 14.8827C2.73325 10.84 5.07553 4.26482 10.4182 3.3914C17.0022 2.31496 21.2102 10.2304 16.6257 15.0531ZM13.4778 8.69686H13.0928L12.0662 11.8281H12.4255L13.4778 8.69686ZM7.57462 11.6485H9.4739V11.2121H8.3446C8.32843 11.1516 8.36 11.1688 8.37745 11.1534C8.90232 10.6896 9.72774 9.99993 9.30759 9.20967C9.00884 8.64809 8.04996 8.69686 7.63468 9.09417L7.77918 9.42988L8.20934 9.24175C8.57739 9.18451 8.90848 9.31284 8.88384 9.73531C8.8515 10.2923 7.93908 10.9203 7.58771 11.3151L7.57437 11.6482L7.57462 11.6485ZM11.5528 8.85085H10.9112L9.79627 10.572L9.7819 10.9298H11.0267L11.0652 10.9683V11.6485H11.5528V10.9683C11.6417 10.8898 11.7982 10.9457 11.9122 10.9298V10.5192H11.5528V8.85085ZM15.5824 8.85085H13.6831V9.24868L13.7216 9.28718H15.0178L13.8371 11.6485H14.3889L15.5703 9.21095L15.5824 8.85085Z" fill="#444444"/>
<path d="M16.404 2.33157C16.5898 2.41678 16.782 2.54973 16.9512 2.67036C18.476 3.7604 19.6481 5.28369 20.3042 7.04362C20.6373 7.0082 20.9117 7.02001 21.2207 7.15296C21.7291 7.37163 22.0877 7.87289 22.1285 8.42677C22.2158 9.61203 22.0605 10.9025 22.1285 12.0988C22.0507 12.9984 21.193 13.6486 20.307 13.4458C19.2205 16.4682 16.5246 18.7674 13.3666 19.3783C13.284 19.4876 13.2563 19.6331 13.1582 19.7345C13.0427 19.8539 12.8359 19.9514 12.6706 19.9655C12.1018 20.0143 11.0855 20.0086 10.5126 19.9655C9.57553 19.8954 9.50238 18.4841 10.5898 18.3978C10.9792 18.367 12.4971 18.3455 12.8107 18.4373C12.9306 18.4725 13.073 18.5644 13.1575 18.6553C13.2206 18.723 13.2678 18.8614 13.361 18.8624C13.545 18.8642 14.1151 18.6773 14.3191 18.6111C17.2017 17.6748 19.4518 15.2186 20.1389 12.2651C20.9969 8.57794 19.3958 4.72648 16.1817 2.77097L16.1473 2.77944C16.0549 2.93395 15.9273 3.08256 15.77 3.17393C15.2074 3.49989 14.7464 3.10566 14.2293 2.90264C12.6123 2.26817 10.8108 2.23455 9.17206 2.81281C8.47061 3.06023 7.78276 3.67108 7.13803 2.96141C7.08157 2.8993 7.03177 2.7584 6.95811 2.77816C4.9554 4.01321 3.47909 6.07369 2.98862 8.38416C2.64623 9.99754 2.753 11.6987 3.3097 13.2494C3.29378 13.3323 2.89211 13.4527 2.80741 13.4643C1.89371 13.5882 1.13322 13.0105 1.02928 12.0986C1.09011 10.9048 0.951766 9.63693 1.02902 8.45192C1.06239 7.93962 1.34112 7.48636 1.78309 7.2297C2.12342 7.03207 2.46554 7.00101 2.85361 7.04336C3.50861 5.28651 4.68103 3.75578 6.20661 2.6701C6.37601 2.54947 6.56773 2.41652 6.75381 2.33131C6.53103 1.78411 6.72584 1.30543 7.23197 1.02644C9.24059 -0.0807964 11.9609 -0.262 14.151 0.337305C14.6469 0.472823 15.7638 0.854735 16.1452 1.16632C16.4887 1.44685 16.5852 1.9322 16.404 2.33157Z" fill="#444444"/>
<path d="M0.747672 8.49121V11.969C0.747672 11.9782 0.795411 11.9962 0.734583 12.0331C0.415812 11.9921 0.155045 11.8129 0.0672678 11.4947C-0.0300062 11.1428 -0.00151697 9.67339 0.0279989 9.24734C0.0577714 8.82153 0.300315 8.49634 0.747929 8.49147L0.747672 8.49121Z" fill="#444444"/>
<path d="M22.4099 8.49121C22.8609 8.50225 23.0975 8.81897 23.1296 9.24734C23.1714 9.80737 23.166 10.688 23.1296 11.2516C23.1116 11.5306 23.0089 11.7873 22.7569 11.9312C22.694 11.9672 22.4838 12.0411 22.423 12.0331C22.3622 12.0252 22.4099 11.9723 22.4099 11.969V8.49121Z" fill="#444444"/>
<path d="M11.0651 10.5191H10.3208L11.0651 9.28711V10.5191Z" fill="#444444"/>
</svg>
