<svg width="398" height="290" viewBox="0 0 398 290" fill="none" xmlns="http://www.w3.org/2000/svg">
<path d="M6.70241 279.545C6.48321 281.198 5.08372 282.471 3.37228 282.471C1.5091 282.471 0 280.962 0 279.099C0 277.235 1.5091 275.726 3.37228 275.726C5.08372 275.726 6.47478 276.999 6.70241 278.652H31.7416C35.1813 278.652 37.9888 275.853 37.9888 272.405V228.278H25.25C25.0308 229.737 23.783 230.866 22.2571 230.866C20.5794 230.866 19.222 229.509 19.222 227.831C19.222 226.154 20.5794 224.796 22.2571 224.796C23.783 224.796 25.0308 225.918 25.25 227.385H37.9888V171.135C36.5303 170.916 35.4005 169.668 35.4005 168.142C35.4005 166.464 36.7579 165.107 38.4356 165.107C40.1133 165.107 41.4706 166.464 41.4706 168.142C41.4706 169.668 40.3494 170.916 38.8824 171.135V227.393C43.5699 227.435 47.3721 231.263 47.3721 235.959V298.717C49.0246 298.936 50.2976 300.336 50.2976 302.047C50.2976 303.91 48.7885 305.419 46.9253 305.419C45.0621 305.419 43.553 303.91 43.553 302.047C43.553 300.336 44.8261 298.936 46.4785 298.717V235.959C46.4785 231.752 43.0809 228.329 38.8824 228.287V272.405C38.8824 276.342 35.6788 279.545 31.7416 279.545H6.70241ZM131.764 27.619C133.289 27.619 134.537 26.4977 134.756 25.0308H148.313C152.545 25.0308 155.985 28.4705 155.985 32.7027V95.4609C154.333 95.6801 153.059 97.0796 153.059 98.791C153.059 100.654 154.569 102.163 156.432 102.163C158.295 102.163 159.804 100.654 159.804 98.791C159.804 97.0796 158.531 95.6885 156.879 95.4609V32.7027C156.879 27.9731 153.034 24.1287 148.305 24.1287H134.748C134.529 22.6702 133.281 21.5405 131.755 21.5405C130.077 21.5405 128.72 22.8978 128.72 24.5755C128.72 26.2532 130.077 27.6106 131.755 27.6106L131.764 27.619ZM104.44 164.458H90.883C90.6638 162.999 89.4161 161.87 87.8901 161.87C86.2124 161.87 84.8551 163.227 84.8551 164.905C84.8551 166.582 86.2124 167.94 87.8901 167.94C89.4161 167.94 90.6638 166.818 90.883 165.351H104.44C108.672 165.351 112.112 168.791 112.112 173.023V235.782C110.459 236.001 109.186 237.4 109.186 239.112C109.186 240.975 110.695 242.484 112.558 242.484C114.422 242.484 115.931 240.975 115.931 239.112C115.931 237.4 114.658 236.001 113.005 235.782V173.023C113.005 168.294 109.161 164.449 104.431 164.449L104.44 164.458ZM184.118 62.1933C185.83 62.1933 187.229 60.9203 187.448 59.2679H250.207C254.936 59.2679 258.781 55.4235 258.781 50.6938V6.02796C260.239 5.80876 261.369 4.56101 261.369 3.03505C261.369 1.35734 260.011 0 258.334 0C256.656 0 255.299 1.35734 255.299 3.03505C255.299 4.56101 256.42 5.80876 257.887 6.02796V50.6938C257.887 54.9261 254.447 58.3658 250.215 58.3658H187.457C187.238 56.7134 185.838 55.4403 184.127 55.4403C182.263 55.4403 180.754 56.9494 180.754 58.8126C180.754 60.6758 182.263 62.1849 184.127 62.1849L184.118 62.1933ZM207.758 257.811V284.848C207.758 289.081 204.318 292.52 200.086 292.52H137.328C137.109 290.868 135.709 289.595 133.998 289.595C132.134 289.595 130.625 291.104 130.625 292.967C130.625 294.83 132.134 296.339 133.998 296.339C135.709 296.339 137.1 295.066 137.328 293.414H200.086C204.816 293.414 208.66 289.569 208.66 284.84V257.803C210.119 257.583 211.248 256.336 211.248 254.81C211.248 253.132 209.891 251.775 208.213 251.775C206.535 251.775 205.178 253.132 205.178 254.81C205.178 256.336 206.308 257.583 207.766 257.803L207.758 257.811ZM391.261 182.213C389.583 182.213 388.226 183.57 388.226 185.248C388.226 186.774 389.347 188.022 390.814 188.241V215.27C390.814 219.502 387.374 222.942 383.142 222.942H320.384C320.165 221.289 318.765 220.016 317.054 220.016C315.19 220.016 313.681 221.525 313.681 223.388C313.681 225.252 315.19 226.761 317.054 226.761C318.765 226.761 320.165 225.488 320.384 223.835H383.142C387.872 223.835 391.716 219.991 391.716 215.261V188.232C393.174 188.013 394.304 186.765 394.304 185.24C394.304 183.562 392.947 182.204 391.269 182.204L391.261 182.213ZM397.55 137.901C397.55 139.764 396.041 141.273 394.178 141.273C392.466 141.273 391.067 140 390.848 138.348H354.528C353.955 138.795 353.247 139.073 352.463 139.073C351.679 139.073 350.97 138.795 350.397 138.348H345.794V145.927C347.446 146.146 348.719 147.546 348.719 149.257C348.719 151.12 347.21 152.63 345.347 152.63C343.484 152.63 341.975 151.12 341.975 149.257C341.975 147.546 343.248 146.146 344.9 145.927V138.348H306.785V226.314C306.785 231.718 311.186 236.119 316.59 236.119H368.81C374.711 236.119 379.508 240.916 379.508 246.817V317.205C381.161 317.425 382.434 318.824 382.434 320.536C382.434 322.399 380.925 323.908 379.061 323.908C377.198 323.908 375.689 322.399 375.689 320.536C375.689 318.824 376.962 317.433 378.615 317.205V246.817C378.615 241.413 374.214 237.012 368.81 237.012H316.59C310.688 237.012 305.891 232.215 305.891 226.314V138.348H285.666C285.59 144.182 280.827 148.912 274.968 148.912H227.047C221.643 148.912 217.242 153.312 217.242 158.716V321.159H232.013V292.95C232.013 288.221 235.857 284.376 240.587 284.376H303.345C303.564 282.724 304.964 281.451 306.675 281.451C308.539 281.451 310.048 282.96 310.048 284.823C310.048 286.686 308.539 288.195 306.675 288.195C304.964 288.195 303.564 286.922 303.345 285.27H240.587C236.355 285.27 232.915 288.71 232.915 292.942V321.151H263.181C267.911 321.151 271.755 324.995 271.755 329.725V343.282C273.214 343.501 274.344 344.749 274.344 346.274C274.344 347.952 272.986 349.309 271.309 349.309C269.631 349.309 268.274 347.952 268.274 346.274C268.274 344.749 269.395 343.501 270.862 343.282V329.725C270.862 325.493 267.422 322.053 263.19 322.053H232.924V333.274C234.382 333.493 235.512 334.741 235.512 336.267C235.512 337.945 234.154 339.302 232.477 339.302C230.799 339.302 229.442 337.945 229.442 336.267C229.442 334.741 230.563 333.493 232.03 333.274V322.053H217.259V355.262C218.912 355.481 220.185 356.88 220.185 358.592C220.185 360.455 218.676 361.964 216.813 361.964C214.949 361.964 213.44 360.455 213.44 358.592C213.44 356.88 214.713 355.481 216.366 355.262V322.053H147.816V340.575C149.274 340.794 150.404 342.042 150.404 343.568C150.404 345.246 149.046 346.603 147.369 346.603C145.691 346.603 144.334 345.246 144.334 343.568C144.334 342.042 145.455 340.794 146.922 340.575V322.053H120.846V350.701C122.498 350.92 123.771 352.319 123.771 354.031C123.771 355.894 122.262 357.403 120.399 357.403C118.536 357.403 117.027 355.894 117.027 354.031C117.027 352.319 118.3 350.92 119.952 350.701V322.053H33.7818C33.5626 323.705 32.1631 324.978 30.4517 324.978C28.5885 324.978 27.0794 323.469 27.0794 321.606C27.0794 319.743 28.5885 318.234 30.4517 318.234C32.1631 318.234 33.5542 319.507 33.7818 321.159H119.935V199.951C119.935 194.05 124.732 189.253 130.634 189.253H159.155C164.559 189.253 168.96 184.852 168.96 179.448V138.356H102.593V144.089C102.593 148.819 98.7489 152.663 94.0192 152.663H68.6344C68.4152 154.316 67.0157 155.589 65.3043 155.589C63.4411 155.589 61.932 154.08 61.932 152.216C61.932 150.353 63.4411 148.844 65.3043 148.844C67.0157 148.844 68.4068 150.117 68.6344 151.77H94.0192C98.2515 151.77 101.691 148.33 101.691 144.098V138.365H51.4779V210.582C53.1303 210.801 54.4034 212.201 54.4034 213.912C54.4034 215.776 52.8943 217.285 51.0311 217.285C49.1679 217.285 47.6588 215.776 47.6588 213.912C47.6588 212.201 48.9318 210.81 50.5842 210.582V138.365H24.2551C18.5813 138.365 13.9697 142.976 13.9697 148.65V170.199C15.4282 170.418 16.5579 171.666 16.5579 173.192C16.5579 174.87 15.2006 176.227 13.5229 176.227C11.8451 176.227 10.4878 174.87 10.4878 173.192C10.4878 171.666 11.6091 170.418 13.076 170.199V148.65C13.076 142.487 18.0923 137.471 24.2551 137.471H50.5842V46.9928C50.5842 42.7606 47.1445 39.3208 42.9123 39.3208H29.3557C29.1365 40.7793 27.8888 41.909 26.3628 41.909C24.6851 41.909 23.3278 40.5517 23.3278 38.874C23.3278 37.1963 24.6851 35.8389 26.3628 35.8389C27.8888 35.8389 29.1365 36.9602 29.3557 38.4272H42.9123C47.6419 38.4272 51.4863 42.2716 51.4863 47.0012V137.463H101.7V36.5555C100.241 36.3363 99.1114 35.0886 99.1114 33.5626C99.1114 31.8849 100.469 30.5276 102.146 30.5276C103.824 30.5276 105.182 31.8849 105.182 33.5626C105.182 35.0886 104.052 36.3363 102.593 36.5555V137.454H168.96V14.6357C167.501 14.4165 166.372 13.1688 166.372 11.6428C166.372 9.9651 167.729 8.60775 169.407 8.60775C171.084 8.60775 172.442 9.9651 172.442 11.6428C172.442 13.1688 171.312 14.4165 169.853 14.6357V137.454H284.772V59.4702C283.314 59.251 282.184 58.0033 282.184 56.4773C282.184 54.7996 283.542 53.4423 285.219 53.4423C286.897 53.4423 288.254 54.7996 288.254 56.4773C288.254 58.0033 287.133 59.251 285.666 59.4702V137.454H305.883V36.6651C304.424 36.4459 303.295 35.1982 303.295 33.6722C303.295 31.9945 304.652 30.6372 306.33 30.6372C308.007 30.6372 309.365 31.9945 309.365 33.6722C309.365 35.1982 308.244 36.4459 306.777 36.6651V137.446H344.892V83.1605C344.892 78.9283 341.452 75.4886 337.22 75.4886H323.663C323.444 76.9471 322.196 78.0768 320.67 78.0768C318.993 78.0768 317.635 76.7194 317.635 75.0417C317.635 73.364 318.993 72.0067 320.67 72.0067C322.196 72.0067 323.444 73.128 323.663 74.5949H337.22C341.949 74.5949 345.794 78.4393 345.794 83.1689V137.454H349.588C349.276 136.94 349.082 136.341 349.082 135.701C349.082 133.989 350.355 132.59 352.007 132.371V69.6124C352.007 64.8827 355.852 61.0383 360.581 61.0383H374.138C374.357 59.5798 375.605 58.4501 377.131 58.4501C378.809 58.4501 380.166 59.8074 380.166 61.4851C380.166 63.1629 378.809 64.5202 377.131 64.5202C375.605 64.5202 374.357 63.3989 374.138 61.932H360.581C356.349 61.932 352.909 65.3717 352.909 69.6039V132.362C354.562 132.581 355.835 133.981 355.835 135.692C355.835 136.333 355.641 136.932 355.329 137.446H390.839C391.058 135.793 392.458 134.52 394.169 134.52C396.033 134.52 397.542 136.029 397.542 137.893L397.55 137.901ZM284.772 138.348H169.862V179.439C169.862 185.341 165.065 190.138 159.163 190.138H130.642C125.238 190.138 120.837 194.539 120.837 199.943V321.151H146.913V313.538C146.913 308.808 150.758 304.964 155.488 304.964H180.83C181.049 303.312 182.449 302.039 184.16 302.039C186.024 302.039 187.533 303.548 187.533 305.411C187.533 307.274 186.024 308.783 184.16 308.783C182.449 308.783 181.049 307.51 180.83 305.858H155.488C151.255 305.858 147.816 309.297 147.816 313.53V321.143H216.366V158.7C216.366 152.798 221.163 148.001 227.064 148.001H274.984C280.346 148.001 284.705 143.676 284.781 138.339L284.772 138.348Z" fill="#008B7C" fill-opacity="0.15"/>
</svg>
