<svg width="20" height="20" viewBox="0 0 20 20" fill="none" xmlns="http://www.w3.org/2000/svg">
<path d="M18.8618 10C18.8618 5.12732 14.8727 1.13821 10 1.13821C5.12732 1.13821 1.13821 5.12732 1.13821 10C1.13821 14.8727 5.12732 18.8618 10 18.8618C14.8727 18.8618 18.8618 14.8727 18.8618 10ZM20 10C20 15.5013 15.5013 20 10 20C4.4987 20 0 15.5013 0 10C1.69089e-07 4.4987 4.4987 1.69079e-07 10 0C15.5013 0 20 4.4987 20 10Z" fill="#008B7C"/>
<path d="M13.6062 6.92808C13.8287 6.70605 14.1889 6.70627 14.411 6.92871C14.633 7.15113 14.6327 7.51141 14.4103 7.73346L9.06291 13.0714C8.84062 13.2933 8.48059 13.2931 8.25848 13.0711L5.58953 10.4021C5.36729 10.1799 5.3673 9.8196 5.58953 9.59735C5.81178 9.3751 6.17203 9.3751 6.39428 9.59735L8.66117 11.8642L13.6062 6.92808Z" fill="#008B7C"/>
</svg>
