<svg width="72" height="106" viewBox="0 0 72 106" fill="none" xmlns="http://www.w3.org/2000/svg">
<path d="M70.4964 17.5185C68.7389 11.8511 65.9325 6.17012 61.1915 3.17295C59.475 2.08307 57.8402 1.04769 55.6468 1.00682C48.1947 0.843336 40.7563 11.9192 40.2795 21.8508C40.007 27.559 42.0233 33.3354 44.4074 36.5914C46.8187 39.8883 47.7588 40.6921 47.7588 40.6921C49.6797 42.3133 51.7913 43.226 52.1047 45.2423C52.1728 45.7055 52.0774 46.0733 52.1047 46.2096C52.1455 46.4003 51.9003 52.3946 51.6278 59.2064C51.3281 66.3996 50.9603 73.5928 50.7968 78.4155C50.7786 78.9605 50.7696 79.2647 50.7696 79.3283C50.211 86.3716 42.8952 94.3822 34.7347 94.3414C25.9339 94.2869 19.0949 85.1591 18.7271 79.6008C18.2911 72.9389 17.8416 66.277 17.4056 59.6151C17.1059 54.8469 16.8743 51.1004 16.8607 51.0187C16.8471 50.7734 16.8743 50.3784 17.5419 49.9424C18.2094 49.5065 24.0539 44.8745 24.8713 39.2888C25.7023 33.7032 23.3046 2.11032 23.1547 1.79698C23.0049 1.48364 21.5472 0.0531728 20.4845 1.90597L20.9477 34.3571C20.9477 34.3571 19.5718 36.5369 17.8961 34.4797L17.1468 1.96046C17.1468 1.96046 15.8798 -0.205671 14.2041 1.89235L14.6673 34.6841C14.6673 34.6841 12.9235 36.7549 11.3977 34.6296L10.6484 1.87872C10.6484 1.87872 9.28601 0.0395494 7.43321 1.90597L7.74655 34.6296C7.74655 34.6296 6.34334 36.7412 4.57228 34.6705L4.08183 2.20569C4.08183 2.20569 2.66499 0.0531737 1.16641 2.05583C1.16641 2.05583 -0.277685 34.3708 0.893936 39.2888C2.06556 44.2069 4.83113 47.5311 8.37324 50.0514C8.37324 50.0514 9.24514 50.5282 9.24514 51.5636C9.24514 59.4925 8.79556 65.1462 8.79556 76.7807C8.79556 79.4781 8.79556 81.222 9.25876 83.6061C9.65384 85.5951 10.9345 91.712 16.0024 97.0388C23.4953 104.927 33.5222 105.036 34.7211 105.036C35.4431 105.036 46.7642 104.818 54.2708 95.8944C59.8837 89.2189 60.306 81.3037 60.5785 76.0859C60.9736 68.6202 59.8156 49.7517 59.5158 46.7954C59.2979 44.6837 59.8564 43.9753 60.4967 43.2124C61.137 42.4495 75.4962 33.7849 70.4828 17.5457L70.4964 17.5185ZM2.41977 37.545C3.18268 39.3161 4.34068 41.5231 6.08449 43.8255C7.5967 45.8281 9.14977 47.3676 10.4713 48.5119C9.28601 47.9261 7.16074 46.6728 5.32157 44.2887C3.23718 41.5912 2.63774 38.8665 2.41977 37.5314V37.545ZM61.2052 38.1581C61.2052 38.1581 71.1367 32.5725 67.5265 16.3877C67.5265 16.3877 73.657 32.2727 61.2052 38.1581Z" fill="white"/>
</svg>
