<svg width="16" height="20" viewBox="0 0 16 20" fill="none" xmlns="http://www.w3.org/2000/svg">
<path fill-rule="evenodd" clip-rule="evenodd" d="M0.669474 0.689165C2.04359e-07 1.37832 0 2.48751 0 4.70588V15.2941C0 17.5125 2.04359e-07 18.6216 0.669474 19.3108C1.33894 20 2.41643 20 4.57143 20H11.4286C13.5835 20 14.661 20 15.3305 19.3108C16 18.6216 16 17.5125 16 15.2941V4.70588C16 2.48751 16 1.37832 15.3305 0.689165C14.661 2.10369e-07 13.5835 0 11.4286 0H4.57143C2.41643 0 1.33894 2.10369e-07 0.669474 0.689165ZM4.57143 4.70588C3.94025 4.70588 3.42857 5.23261 3.42857 5.88235C3.42857 6.53209 3.94025 7.05882 4.57143 7.05882H11.4286C12.0598 7.05882 12.5714 6.53209 12.5714 5.88235C12.5714 5.23261 12.0598 4.70588 11.4286 4.70588H4.57143ZM4.57143 9.41177C3.94025 9.41177 3.42857 9.93847 3.42857 10.5882C3.42857 11.238 3.94025 11.7647 4.57143 11.7647H11.4286C12.0598 11.7647 12.5714 11.238 12.5714 10.5882C12.5714 9.93847 12.0598 9.41177 11.4286 9.41177H4.57143ZM4.57143 14.1176C3.94025 14.1176 3.42857 14.6444 3.42857 15.2941C3.42857 15.9439 3.94025 16.4706 4.57143 16.4706H9.14286C9.77406 16.4706 10.2857 15.9439 10.2857 15.2941C10.2857 14.6444 9.77406 14.1176 9.14286 14.1176H4.57143Z" fill="#444444"/>
</svg>
