<svg width="143" height="44" viewBox="0 0 143 44" fill="none" xmlns="http://www.w3.org/2000/svg">
<path d="M-0.000244141 13.9439C-0.000244141 13.1788 0.540416 12.5586 1.20735 12.5586C1.87429 12.5586 2.41495 13.1788 2.41495 13.9439V29.5287C2.41495 30.2938 1.87429 30.9141 1.20735 30.9141C0.540416 30.9141 -0.000244141 30.2938 -0.000244141 29.5287V13.9439Z" fill="url(#paint0_linear_2283_2903)"/>
<path d="M5.31555 7.13726C5.31555 6.39591 5.96434 5.79492 6.76467 5.79492C7.565 5.79492 8.21379 6.39591 8.21379 7.13726V36.3331C8.21379 37.0745 7.565 37.6755 6.76467 37.6755C5.96434 37.6755 5.31555 37.0745 5.31555 36.3331V7.13726Z" fill="url(#paint1_linear_2283_2903)"/>
<path d="M11.1119 1.34801C11.1119 0.603527 11.7607 0 12.5611 0C13.3614 0 14.0102 0.603527 14.0102 1.34801V42.1254C14.0102 42.8699 13.3614 43.4735 12.5611 43.4735C11.7607 43.4735 11.1119 42.8699 11.1119 42.1254V1.34801Z" fill="url(#paint2_linear_2283_2903)"/>
<path d="M16.9073 9.58056C16.9073 8.82414 17.448 8.21094 18.1149 8.21094C18.7819 8.21094 19.3225 8.82414 19.3225 9.58056V33.8915C19.3225 34.6479 18.7819 35.2611 18.1149 35.2611C17.448 35.2611 16.9073 34.6479 16.9073 33.8915V9.58056Z" fill="url(#paint3_linear_2283_2903)"/>
<path d="M22.222 18.2407C22.222 17.5048 22.8708 16.9082 23.6712 16.9082C24.4715 16.9082 25.1203 17.5048 25.1203 18.2407V25.2365C25.1203 25.9724 24.4715 26.569 23.6712 26.569C22.8708 26.569 22.222 25.9724 22.222 25.2365V18.2407Z" fill="url(#paint4_linear_2283_2903)"/>
<path d="M28.0175 20.8066C28.0175 19.9857 28.6662 19.3203 29.4666 19.3203C30.2669 19.3203 30.9157 19.9857 30.9157 20.8066V22.6644C30.9157 23.4853 30.2669 24.1507 29.4666 24.1507C28.6662 24.1507 28.0175 23.4853 28.0175 22.6644V20.8066Z" fill="url(#paint5_linear_2283_2903)"/>
<path d="M33.8148 19.7792C33.8148 18.9929 34.3555 18.3555 35.0224 18.3555C35.6894 18.3555 36.23 18.9929 36.23 19.7792V23.6943C36.23 24.4806 35.6894 25.118 35.0224 25.118C34.3555 25.118 33.8148 24.4806 33.8148 23.6943V19.7792Z" fill="url(#paint6_linear_2283_2903)"/>
<path d="M39.1294 18.2407C39.1294 17.5048 39.6701 16.9082 40.337 16.9082C41.0039 16.9082 41.5446 17.5048 41.5446 18.2407V25.2365C41.5446 25.9724 41.0039 26.569 40.337 26.569C39.6701 26.569 39.1294 25.9724 39.1294 25.2365V18.2407Z" fill="url(#paint7_linear_2283_2903)"/>
<path d="M44.4462 18.2407C44.4462 17.5048 45.095 16.9082 45.8953 16.9082C46.6956 16.9082 47.3444 17.5048 47.3444 18.2407V25.2365C47.3444 25.9724 46.6956 26.569 45.8953 26.569C45.095 26.569 44.4462 25.9724 44.4462 25.2365V18.2407Z" fill="url(#paint8_linear_2283_2903)"/>
<path d="M50.2413 18.2407C50.2413 17.5048 50.782 16.9082 51.4489 16.9082C52.1159 16.9082 52.6565 17.5048 52.6565 18.2407V25.2365C52.6565 25.9724 52.1159 26.569 51.4489 26.569C50.782 26.569 50.2413 25.9724 50.2413 25.2365V18.2407Z" fill="url(#paint9_linear_2283_2903)"/>
<path d="M55.5516 1.34801C55.5516 0.603527 56.0923 0 56.7592 0C57.4262 0 57.9668 0.603527 57.9668 1.34801V42.1254C57.9668 42.8699 57.4262 43.4735 56.7592 43.4735C56.0923 43.4735 55.5516 42.8699 55.5516 42.1254V1.34801Z" fill="url(#paint10_linear_2283_2903)"/>
<path d="M60.8568 15.3798C60.8568 14.621 61.5056 14.0059 62.3059 14.0059C63.1063 14.0059 63.755 14.621 63.755 15.3798V28.0891C63.755 28.8479 63.1063 29.4631 62.3059 29.4631C61.5056 29.4631 60.8568 28.8479 60.8568 28.0891V15.3798Z" fill="url(#paint11_linear_2283_2903)"/>
<path d="M66.6547 4.75421C66.6547 3.99627 67.3035 3.38184 68.1038 3.38184C68.9041 3.38184 69.5529 3.99627 69.5529 4.75421V38.7204C69.5529 39.4783 68.9041 40.0928 68.1038 40.0928C67.3035 40.0928 66.6547 39.4783 66.6547 38.7204V4.75421Z" fill="url(#paint12_linear_2283_2903)"/>
<path d="M72.4543 1.34801C72.4543 0.603527 72.995 0 73.6619 0C74.3289 0 74.8695 0.603527 74.8695 1.34801V42.1254C74.8695 42.8699 74.3289 43.4735 73.6619 43.4735C72.995 43.4735 72.4543 42.8699 72.4543 42.1254V1.34801Z" fill="url(#paint13_linear_2283_2903)"/>
<path d="M77.7623 1.34801C77.7623 0.603527 78.4111 0 79.2114 0C80.0118 0 80.6606 0.603527 80.6606 1.34801V42.1254C80.6606 42.8699 80.0118 43.4735 79.2114 43.4735C78.4111 43.4735 77.7623 42.8699 77.7623 42.1254V1.34801Z" fill="url(#paint14_linear_2283_2903)"/>
<path d="M83.5582 3.78587C83.5582 3.0304 84.207 2.41797 85.0073 2.41797C85.8077 2.41797 86.4565 3.0304 86.4565 3.78587V39.6931C86.4565 40.4486 85.8077 41.061 85.0073 41.061C84.207 41.061 83.5582 40.4486 83.5582 39.6931V3.78587Z" fill="url(#paint15_linear_2283_2903)"/>
<path d="M89.3566 7.13726C89.3566 6.39591 89.8972 5.79492 90.5642 5.79492C91.2311 5.79492 91.7718 6.39591 91.7718 7.13726V36.3331C91.7718 37.0745 91.2311 37.6755 90.5642 37.6755C89.8972 37.6755 89.3566 37.0745 89.3566 36.3331V7.13726Z" fill="url(#paint16_linear_2283_2903)"/>
<path d="M94.6705 10.555C94.6705 9.79492 95.3193 9.17871 96.1197 9.17871C96.92 9.17871 97.5688 9.79491 97.5688 10.555V32.9204C97.5688 33.6805 96.92 34.2967 96.1197 34.2967C95.3193 34.2967 94.6705 33.6805 94.6705 32.9204V10.555Z" fill="url(#paint17_linear_2283_2903)"/>
<path d="M100.466 13.4301C100.466 12.6813 101.114 12.0742 101.915 12.0742C102.715 12.0742 103.364 12.6813 103.364 13.4301V30.0399C103.364 30.7887 102.715 31.3958 101.915 31.3958C101.114 31.3958 100.466 30.7887 100.466 30.0399V13.4301Z" fill="url(#paint18_linear_2283_2903)"/>
<path d="M106.261 15.3798C106.261 14.621 106.802 14.0059 107.469 14.0059C108.136 14.0059 108.676 14.621 108.676 15.3798V28.0891C108.676 28.8479 108.136 29.4631 107.469 29.4631C106.802 29.4631 106.261 28.8479 106.261 28.0891V15.3798Z" fill="url(#paint19_linear_2283_2903)"/>
<path d="M111.576 18.2407C111.576 17.5048 112.225 16.9082 113.025 16.9082C113.826 16.9082 114.474 17.5048 114.474 18.2407V25.2365C114.474 25.9724 113.826 26.569 113.025 26.569C112.225 26.569 111.576 25.9724 111.576 25.2365V18.2407Z" fill="url(#paint20_linear_2283_2903)"/>
<path d="M117.372 20.2037C117.372 19.4505 118.021 18.8398 118.821 18.8398C119.622 18.8398 120.27 19.4505 120.27 20.2037V23.2724C120.27 24.0257 119.622 24.6363 118.821 24.6363C118.021 24.6363 117.372 24.0257 117.372 23.2724V20.2037Z" fill="url(#paint21_linear_2283_2903)"/>
<path d="M123.168 20.2037C123.168 19.4505 123.708 18.8398 124.375 18.8398C125.042 18.8398 125.583 19.4505 125.583 20.2037V23.2724C125.583 24.0257 125.042 24.6363 124.375 24.6363C123.708 24.6363 123.168 24.0257 123.168 23.2724V20.2037Z" fill="url(#paint22_linear_2283_2903)"/>
<path d="M128.484 20.2037C128.484 19.4505 129.133 18.8398 129.933 18.8398C130.734 18.8398 131.383 19.4505 131.383 20.2037V23.2724C131.383 24.0257 130.734 24.6363 129.933 24.6363C129.133 24.6363 128.484 24.0257 128.484 23.2724V20.2037Z" fill="url(#paint23_linear_2283_2903)"/>
<path d="M134.28 20.2037C134.28 19.4505 134.929 18.8398 135.729 18.8398C136.529 18.8398 137.178 19.4505 137.178 20.2037V23.2724C137.178 24.0257 136.529 24.6363 135.729 24.6363C134.929 24.6363 134.28 24.0257 134.28 23.2724V20.2037Z" fill="url(#paint24_linear_2283_2903)"/>
<path d="M140.075 20.2037C140.075 19.4505 140.616 18.8398 141.283 18.8398C141.949 18.8398 142.49 19.4505 142.49 20.2037V23.2724C142.49 24.0257 141.949 24.6363 141.283 24.6363C140.616 24.6363 140.075 24.0257 140.075 23.2724V20.2037Z" fill="url(#paint25_linear_2283_2903)"/>
<defs>
<linearGradient id="paint0_linear_2283_2903" x1="1.22781" y1="29.6088" x2="-1.24035" y2="12.2256" gradientUnits="userSpaceOnUse">
<stop stop-color="#008C7D"/>
<stop offset="1" stop-color="#006A5E"/>
</linearGradient>
<linearGradient id="paint1_linear_2283_2903" x1="6.78921" y1="35.4084" x2="0.71604" y2="5.85597" gradientUnits="userSpaceOnUse">
<stop stop-color="#008C7D"/>
<stop offset="1" stop-color="#006A5E"/>
</linearGradient>
<linearGradient id="paint2_linear_2283_2903" x1="12.5856" y1="40.382" x2="1.67259" y2="1.43953" gradientUnits="userSpaceOnUse">
<stop stop-color="#008C7D"/>
<stop offset="1" stop-color="#006A5E"/>
</linearGradient>
<linearGradient id="paint3_linear_2283_2903" x1="18.1354" y1="33.3375" x2="12.8965" y2="8.29996" gradientUnits="userSpaceOnUse">
<stop stop-color="#008C7D"/>
<stop offset="1" stop-color="#006A5E"/>
</linearGradient>
<linearGradient id="paint4_linear_2283_2903" x1="23.6957" y1="25.882" x2="23.1167" y2="16.5846" gradientUnits="userSpaceOnUse">
<stop stop-color="#008C7D"/>
<stop offset="1" stop-color="#006A5E"/>
</linearGradient>
<linearGradient id="paint5_linear_2283_2903" x1="29.4911" y1="23.8072" x2="29.3459" y2="19.145" gradientUnits="userSpaceOnUse">
<stop stop-color="#008C7D"/>
<stop offset="1" stop-color="#006A5E"/>
</linearGradient>
<linearGradient id="paint6_linear_2283_2903" x1="35.0429" y1="24.6371" x2="34.702" y2="18.1215" gradientUnits="userSpaceOnUse">
<stop stop-color="#008C7D"/>
<stop offset="1" stop-color="#006A5E"/>
</linearGradient>
<linearGradient id="paint7_linear_2283_2903" x1="40.3574" y1="25.882" x2="39.6638" y2="16.6003" gradientUnits="userSpaceOnUse">
<stop stop-color="#008C7D"/>
<stop offset="1" stop-color="#006A5E"/>
</linearGradient>
<linearGradient id="paint8_linear_2283_2903" x1="45.9198" y1="25.882" x2="45.3408" y2="16.5846" gradientUnits="userSpaceOnUse">
<stop stop-color="#008C7D"/>
<stop offset="1" stop-color="#006A5E"/>
</linearGradient>
<linearGradient id="paint9_linear_2283_2903" x1="51.4694" y1="25.882" x2="50.7758" y2="16.6003" gradientUnits="userSpaceOnUse">
<stop stop-color="#008C7D"/>
<stop offset="1" stop-color="#006A5E"/>
</linearGradient>
<linearGradient id="paint10_linear_2283_2903" x1="56.7797" y1="40.382" x2="44.0906" y2="2.64843" gradientUnits="userSpaceOnUse">
<stop stop-color="#008C7D"/>
<stop offset="1" stop-color="#006A5E"/>
</linearGradient>
<linearGradient id="paint11_linear_2283_2903" x1="62.3305" y1="28.3639" x2="60.8571" y2="13.5771" gradientUnits="userSpaceOnUse">
<stop stop-color="#008C7D"/>
<stop offset="1" stop-color="#006A5E"/>
</linearGradient>
<linearGradient id="paint12_linear_2283_2903" x1="68.1283" y1="37.4822" x2="60.1804" y2="3.89579" gradientUnits="userSpaceOnUse">
<stop stop-color="#008C7D"/>
<stop offset="1" stop-color="#006A5E"/>
</linearGradient>
<linearGradient id="paint13_linear_2283_2903" x1="73.6824" y1="40.382" x2="60.9933" y2="2.64843" gradientUnits="userSpaceOnUse">
<stop stop-color="#008C7D"/>
<stop offset="1" stop-color="#006A5E"/>
</linearGradient>
<linearGradient id="paint14_linear_2283_2903" x1="79.236" y1="40.382" x2="68.323" y2="1.43953" gradientUnits="userSpaceOnUse">
<stop stop-color="#008C7D"/>
<stop offset="1" stop-color="#006A5E"/>
</linearGradient>
<linearGradient id="paint15_linear_2283_2903" x1="85.0319" y1="38.3131" x2="76.2754" y2="3.16036" gradientUnits="userSpaceOnUse">
<stop stop-color="#008C7D"/>
<stop offset="1" stop-color="#006A5E"/>
</linearGradient>
<linearGradient id="paint16_linear_2283_2903" x1="90.5846" y1="35.4084" x2="83.4245" y2="6.37364" gradientUnits="userSpaceOnUse">
<stop stop-color="#008C7D"/>
<stop offset="1" stop-color="#006A5E"/>
</linearGradient>
<linearGradient id="paint17_linear_2283_2903" x1="96.1442" y1="32.5106" x2="92.3154" y2="8.86341" gradientUnits="userSpaceOnUse">
<stop stop-color="#008C7D"/>
<stop offset="1" stop-color="#006A5E"/>
</linearGradient>
<linearGradient id="paint18_linear_2283_2903" x1="101.939" y1="30.0218" x2="99.6499" y2="11.64" gradientUnits="userSpaceOnUse">
<stop stop-color="#008C7D"/>
<stop offset="1" stop-color="#006A5E"/>
</linearGradient>
<linearGradient id="paint19_linear_2283_2903" x1="107.489" y1="28.3639" x2="105.729" y2="13.6408" gradientUnits="userSpaceOnUse">
<stop stop-color="#008C7D"/>
<stop offset="1" stop-color="#006A5E"/>
</linearGradient>
<linearGradient id="paint20_linear_2283_2903" x1="113.05" y1="25.882" x2="112.471" y2="16.5846" gradientUnits="userSpaceOnUse">
<stop stop-color="#008C7D"/>
<stop offset="1" stop-color="#006A5E"/>
</linearGradient>
<linearGradient id="paint21_linear_2283_2903" x1="118.846" y1="24.2241" x2="118.637" y2="18.6318" gradientUnits="userSpaceOnUse">
<stop stop-color="#008C7D"/>
<stop offset="1" stop-color="#006A5E"/>
</linearGradient>
<linearGradient id="paint22_linear_2283_2903" x1="124.396" y1="24.2241" x2="124.145" y2="18.6353" gradientUnits="userSpaceOnUse">
<stop stop-color="#008C7D"/>
<stop offset="1" stop-color="#006A5E"/>
</linearGradient>
<linearGradient id="paint23_linear_2283_2903" x1="129.958" y1="24.2241" x2="129.749" y2="18.6318" gradientUnits="userSpaceOnUse">
<stop stop-color="#008C7D"/>
<stop offset="1" stop-color="#006A5E"/>
</linearGradient>
<linearGradient id="paint24_linear_2283_2903" x1="135.753" y1="24.2241" x2="135.544" y2="18.6318" gradientUnits="userSpaceOnUse">
<stop stop-color="#008C7D"/>
<stop offset="1" stop-color="#006A5E"/>
</linearGradient>
<linearGradient id="paint25_linear_2283_2903" x1="141.303" y1="24.2241" x2="141.052" y2="18.6353" gradientUnits="userSpaceOnUse">
<stop stop-color="#008C7D"/>
<stop offset="1" stop-color="#006A5E"/>
</linearGradient>
</defs>
</svg>
