<svg width="223" height="74" viewBox="0 0 223 74" fill="none" xmlns="http://www.w3.org/2000/svg">
<path d="M6.43987 0.00999451L216 0.0136719C219.55 0.0136719 222.44 2.89367 222.44 6.45367V54.1737C222.44 57.7237 219.56 60.6137 216 60.6137H116.9C39.71 60.61 35.84 61.77 32.54 63.94L17.78 73.64C16.5 74.48 14.84 73.34 15.17 71.84L17.17 62.68C17.4 61.61 16.59 60.6 15.5 60.6H6.43987C2.88986 60.6 -0.000137329 57.72 -0.000137329 54.16V6.43999C-0.000137329 2.88999 2.87987 0 6.43987 0V0.00999451Z" fill="url(#paint0_linear_2946_422)"/>
<path d="M6.43994 0.509766H6.10791C2.97932 0.68224 0.499512 3.27717 0.499512 6.44043V54.1602C0.499603 57.4434 3.16563 60.0996 6.43994 60.0996H15.4995C16.9114 60.0996 17.9549 61.4072 17.6587 62.7852V62.7871L15.6587 71.9463V71.9473C15.4324 72.9758 16.5283 73.7659 17.4204 73.2734L17.5054 73.2217L32.2651 63.5225C34.0419 62.3541 35.9646 61.5223 46.9858 60.9619C58.0294 60.4004 78.3072 60.1114 116.9 60.1133H216C219.283 60.1133 221.94 57.4481 221.94 54.1738V6.4541C221.94 3.27339 219.438 0.680474 216.305 0.521484L216 0.513672L6.43994 0.509766Z" stroke="#008B7C" stroke-opacity="0.4"/>
<path d="M6 21.942C6 21.1769 6.54066 20.5566 7.2076 20.5566C7.87454 20.5566 8.4152 21.1769 8.4152 21.942V37.5268C8.4152 38.2919 7.87454 38.9121 7.2076 38.9121C6.54066 38.9121 6 38.2919 6 37.5268V21.942Z" fill="url(#paint1_linear_2946_422)"/>
<path d="M11.3157 15.1353C11.3157 14.394 11.9645 13.793 12.7648 13.793C13.5651 13.793 14.2139 14.394 14.2139 15.1353V44.3312C14.2139 45.0725 13.5651 45.6735 12.7648 45.6735C11.9645 45.6735 11.3157 45.0725 11.3157 44.3312V15.1353Z" fill="url(#paint2_linear_2946_422)"/>
<path d="M17.1121 9.34606C17.1121 8.60157 17.7609 7.99805 18.5612 7.99805C19.3615 7.99805 20.0103 8.60157 20.0103 9.34606V50.1235C20.0103 50.868 19.3615 51.4715 18.5612 51.4715C17.7609 51.4715 17.1121 50.868 17.1121 50.1235V9.34606Z" fill="url(#paint3_linear_2946_422)"/>
<path d="M22.9075 17.5786C22.9075 16.8222 23.4481 16.209 24.1151 16.209C24.782 16.209 25.3227 16.8222 25.3227 17.5786V41.8895C25.3227 42.6459 24.782 43.2591 24.1151 43.2591C23.4481 43.2591 22.9075 42.6459 22.9075 41.8895V17.5786Z" fill="url(#paint4_linear_2946_422)"/>
<path d="M28.2222 26.2388C28.2222 25.5028 28.871 24.9062 29.6713 24.9062C30.4716 24.9062 31.1204 25.5028 31.1204 26.2388V33.2345C31.1204 33.9704 30.4716 34.567 29.6713 34.567C28.871 34.567 28.2222 33.9704 28.2222 33.2345V26.2388Z" fill="url(#paint5_linear_2946_422)"/>
<path d="M34.0176 28.8066C34.0176 27.9857 34.6664 27.3203 35.4667 27.3203C36.267 27.3203 36.9158 27.9857 36.9158 28.8066V30.6644C36.9158 31.4853 36.267 32.1507 35.4667 32.1507C34.6664 32.1507 34.0176 31.4853 34.0176 30.6644V28.8066Z" fill="url(#paint6_linear_2946_422)"/>
<path d="M39.8149 27.7772C39.8149 26.9909 40.3556 26.3535 41.0225 26.3535C41.6895 26.3535 42.2301 26.9909 42.2301 27.7772V31.6924C42.2301 32.4786 41.6895 33.1161 41.0225 33.1161C40.3556 33.1161 39.8149 32.4786 39.8149 31.6924V27.7772Z" fill="url(#paint7_linear_2946_422)"/>
<path d="M45.1294 26.2388C45.1294 25.5028 45.6701 24.9062 46.337 24.9062C47.0039 24.9062 47.5446 25.5028 47.5446 26.2388V33.2345C47.5446 33.9704 47.0039 34.567 46.337 34.567C45.6701 34.567 45.1294 33.9704 45.1294 33.2345V26.2388Z" fill="url(#paint8_linear_2946_422)"/>
<path d="M50.4463 26.2388C50.4463 25.5028 51.0951 24.9062 51.8954 24.9062C52.6957 24.9062 53.3445 25.5028 53.3445 26.2388V33.2345C53.3445 33.9704 52.6957 34.567 51.8954 34.567C51.0951 34.567 50.4463 33.9704 50.4463 33.2345V26.2388Z" fill="url(#paint9_linear_2946_422)"/>
<path d="M56.2415 26.2388C56.2415 25.5028 56.7821 24.9062 57.4491 24.9062C58.116 24.9062 58.6567 25.5028 58.6567 26.2388V33.2345C58.6567 33.9704 58.116 34.567 57.4491 34.567C56.7821 34.567 56.2415 33.9704 56.2415 33.2345V26.2388Z" fill="url(#paint10_linear_2946_422)"/>
<path d="M61.5518 9.34606C61.5518 8.60157 62.0924 7.99805 62.7594 7.99805C63.4263 7.99805 63.967 8.60157 63.967 9.34606V50.1235C63.967 50.868 63.4263 51.4715 62.7594 51.4715C62.0924 51.4715 61.5518 50.868 61.5518 50.1235V9.34606Z" fill="url(#paint11_linear_2946_422)"/>
<path d="M66.8569 23.3779C66.8569 22.6191 67.5057 22.0039 68.3061 22.0039C69.1064 22.0039 69.7552 22.6191 69.7552 23.3779V36.0872C69.7552 36.846 69.1064 37.4611 68.3061 37.4611C67.5057 37.4611 66.8569 36.846 66.8569 36.0872V23.3779Z" fill="url(#paint12_linear_2946_422)"/>
<path d="M72.6548 12.7513C72.6548 11.9933 73.3036 11.3789 74.1039 11.3789C74.9042 11.3789 75.553 11.9933 75.553 12.7513V46.7175C75.553 47.4754 74.9042 48.0898 74.1039 48.0898C73.3036 48.0898 72.6548 47.4754 72.6548 46.7175V12.7513Z" fill="url(#paint13_linear_2946_422)"/>
<path d="M78.4546 9.34606C78.4546 8.60157 78.9953 7.99805 79.6622 7.99805C80.3291 7.99805 80.8698 8.60157 80.8698 9.34606V50.1235C80.8698 50.868 80.3291 51.4715 79.6622 51.4715C78.9953 51.4715 78.4546 50.868 78.4546 50.1235V9.34606Z" fill="url(#paint14_linear_2946_422)"/>
<path d="M83.7625 9.34606C83.7625 8.60157 84.4112 7.99805 85.2116 7.99805C86.0119 7.99805 86.6607 8.60157 86.6607 9.34606V50.1235C86.6607 50.868 86.0119 51.4715 85.2116 51.4715C84.4112 51.4715 83.7625 50.868 83.7625 50.1235V9.34606Z" fill="url(#paint15_linear_2946_422)"/>
<path d="M89.5583 11.7839C89.5583 11.0284 90.2071 10.416 91.0075 10.416C91.8078 10.416 92.4566 11.0284 92.4566 11.7839V47.6912C92.4566 48.4467 91.8078 49.0591 91.0075 49.0591C90.2071 49.0591 89.5583 48.4467 89.5583 47.6912V11.7839Z" fill="url(#paint16_linear_2946_422)"/>
<path d="M95.3567 15.1353C95.3567 14.394 95.8973 13.793 96.5643 13.793C97.2312 13.793 97.7719 14.394 97.7719 15.1353V44.3312C97.7719 45.0725 97.2312 45.6735 96.5643 45.6735C95.8973 45.6735 95.3567 45.0725 95.3567 44.3312V15.1353Z" fill="url(#paint17_linear_2946_422)"/>
<path d="M100.671 18.5521C100.671 17.792 101.319 17.1758 102.12 17.1758C102.92 17.1758 103.569 17.792 103.569 18.5521V40.9175C103.569 41.6776 102.92 42.2938 102.12 42.2938C101.319 42.2938 100.671 41.6776 100.671 40.9175V18.5521Z" fill="url(#paint18_linear_2946_422)"/>
<path d="M106.466 21.4282C106.466 20.6793 107.115 20.0723 107.915 20.0723C108.715 20.0723 109.364 20.6793 109.364 21.4282V38.0379C109.364 38.7867 108.715 39.3938 107.915 39.3938C107.115 39.3938 106.466 38.7867 106.466 38.0379V21.4282Z" fill="url(#paint19_linear_2946_422)"/>
<path d="M112.261 23.3779C112.261 22.6191 112.802 22.0039 113.469 22.0039C114.136 22.0039 114.676 22.6191 114.676 23.3779V36.0872C114.676 36.846 114.136 37.4611 113.469 37.4611C112.802 37.4611 112.261 36.846 112.261 36.0872V23.3779Z" fill="url(#paint20_linear_2946_422)"/>
<path d="M117.576 26.2388C117.576 25.5028 118.225 24.9062 119.026 24.9062C119.826 24.9062 120.475 25.5028 120.475 26.2388V33.2345C120.475 33.9704 119.826 34.567 119.026 34.567C118.225 34.567 117.576 33.9704 117.576 33.2345V26.2388Z" fill="url(#paint21_linear_2946_422)"/>
<path d="M123.372 28.2018C123.372 27.4485 124.021 26.8379 124.821 26.8379C125.622 26.8379 126.271 27.4485 126.271 28.2018V31.2705C126.271 32.0237 125.622 32.6344 124.821 32.6344C124.021 32.6344 123.372 32.0237 123.372 31.2705V28.2018Z" fill="url(#paint22_linear_2946_422)"/>
<path d="M129.168 28.2018C129.168 27.4485 129.708 26.8379 130.375 26.8379C131.042 26.8379 131.583 27.4485 131.583 28.2018V31.2705C131.583 32.0237 131.042 32.6344 130.375 32.6344C129.708 32.6344 129.168 32.0237 129.168 31.2705V28.2018Z" fill="url(#paint23_linear_2946_422)"/>
<path d="M134.484 28.2018C134.484 27.4485 135.133 26.8379 135.933 26.8379C136.734 26.8379 137.383 27.4485 137.383 28.2018V31.2705C137.383 32.0237 136.734 32.6344 135.933 32.6344C135.133 32.6344 134.484 32.0237 134.484 31.2705V28.2018Z" fill="url(#paint24_linear_2946_422)"/>
<path d="M140.28 28.2018C140.28 27.4485 140.929 26.8379 141.729 26.8379C142.529 26.8379 143.178 27.4485 143.178 28.2018V31.2705C143.178 32.0237 142.529 32.6344 141.729 32.6344C140.929 32.6344 140.28 32.0237 140.28 31.2705V28.2018Z" fill="url(#paint25_linear_2946_422)"/>
<path d="M146.075 28.2018C146.075 27.4485 146.616 26.8379 147.283 26.8379C147.949 26.8379 148.49 27.4485 148.49 28.2018V31.2705C148.49 32.0237 147.949 32.6344 147.283 32.6344C146.616 32.6344 146.075 32.0237 146.075 31.2705V28.2018Z" fill="url(#paint26_linear_2946_422)"/>
<path d="M151.392 9.34606C151.392 8.60157 152.041 7.99805 152.841 7.99805C153.641 7.99805 154.29 8.60157 154.29 9.34606V50.1235C154.29 50.868 153.641 51.4715 152.841 51.4715C152.041 51.4715 151.392 50.868 151.392 50.1235V9.34606Z" fill="url(#paint27_linear_2946_422)"/>
<path d="M157.188 12.2523C157.188 11.5024 157.836 10.8945 158.637 10.8945C159.437 10.8945 160.086 11.5024 160.086 12.2523V47.2138C160.086 47.9637 159.437 48.5715 158.637 48.5715C157.836 48.5715 157.188 47.9637 157.188 47.2138V12.2523Z" fill="url(#paint28_linear_2946_422)"/>
<path d="M162.983 12.2523C162.983 11.5024 163.524 10.8945 164.191 10.8945C164.858 10.8945 165.398 11.5024 165.398 12.2523V47.2138C165.398 47.9637 164.858 48.5715 164.191 48.5715C163.524 48.5715 162.983 47.9637 162.983 47.2138V12.2523Z" fill="url(#paint29_linear_2946_422)"/>
<path d="M168.299 15.1353C168.299 14.394 168.84 13.793 169.507 13.793C170.174 13.793 170.715 14.394 170.715 15.1353V44.3312C170.715 45.0725 170.174 45.6735 169.507 45.6735C168.84 45.6735 168.299 45.0725 168.299 44.3312V15.1353Z" fill="url(#paint30_linear_2946_422)"/>
<path d="M173.616 17.0767C173.616 16.3311 174.265 15.7266 175.065 15.7266C175.866 15.7266 176.514 16.3311 176.514 17.0767V42.3926C176.514 43.1383 175.866 43.7428 175.065 43.7428C174.265 43.7428 173.616 43.1383 173.616 42.3926V17.0767Z" fill="url(#paint31_linear_2946_422)"/>
<path d="M179.412 17.0767C179.412 16.3311 179.952 15.7266 180.619 15.7266C181.286 15.7266 181.827 16.3311 181.827 17.0767V42.3926C181.827 43.1383 181.286 43.7428 180.619 43.7428C179.952 43.7428 179.412 43.1383 179.412 42.3926V17.0767Z" fill="url(#paint32_linear_2946_422)"/>
<path d="M184.727 17.0767C184.727 16.3311 185.268 15.7266 185.935 15.7266C186.602 15.7266 187.142 16.3311 187.142 17.0767V42.3926C187.142 43.1383 186.602 43.7428 185.935 43.7428C185.268 43.7428 184.727 43.1383 184.727 42.3926V17.0767Z" fill="url(#paint33_linear_2946_422)"/>
<path d="M190.042 26.7779C190.042 26.0096 190.691 25.3867 191.492 25.3867C192.292 25.3867 192.941 26.0096 192.941 26.7779V32.6903C192.941 33.4586 192.292 34.0814 191.492 34.0814C190.691 34.0814 190.042 33.4586 190.042 32.6903V26.7779Z" fill="url(#paint34_linear_2946_422)"/>
<path d="M195.838 24.2922C195.838 23.5634 196.487 22.9727 197.287 22.9727C198.088 22.9727 198.736 23.5634 198.736 24.2922V35.1782C198.736 35.907 198.088 36.4977 197.287 36.4977C196.487 36.4977 195.838 35.907 195.838 35.1782V24.2922Z" fill="url(#paint35_linear_2946_422)"/>
<path d="M201.634 19.0208C201.634 18.2693 202.174 17.6602 202.841 17.6602C203.508 17.6602 204.049 18.2693 204.049 19.0208V40.4514C204.049 41.2029 203.508 41.8121 202.841 41.8121C202.174 41.8121 201.634 41.2029 201.634 40.4514V19.0208Z" fill="url(#paint36_linear_2946_422)"/>
<path d="M206.947 19.0208C206.947 18.2693 207.595 17.6602 208.396 17.6602C209.196 17.6602 209.845 18.2693 209.845 19.0208V40.4514C209.845 41.2029 209.196 41.8121 208.396 41.8121C207.595 41.8121 206.947 41.2029 206.947 40.4514V19.0208Z" fill="url(#paint37_linear_2946_422)"/>
<path d="M212.744 19.0208C212.744 18.2693 213.393 17.6602 214.193 17.6602C214.994 17.6602 215.642 18.2693 215.642 19.0208V40.4514C215.642 41.2029 214.994 41.8121 214.193 41.8121C213.393 41.8121 212.744 41.2029 212.744 40.4514V19.0208Z" fill="url(#paint38_linear_2946_422)"/>
<defs>
<linearGradient id="paint0_linear_2946_422" x1="117.55" y1="73.92" x2="117.55" y2="0.010009" gradientUnits="userSpaceOnUse">
<stop stop-color="white" stop-opacity="0.9"/>
<stop offset="1" stop-color="white"/>
</linearGradient>
<linearGradient id="paint1_linear_2946_422" x1="7.22805" y1="37.6068" x2="4.7599" y2="20.2236" gradientUnits="userSpaceOnUse">
<stop stop-color="#008C7D"/>
<stop offset="1" stop-color="#006A5E"/>
</linearGradient>
<linearGradient id="paint2_linear_2946_422" x1="12.7893" y1="43.4065" x2="6.71616" y2="13.854" gradientUnits="userSpaceOnUse">
<stop stop-color="#008C7D"/>
<stop offset="1" stop-color="#006A5E"/>
</linearGradient>
<linearGradient id="paint3_linear_2946_422" x1="18.5857" y1="48.3801" x2="7.67271" y2="9.43758" gradientUnits="userSpaceOnUse">
<stop stop-color="#008C7D"/>
<stop offset="1" stop-color="#006A5E"/>
</linearGradient>
<linearGradient id="paint4_linear_2946_422" x1="24.1355" y1="41.3356" x2="18.8966" y2="16.298" gradientUnits="userSpaceOnUse">
<stop stop-color="#008C7D"/>
<stop offset="1" stop-color="#006A5E"/>
</linearGradient>
<linearGradient id="paint5_linear_2946_422" x1="29.6958" y1="33.88" x2="29.1168" y2="24.5826" gradientUnits="userSpaceOnUse">
<stop stop-color="#008C7D"/>
<stop offset="1" stop-color="#006A5E"/>
</linearGradient>
<linearGradient id="paint6_linear_2946_422" x1="35.4912" y1="31.8072" x2="35.3461" y2="27.145" gradientUnits="userSpaceOnUse">
<stop stop-color="#008C7D"/>
<stop offset="1" stop-color="#006A5E"/>
</linearGradient>
<linearGradient id="paint7_linear_2946_422" x1="41.043" y1="32.6352" x2="40.7022" y2="26.1196" gradientUnits="userSpaceOnUse">
<stop stop-color="#008C7D"/>
<stop offset="1" stop-color="#006A5E"/>
</linearGradient>
<linearGradient id="paint8_linear_2946_422" x1="46.3574" y1="33.88" x2="45.6638" y2="24.5984" gradientUnits="userSpaceOnUse">
<stop stop-color="#008C7D"/>
<stop offset="1" stop-color="#006A5E"/>
</linearGradient>
<linearGradient id="paint9_linear_2946_422" x1="51.9199" y1="33.88" x2="51.341" y2="24.5826" gradientUnits="userSpaceOnUse">
<stop stop-color="#008C7D"/>
<stop offset="1" stop-color="#006A5E"/>
</linearGradient>
<linearGradient id="paint10_linear_2946_422" x1="57.4695" y1="33.88" x2="56.7759" y2="24.5984" gradientUnits="userSpaceOnUse">
<stop stop-color="#008C7D"/>
<stop offset="1" stop-color="#006A5E"/>
</linearGradient>
<linearGradient id="paint11_linear_2946_422" x1="62.7798" y1="48.3801" x2="50.0907" y2="10.6465" gradientUnits="userSpaceOnUse">
<stop stop-color="#008C7D"/>
<stop offset="1" stop-color="#006A5E"/>
</linearGradient>
<linearGradient id="paint12_linear_2946_422" x1="68.3306" y1="36.362" x2="66.8573" y2="21.5752" gradientUnits="userSpaceOnUse">
<stop stop-color="#008C7D"/>
<stop offset="1" stop-color="#006A5E"/>
</linearGradient>
<linearGradient id="paint13_linear_2946_422" x1="74.1284" y1="45.4793" x2="66.1805" y2="11.8929" gradientUnits="userSpaceOnUse">
<stop stop-color="#008C7D"/>
<stop offset="1" stop-color="#006A5E"/>
</linearGradient>
<linearGradient id="paint14_linear_2946_422" x1="79.6826" y1="48.3801" x2="66.9936" y2="10.6465" gradientUnits="userSpaceOnUse">
<stop stop-color="#008C7D"/>
<stop offset="1" stop-color="#006A5E"/>
</linearGradient>
<linearGradient id="paint15_linear_2946_422" x1="85.2361" y1="48.3801" x2="74.3231" y2="9.43758" gradientUnits="userSpaceOnUse">
<stop stop-color="#008C7D"/>
<stop offset="1" stop-color="#006A5E"/>
</linearGradient>
<linearGradient id="paint16_linear_2946_422" x1="91.032" y1="46.3112" x2="82.2756" y2="11.1584" gradientUnits="userSpaceOnUse">
<stop stop-color="#008C7D"/>
<stop offset="1" stop-color="#006A5E"/>
</linearGradient>
<linearGradient id="paint17_linear_2946_422" x1="96.5847" y1="43.4065" x2="89.4246" y2="14.3717" gradientUnits="userSpaceOnUse">
<stop stop-color="#008C7D"/>
<stop offset="1" stop-color="#006A5E"/>
</linearGradient>
<linearGradient id="paint18_linear_2946_422" x1="102.144" y1="40.5076" x2="98.3155" y2="16.8605" gradientUnits="userSpaceOnUse">
<stop stop-color="#008C7D"/>
<stop offset="1" stop-color="#006A5E"/>
</linearGradient>
<linearGradient id="paint19_linear_2946_422" x1="107.939" y1="38.0198" x2="105.65" y2="19.638" gradientUnits="userSpaceOnUse">
<stop stop-color="#008C7D"/>
<stop offset="1" stop-color="#006A5E"/>
</linearGradient>
<linearGradient id="paint20_linear_2946_422" x1="113.489" y1="36.362" x2="111.729" y2="21.6389" gradientUnits="userSpaceOnUse">
<stop stop-color="#008C7D"/>
<stop offset="1" stop-color="#006A5E"/>
</linearGradient>
<linearGradient id="paint21_linear_2946_422" x1="119.05" y1="33.88" x2="118.471" y2="24.5826" gradientUnits="userSpaceOnUse">
<stop stop-color="#008C7D"/>
<stop offset="1" stop-color="#006A5E"/>
</linearGradient>
<linearGradient id="paint22_linear_2946_422" x1="124.846" y1="32.2222" x2="124.637" y2="26.6299" gradientUnits="userSpaceOnUse">
<stop stop-color="#008C7D"/>
<stop offset="1" stop-color="#006A5E"/>
</linearGradient>
<linearGradient id="paint23_linear_2946_422" x1="130.396" y1="32.2222" x2="130.145" y2="26.6333" gradientUnits="userSpaceOnUse">
<stop stop-color="#008C7D"/>
<stop offset="1" stop-color="#006A5E"/>
</linearGradient>
<linearGradient id="paint24_linear_2946_422" x1="135.958" y1="32.2222" x2="135.749" y2="26.6299" gradientUnits="userSpaceOnUse">
<stop stop-color="#008C7D"/>
<stop offset="1" stop-color="#006A5E"/>
</linearGradient>
<linearGradient id="paint25_linear_2946_422" x1="141.753" y1="32.2222" x2="141.544" y2="26.6299" gradientUnits="userSpaceOnUse">
<stop stop-color="#008C7D"/>
<stop offset="1" stop-color="#006A5E"/>
</linearGradient>
<linearGradient id="paint26_linear_2946_422" x1="147.303" y1="32.2222" x2="147.052" y2="26.6333" gradientUnits="userSpaceOnUse">
<stop stop-color="#008C7D"/>
<stop offset="1" stop-color="#006A5E"/>
</linearGradient>
<linearGradient id="paint27_linear_2946_422" x1="152.866" y1="48.3801" x2="141.952" y2="9.43758" gradientUnits="userSpaceOnUse">
<stop stop-color="#008C7D"/>
<stop offset="1" stop-color="#006A5E"/>
</linearGradient>
<linearGradient id="paint28_linear_2946_422" x1="158.661" y1="45.8923" x2="150.313" y2="11.5192" gradientUnits="userSpaceOnUse">
<stop stop-color="#008C7D"/>
<stop offset="1" stop-color="#006A5E"/>
</linearGradient>
<linearGradient id="paint29_linear_2946_422" x1="164.211" y1="45.8923" x2="154.433" y2="12.3415" gradientUnits="userSpaceOnUse">
<stop stop-color="#008C7D"/>
<stop offset="1" stop-color="#006A5E"/>
</linearGradient>
<linearGradient id="paint30_linear_2946_422" x1="169.527" y1="43.4065" x2="162.367" y2="14.3717" gradientUnits="userSpaceOnUse">
<stop stop-color="#008C7D"/>
<stop offset="1" stop-color="#006A5E"/>
</linearGradient>
<linearGradient id="paint31_linear_2946_422" x1="175.09" y1="41.7505" x2="170.356" y2="15.5383" gradientUnits="userSpaceOnUse">
<stop stop-color="#008C7D"/>
<stop offset="1" stop-color="#006A5E"/>
</linearGradient>
<linearGradient id="paint32_linear_2946_422" x1="180.64" y1="41.7505" x2="175.037" y2="15.8976" gradientUnits="userSpaceOnUse">
<stop stop-color="#008C7D"/>
<stop offset="1" stop-color="#006A5E"/>
</linearGradient>
<linearGradient id="paint33_linear_2946_422" x1="185.955" y1="41.7505" x2="180.353" y2="15.8976" gradientUnits="userSpaceOnUse">
<stop stop-color="#008C7D"/>
<stop offset="1" stop-color="#006A5E"/>
</linearGradient>
<linearGradient id="paint34_linear_2946_422" x1="191.516" y1="33.4631" x2="191.047" y2="25.0893" gradientUnits="userSpaceOnUse">
<stop stop-color="#008C7D"/>
<stop offset="1" stop-color="#006A5E"/>
</linearGradient>
<linearGradient id="paint35_linear_2946_422" x1="197.312" y1="35.536" x2="196.181" y2="22.5676" gradientUnits="userSpaceOnUse">
<stop stop-color="#008C7D"/>
<stop offset="1" stop-color="#006A5E"/>
</linearGradient>
<linearGradient id="paint36_linear_2946_422" x1="202.862" y1="40.0946" x2="198.649" y2="17.5478" gradientUnits="userSpaceOnUse">
<stop stop-color="#008C7D"/>
<stop offset="1" stop-color="#006A5E"/>
</linearGradient>
<linearGradient id="paint37_linear_2946_422" x1="208.42" y1="40.0946" x2="204.873" y2="17.3131" gradientUnits="userSpaceOnUse">
<stop stop-color="#008C7D"/>
<stop offset="1" stop-color="#006A5E"/>
</linearGradient>
<linearGradient id="paint38_linear_2946_422" x1="214.218" y1="40.0946" x2="210.671" y2="17.3131" gradientUnits="userSpaceOnUse">
<stop stop-color="#008C7D"/>
<stop offset="1" stop-color="#006A5E"/>
</linearGradient>
</defs>
</svg>
